<?xml version="1.0" encoding="UTF-8" standalone="no"?><svg xmlns="http://www.w3.org/2000/svg" xmlns:xlink="http://www.w3.org/1999/xlink" contentStyleType="text/css" height="998px" preserveAspectRatio="none" style="width:1236px;height:998px;background:#FFFFFF;" version="1.1" viewBox="0 0 1236 998" width="1236px" zoomAndPan="magnify"><defs/><g><!--MD5=[bb0098c3e34d5c26d7279c3951f45627]
class ConsoleGUI--><g id="elem_ConsoleGUI"><rect codeLine="25" fill="#F1F1F1" height="48" id="ConsoleGUI" rx="2.5" ry="2.5" style="stroke:#181818;stroke-width:0.5;" width="113" x="1095.5" y="402"/><ellipse cx="1110.5" cy="418" fill="#ADD1B2" rx="11" ry="11" style="stroke:#181818;stroke-width:1.0;"/><path d="M1112.8438,413.6719 C1111.9063,413.2344 1111.3125,413.0938 1110.4375,413.0938 C1107.8125,413.0938 1105.8125,415.1719 1105.8125,417.8906 L1105.8125,419.0156 C1105.8125,421.5938 1107.9219,423.4844 1110.8125,423.4844 C1112.0313,423.4844 1113.1875,423.1875 1113.9375,422.6406 C1114.5156,422.2344 1114.8438,421.7813 1114.8438,421.3906 C1114.8438,420.9375 1114.4531,420.5469 1113.9844,420.5469 C1113.7656,420.5469 1113.5625,420.625 1113.375,420.8125 C1112.9219,421.2969 1112.9219,421.2969 1112.7344,421.3906 C1112.3125,421.6563 1111.625,421.7813 1110.8594,421.7813 C1108.8125,421.7813 1107.5156,420.6875 1107.5156,418.9844 L1107.5156,417.8906 C1107.5156,416.1094 1108.7656,414.7969 1110.5,414.7969 C1111.0781,414.7969 1111.6875,414.9531 1112.1563,415.2031 C1112.6406,415.4844 1112.8125,415.7031 1112.9063,416.1094 C1112.9688,416.5156 1113,416.6406 1113.1406,416.7656 C1113.2813,416.9063 1113.5156,417.0156 1113.7344,417.0156 C1114,417.0156 1114.2656,416.875 1114.4375,416.6563 C1114.5469,416.5 1114.5781,416.3125 1114.5781,415.8906 L1114.5781,414.4688 C1114.5781,414.0313 1114.5625,413.9063 1114.4688,413.75 C1114.3125,413.4844 1114.0313,413.3438 1113.7344,413.3438 C1113.4375,413.3438 1113.2344,413.4375 1113.0156,413.75 L1112.8438,413.6719 Z " fill="#000000"/><text fill="#000000" font-family="sans-serif" font-size="14" lengthAdjust="spacing" textLength="81" x="1124.5" y="422.8467">ConsoleGUI</text><line style="stroke:#181818;stroke-width:0.5;" x1="1096.5" x2="1207.5" y1="434" y2="434"/><line style="stroke:#181818;stroke-width:0.5;" x1="1096.5" x2="1207.5" y1="442" y2="442"/></g><!--MD5=[ba3e1c2e0974ce3751c5a046599f5ee5]
class ExternalGUI--><g id="elem_ExternalGUI"><rect codeLine="26" fill="#F1F1F1" height="48" id="ExternalGUI" rx="2.5" ry="2.5" style="stroke:#181818;stroke-width:0.5;" width="116" x="944" y="402"/><ellipse cx="959" cy="418" fill="#ADD1B2" rx="11" ry="11" style="stroke:#181818;stroke-width:1.0;"/><path d="M961.3438,413.6719 C960.4063,413.2344 959.8125,413.0938 958.9375,413.0938 C956.3125,413.0938 954.3125,415.1719 954.3125,417.8906 L954.3125,419.0156 C954.3125,421.5938 956.4219,423.4844 959.3125,423.4844 C960.5313,423.4844 961.6875,423.1875 962.4375,422.6406 C963.0156,422.2344 963.3438,421.7813 963.3438,421.3906 C963.3438,420.9375 962.9531,420.5469 962.4844,420.5469 C962.2656,420.5469 962.0625,420.625 961.875,420.8125 C961.4219,421.2969 961.4219,421.2969 961.2344,421.3906 C960.8125,421.6563 960.125,421.7813 959.3594,421.7813 C957.3125,421.7813 956.0156,420.6875 956.0156,418.9844 L956.0156,417.8906 C956.0156,416.1094 957.2656,414.7969 959,414.7969 C959.5781,414.7969 960.1875,414.9531 960.6563,415.2031 C961.1406,415.4844 961.3125,415.7031 961.4063,416.1094 C961.4688,416.5156 961.5,416.6406 961.6406,416.7656 C961.7813,416.9063 962.0156,417.0156 962.2344,417.0156 C962.5,417.0156 962.7656,416.875 962.9375,416.6563 C963.0469,416.5 963.0781,416.3125 963.0781,415.8906 L963.0781,414.4688 C963.0781,414.0313 963.0625,413.9063 962.9688,413.75 C962.8125,413.4844 962.5313,413.3438 962.2344,413.3438 C961.9375,413.3438 961.7344,413.4375 961.5156,413.75 L961.3438,413.6719 Z " fill="#000000"/><text fill="#000000" font-family="sans-serif" font-size="14" lengthAdjust="spacing" textLength="84" x="973" y="422.8467">ExternalGUI</text><line style="stroke:#181818;stroke-width:0.5;" x1="945" x2="1059" y1="434" y2="434"/><line style="stroke:#181818;stroke-width:0.5;" x1="945" x2="1059" y1="442" y2="442"/></g><!--MD5=[5b82786680b87d20dfa905879bfe7a83]
class ConsolePlayer--><g id="elem_ConsolePlayer"><rect codeLine="30" fill="#F1F1F1" height="48" id="ConsolePlayer" rx="2.5" ry="2.5" style="stroke:#181818;stroke-width:0.5;" width="133" x="156.5" y="402"/><ellipse cx="171.5" cy="418" fill="#ADD1B2" rx="11" ry="11" style="stroke:#181818;stroke-width:1.0;"/><path d="M173.8438,413.6719 C172.9063,413.2344 172.3125,413.0938 171.4375,413.0938 C168.8125,413.0938 166.8125,415.1719 166.8125,417.8906 L166.8125,419.0156 C166.8125,421.5938 168.9219,423.4844 171.8125,423.4844 C173.0313,423.4844 174.1875,423.1875 174.9375,422.6406 C175.5156,422.2344 175.8438,421.7813 175.8438,421.3906 C175.8438,420.9375 175.4531,420.5469 174.9844,420.5469 C174.7656,420.5469 174.5625,420.625 174.375,420.8125 C173.9219,421.2969 173.9219,421.2969 173.7344,421.3906 C173.3125,421.6563 172.625,421.7813 171.8594,421.7813 C169.8125,421.7813 168.5156,420.6875 168.5156,418.9844 L168.5156,417.8906 C168.5156,416.1094 169.7656,414.7969 171.5,414.7969 C172.0781,414.7969 172.6875,414.9531 173.1563,415.2031 C173.6406,415.4844 173.8125,415.7031 173.9063,416.1094 C173.9688,416.5156 174,416.6406 174.1406,416.7656 C174.2813,416.9063 174.5156,417.0156 174.7344,417.0156 C175,417.0156 175.2656,416.875 175.4375,416.6563 C175.5469,416.5 175.5781,416.3125 175.5781,415.8906 L175.5781,414.4688 C175.5781,414.0313 175.5625,413.9063 175.4688,413.75 C175.3125,413.4844 175.0313,413.3438 174.7344,413.3438 C174.4375,413.3438 174.2344,413.4375 174.0156,413.75 L173.8438,413.6719 Z " fill="#000000"/><text fill="#000000" font-family="sans-serif" font-size="14" lengthAdjust="spacing" textLength="101" x="185.5" y="422.8467">ConsolePlayer</text><line style="stroke:#181818;stroke-width:0.5;" x1="157.5" x2="288.5" y1="434" y2="434"/><line style="stroke:#181818;stroke-width:0.5;" x1="157.5" x2="288.5" y1="442" y2="442"/></g><!--MD5=[174b845aece9e2b8fe56c79fce093b97]
class BotPlayer--><g id="elem_BotPlayer"><rect codeLine="31" fill="#F1F1F1" height="48" id="BotPlayer" rx="2.5" ry="2.5" style="stroke:#181818;stroke-width:0.5;" width="102" x="19" y="402"/><ellipse cx="34" cy="418" fill="#ADD1B2" rx="11" ry="11" style="stroke:#181818;stroke-width:1.0;"/><path d="M36.3438,413.6719 C35.4063,413.2344 34.8125,413.0938 33.9375,413.0938 C31.3125,413.0938 29.3125,415.1719 29.3125,417.8906 L29.3125,419.0156 C29.3125,421.5938 31.4219,423.4844 34.3125,423.4844 C35.5313,423.4844 36.6875,423.1875 37.4375,422.6406 C38.0156,422.2344 38.3438,421.7813 38.3438,421.3906 C38.3438,420.9375 37.9531,420.5469 37.4844,420.5469 C37.2656,420.5469 37.0625,420.625 36.875,420.8125 C36.4219,421.2969 36.4219,421.2969 36.2344,421.3906 C35.8125,421.6563 35.125,421.7813 34.3594,421.7813 C32.3125,421.7813 31.0156,420.6875 31.0156,418.9844 L31.0156,417.8906 C31.0156,416.1094 32.2656,414.7969 34,414.7969 C34.5781,414.7969 35.1875,414.9531 35.6563,415.2031 C36.1406,415.4844 36.3125,415.7031 36.4063,416.1094 C36.4688,416.5156 36.5,416.6406 36.6406,416.7656 C36.7813,416.9063 37.0156,417.0156 37.2344,417.0156 C37.5,417.0156 37.7656,416.875 37.9375,416.6563 C38.0469,416.5 38.0781,416.3125 38.0781,415.8906 L38.0781,414.4688 C38.0781,414.0313 38.0625,413.9063 37.9688,413.75 C37.8125,413.4844 37.5313,413.3438 37.2344,413.3438 C36.9375,413.3438 36.7344,413.4375 36.5156,413.75 L36.3438,413.6719 Z " fill="#000000"/><text fill="#000000" font-family="sans-serif" font-size="14" lengthAdjust="spacing" textLength="70" x="48" y="422.8467">BotPlayer</text><line style="stroke:#181818;stroke-width:0.5;" x1="20" x2="120" y1="434" y2="434"/><line style="stroke:#181818;stroke-width:0.5;" x1="20" x2="120" y1="442" y2="442"/></g><!--MD5=[fea3dc74c7473bae0133d22265a91e2f]
class Cell--><g id="elem_Cell"><rect codeLine="44" fill="#F1F1F1" height="194.6719" id="Cell" rx="2.5" ry="2.5" style="stroke:#181818;stroke-width:0.5;" width="184" x="208" y="797"/><ellipse cx="282.25" cy="813" fill="#ADD1B2" rx="11" ry="11" style="stroke:#181818;stroke-width:1.0;"/><path d="M284.5938,808.6719 C283.6563,808.2344 283.0625,808.0938 282.1875,808.0938 C279.5625,808.0938 277.5625,810.1719 277.5625,812.8906 L277.5625,814.0156 C277.5625,816.5938 279.6719,818.4844 282.5625,818.4844 C283.7813,818.4844 284.9375,818.1875 285.6875,817.6406 C286.2656,817.2344 286.5938,816.7813 286.5938,816.3906 C286.5938,815.9375 286.2031,815.5469 285.7344,815.5469 C285.5156,815.5469 285.3125,815.625 285.125,815.8125 C284.6719,816.2969 284.6719,816.2969 284.4844,816.3906 C284.0625,816.6563 283.375,816.7813 282.6094,816.7813 C280.5625,816.7813 279.2656,815.6875 279.2656,813.9844 L279.2656,812.8906 C279.2656,811.1094 280.5156,809.7969 282.25,809.7969 C282.8281,809.7969 283.4375,809.9531 283.9063,810.2031 C284.3906,810.4844 284.5625,810.7031 284.6563,811.1094 C284.7188,811.5156 284.75,811.6406 284.8906,811.7656 C285.0313,811.9063 285.2656,812.0156 285.4844,812.0156 C285.75,812.0156 286.0156,811.875 286.1875,811.6563 C286.2969,811.5 286.3281,811.3125 286.3281,810.8906 L286.3281,809.4688 C286.3281,809.0313 286.3125,808.9063 286.2188,808.75 C286.0625,808.4844 285.7813,808.3438 285.4844,808.3438 C285.1875,808.3438 284.9844,808.4375 284.7656,808.75 L284.5938,808.6719 Z " fill="#000000"/><text fill="#000000" font-family="sans-serif" font-size="14" lengthAdjust="spacing" textLength="27" x="302.75" y="817.8467">Cell</text><line style="stroke:#181818;stroke-width:0.5;" x1="209" x2="391" y1="829" y2="829"/><text fill="#000000" font-family="sans-serif" font-size="14" lengthAdjust="spacing" textLength="96" x="214" y="845.9951">enum States:</text><text fill="#000000" font-family="sans-serif" font-size="14" lengthAdjust="spacing" textLength="135" x="214" y="862.292">sea, deadSea, ship,</text><text fill="#000000" font-family="sans-serif" font-size="14" lengthAdjust="spacing" textLength="172" x="214" y="878.5889">attackedShip, deadShip</text><text fill="#000000" font-family="sans-serif" font-size="14" lengthAdjust="spacing" textLength="4" x="214" y="894.8857"> </text><text fill="#000000" font-family="sans-serif" font-size="14" lengthAdjust="spacing" textLength="89" x="214" y="911.1826">States state</text><text fill="#000000" font-family="sans-serif" font-size="14" lengthAdjust="spacing" textLength="89" x="214" y="927.4795">position pos</text><text fill="#000000" font-family="sans-serif" font-size="14" lengthAdjust="spacing" textLength="95" x="214" y="943.7764">Ship* shipPtr</text><text fill="#000000" font-family="sans-serif" font-size="14" lengthAdjust="spacing" textLength="117" x="214" y="960.0732">Board* boardPtr</text><line style="stroke:#181818;stroke-width:0.5;" x1="209" x2="391" y1="967.375" y2="967.375"/><text fill="#000000" font-family="sans-serif" font-size="14" lengthAdjust="spacing" textLength="68" x="214" y="984.3701">+attack()</text></g><!--MD5=[0dc7f2ddb409b58bcf52b12238c25399]
class Ship--><g id="elem_Ship"><rect codeLine="56" fill="#F1F1F1" height="178.375" id="Ship" rx="2.5" ry="2.5" style="stroke:#181818;stroke-width:0.5;" width="204" x="193" y="559"/><ellipse cx="274.75" cy="575" fill="#ADD1B2" rx="11" ry="11" style="stroke:#181818;stroke-width:1.0;"/><path d="M277.0938,570.6719 C276.1563,570.2344 275.5625,570.0938 274.6875,570.0938 C272.0625,570.0938 270.0625,572.1719 270.0625,574.8906 L270.0625,576.0156 C270.0625,578.5938 272.1719,580.4844 275.0625,580.4844 C276.2813,580.4844 277.4375,580.1875 278.1875,579.6406 C278.7656,579.2344 279.0938,578.7813 279.0938,578.3906 C279.0938,577.9375 278.7031,577.5469 278.2344,577.5469 C278.0156,577.5469 277.8125,577.625 277.625,577.8125 C277.1719,578.2969 277.1719,578.2969 276.9844,578.3906 C276.5625,578.6563 275.875,578.7813 275.1094,578.7813 C273.0625,578.7813 271.7656,577.6875 271.7656,575.9844 L271.7656,574.8906 C271.7656,573.1094 273.0156,571.7969 274.75,571.7969 C275.3281,571.7969 275.9375,571.9531 276.4063,572.2031 C276.8906,572.4844 277.0625,572.7031 277.1563,573.1094 C277.2188,573.5156 277.25,573.6406 277.3906,573.7656 C277.5313,573.9063 277.7656,574.0156 277.9844,574.0156 C278.25,574.0156 278.5156,573.875 278.6875,573.6563 C278.7969,573.5 278.8281,573.3125 278.8281,572.8906 L278.8281,571.4688 C278.8281,571.0313 278.8125,570.9063 278.7188,570.75 C278.5625,570.4844 278.2813,570.3438 277.9844,570.3438 C277.6875,570.3438 277.4844,570.4375 277.2656,570.75 L277.0938,570.6719 Z " fill="#000000"/><text fill="#000000" font-family="sans-serif" font-size="14" lengthAdjust="spacing" textLength="32" x="295.25" y="579.8467">Ship</text><line style="stroke:#181818;stroke-width:0.5;" x1="194" x2="396" y1="591" y2="591"/><text fill="#000000" font-family="sans-serif" font-size="14" lengthAdjust="spacing" textLength="89" x="199" y="607.9951">enum State:</text><text fill="#000000" font-family="sans-serif" font-size="14" lengthAdjust="spacing" textLength="192" x="199" y="624.292">untouched, attacked, dead</text><text fill="#000000" font-family="sans-serif" font-size="14" lengthAdjust="spacing" textLength="4" x="199" y="640.5889"> </text><text fill="#000000" font-family="sans-serif" font-size="14" lengthAdjust="spacing" textLength="139" x="199" y="656.8857">vector&lt;Cell*&gt; cells</text><text fill="#000000" font-family="sans-serif" font-size="14" lengthAdjust="spacing" textLength="82" x="199" y="673.1826">State state</text><line style="stroke:#181818;stroke-width:0.5;" x1="194" x2="396" y1="680.4844" y2="680.4844"/><text fill="#000000" font-family="sans-serif" font-size="14" lengthAdjust="spacing" textLength="76" x="199" y="697.4795">+getSize()</text><text fill="#000000" font-family="sans-serif" font-size="14" lengthAdjust="spacing" textLength="65" x="199" y="713.7764">+getHP()</text><text fill="#000000" font-family="sans-serif" font-size="14" lengthAdjust="spacing" textLength="112" x="199" y="730.0732">+updateState()</text></g><!--MD5=[3fa19cc441731caa29084f54f1a58b3e]
class GameMaster--><g id="elem_GameMaster"><rect codeLine="5" fill="#F1F1F1" height="96.8906" id="GameMaster" rx="2.5" ry="2.5" style="stroke:#181818;stroke-width:0.5;" width="123" x="534.5" y="7"/><ellipse cx="549.5" cy="23" fill="#ADD1B2" rx="11" ry="11" style="stroke:#181818;stroke-width:1.0;"/><path d="M551.8438,18.6719 C550.9063,18.2344 550.3125,18.0938 549.4375,18.0938 C546.8125,18.0938 544.8125,20.1719 544.8125,22.8906 L544.8125,24.0156 C544.8125,26.5938 546.9219,28.4844 549.8125,28.4844 C551.0313,28.4844 552.1875,28.1875 552.9375,27.6406 C553.5156,27.2344 553.8438,26.7813 553.8438,26.3906 C553.8438,25.9375 553.4531,25.5469 552.9844,25.5469 C552.7656,25.5469 552.5625,25.625 552.375,25.8125 C551.9219,26.2969 551.9219,26.2969 551.7344,26.3906 C551.3125,26.6563 550.625,26.7813 549.8594,26.7813 C547.8125,26.7813 546.5156,25.6875 546.5156,23.9844 L546.5156,22.8906 C546.5156,21.1094 547.7656,19.7969 549.5,19.7969 C550.0781,19.7969 550.6875,19.9531 551.1563,20.2031 C551.6406,20.4844 551.8125,20.7031 551.9063,21.1094 C551.9688,21.5156 552,21.6406 552.1406,21.7656 C552.2813,21.9063 552.5156,22.0156 552.7344,22.0156 C553,22.0156 553.2656,21.875 553.4375,21.6563 C553.5469,21.5 553.5781,21.3125 553.5781,20.8906 L553.5781,19.4688 C553.5781,19.0313 553.5625,18.9063 553.4688,18.75 C553.3125,18.4844 553.0313,18.3438 552.7344,18.3438 C552.4375,18.3438 552.2344,18.4375 552.0156,18.75 L551.8438,18.6719 Z " fill="#000000"/><text fill="#000000" font-family="sans-serif" font-size="14" lengthAdjust="spacing" textLength="91" x="563.5" y="27.8467">GameMaster</text><line style="stroke:#181818;stroke-width:0.5;" x1="535.5" x2="656.5" y1="39" y2="39"/><line style="stroke:#181818;stroke-width:0.5;" x1="535.5" x2="656.5" y1="47" y2="47"/><text fill="#000000" font-family="sans-serif" font-size="14" lengthAdjust="spacing" textLength="44" x="540.5" y="63.9951">+run()</text><text fill="#000000" font-family="sans-serif" font-size="14" lengthAdjust="spacing" textLength="105" x="540.5" y="80.292">+open_menu()</text><text fill="#000000" font-family="sans-serif" font-size="14" lengthAdjust="spacing" textLength="103" x="540.5" y="96.5889">+start_game()</text></g><!--MD5=[2cb47ba637a0d19583e6199456f6ad0b]
class Player--><g id="elem_Player"><rect codeLine="10" fill="#F1F1F1" height="96.8906" id="Player" rx="2.5" ry="2.5" style="stroke:#181818;stroke-width:0.5;" width="207" x="341.5" y="180"/><ellipse cx="418.75" cy="196" fill="#B4A7E5" rx="11" ry="11" style="stroke:#181818;stroke-width:1.0;"/><path d="M419.7031,192.7813 L421.4219,192.7813 C421.8125,192.7813 422,192.75 422.125,192.6719 C422.3906,192.5156 422.5313,192.2344 422.5313,191.9375 C422.5313,191.6719 422.4219,191.4063 422.1875,191.2344 C422.0156,191.125 421.875,191.0938 421.4219,191.0938 L416.2813,191.0938 C415.8438,191.0938 415.7188,191.1094 415.5625,191.2031 C415.3125,191.3594 415.1563,191.6563 415.1563,191.9375 C415.1563,192.2188 415.2969,192.4688 415.5156,192.6406 C415.6719,192.75 415.8594,192.7813 416.2813,192.7813 L418,192.7813 L418,199.2969 L416.2813,199.2969 C415.8438,199.2969 415.7188,199.3125 415.5625,199.4219 C415.3125,199.5781 415.1563,199.8594 415.1563,200.1563 C415.1563,200.4063 415.2969,200.6719 415.5156,200.8281 C415.6719,200.9531 415.875,201 416.2813,201 L421.4219,201 C422.1719,201 422.5313,200.7188 422.5313,200.1563 C422.5313,199.875 422.4219,199.625 422.1875,199.4531 C422.0156,199.3281 421.875,199.2969 421.4219,199.2969 L419.7031,199.2969 L419.7031,192.7813 Z " fill="#000000"/><text fill="#000000" font-family="sans-serif" font-size="14" font-style="italic" lengthAdjust="spacing" textLength="44" x="439.25" y="200.8467">Player</text><line style="stroke:#181818;stroke-width:0.5;" x1="342.5" x2="547.5" y1="212" y2="212"/><text fill="#000000" font-family="sans-serif" font-size="14" lengthAdjust="spacing" textLength="86" x="347.5" y="228.9951">string name</text><line style="stroke:#181818;stroke-width:0.5;" x1="342.5" x2="547.5" y1="236.2969" y2="236.2969"/><text fill="#000000" font-family="sans-serif" font-size="14" lengthAdjust="spacing" textLength="112" x="347.5" y="253.292">+fill_board(GUI)</text><text fill="#000000" font-family="sans-serif" font-size="14" lengthAdjust="spacing" textLength="195" x="347.5" y="269.5889">+attack(GUI, enemy Board)</text></g><!--MD5=[1f9aa183c03a5a4b2c7a355206fc0cf9]
class GUI--><g id="elem_GUI"><rect codeLine="16" fill="#F1F1F1" height="129.4844" id="GUI" rx="2.5" ry="2.5" style="stroke:#181818;stroke-width:0.5;" width="310" x="593" y="164"/><ellipse cx="731.25" cy="180" fill="#B4A7E5" rx="11" ry="11" style="stroke:#181818;stroke-width:1.0;"/><path d="M732.2031,176.7813 L733.9219,176.7813 C734.3125,176.7813 734.5,176.75 734.625,176.6719 C734.8906,176.5156 735.0313,176.2344 735.0313,175.9375 C735.0313,175.6719 734.9219,175.4063 734.6875,175.2344 C734.5156,175.125 734.375,175.0938 733.9219,175.0938 L728.7813,175.0938 C728.3438,175.0938 728.2188,175.1094 728.0625,175.2031 C727.8125,175.3594 727.6563,175.6563 727.6563,175.9375 C727.6563,176.2188 727.7969,176.4688 728.0156,176.6406 C728.1719,176.75 728.3594,176.7813 728.7813,176.7813 L730.5,176.7813 L730.5,183.2969 L728.7813,183.2969 C728.3438,183.2969 728.2188,183.3125 728.0625,183.4219 C727.8125,183.5781 727.6563,183.8594 727.6563,184.1563 C727.6563,184.4063 727.7969,184.6719 728.0156,184.8281 C728.1719,184.9531 728.375,185 728.7813,185 L733.9219,185 C734.6719,185 735.0313,184.7188 735.0313,184.1563 C735.0313,183.875 734.9219,183.625 734.6875,183.4531 C734.5156,183.3281 734.375,183.2969 733.9219,183.2969 L732.2031,183.2969 L732.2031,176.7813 Z " fill="#000000"/><text fill="#000000" font-family="sans-serif" font-size="14" font-style="italic" lengthAdjust="spacing" textLength="25" x="751.75" y="184.8467">GUI</text><line style="stroke:#181818;stroke-width:0.5;" x1="594" x2="902" y1="196" y2="196"/><line style="stroke:#181818;stroke-width:0.5;" x1="594" x2="902" y1="204" y2="204"/><text fill="#000000" font-family="sans-serif" font-size="14" lengthAdjust="spacing" textLength="189" x="599" y="220.9951">+placeShip(Board, length)</text><text fill="#000000" font-family="sans-serif" font-size="14" lengthAdjust="spacing" textLength="298" x="599" y="237.292">+displayOptions(vector&lt;srting&gt; options)</text><text fill="#000000" font-family="sans-serif" font-size="14" lengthAdjust="spacing" textLength="208" x="599" y="253.5889">+displayBoard(Board, isMine)</text><text fill="#000000" font-family="sans-serif" font-size="14" lengthAdjust="spacing" textLength="255" x="599" y="269.8857">+getAttack(player, attackedBoard)</text><text fill="#000000" font-family="sans-serif" font-size="14" lengthAdjust="spacing" textLength="160" x="599" y="286.1826">+displayPlayer(player)</text></g><!--MD5=[9563755d011c5cec7ec66dc53565a59e]
class Board--><g id="elem_Board"><rect codeLine="34" fill="#F1F1F1" height="145.7813" id="Board" rx="2.5" ry="2.5" style="stroke:#181818;stroke-width:0.5;" width="241" x="324.5" y="353"/><ellipse cx="419.75" cy="369" fill="#ADD1B2" rx="11" ry="11" style="stroke:#181818;stroke-width:1.0;"/><path d="M422.0938,364.6719 C421.1563,364.2344 420.5625,364.0938 419.6875,364.0938 C417.0625,364.0938 415.0625,366.1719 415.0625,368.8906 L415.0625,370.0156 C415.0625,372.5938 417.1719,374.4844 420.0625,374.4844 C421.2813,374.4844 422.4375,374.1875 423.1875,373.6406 C423.7656,373.2344 424.0938,372.7813 424.0938,372.3906 C424.0938,371.9375 423.7031,371.5469 423.2344,371.5469 C423.0156,371.5469 422.8125,371.625 422.625,371.8125 C422.1719,372.2969 422.1719,372.2969 421.9844,372.3906 C421.5625,372.6563 420.875,372.7813 420.1094,372.7813 C418.0625,372.7813 416.7656,371.6875 416.7656,369.9844 L416.7656,368.8906 C416.7656,367.1094 418.0156,365.7969 419.75,365.7969 C420.3281,365.7969 420.9375,365.9531 421.4063,366.2031 C421.8906,366.4844 422.0625,366.7031 422.1563,367.1094 C422.2188,367.5156 422.25,367.6406 422.3906,367.7656 C422.5313,367.9063 422.7656,368.0156 422.9844,368.0156 C423.25,368.0156 423.5156,367.875 423.6875,367.6563 C423.7969,367.5 423.8281,367.3125 423.8281,366.8906 L423.8281,365.4688 C423.8281,365.0313 423.8125,364.9063 423.7188,364.75 C423.5625,364.4844 423.2813,364.3438 422.9844,364.3438 C422.6875,364.3438 422.4844,364.4375 422.2656,364.75 L422.0938,364.6719 Z " fill="#000000"/><text fill="#000000" font-family="sans-serif" font-size="14" lengthAdjust="spacing" textLength="42" x="440.25" y="373.8467">Board</text><line style="stroke:#181818;stroke-width:0.5;" x1="325.5" x2="564.5" y1="385" y2="385"/><line style="stroke:#181818;stroke-width:0.5;" x1="325.5" x2="564.5" y1="393" y2="393"/><text fill="#000000" font-family="sans-serif" font-size="14" lengthAdjust="spacing" textLength="155" x="330.5" y="409.9951">+addShip(begin, end)</text><text fill="#000000" font-family="sans-serif" font-size="14" lengthAdjust="spacing" textLength="110" x="330.5" y="426.292">+allshipCount()</text><text fill="#000000" font-family="sans-serif" font-size="14" lengthAdjust="spacing" textLength="129" x="330.5" y="442.5889">+deadshipCount()</text><text fill="#000000" font-family="sans-serif" font-size="14" lengthAdjust="spacing" textLength="127" x="330.5" y="458.8857">+attack(position)</text><text fill="#000000" font-family="sans-serif" font-size="14" lengthAdjust="spacing" textLength="180" x="330.5" y="475.1826">+withinBorders(position)</text><text fill="#000000" font-family="sans-serif" font-size="14" lengthAdjust="spacing" textLength="229" x="330.5" y="491.4795">+hasNoShipNeighbour(position)</text></g><!--MD5=[a64a835c3d62471a77f615251fdde58a]
class Position--><g id="elem_Position"><rect codeLine="68" fill="#F1F1F1" height="113.1875" id="Position" rx="2.5" ry="2.5" style="stroke:#181818;stroke-width:0.5;" width="183" x="523.5" y="591.5"/><ellipse cx="581.75" cy="607.5" fill="#ADD1B2" rx="11" ry="11" style="stroke:#181818;stroke-width:1.0;"/><path d="M584.0938,603.1719 C583.1563,602.7344 582.5625,602.5938 581.6875,602.5938 C579.0625,602.5938 577.0625,604.6719 577.0625,607.3906 L577.0625,608.5156 C577.0625,611.0938 579.1719,612.9844 582.0625,612.9844 C583.2813,612.9844 584.4375,612.6875 585.1875,612.1406 C585.7656,611.7344 586.0938,611.2813 586.0938,610.8906 C586.0938,610.4375 585.7031,610.0469 585.2344,610.0469 C585.0156,610.0469 584.8125,610.125 584.625,610.3125 C584.1719,610.7969 584.1719,610.7969 583.9844,610.8906 C583.5625,611.1563 582.875,611.2813 582.1094,611.2813 C580.0625,611.2813 578.7656,610.1875 578.7656,608.4844 L578.7656,607.3906 C578.7656,605.6094 580.0156,604.2969 581.75,604.2969 C582.3281,604.2969 582.9375,604.4531 583.4063,604.7031 C583.8906,604.9844 584.0625,605.2031 584.1563,605.6094 C584.2188,606.0156 584.25,606.1406 584.3906,606.2656 C584.5313,606.4063 584.7656,606.5156 584.9844,606.5156 C585.25,606.5156 585.5156,606.375 585.6875,606.1563 C585.7969,606 585.8281,605.8125 585.8281,605.3906 L585.8281,603.9688 C585.8281,603.5313 585.8125,603.4063 585.7188,603.25 C585.5625,602.9844 585.2813,602.8438 584.9844,602.8438 C584.6875,602.8438 584.4844,602.9375 584.2656,603.25 L584.0938,603.1719 Z " fill="#000000"/><text fill="#000000" font-family="sans-serif" font-size="14" lengthAdjust="spacing" textLength="58" x="602.25" y="612.3467">Position</text><line style="stroke:#181818;stroke-width:0.5;" x1="524.5" x2="705.5" y1="623.5" y2="623.5"/><text fill="#000000" font-family="sans-serif" font-size="14" lengthAdjust="spacing" textLength="32" x="529.5" y="640.4951">int x</text><text fill="#000000" font-family="sans-serif" font-size="14" lengthAdjust="spacing" textLength="32" x="529.5" y="656.792">int y</text><text fill="#000000" font-family="sans-serif" font-size="14" lengthAdjust="spacing" textLength="171" x="529.5" y="673.0889">+// some usual methods</text><text fill="#000000" font-family="sans-serif" font-size="14" lengthAdjust="spacing" textLength="166" x="529.5" y="689.3857">for points on the plane</text><line style="stroke:#181818;stroke-width:0.5;" x1="524.5" x2="705.5" y1="696.6875" y2="696.6875"/></g><!--MD5=[b91eb240017d254ef80a7cb85a26e06e]
class GlobalSettings--><g id="elem_GlobalSettings"><rect codeLine="75" fill="#F1F1F1" height="113.1875" id="GlobalSettings" rx="2.5" ry="2.5" style="stroke:#181818;stroke-width:0.5;" width="165" x="743.5" y="369.5"/><ellipse cx="770.2" cy="385.5" fill="#ADD1B2" rx="11" ry="11" style="stroke:#181818;stroke-width:1.0;"/><path d="M772.5438,381.1719 C771.6063,380.7344 771.0125,380.5938 770.1375,380.5938 C767.5125,380.5938 765.5125,382.6719 765.5125,385.3906 L765.5125,386.5156 C765.5125,389.0938 767.6219,390.9844 770.5125,390.9844 C771.7313,390.9844 772.8875,390.6875 773.6375,390.1406 C774.2156,389.7344 774.5438,389.2813 774.5438,388.8906 C774.5438,388.4375 774.1531,388.0469 773.6844,388.0469 C773.4656,388.0469 773.2625,388.125 773.075,388.3125 C772.6219,388.7969 772.6219,388.7969 772.4344,388.8906 C772.0125,389.1563 771.325,389.2813 770.5594,389.2813 C768.5125,389.2813 767.2156,388.1875 767.2156,386.4844 L767.2156,385.3906 C767.2156,383.6094 768.4656,382.2969 770.2,382.2969 C770.7781,382.2969 771.3875,382.4531 771.8563,382.7031 C772.3406,382.9844 772.5125,383.2031 772.6063,383.6094 C772.6688,384.0156 772.7,384.1406 772.8406,384.2656 C772.9813,384.4063 773.2156,384.5156 773.4344,384.5156 C773.7,384.5156 773.9656,384.375 774.1375,384.1563 C774.2469,384 774.2781,383.8125 774.2781,383.3906 L774.2781,381.9688 C774.2781,381.5313 774.2625,381.4063 774.1688,381.25 C774.0125,380.9844 773.7313,380.8438 773.4344,380.8438 C773.1375,380.8438 772.9344,380.9375 772.7156,381.25 L772.5438,381.1719 Z " fill="#000000"/><text fill="#000000" font-family="sans-serif" font-size="14" lengthAdjust="spacing" textLength="107" x="786.8" y="390.3467">GlobalSettings</text><line style="stroke:#181818;stroke-width:0.5;" x1="744.5" x2="907.5" y1="401.5" y2="401.5"/><text fill="#000000" font-family="sans-serif" font-size="14" lengthAdjust="spacing" textLength="85" x="749.5" y="418.4951">boardWidth</text><text fill="#000000" font-family="sans-serif" font-size="14" lengthAdjust="spacing" textLength="90" x="749.5" y="434.792">boardHeight</text><text fill="#000000" font-family="sans-serif" font-size="14" lengthAdjust="spacing" textLength="94" x="749.5" y="451.0889">shipsNumber</text><text fill="#000000" font-family="sans-serif" font-size="14" lengthAdjust="spacing" textLength="153" x="749.5" y="467.3857">vector&lt;int&gt; shipSize</text><line style="stroke:#181818;stroke-width:0.5;" x1="744.5" x2="907.5" y1="474.6875" y2="474.6875"/></g><!--MD5=[317012368e33d1c6a5d06ed6cafea940]
class PlayerSettings--><g id="elem_PlayerSettings"><rect codeLine="82" fill="#F1F1F1" height="48" id="PlayerSettings" rx="2.5" ry="2.5" style="stroke:#181818;stroke-width:0.5;" width="137" x="751.5" y="624"/><ellipse cx="766.5" cy="640" fill="#ADD1B2" rx="11" ry="11" style="stroke:#181818;stroke-width:1.0;"/><path d="M768.8438,635.6719 C767.9063,635.2344 767.3125,635.0938 766.4375,635.0938 C763.8125,635.0938 761.8125,637.1719 761.8125,639.8906 L761.8125,641.0156 C761.8125,643.5938 763.9219,645.4844 766.8125,645.4844 C768.0313,645.4844 769.1875,645.1875 769.9375,644.6406 C770.5156,644.2344 770.8438,643.7813 770.8438,643.3906 C770.8438,642.9375 770.4531,642.5469 769.9844,642.5469 C769.7656,642.5469 769.5625,642.625 769.375,642.8125 C768.9219,643.2969 768.9219,643.2969 768.7344,643.3906 C768.3125,643.6563 767.625,643.7813 766.8594,643.7813 C764.8125,643.7813 763.5156,642.6875 763.5156,640.9844 L763.5156,639.8906 C763.5156,638.1094 764.7656,636.7969 766.5,636.7969 C767.0781,636.7969 767.6875,636.9531 768.1563,637.2031 C768.6406,637.4844 768.8125,637.7031 768.9063,638.1094 C768.9688,638.5156 769,638.6406 769.1406,638.7656 C769.2813,638.9063 769.5156,639.0156 769.7344,639.0156 C770,639.0156 770.2656,638.875 770.4375,638.6563 C770.5469,638.5 770.5781,638.3125 770.5781,637.8906 L770.5781,636.4688 C770.5781,636.0313 770.5625,635.9063 770.4688,635.75 C770.3125,635.4844 770.0313,635.3438 769.7344,635.3438 C769.4375,635.3438 769.2344,635.4375 769.0156,635.75 L768.8438,635.6719 Z " fill="#000000"/><text fill="#000000" font-family="sans-serif" font-size="14" lengthAdjust="spacing" textLength="105" x="780.5" y="644.8467">PlayerSettings</text><line style="stroke:#181818;stroke-width:0.5;" x1="752.5" x2="887.5" y1="656" y2="656"/><line style="stroke:#181818;stroke-width:0.5;" x1="752.5" x2="887.5" y1="664" y2="664"/></g><g id="elem_GMN313440"><path d="M6,216 L6,241.1328 A0,0 0 0 0 6,241.1328 L66,241.1328 L70,401.863 L74,241.1328 L134,241.1328 A0,0 0 0 0 134,241.1328 L134,226 L124,216 L6,216 A0,0 0 0 0 6,216 " fill="#FEFFDD" style="stroke:#181818;stroke-width:0.5;"/><path d="M124,216 L124,226 L134,226 L124,216 " fill="#FEFFDD" style="stroke:#181818;stroke-width:0.5;"/><text fill="#000000" font-family="sans-serif" font-size="13" lengthAdjust="spacing" textLength="107" x="12" y="233.0669">Wait next patch!</text></g><g id="elem_GMN313443"><path d="M1101,216 L1101,241.1328 A0,0 0 0 0 1101,241.1328 L1160.23,241.1328 L1153.54,401.863 L1168.23,241.1328 L1229,241.1328 A0,0 0 0 0 1229,241.1328 L1229,226 L1219,216 L1101,216 A0,0 0 0 0 1101,216 " fill="#FEFFDD" style="stroke:#181818;stroke-width:0.5;"/><path d="M1219,216 L1219,226 L1229,226 L1219,216 " fill="#FEFFDD" style="stroke:#181818;stroke-width:0.5;"/><text fill="#000000" font-family="sans-serif" font-size="13" lengthAdjust="spacing" textLength="107" x="1107" y="233.0669">Wait next patch!</text></g><g id="elem_GMN313446"><path d="M938,216 L938,241.1328 A0,0 0 0 0 938,241.1328 L998,241.1328 L1002,401.863 L1006,241.1328 L1066,241.1328 A0,0 0 0 0 1066,241.1328 L1066,226 L1056,216 L938,216 A0,0 0 0 0 938,216 " fill="#FEFFDD" style="stroke:#181818;stroke-width:0.5;"/><path d="M1056,216 L1056,226 L1066,226 L1056,216 " fill="#FEFFDD" style="stroke:#181818;stroke-width:0.5;"/><text fill="#000000" font-family="sans-serif" font-size="13" lengthAdjust="spacing" textLength="107" x="944" y="233.0669">Wait next patch!</text></g><!--MD5=[28d454eb6a802a996292f7513fb5940d]
reverse link GameMaster to GUI--><g id="link_GameMaster_GUI"><path codeLine="88" d="M647.023,113.9 C661.274,129.933 676.843,147.448 691.396,163.82 " fill="none" id="GameMaster-backto-GUI" style="stroke:#181818;stroke-width:1.0;"/><polygon fill="none" points="638.34,104.133,639.3364,111.2749,646.3121,113.1021,645.3158,105.9602,638.34,104.133" style="stroke:#181818;stroke-width:1.0;"/><text fill="#000000" font-family="sans-serif" font-size="13" lengthAdjust="spacing" textLength="8" x="635.7316" y="124.1106">1</text><text fill="#000000" font-family="sans-serif" font-size="13" lengthAdjust="spacing" textLength="8" x="676.7674" y="152.973">1</text></g><!--MD5=[bb300298e8a61e0a01e869eec431cab4]
reverse link GameMaster to Player--><g id="link_GameMaster_Player"><path codeLine="89" d="M545.166,114.067 C526.292,135.441 505.107,159.432 487.098,179.826 " fill="none" id="GameMaster-backto-Player" style="stroke:#181818;stroke-width:1.0;"/><polygon fill="#181818" points="553.938,104.133,546.9682,105.983,545.9952,113.1281,552.965,111.2782,553.938,104.133" style="stroke:#181818;stroke-width:1.0;"/><text fill="#000000" font-family="sans-serif" font-size="13" lengthAdjust="spacing" textLength="8" x="539.4605" y="124.1106">1</text><text fill="#000000" font-family="sans-serif" font-size="13" lengthAdjust="spacing" textLength="23" x="468.4008" y="169.0105">2..*</text></g><!--MD5=[f2d4d79643b633444e425b34f363d4d9]
reverse link GUI to ExternalGUI--><g id="link_GUI_ExternalGUI"><path codeLine="91" d="M862.005,304.766 C883.691,320.148 905.881,336.648 926,353 C944.9,368.361 964.837,387.368 979.547,401.995 " fill="none" id="GUI-backto-ExternalGUI" style="stroke:#181818;stroke-width:1.0;stroke-dasharray:7.0,7.0;"/><polygon fill="none" points="857.922,310.452,845.562,293.241,865.957,298.988,857.922,310.452" style="stroke:#181818;stroke-width:1.0;"/></g><!--MD5=[ae32ba4e3fd3e91211cc38c3e013834a]
reverse link GUI to ConsoleGUI--><g id="link_GUI_ConsoleGUI"><path codeLine="92" d="M922.34,293.902 C999.56,322.576 1074.08,350.514 1078,353 C1099.04,366.338 1119.05,386.419 1132.95,401.987 " fill="none" id="GUI-backto-ConsoleGUI" style="stroke:#181818;stroke-width:1.0;stroke-dasharray:7.0,7.0;"/><polygon fill="none" points="919.537,300.328,903.221,286.808,924.407,287.203,919.537,300.328" style="stroke:#181818;stroke-width:1.0;"/></g><!--MD5=[0549a1f24ae7e87ddb4d24fa4bf8fef1]
reverse link Player to ConsolePlayer--><g id="link_Player_ConsolePlayer"><path codeLine="94" d="M375.964,290.295 C333.05,328.087 280.323,374.52 249.317,401.825 " fill="none" id="Player-backto-ConsolePlayer" style="stroke:#181818;stroke-width:1.0;stroke-dasharray:7.0,7.0;"/><polygon fill="none" points="371.341,285.039,390.977,277.075,380.593,295.546,371.341,285.039" style="stroke:#181818;stroke-width:1.0;"/></g><!--MD5=[b416ad59bd543746be7c071034d95508]
reverse link Player to BotPlayer--><g id="link_Player_BotPlayer"><path codeLine="95" d="M322.499,265.576 C264.043,286.037 194.848,315.19 139,353 C119.215,366.395 100.71,386.27 87.855,401.748 " fill="none" id="Player-backto-BotPlayer" style="stroke:#181818;stroke-width:1.0;stroke-dasharray:7.0,7.0;"/><polygon fill="none" points="320.283,258.936,341.472,259.104,324.803,272.186,320.283,258.936" style="stroke:#181818;stroke-width:1.0;"/></g><!--MD5=[4c47dfb9d4ba9e03169fd2fa2e83336c]
reverse link Player to Board--><g id="link_Player_Board"><path codeLine="96" d="M445,290.328 C445,310.086 445,332.204 445,352.715 " fill="none" id="Player-backto-Board" style="stroke:#181818;stroke-width:1.0;"/><polygon fill="#181818" points="445,277.075,441,283.075,445,289.075,449,283.075,445,277.075" style="stroke:#181818;stroke-width:1.0;"/><text fill="#000000" font-family="sans-serif" font-size="13" lengthAdjust="spacing" textLength="8" x="436.4375" y="297.0445">1</text><text fill="#000000" font-family="sans-serif" font-size="13" lengthAdjust="spacing" textLength="8" x="436.6063" y="341.8469">1</text></g><!--MD5=[5778a4432fb065f83ccf0aa932a03c78]
reverse link Board to Cell--><g id="link_Board_Cell"><path codeLine="98" d="M448.334,512.543 C448.028,576.388 441.595,664.702 414,737 C406.149,757.57 394.852,777.859 382.388,796.664 " fill="none" id="Board-backto-Cell" style="stroke:#181818;stroke-width:1.0;"/><polygon fill="#181818" points="448.312,499.305,444.3219,505.3116,448.3318,511.305,452.3219,505.2984,448.312,499.305" style="stroke:#181818;stroke-width:1.0;"/><text fill="#000000" font-family="sans-serif" font-size="13" lengthAdjust="spacing" textLength="8" x="440.2486" y="518.8373">1</text><text fill="#000000" font-family="sans-serif" font-size="13" lengthAdjust="spacing" textLength="23" x="364.5938" y="786.0122">1..*</text></g><!--MD5=[a28d51ba30d9767a73544c25a0e18962]
reverse link Board to Ship--><g id="link_Board_Ship"><path codeLine="99" d="M388.467,509.915 C377.608,525.842 366.198,542.576 355.227,558.666 " fill="none" id="Board-backto-Ship" style="stroke:#181818;stroke-width:1.0;"/><polygon fill="#181818" points="395.884,499.036,389.199,501.74,389.1239,508.9507,395.8088,506.2467,395.884,499.036" style="stroke:#181818;stroke-width:1.0;"/><text fill="#000000" font-family="sans-serif" font-size="13" lengthAdjust="spacing" textLength="8" x="382.8214" y="518.7957">1</text><text fill="#000000" font-family="sans-serif" font-size="13" lengthAdjust="spacing" textLength="23" x="336.1099" y="548.0068">0..*</text></g><!--MD5=[85cec48ed96ba00b0ecf8ae9eb6f40e3]
reverse link GlobalSettings to PlayerSettings--><g id="link_GlobalSettings_PlayerSettings"><path codeLine="101" d="M824.124,495.772 C822.927,539.671 821.451,593.813 820.628,623.956 " fill="none" id="GlobalSettings-backto-PlayerSettings" style="stroke:#181818;stroke-width:1.0;"/><polygon fill="#181818" points="824.486,482.515,820.3233,488.4033,824.1577,494.5105,828.3203,488.6222,824.486,482.515" style="stroke:#181818;stroke-width:1.0;"/><text fill="#000000" font-family="sans-serif" font-size="13" lengthAdjust="spacing" textLength="8" x="815.7795" y="502.7803">1</text><text fill="#000000" font-family="sans-serif" font-size="13" lengthAdjust="spacing" textLength="23" x="794.8421" y="612.9568">2..*</text></g><!--MD5=[7542f6ca34826d95b4af8c5c5e105d58]
reverse link GUI to Position--><g id="link_GUI_Position"><path codeLine="103" d="M726.114,298.201 C699.985,380.222 656.8,515.786 632.684,591.49 " fill="none" id="GUI-backto-Position" style="stroke:#181818;stroke-width:1.0;"/><polygon fill="#181818" points="727.655,293.364,721.1127,300.726,726.1379,298.1283,728.7356,303.1534,727.655,293.364" style="stroke:#181818;stroke-width:1.0;"/></g><!--MD5=[d87efe38288fbc3a4bdf6f747e15e403]
reverse link Board to Position--><g id="link_Board_Position"><path codeLine="104" d="M503.94,503.275 C526.277,532.182 551.272,564.529 571.885,591.205 " fill="none" id="Board-backto-Position" style="stroke:#181818;stroke-width:1.0;"/><polygon fill="#181818" points="500.664,499.036,503.0026,508.6032,503.7215,502.9922,509.3325,503.7112,500.664,499.036" style="stroke:#181818;stroke-width:1.0;"/></g><!--MD5=[9c7697f8a36d1261383f2af2d21ad7fa]
reverse link GUI to GlobalSettings--><g id="link_GUI_GlobalSettings"><path codeLine="106" d="M775.397,298.168 C784.677,321.428 794.922,347.105 803.752,369.237 " fill="none" id="GUI-backto-GlobalSettings" style="stroke:#181818;stroke-width:1.0;"/><polygon fill="#181818" points="773.432,293.243,773.0517,303.0845,775.2848,297.8871,780.4822,300.1201,773.432,293.243" style="stroke:#181818;stroke-width:1.0;"/></g><!--MD5=[ba1ffcf84e86928af9cec264b1aa6de5]
reverse link Player to PlayerSettings--><g id="link_Player_PlayerSettings"><path codeLine="107" d="M506.245,280.517 C530.928,302.034 559.146,327.884 583,353 C672.846,447.6 766.22,572.78 803.346,623.834 " fill="none" id="Player-backto-PlayerSettings" style="stroke:#181818;stroke-width:1.0;"/><polygon fill="#181818" points="502.315,277.102,506.4844,286.0248,506.089,280.3818,511.732,279.9864,502.315,277.102" style="stroke:#181818;stroke-width:1.0;"/></g><!--MD5=[9de54e7e2112e6b4699c648ffc44b347]
link Ship to Cell--><g id="link_Ship_Cell"><path codeLine="109" d="M296.917,742.725 C297.244,758.738 297.586,775.443 297.917,791.655 " fill="none" id="Ship-Cell" style="stroke:#181818;stroke-width:1.0;"/><polygon fill="#181818" points="298.02,796.67,301.8366,787.5907,297.9186,791.671,293.8382,787.753,298.02,796.67" style="stroke:#181818;stroke-width:1.0;"/><polygon fill="#181818" points="296.805,737.27,292.991,746.3504,296.9079,742.2689,300.9893,746.1858,296.805,737.27" style="stroke:#181818;stroke-width:1.0;"/></g><!--MD5=[8cf0aedc3fb5bcec463258785102f716]
@startuml
skinparam classAttributeIconSize 0



class GameMaster {
+run()
+open_menu()
+start_game()
}
interface Player {
string name
+fill_board(GUI)
+attack(GUI, enemy Board)
}

interface GUI {
+placeShip(Board, length)
+displayOptions(vector<srting> options)
+displayBoard(Board, isMine)
+getAttack(player, attackedBoard)
+displayPlayer(player)
}

together {
class ConsoleGUI {}
class ExternalGUI {}
}

together {
class ConsolePlayer {}
class BotPlayer {}
}

class Board {
+addShip(begin, end)
+allshipCount()
+deadshipCount()
+attack(position)
+withinBorders(position)
+hasNoShipNeighbour(position)
}

together {
class Cell {
enum States:
 sea, deadSea, ship,
 attackedShip, deadShip

States state
position pos
Ship* shipPtr
Board* boardPtr

+attack()
}
class Ship {
enum State:
untouched, attacked, dead

vector<Cell*> cells
State state
+getSize()
+getHP()
+updateState()
}
}

class Position {
int x
int y
+// some usual methods
 for points on the plane
}

class GlobalSettings {
boardWidth
boardHeight
shipsNumber
vector<int> shipSize
}

class PlayerSettings {}

note top of BotPlayer : Wait next patch!
note top of ConsoleGUI : Wait next patch!
note top of ExternalGUI : Wait next patch!

GameMaster "1" o- - "1" GUI
GameMaster "1" *- - "2..*" Player

GUI <|.. ExternalGUI
GUI <|.. ConsoleGUI

Player <|.. ConsolePlayer
Player <|.. BotPlayer
Player "1" *- - "1" Board

Board "1" *- - "1..*" Cell
Board "1" *- - "0..*" Ship

GlobalSettings "1" *- - "2..*" PlayerSettings

GUI <- - Position
Board <- - Position

GUI <- - GlobalSettings
Player <- - PlayerSettings

Ship <- -> Cell
@enduml

PlantUML version 1.2022.3(Tue Mar 29 16:10:57 UTC 2022)
(GPL source distribution)
Java Runtime: Java(TM) SE Runtime Environment
JVM: Java HotSpot(TM) 64-Bit Server VM
Default Encoding: UTF-8
Language: en
Country: US
--></g></svg>