<?xml version="1.0" encoding="UTF-8" standalone="no"?><svg xmlns="http://www.w3.org/2000/svg" xmlns:xlink="http://www.w3.org/1999/xlink" contentStyleType="text/css" height="531px" preserveAspectRatio="none" style="width:1161px;height:531px;background:#FFFFFF;" version="1.1" viewBox="0 0 1161 531" width="1161px" zoomAndPan="magnify"><defs/><g><rect height="26.2969" style="stroke:#00000000;stroke-width:1.0;fill:none;" width="264" x="441.5" y="5"/><text fill="#000000" font-family="sans-serif" font-size="14" font-weight="bold" lengthAdjust="spacing" textLength="254" x="446.5" y="22.9951">Battleship game class Diagram</text><!--MD5=[2cb47ba637a0d19583e6199456f6ad0b]
class Player--><g id="elem_Player"><rect codeLine="4" fill="#F1F1F1" height="48" id="Player" rx="2.5" ry="2.5" style="stroke:#181818;stroke-width:0.5;" width="76" x="649" y="260.2969"/><ellipse cx="664" cy="276.2969" fill="#B4A7E5" rx="11" ry="11" style="stroke:#181818;stroke-width:1.0;"/><path d="M664.9531,273.0781 L666.6719,273.0781 C667.0625,273.0781 667.25,273.0469 667.375,272.9688 C667.6406,272.8125 667.7813,272.5313 667.7813,272.2344 C667.7813,271.9688 667.6719,271.7031 667.4375,271.5313 C667.2656,271.4219 667.125,271.3906 666.6719,271.3906 L661.5313,271.3906 C661.0938,271.3906 660.9688,271.4063 660.8125,271.5 C660.5625,271.6563 660.4063,271.9531 660.4063,272.2344 C660.4063,272.5156 660.5469,272.7656 660.7656,272.9375 C660.9219,273.0469 661.1094,273.0781 661.5313,273.0781 L663.25,273.0781 L663.25,279.5938 L661.5313,279.5938 C661.0938,279.5938 660.9688,279.6094 660.8125,279.7188 C660.5625,279.875 660.4063,280.1563 660.4063,280.4531 C660.4063,280.7031 660.5469,280.9688 660.7656,281.125 C660.9219,281.25 661.125,281.2969 661.5313,281.2969 L666.6719,281.2969 C667.4219,281.2969 667.7813,281.0156 667.7813,280.4531 C667.7813,280.1719 667.6719,279.9219 667.4375,279.75 C667.2656,279.625 667.125,279.5938 666.6719,279.5938 L664.9531,279.5938 L664.9531,273.0781 Z " fill="#000000"/><text fill="#000000" font-family="sans-serif" font-size="14" font-style="italic" lengthAdjust="spacing" textLength="44" x="678" y="281.1436">Player</text><line style="stroke:#181818;stroke-width:0.5;" x1="650" x2="724" y1="292.2969" y2="292.2969"/><line style="stroke:#181818;stroke-width:0.5;" x1="650" x2="724" y1="300.2969" y2="300.2969"/></g><!--MD5=[ce088009ea8ae7c37b61ea95c29dabdb]
class Player_Settings--><g id="elem_Player_Settings"><rect codeLine="5" fill="#F1F1F1" height="48" id="Player_Settings" rx="2.5" ry="2.5" style="stroke:#181818;stroke-width:0.5;" width="144" x="581" y="368.2969"/><ellipse cx="596" cy="384.2969" fill="#ADD1B2" rx="11" ry="11" style="stroke:#181818;stroke-width:1.0;"/><path d="M598.3438,379.9688 C597.4063,379.5313 596.8125,379.3906 595.9375,379.3906 C593.3125,379.3906 591.3125,381.4688 591.3125,384.1875 L591.3125,385.3125 C591.3125,387.8906 593.4219,389.7813 596.3125,389.7813 C597.5313,389.7813 598.6875,389.4844 599.4375,388.9375 C600.0156,388.5313 600.3438,388.0781 600.3438,387.6875 C600.3438,387.2344 599.9531,386.8438 599.4844,386.8438 C599.2656,386.8438 599.0625,386.9219 598.875,387.1094 C598.4219,387.5938 598.4219,387.5938 598.2344,387.6875 C597.8125,387.9531 597.125,388.0781 596.3594,388.0781 C594.3125,388.0781 593.0156,386.9844 593.0156,385.2813 L593.0156,384.1875 C593.0156,382.4063 594.2656,381.0938 596,381.0938 C596.5781,381.0938 597.1875,381.25 597.6563,381.5 C598.1406,381.7813 598.3125,382 598.4063,382.4063 C598.4688,382.8125 598.5,382.9375 598.6406,383.0625 C598.7813,383.2031 599.0156,383.3125 599.2344,383.3125 C599.5,383.3125 599.7656,383.1719 599.9375,382.9531 C600.0469,382.7969 600.0781,382.6094 600.0781,382.1875 L600.0781,380.7656 C600.0781,380.3281 600.0625,380.2031 599.9688,380.0469 C599.8125,379.7813 599.5313,379.6406 599.2344,379.6406 C598.9375,379.6406 598.7344,379.7344 598.5156,380.0469 L598.3438,379.9688 Z " fill="#000000"/><text fill="#000000" font-family="sans-serif" font-size="14" lengthAdjust="spacing" textLength="112" x="610" y="389.1436">Player_Settings</text><line style="stroke:#181818;stroke-width:0.5;" x1="582" x2="724" y1="400.2969" y2="400.2969"/><line style="stroke:#181818;stroke-width:0.5;" x1="582" x2="724" y1="408.2969" y2="408.2969"/></g><!--MD5=[390a4544b3a0e32ead8bf2b8b54348bf]
class Console_Player--><g id="elem_Console_Player"><rect codeLine="11" fill="#F1F1F1" height="48" id="Console_Player" rx="2.5" ry="2.5" style="stroke:#181818;stroke-width:0.5;" width="140" x="1014" y="368.2969"/><ellipse cx="1029" cy="384.2969" fill="#ADD1B2" rx="11" ry="11" style="stroke:#181818;stroke-width:1.0;"/><path d="M1031.3438,379.9688 C1030.4063,379.5313 1029.8125,379.3906 1028.9375,379.3906 C1026.3125,379.3906 1024.3125,381.4688 1024.3125,384.1875 L1024.3125,385.3125 C1024.3125,387.8906 1026.4219,389.7813 1029.3125,389.7813 C1030.5313,389.7813 1031.6875,389.4844 1032.4375,388.9375 C1033.0156,388.5313 1033.3438,388.0781 1033.3438,387.6875 C1033.3438,387.2344 1032.9531,386.8438 1032.4844,386.8438 C1032.2656,386.8438 1032.0625,386.9219 1031.875,387.1094 C1031.4219,387.5938 1031.4219,387.5938 1031.2344,387.6875 C1030.8125,387.9531 1030.125,388.0781 1029.3594,388.0781 C1027.3125,388.0781 1026.0156,386.9844 1026.0156,385.2813 L1026.0156,384.1875 C1026.0156,382.4063 1027.2656,381.0938 1029,381.0938 C1029.5781,381.0938 1030.1875,381.25 1030.6563,381.5 C1031.1406,381.7813 1031.3125,382 1031.4063,382.4063 C1031.4688,382.8125 1031.5,382.9375 1031.6406,383.0625 C1031.7813,383.2031 1032.0156,383.3125 1032.2344,383.3125 C1032.5,383.3125 1032.7656,383.1719 1032.9375,382.9531 C1033.0469,382.7969 1033.0781,382.6094 1033.0781,382.1875 L1033.0781,380.7656 C1033.0781,380.3281 1033.0625,380.2031 1032.9688,380.0469 C1032.8125,379.7813 1032.5313,379.6406 1032.2344,379.6406 C1031.9375,379.6406 1031.7344,379.7344 1031.5156,380.0469 L1031.3438,379.9688 Z " fill="#000000"/><text fill="#000000" font-family="sans-serif" font-size="14" lengthAdjust="spacing" textLength="108" x="1043" y="389.1436">Console_Player</text><line style="stroke:#181818;stroke-width:0.5;" x1="1015" x2="1153" y1="400.2969" y2="400.2969"/><line style="stroke:#181818;stroke-width:0.5;" x1="1015" x2="1153" y1="408.2969" y2="408.2969"/></g><!--MD5=[0b1c55b4fd43769975882c8b27608753]
class Bot_Player--><g id="elem_Bot_Player"><rect codeLine="12" fill="#F1F1F1" height="48" id="Bot_Player" rx="2.5" ry="2.5" style="stroke:#181818;stroke-width:0.5;" width="109" x="869.5" y="368.2969"/><ellipse cx="884.5" cy="384.2969" fill="#ADD1B2" rx="11" ry="11" style="stroke:#181818;stroke-width:1.0;"/><path d="M886.8438,379.9688 C885.9063,379.5313 885.3125,379.3906 884.4375,379.3906 C881.8125,379.3906 879.8125,381.4688 879.8125,384.1875 L879.8125,385.3125 C879.8125,387.8906 881.9219,389.7813 884.8125,389.7813 C886.0313,389.7813 887.1875,389.4844 887.9375,388.9375 C888.5156,388.5313 888.8438,388.0781 888.8438,387.6875 C888.8438,387.2344 888.4531,386.8438 887.9844,386.8438 C887.7656,386.8438 887.5625,386.9219 887.375,387.1094 C886.9219,387.5938 886.9219,387.5938 886.7344,387.6875 C886.3125,387.9531 885.625,388.0781 884.8594,388.0781 C882.8125,388.0781 881.5156,386.9844 881.5156,385.2813 L881.5156,384.1875 C881.5156,382.4063 882.7656,381.0938 884.5,381.0938 C885.0781,381.0938 885.6875,381.25 886.1563,381.5 C886.6406,381.7813 886.8125,382 886.9063,382.4063 C886.9688,382.8125 887,382.9375 887.1406,383.0625 C887.2813,383.2031 887.5156,383.3125 887.7344,383.3125 C888,383.3125 888.2656,383.1719 888.4375,382.9531 C888.5469,382.7969 888.5781,382.6094 888.5781,382.1875 L888.5781,380.7656 C888.5781,380.3281 888.5625,380.2031 888.4688,380.0469 C888.3125,379.7813 888.0313,379.6406 887.7344,379.6406 C887.4375,379.6406 887.2344,379.7344 887.0156,380.0469 L886.8438,379.9688 Z " fill="#000000"/><text fill="#000000" font-family="sans-serif" font-size="14" lengthAdjust="spacing" textLength="77" x="898.5" y="389.1436">Bot_Player</text><line style="stroke:#181818;stroke-width:0.5;" x1="870.5" x2="977.5" y1="400.2969" y2="400.2969"/><line style="stroke:#181818;stroke-width:0.5;" x1="870.5" x2="977.5" y1="408.2969" y2="408.2969"/></g><!--MD5=[3fa19cc441731caa29084f54f1a58b3e]
class GameMaster--><g id="elem_GameMaster"><rect codeLine="2" fill="#F1F1F1" height="48" id="GameMaster" rx="2.5" ry="2.5" style="stroke:#181818;stroke-width:0.5;" width="123" x="401.5" y="44.2969"/><ellipse cx="416.5" cy="60.2969" fill="#ADD1B2" rx="11" ry="11" style="stroke:#181818;stroke-width:1.0;"/><path d="M418.8438,55.9688 C417.9063,55.5313 417.3125,55.3906 416.4375,55.3906 C413.8125,55.3906 411.8125,57.4688 411.8125,60.1875 L411.8125,61.3125 C411.8125,63.8906 413.9219,65.7813 416.8125,65.7813 C418.0313,65.7813 419.1875,65.4844 419.9375,64.9375 C420.5156,64.5313 420.8438,64.0781 420.8438,63.6875 C420.8438,63.2344 420.4531,62.8438 419.9844,62.8438 C419.7656,62.8438 419.5625,62.9219 419.375,63.1094 C418.9219,63.5938 418.9219,63.5938 418.7344,63.6875 C418.3125,63.9531 417.625,64.0781 416.8594,64.0781 C414.8125,64.0781 413.5156,62.9844 413.5156,61.2813 L413.5156,60.1875 C413.5156,58.4063 414.7656,57.0938 416.5,57.0938 C417.0781,57.0938 417.6875,57.25 418.1563,57.5 C418.6406,57.7813 418.8125,58 418.9063,58.4063 C418.9688,58.8125 419,58.9375 419.1406,59.0625 C419.2813,59.2031 419.5156,59.3125 419.7344,59.3125 C420,59.3125 420.2656,59.1719 420.4375,58.9531 C420.5469,58.7969 420.5781,58.6094 420.5781,58.1875 L420.5781,56.7656 C420.5781,56.3281 420.5625,56.2031 420.4688,56.0469 C420.3125,55.7813 420.0313,55.6406 419.7344,55.6406 C419.4375,55.6406 419.2344,55.7344 419.0156,56.0469 L418.8438,55.9688 Z " fill="#000000"/><text fill="#000000" font-family="sans-serif" font-size="14" lengthAdjust="spacing" textLength="91" x="430.5" y="65.1436">GameMaster</text><line style="stroke:#181818;stroke-width:0.5;" x1="402.5" x2="523.5" y1="76.2969" y2="76.2969"/><line style="stroke:#181818;stroke-width:0.5;" x1="402.5" x2="523.5" y1="84.2969" y2="84.2969"/></g><!--MD5=[5981bde1a3ee8640f06406ac94475195]
class GUI_Interface--><g id="elem_GUI_Interface"><rect codeLine="7" fill="#F1F1F1" height="48" id="GUI_Interface" rx="2.5" ry="2.5" style="stroke:#181818;stroke-width:0.5;" width="128" x="286" y="152.2969"/><ellipse cx="301" cy="168.2969" fill="#B4A7E5" rx="11" ry="11" style="stroke:#181818;stroke-width:1.0;"/><path d="M301.9531,165.0781 L303.6719,165.0781 C304.0625,165.0781 304.25,165.0469 304.375,164.9688 C304.6406,164.8125 304.7813,164.5313 304.7813,164.2344 C304.7813,163.9688 304.6719,163.7031 304.4375,163.5313 C304.2656,163.4219 304.125,163.3906 303.6719,163.3906 L298.5313,163.3906 C298.0938,163.3906 297.9688,163.4063 297.8125,163.5 C297.5625,163.6563 297.4063,163.9531 297.4063,164.2344 C297.4063,164.5156 297.5469,164.7656 297.7656,164.9375 C297.9219,165.0469 298.1094,165.0781 298.5313,165.0781 L300.25,165.0781 L300.25,171.5938 L298.5313,171.5938 C298.0938,171.5938 297.9688,171.6094 297.8125,171.7188 C297.5625,171.875 297.4063,172.1563 297.4063,172.4531 C297.4063,172.7031 297.5469,172.9688 297.7656,173.125 C297.9219,173.25 298.125,173.2969 298.5313,173.2969 L303.6719,173.2969 C304.4219,173.2969 304.7813,173.0156 304.7813,172.4531 C304.7813,172.1719 304.6719,171.9219 304.4375,171.75 C304.2656,171.625 304.125,171.5938 303.6719,171.5938 L301.9531,171.5938 L301.9531,165.0781 Z " fill="#000000"/><text fill="#000000" font-family="sans-serif" font-size="14" font-style="italic" lengthAdjust="spacing" textLength="96" x="315" y="173.1436">GUI_Interface</text><line style="stroke:#181818;stroke-width:0.5;" x1="287" x2="413" y1="184.2969" y2="184.2969"/><line style="stroke:#181818;stroke-width:0.5;" x1="287" x2="413" y1="192.2969" y2="192.2969"/></g><!--MD5=[cf561ae263dacadcaff9182d216f13e7]
class Console_GUI--><g id="elem_Console_GUI"><rect codeLine="8" fill="#F1F1F1" height="48" id="Console_GUI" rx="2.5" ry="2.5" style="stroke:#181818;stroke-width:0.5;" width="120" x="13" y="260.2969"/><ellipse cx="28" cy="276.2969" fill="#ADD1B2" rx="11" ry="11" style="stroke:#181818;stroke-width:1.0;"/><path d="M30.3438,271.9688 C29.4063,271.5313 28.8125,271.3906 27.9375,271.3906 C25.3125,271.3906 23.3125,273.4688 23.3125,276.1875 L23.3125,277.3125 C23.3125,279.8906 25.4219,281.7813 28.3125,281.7813 C29.5313,281.7813 30.6875,281.4844 31.4375,280.9375 C32.0156,280.5313 32.3438,280.0781 32.3438,279.6875 C32.3438,279.2344 31.9531,278.8438 31.4844,278.8438 C31.2656,278.8438 31.0625,278.9219 30.875,279.1094 C30.4219,279.5938 30.4219,279.5938 30.2344,279.6875 C29.8125,279.9531 29.125,280.0781 28.3594,280.0781 C26.3125,280.0781 25.0156,278.9844 25.0156,277.2813 L25.0156,276.1875 C25.0156,274.4063 26.2656,273.0938 28,273.0938 C28.5781,273.0938 29.1875,273.25 29.6563,273.5 C30.1406,273.7813 30.3125,274 30.4063,274.4063 C30.4688,274.8125 30.5,274.9375 30.6406,275.0625 C30.7813,275.2031 31.0156,275.3125 31.2344,275.3125 C31.5,275.3125 31.7656,275.1719 31.9375,274.9531 C32.0469,274.7969 32.0781,274.6094 32.0781,274.1875 L32.0781,272.7656 C32.0781,272.3281 32.0625,272.2031 31.9688,272.0469 C31.8125,271.7813 31.5313,271.6406 31.2344,271.6406 C30.9375,271.6406 30.7344,271.7344 30.5156,272.0469 L30.3438,271.9688 Z " fill="#000000"/><text fill="#000000" font-family="sans-serif" font-size="14" lengthAdjust="spacing" textLength="88" x="42" y="281.1436">Console_GUI</text><line style="stroke:#181818;stroke-width:0.5;" x1="14" x2="132" y1="292.2969" y2="292.2969"/><line style="stroke:#181818;stroke-width:0.5;" x1="14" x2="132" y1="300.2969" y2="300.2969"/></g><!--MD5=[406a7696dc715b56bb0f17070b93ff22]
class External_GUI--><g id="elem_External_GUI"><rect codeLine="9" fill="#F1F1F1" height="48" id="External_GUI" rx="2.5" ry="2.5" style="stroke:#181818;stroke-width:0.5;" width="123" x="172.5" y="260.2969"/><ellipse cx="187.5" cy="276.2969" fill="#ADD1B2" rx="11" ry="11" style="stroke:#181818;stroke-width:1.0;"/><path d="M189.8438,271.9688 C188.9063,271.5313 188.3125,271.3906 187.4375,271.3906 C184.8125,271.3906 182.8125,273.4688 182.8125,276.1875 L182.8125,277.3125 C182.8125,279.8906 184.9219,281.7813 187.8125,281.7813 C189.0313,281.7813 190.1875,281.4844 190.9375,280.9375 C191.5156,280.5313 191.8438,280.0781 191.8438,279.6875 C191.8438,279.2344 191.4531,278.8438 190.9844,278.8438 C190.7656,278.8438 190.5625,278.9219 190.375,279.1094 C189.9219,279.5938 189.9219,279.5938 189.7344,279.6875 C189.3125,279.9531 188.625,280.0781 187.8594,280.0781 C185.8125,280.0781 184.5156,278.9844 184.5156,277.2813 L184.5156,276.1875 C184.5156,274.4063 185.7656,273.0938 187.5,273.0938 C188.0781,273.0938 188.6875,273.25 189.1563,273.5 C189.6406,273.7813 189.8125,274 189.9063,274.4063 C189.9688,274.8125 190,274.9375 190.1406,275.0625 C190.2813,275.2031 190.5156,275.3125 190.7344,275.3125 C191,275.3125 191.2656,275.1719 191.4375,274.9531 C191.5469,274.7969 191.5781,274.6094 191.5781,274.1875 L191.5781,272.7656 C191.5781,272.3281 191.5625,272.2031 191.4688,272.0469 C191.3125,271.7813 191.0313,271.6406 190.7344,271.6406 C190.4375,271.6406 190.2344,271.7344 190.0156,272.0469 L189.8438,271.9688 Z " fill="#000000"/><text fill="#000000" font-family="sans-serif" font-size="14" lengthAdjust="spacing" textLength="91" x="201.5" y="281.1436">External_GUI</text><line style="stroke:#181818;stroke-width:0.5;" x1="173.5" x2="294.5" y1="292.2969" y2="292.2969"/><line style="stroke:#181818;stroke-width:0.5;" x1="173.5" x2="294.5" y1="300.2969" y2="300.2969"/></g><!--MD5=[9563755d011c5cec7ec66dc53565a59e]
class Board--><g id="elem_Board"><rect codeLine="14" fill="#F1F1F1" height="48" id="Board" rx="2.5" ry="2.5" style="stroke:#181818;stroke-width:0.5;" width="74" x="760" y="368.2969"/><ellipse cx="775" cy="384.2969" fill="#ADD1B2" rx="11" ry="11" style="stroke:#181818;stroke-width:1.0;"/><path d="M777.3438,379.9688 C776.4063,379.5313 775.8125,379.3906 774.9375,379.3906 C772.3125,379.3906 770.3125,381.4688 770.3125,384.1875 L770.3125,385.3125 C770.3125,387.8906 772.4219,389.7813 775.3125,389.7813 C776.5313,389.7813 777.6875,389.4844 778.4375,388.9375 C779.0156,388.5313 779.3438,388.0781 779.3438,387.6875 C779.3438,387.2344 778.9531,386.8438 778.4844,386.8438 C778.2656,386.8438 778.0625,386.9219 777.875,387.1094 C777.4219,387.5938 777.4219,387.5938 777.2344,387.6875 C776.8125,387.9531 776.125,388.0781 775.3594,388.0781 C773.3125,388.0781 772.0156,386.9844 772.0156,385.2813 L772.0156,384.1875 C772.0156,382.4063 773.2656,381.0938 775,381.0938 C775.5781,381.0938 776.1875,381.25 776.6563,381.5 C777.1406,381.7813 777.3125,382 777.4063,382.4063 C777.4688,382.8125 777.5,382.9375 777.6406,383.0625 C777.7813,383.2031 778.0156,383.3125 778.2344,383.3125 C778.5,383.3125 778.7656,383.1719 778.9375,382.9531 C779.0469,382.7969 779.0781,382.6094 779.0781,382.1875 L779.0781,380.7656 C779.0781,380.3281 779.0625,380.2031 778.9688,380.0469 C778.8125,379.7813 778.5313,379.6406 778.2344,379.6406 C777.9375,379.6406 777.7344,379.7344 777.5156,380.0469 L777.3438,379.9688 Z " fill="#000000"/><text fill="#000000" font-family="sans-serif" font-size="14" lengthAdjust="spacing" textLength="42" x="789" y="389.1436">Board</text><line style="stroke:#181818;stroke-width:0.5;" x1="761" x2="833" y1="400.2969" y2="400.2969"/><line style="stroke:#181818;stroke-width:0.5;" x1="761" x2="833" y1="408.2969" y2="408.2969"/></g><!--MD5=[fea3dc74c7473bae0133d22265a91e2f]
class Cell--><g id="elem_Cell"><rect codeLine="15" fill="#F1F1F1" height="48" id="Cell" rx="2.5" ry="2.5" style="stroke:#181818;stroke-width:0.5;" width="59" x="670.5" y="476.2969"/><ellipse cx="685.5" cy="492.2969" fill="#ADD1B2" rx="11" ry="11" style="stroke:#181818;stroke-width:1.0;"/><path d="M687.8438,487.9688 C686.9063,487.5313 686.3125,487.3906 685.4375,487.3906 C682.8125,487.3906 680.8125,489.4688 680.8125,492.1875 L680.8125,493.3125 C680.8125,495.8906 682.9219,497.7813 685.8125,497.7813 C687.0313,497.7813 688.1875,497.4844 688.9375,496.9375 C689.5156,496.5313 689.8438,496.0781 689.8438,495.6875 C689.8438,495.2344 689.4531,494.8438 688.9844,494.8438 C688.7656,494.8438 688.5625,494.9219 688.375,495.1094 C687.9219,495.5938 687.9219,495.5938 687.7344,495.6875 C687.3125,495.9531 686.625,496.0781 685.8594,496.0781 C683.8125,496.0781 682.5156,494.9844 682.5156,493.2813 L682.5156,492.1875 C682.5156,490.4063 683.7656,489.0938 685.5,489.0938 C686.0781,489.0938 686.6875,489.25 687.1563,489.5 C687.6406,489.7813 687.8125,490 687.9063,490.4063 C687.9688,490.8125 688,490.9375 688.1406,491.0625 C688.2813,491.2031 688.5156,491.3125 688.7344,491.3125 C689,491.3125 689.2656,491.1719 689.4375,490.9531 C689.5469,490.7969 689.5781,490.6094 689.5781,490.1875 L689.5781,488.7656 C689.5781,488.3281 689.5625,488.2031 689.4688,488.0469 C689.3125,487.7813 689.0313,487.6406 688.7344,487.6406 C688.4375,487.6406 688.2344,487.7344 688.0156,488.0469 L687.8438,487.9688 Z " fill="#000000"/><text fill="#000000" font-family="sans-serif" font-size="14" lengthAdjust="spacing" textLength="27" x="699.5" y="497.1436">Cell</text><line style="stroke:#181818;stroke-width:0.5;" x1="671.5" x2="728.5" y1="508.2969" y2="508.2969"/><line style="stroke:#181818;stroke-width:0.5;" x1="671.5" x2="728.5" y1="516.2969" y2="516.2969"/></g><!--MD5=[0dc7f2ddb409b58bcf52b12238c25399]
class Ship--><g id="elem_Ship"><rect codeLine="16" fill="#F1F1F1" height="48" id="Ship" rx="2.5" ry="2.5" style="stroke:#181818;stroke-width:0.5;" width="64" x="765" y="476.2969"/><ellipse cx="780" cy="492.2969" fill="#ADD1B2" rx="11" ry="11" style="stroke:#181818;stroke-width:1.0;"/><path d="M782.3438,487.9688 C781.4063,487.5313 780.8125,487.3906 779.9375,487.3906 C777.3125,487.3906 775.3125,489.4688 775.3125,492.1875 L775.3125,493.3125 C775.3125,495.8906 777.4219,497.7813 780.3125,497.7813 C781.5313,497.7813 782.6875,497.4844 783.4375,496.9375 C784.0156,496.5313 784.3438,496.0781 784.3438,495.6875 C784.3438,495.2344 783.9531,494.8438 783.4844,494.8438 C783.2656,494.8438 783.0625,494.9219 782.875,495.1094 C782.4219,495.5938 782.4219,495.5938 782.2344,495.6875 C781.8125,495.9531 781.125,496.0781 780.3594,496.0781 C778.3125,496.0781 777.0156,494.9844 777.0156,493.2813 L777.0156,492.1875 C777.0156,490.4063 778.2656,489.0938 780,489.0938 C780.5781,489.0938 781.1875,489.25 781.6563,489.5 C782.1406,489.7813 782.3125,490 782.4063,490.4063 C782.4688,490.8125 782.5,490.9375 782.6406,491.0625 C782.7813,491.2031 783.0156,491.3125 783.2344,491.3125 C783.5,491.3125 783.7656,491.1719 783.9375,490.9531 C784.0469,490.7969 784.0781,490.6094 784.0781,490.1875 L784.0781,488.7656 C784.0781,488.3281 784.0625,488.2031 783.9688,488.0469 C783.8125,487.7813 783.5313,487.6406 783.2344,487.6406 C782.9375,487.6406 782.7344,487.7344 782.5156,488.0469 L782.3438,487.9688 Z " fill="#000000"/><text fill="#000000" font-family="sans-serif" font-size="14" lengthAdjust="spacing" textLength="32" x="794" y="497.1436">Ship</text><line style="stroke:#181818;stroke-width:0.5;" x1="766" x2="828" y1="508.2969" y2="508.2969"/><line style="stroke:#181818;stroke-width:0.5;" x1="766" x2="828" y1="516.2969" y2="516.2969"/></g><!--MD5=[a64a835c3d62471a77f615251fdde58a]
class Position--><g id="elem_Position"><rect codeLine="17" fill="#F1F1F1" height="48" id="Position" rx="2.5" ry="2.5" style="stroke:#181818;stroke-width:0.5;" width="90" x="425" y="476.2969"/><ellipse cx="440" cy="492.2969" fill="#ADD1B2" rx="11" ry="11" style="stroke:#181818;stroke-width:1.0;"/><path d="M442.3438,487.9688 C441.4063,487.5313 440.8125,487.3906 439.9375,487.3906 C437.3125,487.3906 435.3125,489.4688 435.3125,492.1875 L435.3125,493.3125 C435.3125,495.8906 437.4219,497.7813 440.3125,497.7813 C441.5313,497.7813 442.6875,497.4844 443.4375,496.9375 C444.0156,496.5313 444.3438,496.0781 444.3438,495.6875 C444.3438,495.2344 443.9531,494.8438 443.4844,494.8438 C443.2656,494.8438 443.0625,494.9219 442.875,495.1094 C442.4219,495.5938 442.4219,495.5938 442.2344,495.6875 C441.8125,495.9531 441.125,496.0781 440.3594,496.0781 C438.3125,496.0781 437.0156,494.9844 437.0156,493.2813 L437.0156,492.1875 C437.0156,490.4063 438.2656,489.0938 440,489.0938 C440.5781,489.0938 441.1875,489.25 441.6563,489.5 C442.1406,489.7813 442.3125,490 442.4063,490.4063 C442.4688,490.8125 442.5,490.9375 442.6406,491.0625 C442.7813,491.2031 443.0156,491.3125 443.2344,491.3125 C443.5,491.3125 443.7656,491.1719 443.9375,490.9531 C444.0469,490.7969 444.0781,490.6094 444.0781,490.1875 L444.0781,488.7656 C444.0781,488.3281 444.0625,488.2031 443.9688,488.0469 C443.8125,487.7813 443.5313,487.6406 443.2344,487.6406 C442.9375,487.6406 442.7344,487.7344 442.5156,488.0469 L442.3438,487.9688 Z " fill="#000000"/><text fill="#000000" font-family="sans-serif" font-size="14" lengthAdjust="spacing" textLength="58" x="454" y="497.1436">Position</text><line style="stroke:#181818;stroke-width:0.5;" x1="426" x2="514" y1="508.2969" y2="508.2969"/><line style="stroke:#181818;stroke-width:0.5;" x1="426" x2="514" y1="516.2969" y2="516.2969"/></g><!--MD5=[de24a0e5aa96eabda4f0128bea6066b5]
class Global_Settings--><g id="elem_Global_Settings"><rect codeLine="18" fill="#F1F1F1" height="48" id="Global_Settings" rx="2.5" ry="2.5" style="stroke:#181818;stroke-width:0.5;" width="146" x="403" y="260.2969"/><ellipse cx="418" cy="276.2969" fill="#ADD1B2" rx="11" ry="11" style="stroke:#181818;stroke-width:1.0;"/><path d="M420.3438,271.9688 C419.4063,271.5313 418.8125,271.3906 417.9375,271.3906 C415.3125,271.3906 413.3125,273.4688 413.3125,276.1875 L413.3125,277.3125 C413.3125,279.8906 415.4219,281.7813 418.3125,281.7813 C419.5313,281.7813 420.6875,281.4844 421.4375,280.9375 C422.0156,280.5313 422.3438,280.0781 422.3438,279.6875 C422.3438,279.2344 421.9531,278.8438 421.4844,278.8438 C421.2656,278.8438 421.0625,278.9219 420.875,279.1094 C420.4219,279.5938 420.4219,279.5938 420.2344,279.6875 C419.8125,279.9531 419.125,280.0781 418.3594,280.0781 C416.3125,280.0781 415.0156,278.9844 415.0156,277.2813 L415.0156,276.1875 C415.0156,274.4063 416.2656,273.0938 418,273.0938 C418.5781,273.0938 419.1875,273.25 419.6563,273.5 C420.1406,273.7813 420.3125,274 420.4063,274.4063 C420.4688,274.8125 420.5,274.9375 420.6406,275.0625 C420.7813,275.2031 421.0156,275.3125 421.2344,275.3125 C421.5,275.3125 421.7656,275.1719 421.9375,274.9531 C422.0469,274.7969 422.0781,274.6094 422.0781,274.1875 L422.0781,272.7656 C422.0781,272.3281 422.0625,272.2031 421.9688,272.0469 C421.8125,271.7813 421.5313,271.6406 421.2344,271.6406 C420.9375,271.6406 420.7344,271.7344 420.5156,272.0469 L420.3438,271.9688 Z " fill="#000000"/><text fill="#000000" font-family="sans-serif" font-size="14" lengthAdjust="spacing" textLength="114" x="432" y="281.1436">Global_Settings</text><line style="stroke:#181818;stroke-width:0.5;" x1="404" x2="548" y1="292.2969" y2="292.2969"/><line style="stroke:#181818;stroke-width:0.5;" x1="404" x2="548" y1="300.2969" y2="300.2969"/></g><g id="elem_GMN712033"><path d="M864,487.7969 L864,512.9297 A0,0 0 0 0 864,512.9297 L992,512.9297 A0,0 0 0 0 992,512.9297 L992,497.7969 L982,487.7969 L931.565,487.7969 L924.868,416.2969 L923.565,487.7969 L864,487.7969 A0,0 0 0 0 864,487.7969 " fill="#FEFFDD" style="stroke:#181818;stroke-width:0.5;"/><path d="M982,487.7969 L982,497.7969 L992,497.7969 L982,487.7969 " fill="#FEFFDD" style="stroke:#181818;stroke-width:0.5;"/><text fill="#000000" font-family="sans-serif" font-size="13" lengthAdjust="spacing" textLength="107" x="870" y="504.8638">Wait next patch!</text></g><g id="elem_GMN712036"><path d="M6,379.7969 L6,404.9297 A0,0 0 0 0 6,404.9297 L134,404.9297 A0,0 0 0 0 134,404.9297 L134,389.7969 L124,379.7969 L74.3261,379.7969 L72.349,308.2969 L66.3261,379.7969 L6,379.7969 A0,0 0 0 0 6,379.7969 " fill="#FEFFDD" style="stroke:#181818;stroke-width:0.5;"/><path d="M124,379.7969 L124,389.7969 L134,389.7969 L124,379.7969 " fill="#FEFFDD" style="stroke:#181818;stroke-width:0.5;"/><text fill="#000000" font-family="sans-serif" font-size="13" lengthAdjust="spacing" textLength="107" x="12" y="396.8638">Wait next patch!</text></g><g id="elem_GMN712039"><path d="M169,379.7969 L169,404.9297 A0,0 0 0 0 169,404.9297 L297,404.9297 A0,0 0 0 0 297,404.9297 L297,389.7969 L287,379.7969 L237.109,379.7969 L233.783,308.2969 L229.109,379.7969 L169,379.7969 A0,0 0 0 0 169,379.7969 " fill="#FEFFDD" style="stroke:#181818;stroke-width:0.5;"/><path d="M287,379.7969 L287,389.7969 L297,389.7969 L287,379.7969 " fill="#FEFFDD" style="stroke:#181818;stroke-width:0.5;"/><text fill="#000000" font-family="sans-serif" font-size="13" lengthAdjust="spacing" textLength="107" x="175" y="396.8638">Wait next patch!</text></g><!--MD5=[67b8ad7034a7d913c7a8af0016da120d]
reverse link Player to Bot_Player--><g id="link_Player_Bot_Player"><path codeLine="25" d="M744.476,302.1729 C776.827,312.5709 817.526,327.1799 852,344.2969 C865.638,351.0679 879.838,359.9049 891.987,368.0869 " fill="none" id="Player-backto-Bot_Player" style="stroke:#181818;stroke-width:1.0;stroke-dasharray:7.0,7.0;"/><polygon fill="none" points="742.062,308.7519,725.057,296.1099,746.235,295.3889,742.062,308.7519" style="stroke:#181818;stroke-width:1.0;"/></g><!--MD5=[05363119a5f27507a3f56e879b167fa8]
reverse link Player to Console_Player--><g id="link_Player_Console_Player"><path codeLine="26" d="M745.252,291.1119 C808.415,298.6269 911.518,314.4499 996,344.2969 C1013.31,350.4129 1031.37,359.5219 1046.6,368.0969 " fill="none" id="Player-backto-Console_Player" style="stroke:#181818;stroke-width:1.0;stroke-dasharray:7.0,7.0;"/><polygon fill="none" points="744.148,298.0319,725.06,288.8319,745.719,284.1199,744.148,298.0319" style="stroke:#181818;stroke-width:1.0;"/></g><!--MD5=[0f821ea157ba3461bf69a319da3b2d87]
reverse link GUI_Interface to Console_GUI--><g id="link_GUI_Interface_Console_GUI"><path codeLine="28" d="M266.546,198.0539 C231.455,207.9259 190.597,220.9469 155,236.2969 C139.48,242.9889 123.175,251.9049 109.229,260.1709 " fill="none" id="GUI_Interface-backto-Console_GUI" style="stroke:#181818;stroke-width:1.0;stroke-dasharray:7.0,7.0;"/><polygon fill="none" points="264.777,191.2809,285.915,192.7549,268.471,204.7839,264.777,191.2809" style="stroke:#181818;stroke-width:1.0;"/></g><!--MD5=[1835aff13bb263144c59b51818ed8f72]
reverse link GUI_Interface to External_GUI--><g id="link_GUI_Interface_External_GUI"><path codeLine="29" d="M309.976,213.8699 C293.249,229.1559 274.307,246.4639 259.522,259.9749 " fill="none" id="GUI_Interface-backto-External_GUI" style="stroke:#181818;stroke-width:1.0;stroke-dasharray:7.0,7.0;"/><polygon fill="none" points="305.343,208.6209,324.83,200.2969,314.788,218.9559,305.343,208.6209" style="stroke:#181818;stroke-width:1.0;"/></g><!--MD5=[8e059821b8a9b3c4c2ec94253d2405c5]
reverse link GameMaster to GUI_Interface--><g id="link_GameMaster_GUI_Interface"><path codeLine="31" d="M428.707,101.4649 C411.351,117.7469 390.668,137.1479 374.862,151.9749 " fill="none" id="GameMaster-backto-GUI_Interface" style="stroke:#181818;stroke-width:1.0;"/><polygon fill="none" points="438.481,92.2969,431.3684,93.4845,429.7291,100.5068,436.8417,99.3192,438.481,92.2969" style="stroke:#181818;stroke-width:1.0;"/><text fill="#000000" font-family="sans-serif" font-size="13" lengthAdjust="spacing" textLength="8" x="423.173" y="112.4527">1</text><text fill="#000000" font-family="sans-serif" font-size="13" lengthAdjust="spacing" textLength="8" x="371.9471" y="141.3013">1</text></g><!--MD5=[bb300298e8a61e0a01e869eec431cab4]
reverse link GameMaster to Player--><g id="link_GameMaster_Player"><path codeLine="32" d="M496.85,101.6359 C542.45,145.1999 622.509,221.6849 662.632,260.0169 " fill="none" id="GameMaster-backto-Player" style="stroke:#181818;stroke-width:1.0;"/><polygon fill="#181818" points="487.398,92.6059,488.9734,99.6428,496.0749,100.8951,494.4995,93.8582,487.398,92.6059" style="stroke:#181818;stroke-width:1.0;"/><text fill="#000000" font-family="sans-serif" font-size="13" lengthAdjust="spacing" textLength="8" x="484.37" y="112.4424">1</text><text fill="#000000" font-family="sans-serif" font-size="13" lengthAdjust="spacing" textLength="23" x="630.8892" y="249.3536">2..*</text></g><!--MD5=[4c47dfb9d4ba9e03169fd2fa2e83336c]
reverse link Player to Board--><g id="link_Player_Board"><path codeLine="34" d="M720.382,317.4649 C737.278,333.7469 757.411,353.1479 772.798,367.9749 " fill="none" id="Player-backto-Board" style="stroke:#181818;stroke-width:1.0;"/><polygon fill="#181818" points="710.868,308.2969,712.4122,315.3407,719.5081,316.6245,717.9639,309.5806,710.868,308.2969" style="stroke:#181818;stroke-width:1.0;"/><text fill="#000000" font-family="sans-serif" font-size="13" lengthAdjust="spacing" textLength="8" x="707.9592" y="328.4527">1</text><text fill="#000000" font-family="sans-serif" font-size="13" lengthAdjust="spacing" textLength="8" x="757.9238" y="357.3013">1</text></g><!--MD5=[5778a4432fb065f83ccf0aa932a03c78]
reverse link Board to Cell--><g id="link_Board_Cell"><path codeLine="36" d="M767.145,425.9224 C752.332,442.109 734.783,461.2863 721.341,475.9753 " fill="none" id="Board-backto-Cell" style="stroke:#181818;stroke-width:1.0;"/><polygon fill="#181818" points="775.952,416.2969,768.9504,418.0226,767.8505,425.1493,774.852,423.4236,775.952,416.2969" style="stroke:#181818;stroke-width:1.0;"/><text fill="#000000" font-family="sans-serif" font-size="13" lengthAdjust="spacing" textLength="8" x="761.5335" y="436.4527">1</text><text fill="#000000" font-family="sans-serif" font-size="13" lengthAdjust="spacing" textLength="23" x="700.7397" y="465.3018">1..*</text></g><!--MD5=[a28d51ba30d9767a73544c25a0e18962]
reverse link Board to Ship--><g id="link_Board_Ship"><path codeLine="37" d="M797,429.6352 C797,444.9782 797,462.3949 797,475.9753 " fill="none" id="Board-backto-Ship" style="stroke:#181818;stroke-width:1.0;"/><polygon fill="#181818" points="797,416.2969,793,422.2969,797,428.2969,801,422.2969,797,416.2969" style="stroke:#181818;stroke-width:1.0;"/><text fill="#000000" font-family="sans-serif" font-size="13" lengthAdjust="spacing" textLength="8" x="787.975" y="436.4527">1</text><text fill="#000000" font-family="sans-serif" font-size="13" lengthAdjust="spacing" textLength="23" x="771.1969" y="465.3018">0..*</text></g><!--MD5=[b500098ad540578f1c6e50180dd853f7]
reverse link Global_Settings to Player_Settings--><g id="link_Global_Settings_Player_Settings"><path codeLine="39" d="M525.605,315.0039 C553.694,331.8259 588.308,352.5549 614.363,368.1589 " fill="none" id="Global_Settings-backto-Player_Settings" style="stroke:#181818;stroke-width:1.0;"/><polygon fill="#181818" points="514.406,308.2969,517.4986,314.8111,524.7013,314.4619,521.6086,307.9476,514.406,308.2969" style="stroke:#181818;stroke-width:1.0;"/><text fill="#000000" font-family="sans-serif" font-size="13" lengthAdjust="spacing" textLength="8" x="515.2225" y="328.4527">1</text><text fill="#000000" font-family="sans-serif" font-size="13" lengthAdjust="spacing" textLength="23" x="578.5154" y="357.1355">2..*</text></g><!--MD5=[84849858c2a18bf6b849b07c7a4117ae]
reverse link GUI_Interface to Position--><g id="link_GUI_Interface_Position"><path codeLine="42" d="M356.178,205.5089 C362.364,232.3059 372.713,273.5489 385,308.2969 C407.023,370.5749 440.694,440.8389 458.319,476.2565 " fill="none" id="GUI_Interface-backto-Position" style="stroke:#181818;stroke-width:1.0;"/><polygon fill="#181818" points="354.997,200.3489,353.1066,210.0146,356.1129,205.2228,360.9048,208.2291,354.997,200.3489" style="stroke:#181818;stroke-width:1.0;"/></g><!--MD5=[d87efe38288fbc3a4bdf6f747e15e403]
reverse link Board to Position--><g id="link_Board_Position"><path codeLine="43" d="M770.392,420.1259 C761.653,427.642 751.477,435.1542 741,440.2969 C667.086,476.5776 571.001,490.7143 515.343,496.1022 " fill="none" id="Board-backto-Position" style="stroke:#181818;stroke-width:1.0;"/><polygon fill="#181818" points="774.561,416.4469,765.1664,419.4035,770.8123,419.7556,770.4603,425.4014,774.561,416.4469" style="stroke:#181818;stroke-width:1.0;"/></g><!--MD5=[4c006046f25cb5698c5443b30579213a]
reverse link Player to Player_Settings--><g id="link_Player_Player_Settings"><path codeLine="45" d="M677.977,313.4279 C672.517,330.4509 665.637,351.9009 660.481,367.9749 " fill="none" id="Player-backto-Player_Settings" style="stroke:#181818;stroke-width:1.0;"/><polygon fill="#181818" points="679.623,308.2969,673.0654,315.6452,678.096,313.058,680.6832,318.0885,679.623,308.2969" style="stroke:#181818;stroke-width:1.0;"/></g><!--MD5=[a416576cbb30ecbac4eab05accca1bee]
reverse link GUI_Interface to Global_Settings--><g id="link_GUI_Interface_Global_Settings"><path codeLine="46" d="M381.364,203.6829 C401.907,220.9649 428.512,243.3459 448.278,259.9749 " fill="none" id="GUI_Interface-backto-Global_Settings" style="stroke:#181818;stroke-width:1.0;"/><polygon fill="#181818" points="377.34,200.2969,381.6518,209.1517,381.1661,203.5157,386.802,203.03,377.34,200.2969" style="stroke:#181818;stroke-width:1.0;"/></g><!--MD5=[4de84b5b18b73ddfd46cea988c7d0db2]
@startuml
title Battleship game class Diagram
class GameMaster {}
together {
Interface Player
class Player_Settings
}
interface GUI_Interface {}
class Console_GUI {}
class External_GUI {}
together {
class Console_Player {}
class Bot_Player {}
}
class Board {}
class Cell {}
class Ship {}
class Position {}
class Global_Settings {}

note bottom of Bot_Player : Wait next patch!
note bottom of Console_GUI : Wait next patch!
note bottom of External_GUI : Wait next patch!


Player <|.. Bot_Player
Player <|.. Console_Player

GUI_Interface <|.. Console_GUI
GUI_Interface <|.. External_GUI

GameMaster "1" o- - "1" GUI_Interface
GameMaster "1" *- - "2..*" Player

Player "1" *- - "1" Board 

Board "1" *- - "1..*" Cell
Board "1" *- - "0..*" Ship

Global_Settings "1" *- - "2..*" Player_Settings


GUI_Interface <- - Position
Board <- - Position

Player <- - Player_Settings
GUI_Interface <- - Global_Settings
@enduml

PlantUML version 1.2022.3beta2(Unknown compile time)
(GPL source distribution)
Java Runtime: Java(TM) SE Runtime Environment
JVM: Java HotSpot(TM) 64-Bit Server VM
Default Encoding: UTF-8
Language: en
Country: US
--></g></svg>