<?xml version="1.0" encoding="UTF-8" standalone="no"?><svg xmlns="http://www.w3.org/2000/svg" xmlns:xlink="http://www.w3.org/1999/xlink" contentStyleType="text/css" height="1057px" preserveAspectRatio="none" style="width:1897px;height:1057px;background:#FFFFFF;" version="1.1" viewBox="0 0 1897 1057" width="1897px" zoomAndPan="magnify"><defs/><g><!--MD5=[bb0098c3e34d5c26d7279c3951f45627]
class ConsoleGUI--><g id="elem_ConsoleGUI"><rect codeLine="44" fill="#F1F1F1" height="48" id="ConsoleGUI" rx="2.5" ry="2.5" style="stroke:#181818;stroke-width:0.5;" width="113" x="1481" y="853.5"/><ellipse cx="1496" cy="869.5" fill="#ADD1B2" rx="11" ry="11" style="stroke:#181818;stroke-width:1.0;"/><path d="M1498.3438,865.1719 C1497.4063,864.7344 1496.8125,864.5938 1495.9375,864.5938 C1493.3125,864.5938 1491.3125,866.6719 1491.3125,869.3906 L1491.3125,870.5156 C1491.3125,873.0938 1493.4219,874.9844 1496.3125,874.9844 C1497.5313,874.9844 1498.6875,874.6875 1499.4375,874.1406 C1500.0156,873.7344 1500.3438,873.2813 1500.3438,872.8906 C1500.3438,872.4375 1499.9531,872.0469 1499.4844,872.0469 C1499.2656,872.0469 1499.0625,872.125 1498.875,872.3125 C1498.4219,872.7969 1498.4219,872.7969 1498.2344,872.8906 C1497.8125,873.1563 1497.125,873.2813 1496.3594,873.2813 C1494.3125,873.2813 1493.0156,872.1875 1493.0156,870.4844 L1493.0156,869.3906 C1493.0156,867.6094 1494.2656,866.2969 1496,866.2969 C1496.5781,866.2969 1497.1875,866.4531 1497.6563,866.7031 C1498.1406,866.9844 1498.3125,867.2031 1498.4063,867.6094 C1498.4688,868.0156 1498.5,868.1406 1498.6406,868.2656 C1498.7813,868.4063 1499.0156,868.5156 1499.2344,868.5156 C1499.5,868.5156 1499.7656,868.375 1499.9375,868.1563 C1500.0469,868 1500.0781,867.8125 1500.0781,867.3906 L1500.0781,865.9688 C1500.0781,865.5313 1500.0625,865.4063 1499.9688,865.25 C1499.8125,864.9844 1499.5313,864.8438 1499.2344,864.8438 C1498.9375,864.8438 1498.7344,864.9375 1498.5156,865.25 L1498.3438,865.1719 Z " fill="#000000"/><text fill="#000000" font-family="sans-serif" font-size="14" lengthAdjust="spacing" textLength="81" x="1510" y="874.3467">ConsoleGUI</text><line style="stroke:#181818;stroke-width:0.5;" x1="1482" x2="1593" y1="885.5" y2="885.5"/><line style="stroke:#181818;stroke-width:0.5;" x1="1482" x2="1593" y1="893.5" y2="893.5"/></g><!--MD5=[ba3e1c2e0974ce3751c5a046599f5ee5]
class ExternalGUI--><g id="elem_ExternalGUI"><rect codeLine="45" fill="#F1F1F1" height="48" id="ExternalGUI" rx="2.5" ry="2.5" style="stroke:#181818;stroke-width:0.5;" width="116" x="1629.5" y="853.5"/><ellipse cx="1644.5" cy="869.5" fill="#ADD1B2" rx="11" ry="11" style="stroke:#181818;stroke-width:1.0;"/><path d="M1646.8438,865.1719 C1645.9063,864.7344 1645.3125,864.5938 1644.4375,864.5938 C1641.8125,864.5938 1639.8125,866.6719 1639.8125,869.3906 L1639.8125,870.5156 C1639.8125,873.0938 1641.9219,874.9844 1644.8125,874.9844 C1646.0313,874.9844 1647.1875,874.6875 1647.9375,874.1406 C1648.5156,873.7344 1648.8438,873.2813 1648.8438,872.8906 C1648.8438,872.4375 1648.4531,872.0469 1647.9844,872.0469 C1647.7656,872.0469 1647.5625,872.125 1647.375,872.3125 C1646.9219,872.7969 1646.9219,872.7969 1646.7344,872.8906 C1646.3125,873.1563 1645.625,873.2813 1644.8594,873.2813 C1642.8125,873.2813 1641.5156,872.1875 1641.5156,870.4844 L1641.5156,869.3906 C1641.5156,867.6094 1642.7656,866.2969 1644.5,866.2969 C1645.0781,866.2969 1645.6875,866.4531 1646.1563,866.7031 C1646.6406,866.9844 1646.8125,867.2031 1646.9063,867.6094 C1646.9688,868.0156 1647,868.1406 1647.1406,868.2656 C1647.2813,868.4063 1647.5156,868.5156 1647.7344,868.5156 C1648,868.5156 1648.2656,868.375 1648.4375,868.1563 C1648.5469,868 1648.5781,867.8125 1648.5781,867.3906 L1648.5781,865.9688 C1648.5781,865.5313 1648.5625,865.4063 1648.4688,865.25 C1648.3125,864.9844 1648.0313,864.8438 1647.7344,864.8438 C1647.4375,864.8438 1647.2344,864.9375 1647.0156,865.25 L1646.8438,865.1719 Z " fill="#000000"/><text fill="#000000" font-family="sans-serif" font-size="14" lengthAdjust="spacing" textLength="84" x="1658.5" y="874.3467">ExternalGUI</text><line style="stroke:#181818;stroke-width:0.5;" x1="1630.5" x2="1744.5" y1="885.5" y2="885.5"/><line style="stroke:#181818;stroke-width:0.5;" x1="1630.5" x2="1744.5" y1="893.5" y2="893.5"/></g><!--MD5=[c9258217e9bf77cef15858c9efd4d2a2]
class HumanPlayer--><g id="elem_HumanPlayer"><rect codeLine="48" fill="#F1F1F1" height="48" id="HumanPlayer" rx="2.5" ry="2.5" style="stroke:#181818;stroke-width:0.5;" width="125" x="1056" y="467"/><ellipse cx="1071" cy="483" fill="#ADD1B2" rx="11" ry="11" style="stroke:#181818;stroke-width:1.0;"/><path d="M1073.3438,478.6719 C1072.4063,478.2344 1071.8125,478.0938 1070.9375,478.0938 C1068.3125,478.0938 1066.3125,480.1719 1066.3125,482.8906 L1066.3125,484.0156 C1066.3125,486.5938 1068.4219,488.4844 1071.3125,488.4844 C1072.5313,488.4844 1073.6875,488.1875 1074.4375,487.6406 C1075.0156,487.2344 1075.3438,486.7813 1075.3438,486.3906 C1075.3438,485.9375 1074.9531,485.5469 1074.4844,485.5469 C1074.2656,485.5469 1074.0625,485.625 1073.875,485.8125 C1073.4219,486.2969 1073.4219,486.2969 1073.2344,486.3906 C1072.8125,486.6563 1072.125,486.7813 1071.3594,486.7813 C1069.3125,486.7813 1068.0156,485.6875 1068.0156,483.9844 L1068.0156,482.8906 C1068.0156,481.1094 1069.2656,479.7969 1071,479.7969 C1071.5781,479.7969 1072.1875,479.9531 1072.6563,480.2031 C1073.1406,480.4844 1073.3125,480.7031 1073.4063,481.1094 C1073.4688,481.5156 1073.5,481.6406 1073.6406,481.7656 C1073.7813,481.9063 1074.0156,482.0156 1074.2344,482.0156 C1074.5,482.0156 1074.7656,481.875 1074.9375,481.6563 C1075.0469,481.5 1075.0781,481.3125 1075.0781,480.8906 L1075.0781,479.4688 C1075.0781,479.0313 1075.0625,478.9063 1074.9688,478.75 C1074.8125,478.4844 1074.5313,478.3438 1074.2344,478.3438 C1073.9375,478.3438 1073.7344,478.4375 1073.5156,478.75 L1073.3438,478.6719 Z " fill="#000000"/><text fill="#000000" font-family="sans-serif" font-size="14" lengthAdjust="spacing" textLength="93" x="1085" y="487.8467">HumanPlayer</text><line style="stroke:#181818;stroke-width:0.5;" x1="1057" x2="1180" y1="499" y2="499"/><line style="stroke:#181818;stroke-width:0.5;" x1="1057" x2="1180" y1="507" y2="507"/></g><!--MD5=[5f7a1d5056c7d80958fde22b7188240f]
class Bot--><g id="elem_Bot"><rect codeLine="49" fill="#F1F1F1" height="48" id="Bot" rx="2.5" ry="2.5" style="stroke:#181818;stroke-width:0.5;" width="56" x="964.5" y="467"/><ellipse cx="979.5" cy="483" fill="#B4A7E5" rx="11" ry="11" style="stroke:#181818;stroke-width:1.0;"/><path d="M980.4531,479.7813 L982.1719,479.7813 C982.5625,479.7813 982.75,479.75 982.875,479.6719 C983.1406,479.5156 983.2813,479.2344 983.2813,478.9375 C983.2813,478.6719 983.1719,478.4063 982.9375,478.2344 C982.7656,478.125 982.625,478.0938 982.1719,478.0938 L977.0313,478.0938 C976.5938,478.0938 976.4688,478.1094 976.3125,478.2031 C976.0625,478.3594 975.9063,478.6563 975.9063,478.9375 C975.9063,479.2188 976.0469,479.4688 976.2656,479.6406 C976.4219,479.75 976.6094,479.7813 977.0313,479.7813 L978.75,479.7813 L978.75,486.2969 L977.0313,486.2969 C976.5938,486.2969 976.4688,486.3125 976.3125,486.4219 C976.0625,486.5781 975.9063,486.8594 975.9063,487.1563 C975.9063,487.4063 976.0469,487.6719 976.2656,487.8281 C976.4219,487.9531 976.625,488 977.0313,488 L982.1719,488 C982.9219,488 983.2813,487.7188 983.2813,487.1563 C983.2813,486.875 983.1719,486.625 982.9375,486.4531 C982.7656,486.3281 982.625,486.2969 982.1719,486.2969 L980.4531,486.2969 L980.4531,479.7813 Z " fill="#000000"/><text fill="#000000" font-family="sans-serif" font-size="14" font-style="italic" lengthAdjust="spacing" textLength="24" x="993.5" y="487.8467">Bot</text><line style="stroke:#181818;stroke-width:0.5;" x1="965.5" x2="1019.5" y1="499" y2="499"/><line style="stroke:#181818;stroke-width:0.5;" x1="965.5" x2="1019.5" y1="507" y2="507"/></g><!--MD5=[bfd3941a319f7f13d0be9f9b5ee858c2]
class EasyBot--><g id="elem_EasyBot"><rect codeLine="52" fill="#F1F1F1" height="48" id="EasyBot" rx="2.5" ry="2.5" style="stroke:#181818;stroke-width:0.5;" width="90" x="1153.5" y="664.5"/><ellipse cx="1168.5" cy="680.5" fill="#ADD1B2" rx="11" ry="11" style="stroke:#181818;stroke-width:1.0;"/><path d="M1170.8438,676.1719 C1169.9063,675.7344 1169.3125,675.5938 1168.4375,675.5938 C1165.8125,675.5938 1163.8125,677.6719 1163.8125,680.3906 L1163.8125,681.5156 C1163.8125,684.0938 1165.9219,685.9844 1168.8125,685.9844 C1170.0313,685.9844 1171.1875,685.6875 1171.9375,685.1406 C1172.5156,684.7344 1172.8438,684.2813 1172.8438,683.8906 C1172.8438,683.4375 1172.4531,683.0469 1171.9844,683.0469 C1171.7656,683.0469 1171.5625,683.125 1171.375,683.3125 C1170.9219,683.7969 1170.9219,683.7969 1170.7344,683.8906 C1170.3125,684.1563 1169.625,684.2813 1168.8594,684.2813 C1166.8125,684.2813 1165.5156,683.1875 1165.5156,681.4844 L1165.5156,680.3906 C1165.5156,678.6094 1166.7656,677.2969 1168.5,677.2969 C1169.0781,677.2969 1169.6875,677.4531 1170.1563,677.7031 C1170.6406,677.9844 1170.8125,678.2031 1170.9063,678.6094 C1170.9688,679.0156 1171,679.1406 1171.1406,679.2656 C1171.2813,679.4063 1171.5156,679.5156 1171.7344,679.5156 C1172,679.5156 1172.2656,679.375 1172.4375,679.1563 C1172.5469,679 1172.5781,678.8125 1172.5781,678.3906 L1172.5781,676.9688 C1172.5781,676.5313 1172.5625,676.4063 1172.4688,676.25 C1172.3125,675.9844 1172.0313,675.8438 1171.7344,675.8438 C1171.4375,675.8438 1171.2344,675.9375 1171.0156,676.25 L1170.8438,676.1719 Z " fill="#000000"/><text fill="#000000" font-family="sans-serif" font-size="14" lengthAdjust="spacing" textLength="58" x="1182.5" y="685.3467">EasyBot</text><line style="stroke:#181818;stroke-width:0.5;" x1="1154.5" x2="1242.5" y1="696.5" y2="696.5"/><line style="stroke:#181818;stroke-width:0.5;" x1="1154.5" x2="1242.5" y1="704.5" y2="704.5"/></g><!--MD5=[58edd4ca3a0a74b14c34fdd7cc0af4ab]
class MediumBot--><g id="elem_MediumBot"><rect codeLine="53" fill="#F1F1F1" height="48" id="MediumBot" rx="2.5" ry="2.5" style="stroke:#181818;stroke-width:0.5;" width="114" x="1004.5" y="664.5"/><ellipse cx="1019.5" cy="680.5" fill="#ADD1B2" rx="11" ry="11" style="stroke:#181818;stroke-width:1.0;"/><path d="M1021.8438,676.1719 C1020.9063,675.7344 1020.3125,675.5938 1019.4375,675.5938 C1016.8125,675.5938 1014.8125,677.6719 1014.8125,680.3906 L1014.8125,681.5156 C1014.8125,684.0938 1016.9219,685.9844 1019.8125,685.9844 C1021.0313,685.9844 1022.1875,685.6875 1022.9375,685.1406 C1023.5156,684.7344 1023.8438,684.2813 1023.8438,683.8906 C1023.8438,683.4375 1023.4531,683.0469 1022.9844,683.0469 C1022.7656,683.0469 1022.5625,683.125 1022.375,683.3125 C1021.9219,683.7969 1021.9219,683.7969 1021.7344,683.8906 C1021.3125,684.1563 1020.625,684.2813 1019.8594,684.2813 C1017.8125,684.2813 1016.5156,683.1875 1016.5156,681.4844 L1016.5156,680.3906 C1016.5156,678.6094 1017.7656,677.2969 1019.5,677.2969 C1020.0781,677.2969 1020.6875,677.4531 1021.1563,677.7031 C1021.6406,677.9844 1021.8125,678.2031 1021.9063,678.6094 C1021.9688,679.0156 1022,679.1406 1022.1406,679.2656 C1022.2813,679.4063 1022.5156,679.5156 1022.7344,679.5156 C1023,679.5156 1023.2656,679.375 1023.4375,679.1563 C1023.5469,679 1023.5781,678.8125 1023.5781,678.3906 L1023.5781,676.9688 C1023.5781,676.5313 1023.5625,676.4063 1023.4688,676.25 C1023.3125,675.9844 1023.0313,675.8438 1022.7344,675.8438 C1022.4375,675.8438 1022.2344,675.9375 1022.0156,676.25 L1021.8438,676.1719 Z " fill="#000000"/><text fill="#000000" font-family="sans-serif" font-size="14" lengthAdjust="spacing" textLength="82" x="1033.5" y="685.3467">MediumBot</text><line style="stroke:#181818;stroke-width:0.5;" x1="1005.5" x2="1117.5" y1="696.5" y2="696.5"/><line style="stroke:#181818;stroke-width:0.5;" x1="1005.5" x2="1117.5" y1="704.5" y2="704.5"/></g><!--MD5=[687fce3ad2e7e169735e385ba4508823]
class HardBot--><g id="elem_HardBot"><rect codeLine="54" fill="#F1F1F1" height="48" id="HardBot" rx="2.5" ry="2.5" style="stroke:#181818;stroke-width:0.5;" width="91" x="878" y="664.5"/><ellipse cx="893" cy="680.5" fill="#ADD1B2" rx="11" ry="11" style="stroke:#181818;stroke-width:1.0;"/><path d="M895.3438,676.1719 C894.4063,675.7344 893.8125,675.5938 892.9375,675.5938 C890.3125,675.5938 888.3125,677.6719 888.3125,680.3906 L888.3125,681.5156 C888.3125,684.0938 890.4219,685.9844 893.3125,685.9844 C894.5313,685.9844 895.6875,685.6875 896.4375,685.1406 C897.0156,684.7344 897.3438,684.2813 897.3438,683.8906 C897.3438,683.4375 896.9531,683.0469 896.4844,683.0469 C896.2656,683.0469 896.0625,683.125 895.875,683.3125 C895.4219,683.7969 895.4219,683.7969 895.2344,683.8906 C894.8125,684.1563 894.125,684.2813 893.3594,684.2813 C891.3125,684.2813 890.0156,683.1875 890.0156,681.4844 L890.0156,680.3906 C890.0156,678.6094 891.2656,677.2969 893,677.2969 C893.5781,677.2969 894.1875,677.4531 894.6563,677.7031 C895.1406,677.9844 895.3125,678.2031 895.4063,678.6094 C895.4688,679.0156 895.5,679.1406 895.6406,679.2656 C895.7813,679.4063 896.0156,679.5156 896.2344,679.5156 C896.5,679.5156 896.7656,679.375 896.9375,679.1563 C897.0469,679 897.0781,678.8125 897.0781,678.3906 L897.0781,676.9688 C897.0781,676.5313 897.0625,676.4063 896.9688,676.25 C896.8125,675.9844 896.5313,675.8438 896.2344,675.8438 C895.9375,675.8438 895.7344,675.9375 895.5156,676.25 L895.3438,676.1719 Z " fill="#000000"/><text fill="#000000" font-family="sans-serif" font-size="14" lengthAdjust="spacing" textLength="59" x="907" y="685.3467">HardBot</text><line style="stroke:#181818;stroke-width:0.5;" x1="879" x2="968" y1="696.5" y2="696.5"/><line style="stroke:#181818;stroke-width:0.5;" x1="879" x2="968" y1="704.5" y2="704.5"/></g><!--MD5=[fea3dc74c7473bae0133d22265a91e2f]
class Cell--><g id="elem_Cell"><rect codeLine="63" fill="#F1F1F1" height="113.1875" id="Cell" rx="2.5" ry="2.5" style="stroke:#181818;stroke-width:0.5;" width="142" x="482.5" y="821"/><ellipse cx="535.75" cy="837" fill="#ADD1B2" rx="11" ry="11" style="stroke:#181818;stroke-width:1.0;"/><path d="M538.0938,832.6719 C537.1563,832.2344 536.5625,832.0938 535.6875,832.0938 C533.0625,832.0938 531.0625,834.1719 531.0625,836.8906 L531.0625,838.0156 C531.0625,840.5938 533.1719,842.4844 536.0625,842.4844 C537.2813,842.4844 538.4375,842.1875 539.1875,841.6406 C539.7656,841.2344 540.0938,840.7813 540.0938,840.3906 C540.0938,839.9375 539.7031,839.5469 539.2344,839.5469 C539.0156,839.5469 538.8125,839.625 538.625,839.8125 C538.1719,840.2969 538.1719,840.2969 537.9844,840.3906 C537.5625,840.6563 536.875,840.7813 536.1094,840.7813 C534.0625,840.7813 532.7656,839.6875 532.7656,837.9844 L532.7656,836.8906 C532.7656,835.1094 534.0156,833.7969 535.75,833.7969 C536.3281,833.7969 536.9375,833.9531 537.4063,834.2031 C537.8906,834.4844 538.0625,834.7031 538.1563,835.1094 C538.2188,835.5156 538.25,835.6406 538.3906,835.7656 C538.5313,835.9063 538.7656,836.0156 538.9844,836.0156 C539.25,836.0156 539.5156,835.875 539.6875,835.6563 C539.7969,835.5 539.8281,835.3125 539.8281,834.8906 L539.8281,833.4688 C539.8281,833.0313 539.8125,832.9063 539.7188,832.75 C539.5625,832.4844 539.2813,832.3438 538.9844,832.3438 C538.6875,832.3438 538.4844,832.4375 538.2656,832.75 L538.0938,832.6719 Z " fill="#000000"/><text fill="#000000" font-family="sans-serif" font-size="14" lengthAdjust="spacing" textLength="27" x="556.25" y="841.8467">Cell</text><line style="stroke:#181818;stroke-width:0.5;" x1="483.5" x2="623.5" y1="853" y2="853"/><line style="stroke:#181818;stroke-width:0.5;" x1="483.5" x2="623.5" y1="861" y2="861"/><text fill="#000000" font-family="sans-serif" font-size="14" lengthAdjust="spacing" textLength="68" x="488.5" y="877.9951">+attack()</text><text fill="#000000" font-family="sans-serif" font-size="14" lengthAdjust="spacing" textLength="86" x="488.5" y="894.292">+getState()</text><text fill="#000000" font-family="sans-serif" font-size="14" lengthAdjust="spacing" textLength="130" x="488.5" y="910.5889">+isFarFromShips()</text><text fill="#000000" font-family="sans-serif" font-size="14" lengthAdjust="spacing" textLength="119" x="488.5" y="926.8857">+isOkToAttack()</text></g><!--MD5=[0dc7f2ddb409b58bcf52b12238c25399]
class Ship--><g id="elem_Ship"><rect codeLine="69" fill="#F1F1F1" height="129.4844" id="Ship" rx="2.5" ry="2.5" style="stroke:#181818;stroke-width:0.5;" width="124" x="500.5" y="624"/><ellipse cx="542.95" cy="640" fill="#B4A7E5" rx="11" ry="11" style="stroke:#181818;stroke-width:1.0;"/><path d="M543.9031,636.7813 L545.6219,636.7813 C546.0125,636.7813 546.2,636.75 546.325,636.6719 C546.5906,636.5156 546.7313,636.2344 546.7313,635.9375 C546.7313,635.6719 546.6219,635.4063 546.3875,635.2344 C546.2156,635.125 546.075,635.0938 545.6219,635.0938 L540.4813,635.0938 C540.0438,635.0938 539.9188,635.1094 539.7625,635.2031 C539.5125,635.3594 539.3563,635.6563 539.3563,635.9375 C539.3563,636.2188 539.4969,636.4688 539.7156,636.6406 C539.8719,636.75 540.0594,636.7813 540.4813,636.7813 L542.2,636.7813 L542.2,643.2969 L540.4813,643.2969 C540.0438,643.2969 539.9188,643.3125 539.7625,643.4219 C539.5125,643.5781 539.3563,643.8594 539.3563,644.1563 C539.3563,644.4063 539.4969,644.6719 539.7156,644.8281 C539.8719,644.9531 540.075,645 540.4813,645 L545.6219,645 C546.3719,645 546.7313,644.7188 546.7313,644.1563 C546.7313,643.875 546.6219,643.625 546.3875,643.4531 C546.2156,643.3281 546.075,643.2969 545.6219,643.2969 L543.9031,643.2969 L543.9031,636.7813 Z " fill="#000000"/><text fill="#000000" font-family="sans-serif" font-size="14" font-style="italic" lengthAdjust="spacing" textLength="31" x="563.05" y="644.8467">Ship</text><line style="stroke:#181818;stroke-width:0.5;" x1="501.5" x2="623.5" y1="656" y2="656"/><line style="stroke:#181818;stroke-width:0.5;" x1="501.5" x2="623.5" y1="664" y2="664"/><text fill="#000000" font-family="sans-serif" font-size="14" lengthAdjust="spacing" textLength="76" x="506.5" y="680.9951">+getSize()</text><text fill="#000000" font-family="sans-serif" font-size="14" lengthAdjust="spacing" textLength="65" x="506.5" y="697.292">+getHP()</text><text fill="#000000" font-family="sans-serif" font-size="14" lengthAdjust="spacing" textLength="112" x="506.5" y="713.5889">+updateState()</text><text fill="#000000" font-family="sans-serif" font-size="14" lengthAdjust="spacing" textLength="67" x="506.5" y="729.8857">+isAlive()</text><text fill="#000000" font-family="sans-serif" font-size="14" lengthAdjust="spacing" textLength="80" x="506.5" y="746.1826">+getCells()</text></g><!--MD5=[3fa19cc441731caa29084f54f1a58b3e]
class GameMaster--><g id="elem_GameMaster"><rect codeLine="2" fill="#F1F1F1" height="113.1875" id="GameMaster" rx="2.5" ry="2.5" style="stroke:#181818;stroke-width:0.5;" width="140" x="1363.5" y="7"/><ellipse cx="1386.15" cy="23" fill="#ADD1B2" rx="11" ry="11" style="stroke:#181818;stroke-width:1.0;"/><path d="M1388.4938,18.6719 C1387.5563,18.2344 1386.9625,18.0938 1386.0875,18.0938 C1383.4625,18.0938 1381.4625,20.1719 1381.4625,22.8906 L1381.4625,24.0156 C1381.4625,26.5938 1383.5719,28.4844 1386.4625,28.4844 C1387.6813,28.4844 1388.8375,28.1875 1389.5875,27.6406 C1390.1656,27.2344 1390.4938,26.7813 1390.4938,26.3906 C1390.4938,25.9375 1390.1031,25.5469 1389.6344,25.5469 C1389.4156,25.5469 1389.2125,25.625 1389.025,25.8125 C1388.5719,26.2969 1388.5719,26.2969 1388.3844,26.3906 C1387.9625,26.6563 1387.275,26.7813 1386.5094,26.7813 C1384.4625,26.7813 1383.1656,25.6875 1383.1656,23.9844 L1383.1656,22.8906 C1383.1656,21.1094 1384.4156,19.7969 1386.15,19.7969 C1386.7281,19.7969 1387.3375,19.9531 1387.8063,20.2031 C1388.2906,20.4844 1388.4625,20.7031 1388.5563,21.1094 C1388.6188,21.5156 1388.65,21.6406 1388.7906,21.7656 C1388.9313,21.9063 1389.1656,22.0156 1389.3844,22.0156 C1389.65,22.0156 1389.9156,21.875 1390.0875,21.6563 C1390.1969,21.5 1390.2281,21.3125 1390.2281,20.8906 L1390.2281,19.4688 C1390.2281,19.0313 1390.2125,18.9063 1390.1188,18.75 C1389.9625,18.4844 1389.6813,18.3438 1389.3844,18.3438 C1389.0875,18.3438 1388.8844,18.4375 1388.6656,18.75 L1388.4938,18.6719 Z " fill="#000000"/><text fill="#000000" font-family="sans-serif" font-size="14" lengthAdjust="spacing" textLength="91" x="1401.85" y="27.8467">GameMaster</text><line style="stroke:#181818;stroke-width:0.5;" x1="1364.5" x2="1502.5" y1="39" y2="39"/><line style="stroke:#181818;stroke-width:0.5;" x1="1364.5" x2="1502.5" y1="47" y2="47"/><text fill="#000000" font-family="sans-serif" font-size="14" lengthAdjust="spacing" textLength="44" x="1369.5" y="63.9951">+run()</text><text fill="#000000" font-family="sans-serif" font-size="14" lengthAdjust="spacing" textLength="91" x="1369.5" y="80.292">-openMenu()</text><text fill="#000000" font-family="sans-serif" font-size="14" lengthAdjust="spacing" textLength="84" x="1369.5" y="96.5889">-runBattle()</text><text fill="#000000" font-family="sans-serif" font-size="14" lengthAdjust="spacing" textLength="128" x="1369.5" y="112.8857">-initializePlayers()</text></g><!--MD5=[71f0a97f8bc9ab5033cf4fb9c0757ffb]
class MenuDisplayer--><g id="elem_MenuDisplayer"><rect codeLine="9" fill="#F1F1F1" height="178.375" id="MenuDisplayer" rx="2.5" ry="2.5" style="stroke:#181818;stroke-width:0.5;" width="273" x="1578" y="180"/><ellipse cx="1657.75" cy="196" fill="#ADD1B2" rx="11" ry="11" style="stroke:#181818;stroke-width:1.0;"/><path d="M1660.0938,191.6719 C1659.1563,191.2344 1658.5625,191.0938 1657.6875,191.0938 C1655.0625,191.0938 1653.0625,193.1719 1653.0625,195.8906 L1653.0625,197.0156 C1653.0625,199.5938 1655.1719,201.4844 1658.0625,201.4844 C1659.2813,201.4844 1660.4375,201.1875 1661.1875,200.6406 C1661.7656,200.2344 1662.0938,199.7813 1662.0938,199.3906 C1662.0938,198.9375 1661.7031,198.5469 1661.2344,198.5469 C1661.0156,198.5469 1660.8125,198.625 1660.625,198.8125 C1660.1719,199.2969 1660.1719,199.2969 1659.9844,199.3906 C1659.5625,199.6563 1658.875,199.7813 1658.1094,199.7813 C1656.0625,199.7813 1654.7656,198.6875 1654.7656,196.9844 L1654.7656,195.8906 C1654.7656,194.1094 1656.0156,192.7969 1657.75,192.7969 C1658.3281,192.7969 1658.9375,192.9531 1659.4063,193.2031 C1659.8906,193.4844 1660.0625,193.7031 1660.1563,194.1094 C1660.2188,194.5156 1660.25,194.6406 1660.3906,194.7656 C1660.5313,194.9063 1660.7656,195.0156 1660.9844,195.0156 C1661.25,195.0156 1661.5156,194.875 1661.6875,194.6563 C1661.7969,194.5 1661.8281,194.3125 1661.8281,193.8906 L1661.8281,192.4688 C1661.8281,192.0313 1661.8125,191.9063 1661.7188,191.75 C1661.5625,191.4844 1661.2813,191.3438 1660.9844,191.3438 C1660.6875,191.3438 1660.4844,191.4375 1660.2656,191.75 L1660.0938,191.6719 Z " fill="#000000"/><text fill="#000000" font-family="sans-serif" font-size="14" lengthAdjust="spacing" textLength="105" x="1678.25" y="200.8467">MenuDisplayer</text><line style="stroke:#181818;stroke-width:0.5;" x1="1579" x2="1850" y1="212" y2="212"/><line style="stroke:#181818;stroke-width:0.5;" x1="1579" x2="1850" y1="220" y2="220"/><text fill="#000000" font-family="sans-serif" font-size="14" lengthAdjust="spacing" textLength="116" x="1584" y="236.9951">+startingMenu()</text><text fill="#000000" font-family="sans-serif" font-size="14" lengthAdjust="spacing" textLength="113" x="1584" y="253.292">-settingsMenu()</text><text fill="#000000" font-family="sans-serif" font-size="14" lengthAdjust="spacing" textLength="159" x="1584" y="269.5889">-globalSettingsMenu()</text><text fill="#000000" font-family="sans-serif" font-size="14" lengthAdjust="spacing" textLength="180" x="1584" y="285.8857">-playerSpecificSettings()</text><text fill="#000000" font-family="sans-serif" font-size="14" lengthAdjust="spacing" textLength="119" x="1584" y="302.1826">-boardSettings()</text><text fill="#000000" font-family="sans-serif" font-size="14" lengthAdjust="spacing" textLength="107" x="1584" y="318.4795">-shipSettings()</text><text fill="#000000" font-family="sans-serif" font-size="14" lengthAdjust="spacing" textLength="179" x="1584" y="334.7764">-playerNumberSettings()</text><text fill="#000000" font-family="sans-serif" font-size="14" lengthAdjust="spacing" textLength="261" x="1584" y="351.0732">-alterPlayerSettings(playerSettings)</text></g><!--MD5=[2cb47ba637a0d19583e6199456f6ad0b]
class Player--><g id="elem_Player"><rect codeLine="20" fill="#F1F1F1" height="129.4844" id="Player" rx="2.5" ry="2.5" style="stroke:#181818;stroke-width:0.5;" width="177" x="655" y="204.5"/><ellipse cx="717.25" cy="220.5" fill="#B4A7E5" rx="11" ry="11" style="stroke:#181818;stroke-width:1.0;"/><path d="M718.2031,217.2813 L719.9219,217.2813 C720.3125,217.2813 720.5,217.25 720.625,217.1719 C720.8906,217.0156 721.0313,216.7344 721.0313,216.4375 C721.0313,216.1719 720.9219,215.9063 720.6875,215.7344 C720.5156,215.625 720.375,215.5938 719.9219,215.5938 L714.7813,215.5938 C714.3438,215.5938 714.2188,215.6094 714.0625,215.7031 C713.8125,215.8594 713.6563,216.1563 713.6563,216.4375 C713.6563,216.7188 713.7969,216.9688 714.0156,217.1406 C714.1719,217.25 714.3594,217.2813 714.7813,217.2813 L716.5,217.2813 L716.5,223.7969 L714.7813,223.7969 C714.3438,223.7969 714.2188,223.8125 714.0625,223.9219 C713.8125,224.0781 713.6563,224.3594 713.6563,224.6563 C713.6563,224.9063 713.7969,225.1719 714.0156,225.3281 C714.1719,225.4531 714.375,225.5 714.7813,225.5 L719.9219,225.5 C720.6719,225.5 721.0313,225.2188 721.0313,224.6563 C721.0313,224.375 720.9219,224.125 720.6875,223.9531 C720.5156,223.8281 720.375,223.7969 719.9219,223.7969 L718.2031,223.7969 L718.2031,217.2813 Z " fill="#000000"/><text fill="#000000" font-family="sans-serif" font-size="14" font-style="italic" lengthAdjust="spacing" textLength="44" x="737.75" y="225.3467">Player</text><line style="stroke:#181818;stroke-width:0.5;" x1="656" x2="831" y1="236.5" y2="236.5"/><text fill="#000000" font-family="sans-serif" font-size="14" lengthAdjust="spacing" textLength="132" x="661" y="253.4951">+getNewShipCells</text><line style="stroke:#181818;stroke-width:0.5;" x1="656" x2="831" y1="260.7969" y2="260.7969"/><text fill="#000000" font-family="sans-serif" font-size="14" lengthAdjust="spacing" textLength="81" x="661" y="277.792">+fillBoard()</text><text fill="#000000" font-family="sans-serif" font-size="14" lengthAdjust="spacing" textLength="165" x="661" y="294.0889">+attack(Player enemy)</text><text fill="#000000" font-family="sans-serif" font-size="14" lengthAdjust="spacing" textLength="87" x="661" y="310.3857">+getName()</text><text fill="#000000" font-family="sans-serif" font-size="14" lengthAdjust="spacing" textLength="67" x="661" y="326.6826">+isAlive()</text></g><!--MD5=[9563755d011c5cec7ec66dc53565a59e]
class Board--><g id="elem_Board"><rect codeLine="27" fill="#F1F1F1" height="145.7813" id="Board" rx="2.5" ry="2.5" style="stroke:#181818;stroke-width:0.5;" width="241" x="442" y="418"/><ellipse cx="536.75" cy="434" fill="#B4A7E5" rx="11" ry="11" style="stroke:#181818;stroke-width:1.0;"/><path d="M537.7031,430.7813 L539.4219,430.7813 C539.8125,430.7813 540,430.75 540.125,430.6719 C540.3906,430.5156 540.5313,430.2344 540.5313,429.9375 C540.5313,429.6719 540.4219,429.4063 540.1875,429.2344 C540.0156,429.125 539.875,429.0938 539.4219,429.0938 L534.2813,429.0938 C533.8438,429.0938 533.7188,429.1094 533.5625,429.2031 C533.3125,429.3594 533.1563,429.6563 533.1563,429.9375 C533.1563,430.2188 533.2969,430.4688 533.5156,430.6406 C533.6719,430.75 533.8594,430.7813 534.2813,430.7813 L536,430.7813 L536,437.2969 L534.2813,437.2969 C533.8438,437.2969 533.7188,437.3125 533.5625,437.4219 C533.3125,437.5781 533.1563,437.8594 533.1563,438.1563 C533.1563,438.4063 533.2969,438.6719 533.5156,438.8281 C533.6719,438.9531 533.875,439 534.2813,439 L539.4219,439 C540.1719,439 540.5313,438.7188 540.5313,438.1563 C540.5313,437.875 540.4219,437.625 540.1875,437.4531 C540.0156,437.3281 539.875,437.2969 539.4219,437.2969 L537.7031,437.2969 L537.7031,430.7813 Z " fill="#000000"/><text fill="#000000" font-family="sans-serif" font-size="14" font-style="italic" lengthAdjust="spacing" textLength="43" x="557.25" y="438.8467">Board</text><line style="stroke:#181818;stroke-width:0.5;" x1="443" x2="682" y1="450" y2="450"/><line style="stroke:#181818;stroke-width:0.5;" x1="443" x2="682" y1="458" y2="458"/><text fill="#000000" font-family="sans-serif" font-size="14" lengthAdjust="spacing" textLength="109" x="448" y="474.9951">+addShip(ship)</text><text fill="#000000" font-family="sans-serif" font-size="14" lengthAdjust="spacing" textLength="110" x="448" y="491.292">+allshipCount()</text><text fill="#000000" font-family="sans-serif" font-size="14" lengthAdjust="spacing" textLength="129" x="448" y="507.5889">+deadshipCount()</text><text fill="#000000" font-family="sans-serif" font-size="14" lengthAdjust="spacing" textLength="127" x="448" y="523.8857">+attack(position)</text><text fill="#000000" font-family="sans-serif" font-size="14" lengthAdjust="spacing" textLength="180" x="448" y="540.1826">+withinBorders(position)</text><text fill="#000000" font-family="sans-serif" font-size="14" lengthAdjust="spacing" textLength="229" x="448" y="556.4795">+hasNoShipNeighbour(position)</text></g><!--MD5=[1f9aa183c03a5a4b2c7a355206fc0cf9]
class GUI--><g id="elem_GUI"><rect codeLine="36" fill="#F1F1F1" height="129.4844" id="GUI" rx="2.5" ry="2.5" style="stroke:#181818;stroke-width:0.5;" width="310" x="1278.5" y="624"/><ellipse cx="1416.75" cy="640" fill="#B4A7E5" rx="11" ry="11" style="stroke:#181818;stroke-width:1.0;"/><path d="M1417.7031,636.7813 L1419.4219,636.7813 C1419.8125,636.7813 1420,636.75 1420.125,636.6719 C1420.3906,636.5156 1420.5313,636.2344 1420.5313,635.9375 C1420.5313,635.6719 1420.4219,635.4063 1420.1875,635.2344 C1420.0156,635.125 1419.875,635.0938 1419.4219,635.0938 L1414.2813,635.0938 C1413.8438,635.0938 1413.7188,635.1094 1413.5625,635.2031 C1413.3125,635.3594 1413.1563,635.6563 1413.1563,635.9375 C1413.1563,636.2188 1413.2969,636.4688 1413.5156,636.6406 C1413.6719,636.75 1413.8594,636.7813 1414.2813,636.7813 L1416,636.7813 L1416,643.2969 L1414.2813,643.2969 C1413.8438,643.2969 1413.7188,643.3125 1413.5625,643.4219 C1413.3125,643.5781 1413.1563,643.8594 1413.1563,644.1563 C1413.1563,644.4063 1413.2969,644.6719 1413.5156,644.8281 C1413.6719,644.9531 1413.875,645 1414.2813,645 L1419.4219,645 C1420.1719,645 1420.5313,644.7188 1420.5313,644.1563 C1420.5313,643.875 1420.4219,643.625 1420.1875,643.4531 C1420.0156,643.3281 1419.875,643.2969 1419.4219,643.2969 L1417.7031,643.2969 L1417.7031,636.7813 Z " fill="#000000"/><text fill="#000000" font-family="sans-serif" font-size="14" font-style="italic" lengthAdjust="spacing" textLength="25" x="1437.25" y="644.8467">GUI</text><line style="stroke:#181818;stroke-width:0.5;" x1="1279.5" x2="1587.5" y1="656" y2="656"/><line style="stroke:#181818;stroke-width:0.5;" x1="1279.5" x2="1587.5" y1="664" y2="664"/><text fill="#000000" font-family="sans-serif" font-size="14" lengthAdjust="spacing" textLength="230" x="1284.5" y="680.9951">+placeShip(Ship::Type, int size)</text><text fill="#000000" font-family="sans-serif" font-size="14" lengthAdjust="spacing" textLength="298" x="1284.5" y="697.292">+displayOptions(vector&lt;srting&gt; options)</text><text fill="#000000" font-family="sans-serif" font-size="14" lengthAdjust="spacing" textLength="281" x="1284.5" y="713.5889">+displayBoard(RectangleBoard, isMine)</text><text fill="#000000" font-family="sans-serif" font-size="14" lengthAdjust="spacing" textLength="255" x="1284.5" y="729.8857">+getAttack(player, attackedBoard)</text><text fill="#000000" font-family="sans-serif" font-size="14" lengthAdjust="spacing" textLength="160" x="1284.5" y="746.1826">+displayPlayer(player)</text></g><!--MD5=[99b3cce71a8301bb50cf9d5850455732]
class PlayerFactory--><g id="elem_PlayerFactory"><rect codeLine="57" fill="#F1F1F1" height="64.2969" id="PlayerFactory" rx="2.5" ry="2.5" style="stroke:#181818;stroke-width:0.5;" width="212" x="123.5" y="459"/><ellipse cx="176.25" cy="475" fill="#ADD1B2" rx="11" ry="11" style="stroke:#181818;stroke-width:1.0;"/><path d="M178.5938,470.6719 C177.6563,470.2344 177.0625,470.0938 176.1875,470.0938 C173.5625,470.0938 171.5625,472.1719 171.5625,474.8906 L171.5625,476.0156 C171.5625,478.5938 173.6719,480.4844 176.5625,480.4844 C177.7813,480.4844 178.9375,480.1875 179.6875,479.6406 C180.2656,479.2344 180.5938,478.7813 180.5938,478.3906 C180.5938,477.9375 180.2031,477.5469 179.7344,477.5469 C179.5156,477.5469 179.3125,477.625 179.125,477.8125 C178.6719,478.2969 178.6719,478.2969 178.4844,478.3906 C178.0625,478.6563 177.375,478.7813 176.6094,478.7813 C174.5625,478.7813 173.2656,477.6875 173.2656,475.9844 L173.2656,474.8906 C173.2656,473.1094 174.5156,471.7969 176.25,471.7969 C176.8281,471.7969 177.4375,471.9531 177.9063,472.2031 C178.3906,472.4844 178.5625,472.7031 178.6563,473.1094 C178.7188,473.5156 178.75,473.6406 178.8906,473.7656 C179.0313,473.9063 179.2656,474.0156 179.4844,474.0156 C179.75,474.0156 180.0156,473.875 180.1875,473.6563 C180.2969,473.5 180.3281,473.3125 180.3281,472.8906 L180.3281,471.4688 C180.3281,471.0313 180.3125,470.9063 180.2188,470.75 C180.0625,470.4844 179.7813,470.3438 179.4844,470.3438 C179.1875,470.3438 178.9844,470.4375 178.7656,470.75 L178.5938,470.6719 Z " fill="#000000"/><text fill="#000000" font-family="sans-serif" font-size="14" lengthAdjust="spacing" textLength="98" x="196.75" y="479.8467">PlayerFactory</text><line style="stroke:#181818;stroke-width:0.5;" x1="124.5" x2="334.5" y1="491" y2="491"/><line style="stroke:#181818;stroke-width:0.5;" x1="124.5" x2="334.5" y1="499" y2="499"/><text fill="#000000" font-family="sans-serif" font-size="14" lengthAdjust="spacing" textLength="200" x="129.5" y="515.9951">+constructPlayer(type, GUI)</text></g><!--MD5=[4169d93317949af6222a3b50cb167243]
class SimpleShip--><g id="elem_SimpleShip"><rect codeLine="77" fill="#F1F1F1" height="48" id="SimpleShip" rx="2.5" ry="2.5" style="stroke:#181818;stroke-width:0.5;" width="114" x="659.5" y="853.5"/><ellipse cx="674.5" cy="869.5" fill="#ADD1B2" rx="11" ry="11" style="stroke:#181818;stroke-width:1.0;"/><path d="M676.8438,865.1719 C675.9063,864.7344 675.3125,864.5938 674.4375,864.5938 C671.8125,864.5938 669.8125,866.6719 669.8125,869.3906 L669.8125,870.5156 C669.8125,873.0938 671.9219,874.9844 674.8125,874.9844 C676.0313,874.9844 677.1875,874.6875 677.9375,874.1406 C678.5156,873.7344 678.8438,873.2813 678.8438,872.8906 C678.8438,872.4375 678.4531,872.0469 677.9844,872.0469 C677.7656,872.0469 677.5625,872.125 677.375,872.3125 C676.9219,872.7969 676.9219,872.7969 676.7344,872.8906 C676.3125,873.1563 675.625,873.2813 674.8594,873.2813 C672.8125,873.2813 671.5156,872.1875 671.5156,870.4844 L671.5156,869.3906 C671.5156,867.6094 672.7656,866.2969 674.5,866.2969 C675.0781,866.2969 675.6875,866.4531 676.1563,866.7031 C676.6406,866.9844 676.8125,867.2031 676.9063,867.6094 C676.9688,868.0156 677,868.1406 677.1406,868.2656 C677.2813,868.4063 677.5156,868.5156 677.7344,868.5156 C678,868.5156 678.2656,868.375 678.4375,868.1563 C678.5469,868 678.5781,867.8125 678.5781,867.3906 L678.5781,865.9688 C678.5781,865.5313 678.5625,865.4063 678.4688,865.25 C678.3125,864.9844 678.0313,864.8438 677.7344,864.8438 C677.4375,864.8438 677.2344,864.9375 677.0156,865.25 L676.8438,865.1719 Z " fill="#000000"/><text fill="#000000" font-family="sans-serif" font-size="14" lengthAdjust="spacing" textLength="82" x="688.5" y="874.3467">SimpleShip</text><line style="stroke:#181818;stroke-width:0.5;" x1="660.5" x2="772.5" y1="885.5" y2="885.5"/><line style="stroke:#181818;stroke-width:0.5;" x1="660.5" x2="772.5" y1="893.5" y2="893.5"/></g><!--MD5=[a64a835c3d62471a77f615251fdde58a]
class Position--><g id="elem_Position"><rect codeLine="79" fill="#F1F1F1" height="113.1875" id="Position" rx="2.5" ry="2.5" style="stroke:#181818;stroke-width:0.5;" width="183" x="660" y="632"/><ellipse cx="718.25" cy="648" fill="#ADD1B2" rx="11" ry="11" style="stroke:#181818;stroke-width:1.0;"/><path d="M720.5938,643.6719 C719.6563,643.2344 719.0625,643.0938 718.1875,643.0938 C715.5625,643.0938 713.5625,645.1719 713.5625,647.8906 L713.5625,649.0156 C713.5625,651.5938 715.6719,653.4844 718.5625,653.4844 C719.7813,653.4844 720.9375,653.1875 721.6875,652.6406 C722.2656,652.2344 722.5938,651.7813 722.5938,651.3906 C722.5938,650.9375 722.2031,650.5469 721.7344,650.5469 C721.5156,650.5469 721.3125,650.625 721.125,650.8125 C720.6719,651.2969 720.6719,651.2969 720.4844,651.3906 C720.0625,651.6563 719.375,651.7813 718.6094,651.7813 C716.5625,651.7813 715.2656,650.6875 715.2656,648.9844 L715.2656,647.8906 C715.2656,646.1094 716.5156,644.7969 718.25,644.7969 C718.8281,644.7969 719.4375,644.9531 719.9063,645.2031 C720.3906,645.4844 720.5625,645.7031 720.6563,646.1094 C720.7188,646.5156 720.75,646.6406 720.8906,646.7656 C721.0313,646.9063 721.2656,647.0156 721.4844,647.0156 C721.75,647.0156 722.0156,646.875 722.1875,646.6563 C722.2969,646.5 722.3281,646.3125 722.3281,645.8906 L722.3281,644.4688 C722.3281,644.0313 722.3125,643.9063 722.2188,643.75 C722.0625,643.4844 721.7813,643.3438 721.4844,643.3438 C721.1875,643.3438 720.9844,643.4375 720.7656,643.75 L720.5938,643.6719 Z " fill="#000000"/><text fill="#000000" font-family="sans-serif" font-size="14" lengthAdjust="spacing" textLength="58" x="738.75" y="652.8467">Position</text><line style="stroke:#181818;stroke-width:0.5;" x1="661" x2="842" y1="664" y2="664"/><text fill="#000000" font-family="sans-serif" font-size="14" lengthAdjust="spacing" textLength="32" x="666" y="680.9951">int x</text><text fill="#000000" font-family="sans-serif" font-size="14" lengthAdjust="spacing" textLength="32" x="666" y="697.292">int y</text><text fill="#000000" font-family="sans-serif" font-size="14" lengthAdjust="spacing" textLength="171" x="666" y="713.5889">+// some usual methods</text><text fill="#000000" font-family="sans-serif" font-size="14" lengthAdjust="spacing" textLength="166" x="666" y="729.8857">for points on the plane</text><line style="stroke:#181818;stroke-width:0.5;" x1="661" x2="842" y1="737.1875" y2="737.1875"/></g><!--MD5=[b91eb240017d254ef80a7cb85a26e06e]
class GlobalSettings--><g id="elem_GlobalSettings"><rect codeLine="85" fill="#F1F1F1" height="129.4844" id="GlobalSettings" rx="2.5" ry="2.5" style="stroke:#181818;stroke-width:0.5;" width="165" x="1281" y="813"/><ellipse cx="1307.7" cy="829" fill="#ADD1B2" rx="11" ry="11" style="stroke:#181818;stroke-width:1.0;"/><path d="M1310.0438,824.6719 C1309.1063,824.2344 1308.5125,824.0938 1307.6375,824.0938 C1305.0125,824.0938 1303.0125,826.1719 1303.0125,828.8906 L1303.0125,830.0156 C1303.0125,832.5938 1305.1219,834.4844 1308.0125,834.4844 C1309.2313,834.4844 1310.3875,834.1875 1311.1375,833.6406 C1311.7156,833.2344 1312.0438,832.7813 1312.0438,832.3906 C1312.0438,831.9375 1311.6531,831.5469 1311.1844,831.5469 C1310.9656,831.5469 1310.7625,831.625 1310.575,831.8125 C1310.1219,832.2969 1310.1219,832.2969 1309.9344,832.3906 C1309.5125,832.6563 1308.825,832.7813 1308.0594,832.7813 C1306.0125,832.7813 1304.7156,831.6875 1304.7156,829.9844 L1304.7156,828.8906 C1304.7156,827.1094 1305.9656,825.7969 1307.7,825.7969 C1308.2781,825.7969 1308.8875,825.9531 1309.3563,826.2031 C1309.8406,826.4844 1310.0125,826.7031 1310.1063,827.1094 C1310.1688,827.5156 1310.2,827.6406 1310.3406,827.7656 C1310.4813,827.9063 1310.7156,828.0156 1310.9344,828.0156 C1311.2,828.0156 1311.4656,827.875 1311.6375,827.6563 C1311.7469,827.5 1311.7781,827.3125 1311.7781,826.8906 L1311.7781,825.4688 C1311.7781,825.0313 1311.7625,824.9063 1311.6688,824.75 C1311.5125,824.4844 1311.2313,824.3438 1310.9344,824.3438 C1310.6375,824.3438 1310.4344,824.4375 1310.2156,824.75 L1310.0438,824.6719 Z " fill="#000000"/><text fill="#000000" font-family="sans-serif" font-size="14" lengthAdjust="spacing" textLength="107" x="1324.3" y="833.8467">GlobalSettings</text><line style="stroke:#181818;stroke-width:0.5;" x1="1282" x2="1445" y1="845" y2="845"/><text fill="#000000" font-family="sans-serif" font-size="14" lengthAdjust="spacing" textLength="85" x="1287" y="861.9951">boardWidth</text><text fill="#000000" font-family="sans-serif" font-size="14" lengthAdjust="spacing" textLength="90" x="1287" y="878.292">boardHeight</text><text fill="#000000" font-family="sans-serif" font-size="14" lengthAdjust="spacing" textLength="94" x="1287" y="894.5889">shipsNumber</text><text fill="#000000" font-family="sans-serif" font-size="14" lengthAdjust="spacing" textLength="153" x="1287" y="910.8857">vector&lt;int&gt; shipSize</text><text fill="#000000" font-family="sans-serif" font-size="14" lengthAdjust="spacing" textLength="102" x="1287" y="927.1826">playerNumber</text><line style="stroke:#181818;stroke-width:0.5;" x1="1282" x2="1445" y1="934.4844" y2="934.4844"/></g><!--MD5=[b5e3703c1b7ac92ae87beff8caa0eb04]
class BoardBuilder--><g id="elem_BoardBuilder"><rect codeLine="92" fill="#F1F1F1" height="80.5938" id="BoardBuilder" rx="2.5" ry="2.5" style="stroke:#181818;stroke-width:0.5;" width="205" x="189" y="648"/><ellipse cx="241.25" cy="664" fill="#ADD1B2" rx="11" ry="11" style="stroke:#181818;stroke-width:1.0;"/><path d="M243.5938,659.6719 C242.6563,659.2344 242.0625,659.0938 241.1875,659.0938 C238.5625,659.0938 236.5625,661.1719 236.5625,663.8906 L236.5625,665.0156 C236.5625,667.5938 238.6719,669.4844 241.5625,669.4844 C242.7813,669.4844 243.9375,669.1875 244.6875,668.6406 C245.2656,668.2344 245.5938,667.7813 245.5938,667.3906 C245.5938,666.9375 245.2031,666.5469 244.7344,666.5469 C244.5156,666.5469 244.3125,666.625 244.125,666.8125 C243.6719,667.2969 243.6719,667.2969 243.4844,667.3906 C243.0625,667.6563 242.375,667.7813 241.6094,667.7813 C239.5625,667.7813 238.2656,666.6875 238.2656,664.9844 L238.2656,663.8906 C238.2656,662.1094 239.5156,660.7969 241.25,660.7969 C241.8281,660.7969 242.4375,660.9531 242.9063,661.2031 C243.3906,661.4844 243.5625,661.7031 243.6563,662.1094 C243.7188,662.5156 243.75,662.6406 243.8906,662.7656 C244.0313,662.9063 244.2656,663.0156 244.4844,663.0156 C244.75,663.0156 245.0156,662.875 245.1875,662.6563 C245.2969,662.5 245.3281,662.3125 245.3281,661.8906 L245.3281,660.4688 C245.3281,660.0313 245.3125,659.9063 245.2188,659.75 C245.0625,659.4844 244.7813,659.3438 244.4844,659.3438 C244.1875,659.3438 243.9844,659.4375 243.7656,659.75 L243.5938,659.6719 Z " fill="#000000"/><text fill="#000000" font-family="sans-serif" font-size="14" lengthAdjust="spacing" textLength="92" x="261.75" y="668.8467">BoardBuilder</text><line style="stroke:#181818;stroke-width:0.5;" x1="190" x2="393" y1="680" y2="680"/><line style="stroke:#181818;stroke-width:0.5;" x1="190" x2="393" y1="688" y2="688"/><text fill="#000000" font-family="sans-serif" font-size="14" lengthAdjust="spacing" textLength="180" x="195" y="704.9951">+constructEmptyBoard()</text><text fill="#000000" font-family="sans-serif" font-size="14" lengthAdjust="spacing" textLength="193" x="195" y="721.292">+fillShips(RectangleBoard)</text></g><!--MD5=[fa40eb9cc7d547f8e0b28e98ae456c2b]
class ShipFactory--><g id="elem_ShipFactory"><rect codeLine="96" fill="#F1F1F1" height="64.2969" id="ShipFactory" rx="2.5" ry="2.5" style="stroke:#181818;stroke-width:0.5;" width="324" x="808.5" y="845.5"/><ellipse cx="923.25" cy="861.5" fill="#ADD1B2" rx="11" ry="11" style="stroke:#181818;stroke-width:1.0;"/><path d="M925.5938,857.1719 C924.6563,856.7344 924.0625,856.5938 923.1875,856.5938 C920.5625,856.5938 918.5625,858.6719 918.5625,861.3906 L918.5625,862.5156 C918.5625,865.0938 920.6719,866.9844 923.5625,866.9844 C924.7813,866.9844 925.9375,866.6875 926.6875,866.1406 C927.2656,865.7344 927.5938,865.2813 927.5938,864.8906 C927.5938,864.4375 927.2031,864.0469 926.7344,864.0469 C926.5156,864.0469 926.3125,864.125 926.125,864.3125 C925.6719,864.7969 925.6719,864.7969 925.4844,864.8906 C925.0625,865.1563 924.375,865.2813 923.6094,865.2813 C921.5625,865.2813 920.2656,864.1875 920.2656,862.4844 L920.2656,861.3906 C920.2656,859.6094 921.5156,858.2969 923.25,858.2969 C923.8281,858.2969 924.4375,858.4531 924.9063,858.7031 C925.3906,858.9844 925.5625,859.2031 925.6563,859.6094 C925.7188,860.0156 925.75,860.1406 925.8906,860.2656 C926.0313,860.4063 926.2656,860.5156 926.4844,860.5156 C926.75,860.5156 927.0156,860.375 927.1875,860.1563 C927.2969,860 927.3281,859.8125 927.3281,859.3906 L927.3281,857.9688 C927.3281,857.5313 927.3125,857.4063 927.2188,857.25 C927.0625,856.9844 926.7813,856.8438 926.4844,856.8438 C926.1875,856.8438 925.9844,856.9375 925.7656,857.25 L925.5938,857.1719 Z " fill="#000000"/><text fill="#000000" font-family="sans-serif" font-size="14" lengthAdjust="spacing" textLength="86" x="943.75" y="866.3467">ShipFactory</text><line style="stroke:#181818;stroke-width:0.5;" x1="809.5" x2="1131.5" y1="877.5" y2="877.5"/><line style="stroke:#181818;stroke-width:0.5;" x1="809.5" x2="1131.5" y1="885.5" y2="885.5"/><text fill="#000000" font-family="sans-serif" font-size="14" lengthAdjust="spacing" textLength="312" x="814.5" y="902.4951">+constructShip(Player, Ship::Type, int size)</text></g><!--MD5=[317012368e33d1c6a5d06ed6cafea940]
class PlayerSettings--><g id="elem_PlayerSettings"><rect codeLine="99" fill="#F1F1F1" height="48" id="PlayerSettings" rx="2.5" ry="2.5" style="stroke:#181818;stroke-width:0.5;" width="137" x="1515" y="1002"/><ellipse cx="1530" cy="1018" fill="#ADD1B2" rx="11" ry="11" style="stroke:#181818;stroke-width:1.0;"/><path d="M1532.3438,1013.6719 C1531.4063,1013.2344 1530.8125,1013.0938 1529.9375,1013.0938 C1527.3125,1013.0938 1525.3125,1015.1719 1525.3125,1017.8906 L1525.3125,1019.0156 C1525.3125,1021.5938 1527.4219,1023.4844 1530.3125,1023.4844 C1531.5313,1023.4844 1532.6875,1023.1875 1533.4375,1022.6406 C1534.0156,1022.2344 1534.3438,1021.7813 1534.3438,1021.3906 C1534.3438,1020.9375 1533.9531,1020.5469 1533.4844,1020.5469 C1533.2656,1020.5469 1533.0625,1020.625 1532.875,1020.8125 C1532.4219,1021.2969 1532.4219,1021.2969 1532.2344,1021.3906 C1531.8125,1021.6563 1531.125,1021.7813 1530.3594,1021.7813 C1528.3125,1021.7813 1527.0156,1020.6875 1527.0156,1018.9844 L1527.0156,1017.8906 C1527.0156,1016.1094 1528.2656,1014.7969 1530,1014.7969 C1530.5781,1014.7969 1531.1875,1014.9531 1531.6563,1015.2031 C1532.1406,1015.4844 1532.3125,1015.7031 1532.4063,1016.1094 C1532.4688,1016.5156 1532.5,1016.6406 1532.6406,1016.7656 C1532.7813,1016.9063 1533.0156,1017.0156 1533.2344,1017.0156 C1533.5,1017.0156 1533.7656,1016.875 1533.9375,1016.6563 C1534.0469,1016.5 1534.0781,1016.3125 1534.0781,1015.8906 L1534.0781,1014.4688 C1534.0781,1014.0313 1534.0625,1013.9063 1533.9688,1013.75 C1533.8125,1013.4844 1533.5313,1013.3438 1533.2344,1013.3438 C1532.9375,1013.3438 1532.7344,1013.4375 1532.5156,1013.75 L1532.3438,1013.6719 Z " fill="#000000"/><text fill="#000000" font-family="sans-serif" font-size="14" lengthAdjust="spacing" textLength="105" x="1544" y="1022.8467">PlayerSettings</text><line style="stroke:#181818;stroke-width:0.5;" x1="1516" x2="1651" y1="1034" y2="1034"/><line style="stroke:#181818;stroke-width:0.5;" x1="1516" x2="1651" y1="1042" y2="1042"/></g><g id="elem_GMN2184490"><path d="M1623.5,676 L1623.5,701.1328 A0,0 0 0 0 1623.5,701.1328 L1683.5,701.1328 L1687.5,853.293 L1691.5,701.1328 L1751.5,701.1328 A0,0 0 0 0 1751.5,701.1328 L1751.5,686 L1741.5,676 L1623.5,676 A0,0 0 0 0 1623.5,676 " fill="#FEFFDD" style="stroke:#181818;stroke-width:0.5;"/><path d="M1741.5,676 L1741.5,686 L1751.5,686 L1741.5,676 " fill="#FEFFDD" style="stroke:#181818;stroke-width:0.5;"/><text fill="#000000" font-family="sans-serif" font-size="13" lengthAdjust="spacing" textLength="107" x="1629.5" y="693.0669">Wait next patch!</text></g><!--MD5=[0953eb2a1cdc223e84d1af9b6eb884fe]
class RectangleBoard--><g id="elem_RectangleBoard"><rect fill="#F1F1F1" height="48" id="RectangleBoard" rx="2.5" ry="2.5" style="stroke:#181818;stroke-width:0.5;" width="147" x="7" y="664.5"/><ellipse cx="22" cy="680.5" fill="#ADD1B2" rx="11" ry="11" style="stroke:#181818;stroke-width:1.0;"/><path d="M24.3438,676.1719 C23.4063,675.7344 22.8125,675.5938 21.9375,675.5938 C19.3125,675.5938 17.3125,677.6719 17.3125,680.3906 L17.3125,681.5156 C17.3125,684.0938 19.4219,685.9844 22.3125,685.9844 C23.5313,685.9844 24.6875,685.6875 25.4375,685.1406 C26.0156,684.7344 26.3438,684.2813 26.3438,683.8906 C26.3438,683.4375 25.9531,683.0469 25.4844,683.0469 C25.2656,683.0469 25.0625,683.125 24.875,683.3125 C24.4219,683.7969 24.4219,683.7969 24.2344,683.8906 C23.8125,684.1563 23.125,684.2813 22.3594,684.2813 C20.3125,684.2813 19.0156,683.1875 19.0156,681.4844 L19.0156,680.3906 C19.0156,678.6094 20.2656,677.2969 22,677.2969 C22.5781,677.2969 23.1875,677.4531 23.6563,677.7031 C24.1406,677.9844 24.3125,678.2031 24.4063,678.6094 C24.4688,679.0156 24.5,679.1406 24.6406,679.2656 C24.7813,679.4063 25.0156,679.5156 25.2344,679.5156 C25.5,679.5156 25.7656,679.375 25.9375,679.1563 C26.0469,679 26.0781,678.8125 26.0781,678.3906 L26.0781,676.9688 C26.0781,676.5313 26.0625,676.4063 25.9688,676.25 C25.8125,675.9844 25.5313,675.8438 25.2344,675.8438 C24.9375,675.8438 24.7344,675.9375 24.5156,676.25 L24.3438,676.1719 Z " fill="#000000"/><text fill="#000000" font-family="sans-serif" font-size="14" lengthAdjust="spacing" textLength="115" x="36" y="685.3467">RectangleBoard</text><line style="stroke:#181818;stroke-width:0.5;" x1="8" x2="153" y1="696.5" y2="696.5"/><line style="stroke:#181818;stroke-width:0.5;" x1="8" x2="153" y1="704.5" y2="704.5"/></g><!--MD5=[28d454eb6a802a996292f7513fb5940d]
reverse link GameMaster to GUI--><g id="link_GameMaster_GUI"><path codeLine="101" d="M1433.5,133.162 C1433.5,254.637 1433.5,505.714 1433.5,623.661 " fill="none" id="GameMaster-backto-GUI" style="stroke:#181818;stroke-width:1.0;"/><polygon fill="none" points="1433.5,120.061,1429.5,126.061,1433.5,132.061,1437.5,126.061,1433.5,120.061" style="stroke:#181818;stroke-width:1.0;"/><text fill="#000000" font-family="sans-serif" font-size="13" lengthAdjust="spacing" textLength="8" x="1424.9875" y="140.3322">1</text><text fill="#000000" font-family="sans-serif" font-size="13" lengthAdjust="spacing" textLength="8" x="1425.0625" y="612.7966">1</text></g><!--MD5=[bb300298e8a61e0a01e869eec431cab4]
reverse link GameMaster to Player--><g id="link_GameMaster_Player"><path codeLine="102" d="M1350.57,88.959 C1219.73,127.547 966.509,202.229 832.183,241.845 " fill="none" id="GameMaster-backto-Player" style="stroke:#181818;stroke-width:1.0;"/><polygon fill="#181818" points="1363.22,85.227,1356.3345,83.0845,1351.7086,88.6162,1358.594,90.7588,1363.22,85.227" style="stroke:#181818;stroke-width:1.0;"/><text fill="#000000" font-family="sans-serif" font-size="13" lengthAdjust="spacing" textLength="8" x="1347.5599" y="83.7582">1</text><text fill="#000000" font-family="sans-serif" font-size="13" lengthAdjust="spacing" textLength="23" x="839.8533" y="236.2452">2..*</text></g><!--MD5=[f2d4d79643b633444e425b34f363d4d9]
reverse link GUI to ExternalGUI--><g id="link_GUI_ExternalGUI"><path codeLine="103" d="M1544.87,764.494 C1567.2,780.164 1590.3,796.841 1611.5,813 C1628.32,825.821 1646.52,840.98 1660.89,853.272 " fill="none" id="GUI-backto-ExternalGUI" style="stroke:#181818;stroke-width:1.0;stroke-dasharray:7.0,7.0;"/><polygon fill="none" points="1540.8,770.188,1528.39,753.01,1548.8,758.702,1540.8,770.188" style="stroke:#181818;stroke-width:1.0;"/></g><!--MD5=[ae32ba4e3fd3e91211cc38c3e013834a]
reverse link GUI to ConsoleGUI--><g id="link_GUI_ConsoleGUI"><path codeLine="104" d="M1478.76,770.876 C1495.39,800.786 1512.96,832.379 1524.5,853.133 " fill="none" id="GUI-backto-ConsoleGUI" style="stroke:#181818;stroke-width:1.0;stroke-dasharray:7.0,7.0;"/><polygon fill="none" points="1472.46,773.952,1468.85,753.071,1484.69,767.147,1472.46,773.952" style="stroke:#181818;stroke-width:1.0;"/></g><!--MD5=[480206b57360204782f62575e8914631]
reverse link Player to HumanPlayer--><g id="link_Player_HumanPlayer"><path codeLine="105" d="M850.591,315.7 C908.035,342.211 978.865,378.186 1037.5,418 C1058.67,432.374 1080.21,451.796 1095.75,466.846 " fill="none" id="Player-backto-HumanPlayer" style="stroke:#181818;stroke-width:1.0;stroke-dasharray:7.0,7.0;"/><polygon fill="none" points="847.352,321.917,832.052,307.257,853.155,309.176,847.352,321.917" style="stroke:#181818;stroke-width:1.0;"/></g><!--MD5=[de54c74c5a0f03a0d64afa4047f4dca6]
reverse link Player to Bot--><g id="link_Player_Bot"><path codeLine="106" d="M830.697,347.042 C878.436,389.22 934.236,438.522 966.265,466.82 " fill="none" id="Player-backto-Bot" style="stroke:#181818;stroke-width:1.0;stroke-dasharray:7.0,7.0;"/><polygon fill="none" points="825.874,352.121,815.521,333.633,835.144,341.63,825.874,352.121" style="stroke:#181818;stroke-width:1.0;"/></g><!--MD5=[3e865060eddfa552f670815102faedfc]
reverse link Bot to EasyBot--><g id="link_Bot_EasyBot"><path codeLine="107" d="M1012.3,532.937 C1019.31,544.197 1028.09,555.605 1038.5,564 C1074.29,592.873 1098.92,572.132 1135.5,600 C1158.13,617.243 1176.1,644.857 1186.96,664.448 " fill="none" id="Bot-backto-EasyBot" style="stroke:#181818;stroke-width:1.0;stroke-dasharray:7.0,7.0;"/><polygon fill="none" points="1006.076,536.142,1002.487,515.259,1018.32,529.345,1006.076,536.142" style="stroke:#181818;stroke-width:1.0;"/></g><!--MD5=[527a55b87bef3e205bba2537cc1820bb]
reverse link Bot to MediumBot--><g id="link_Bot_MediumBot"><path codeLine="108" d="M1007.36,534.11 C1021.43,573.962 1042.02,632.312 1053.32,664.336 " fill="none" id="Bot-backto-MediumBot" style="stroke:#181818;stroke-width:1.0;stroke-dasharray:7.0,7.0;"/><polygon fill="none" points="1000.742,536.384,1000.686,515.194,1013.94,531.724,1000.742,536.384" style="stroke:#181818;stroke-width:1.0;"/></g><!--MD5=[b9b867cf9a8f5717546379e67ea690f4]
reverse link Bot to HardBot--><g id="link_Bot_HardBot"><path codeLine="109" d="M977.638,534.11 C963.572,573.962 942.978,632.312 931.676,664.336 " fill="none" id="Bot-backto-HardBot" style="stroke:#181818;stroke-width:1.0;stroke-dasharray:7.0,7.0;"/><polygon fill="none" points="971.056,531.724,984.314,515.194,984.258,536.384,971.056,531.724" style="stroke:#181818;stroke-width:1.0;"/></g><!--MD5=[29a0f2eda7f0a7f4679317b1c5543e55]
reverse link Ship to SimpleShip--><g id="link_Ship_SimpleShip"><path codeLine="110" d="M627.783,768.773 C652.921,799.297 679.764,831.892 697.257,853.133 " fill="none" id="Ship-backto-SimpleShip" style="stroke:#181818;stroke-width:1.0;stroke-dasharray:7.0,7.0;"/><polygon fill="none" points="622.163,772.959,614.852,753.071,632.97,764.059,622.163,772.959" style="stroke:#181818;stroke-width:1.0;"/></g><!--MD5=[8a58ab544c87696e00365668bdce8965]
reverse link Board to RectangleBoard--><g id="link_Board_RectangleBoard"><path codeLine="111" d="M422.554,561.397 C419.861,562.304 417.174,563.173 414.5,564 C310.195,596.257 269.502,551.879 171.5,600 C141.006,614.973 114.079,643.891 97.5775,664.379 " fill="none" id="Board-backto-RectangleBoard" style="stroke:#181818;stroke-width:1.0;stroke-dasharray:7.0,7.0;"/><polygon fill="none" points="420.563,554.672,441.751,554.377,425.371,567.82,420.563,554.672" style="stroke:#181818;stroke-width:1.0;"/></g><!--MD5=[4c47dfb9d4ba9e03169fd2fa2e83336c]
reverse link Player to Board--><g id="link_Player_Board"><path codeLine="112" d="M682.626,343.99 C663.095,367.73 641.494,393.985 622.058,417.609 " fill="none" id="Player-backto-Board" style="stroke:#181818;stroke-width:1.0;"/><polygon fill="#181818" points="691.147,333.633,684.2461,335.7251,683.523,342.8999,690.424,340.8078,691.147,333.633" style="stroke:#181818;stroke-width:1.0;"/><text fill="#000000" font-family="sans-serif" font-size="13" lengthAdjust="spacing" textLength="8" x="676.6312" y="354.0199">1</text><text fill="#000000" font-family="sans-serif" font-size="13" lengthAdjust="spacing" textLength="8" x="619.3534" y="406.9827">1</text></g><!--MD5=[5778a4432fb065f83ccf0aa932a03c78]
reverse link Board to Cell--><g id="link_Board_Cell"><path codeLine="113" d="M493.183,575.488 C488.922,583.444 485.251,591.663 482.5,600 C461.189,664.574 464.961,687.301 482.5,753 C488.815,776.656 500.864,800.485 513.268,820.816 " fill="none" id="Board-backto-Cell" style="stroke:#181818;stroke-width:1.0;"/><polygon fill="#181818" points="499.808,564.036,493.3411,567.2265,493.7989,574.423,500.2658,571.2326,499.808,564.036" style="stroke:#181818;stroke-width:1.0;"/><text fill="#000000" font-family="sans-serif" font-size="13" lengthAdjust="spacing" textLength="8" x="485.4514" y="583.7957">1</text><text fill="#000000" font-family="sans-serif" font-size="13" lengthAdjust="spacing" textLength="23" x="483.9632" y="810.0571">1..*</text></g><!--MD5=[a28d51ba30d9767a73544c25a0e18962]
reverse link Board to Ship--><g id="link_Board_Ship"><path codeLine="114" d="M562.5,577.265 C562.5,592.933 562.5,609.037 562.5,623.93 " fill="none" id="Board-backto-Ship" style="stroke:#181818;stroke-width:1.0;"/><polygon fill="#181818" points="562.5,564.242,558.5,570.242,562.5,576.242,566.5,570.242,562.5,564.242" style="stroke:#181818;stroke-width:1.0;"/><text fill="#000000" font-family="sans-serif" font-size="13" lengthAdjust="spacing" textLength="8" x="554.1313" y="583.7685">1</text><text fill="#000000" font-family="sans-serif" font-size="13" lengthAdjust="spacing" textLength="23" x="538.2422" y="613.095">0..*</text></g><!--MD5=[85cec48ed96ba00b0ecf8ae9eb6f40e3]
reverse link GlobalSettings to PlayerSettings--><g id="link_GlobalSettings_PlayerSettings"><path codeLine="115" d="M1452.59,949.794 C1456.58,952.6151 1460.56,955.3625 1464.5,958 C1488.24,973.8906 1516,989.6663 1538.73,1001.9146 " fill="none" id="GlobalSettings-backto-PlayerSettings" style="stroke:#181818;stroke-width:1.0;"/><polygon fill="#181818" points="1442.03,942.18,1444.5523,948.9356,1451.7583,949.2056,1449.236,942.45,1442.03,942.18" style="stroke:#181818;stroke-width:1.0;"/><text fill="#000000" font-family="sans-serif" font-size="13" lengthAdjust="spacing" textLength="8" x="1442.6475" y="962.5724">1</text><text fill="#000000" font-family="sans-serif" font-size="13" lengthAdjust="spacing" textLength="23" x="1501.3108" y="990.9048">2..*</text></g><!--MD5=[d87efe38288fbc3a4bdf6f747e15e403]
reverse link Board to Position--><g id="link_Board_Position"><path codeLine="116" d="M635.892,567.916 C656.446,589.177 678.404,611.89 697.602,631.748 " fill="none" id="Board-backto-Position" style="stroke:#181818;stroke-width:1.0;"/><polygon fill="#181818" points="632.34,564.242,635.7209,573.4924,635.8158,567.8363,641.4718,567.9312,632.34,564.242" style="stroke:#181818;stroke-width:1.0;"/></g><!--MD5=[1063f72232851200cace721b4cd19b4a]
reverse link Board to BoardBuilder--><g id="link_Board_BoardBuilder"><path codeLine="117" d="M458.21,567.235 C420.115,594.717 378.54,624.709 346.438,647.868 " fill="none" id="Board-backto-BoardBuilder" style="stroke:#181818;stroke-width:1.0;"/><polygon fill="#181818" points="462.36,564.242,452.7207,566.2627,458.3048,567.1669,457.4006,572.7511,462.36,564.242" style="stroke:#181818;stroke-width:1.0;"/></g><!--MD5=[9c7697f8a36d1261383f2af2d21ad7fa]
reverse link GUI to GlobalSettings--><g id="link_GUI_GlobalSettings"><path codeLine="118" d="M1407.83,758.078 C1401.13,775.965 1393.95,795.165 1387.35,812.788 " fill="none" id="GUI-backto-GlobalSettings" style="stroke:#181818;stroke-width:1.0;"/><polygon fill="#181818" points="1409.7,753.071,1402.8002,760.099,1407.9481,757.7541,1410.2931,762.902,1409.7,753.071" style="stroke:#181818;stroke-width:1.0;"/></g><!--MD5=[2cee1565d83da703529921af57a69551]
reverse link Player to PlayerFactory--><g id="link_Player_PlayerFactory"><path codeLine="120" d="M649.719,302.696 C571.751,330.762 458.445,373.608 362.5,418 C335.93,430.293 307.275,445.537 283.391,458.828 " fill="none" id="Player-backto-PlayerFactory" style="stroke:#181818;stroke-width:1.0;"/><polygon fill="#181818" points="654.803,300.869,644.9805,300.1491,650.0977,302.5603,647.6865,307.6775,654.803,300.869" style="stroke:#181818;stroke-width:1.0;"/></g><!--MD5=[9de54e7e2112e6b4699c648ffc44b347]
link Ship to Cell--><g id="link_Ship_Cell"><path codeLine="121" d="M559.19,758.275 C558.283,777.13 557.305,797.431 556.422,815.798 " fill="none" id="Ship-Cell" style="stroke:#181818;stroke-width:1.0;"/><polygon fill="#181818" points="556.175,820.924,560.6049,812.1276,556.4164,815.9298,552.6142,811.7414,556.175,820.924" style="stroke:#181818;stroke-width:1.0;"/><polygon fill="#181818" points="559.44,753.071,555.0126,761.8686,559.2,758.0652,563.0034,762.2526,559.44,753.071" style="stroke:#181818;stroke-width:1.0;"/></g><!--MD5=[3d147b1398d871e10e7161957a094768]
reverse link Ship to ShipFactory--><g id="link_Ship_ShipFactory"><path codeLine="122" d="M628.705,744.499 C633.273,747.525 637.893,750.39 642.5,753 C664.338,765.374 794.283,813.101 883.907,845.469 " fill="none" id="Ship-backto-ShipFactory" style="stroke:#181818;stroke-width:1.0;"/><polygon fill="#181818" points="624.526,741.679,629.7481,750.0294,628.6704,744.4762,634.2236,743.3985,624.526,741.679" style="stroke:#181818;stroke-width:1.0;"/></g><!--MD5=[eca4a39b84e95c8217c6758f3273e56a]
link HumanPlayer to GUI--><g id="link_HumanPlayer_GUI"><path codeLine="123" d="M1159.93,517.71 C1202.11,543.89 1269.26,585.564 1326.47,621.073 " fill="none" id="HumanPlayer-GUI" style="stroke:#181818;stroke-width:1.0;"/><polygon fill="#181818" points="1330.92,623.835,1325.371,615.6982,1326.668,621.2043,1321.1619,622.5014,1330.92,623.835" style="stroke:#181818;stroke-width:1.0;"/><polygon fill="#181818" points="1155.56,515.001,1161.109,523.1378,1159.812,517.6317,1165.3181,516.3346,1155.56,515.001" style="stroke:#181818;stroke-width:1.0;"/></g><!--MD5=[75334ec5b54e77a6d93fd5b0beba107b]
link GameMaster to MenuDisplayer--><g id="link_GameMaster_MenuDisplayer"><path codeLine="124" d="M1503.68,115.327 C1529.4,133.953 1559.36,155.647 1588.48,176.734 " fill="none" id="GameMaster-to-MenuDisplayer" style="stroke:#181818;stroke-width:1.0;"/><polygon fill="#181818" points="1592.77,179.84,1587.8208,171.325,1588.7183,176.9102,1583.1331,177.8077,1592.77,179.84" style="stroke:#181818;stroke-width:1.0;"/></g><!--MD5=[fa0cd5d078b138e640a6a76673b7b7ac]
link MenuDisplayer to PlayerSettings--><g id="link_MenuDisplayer_PlayerSettings"><path codeLine="125" d="M1753.25,358.169 C1808.7,499.268 1890.55,778.176 1761.5,958 C1737.55,991.3759 1694.84,1008.1356 1657.25,1016.5467 " fill="none" id="MenuDisplayer-to-PlayerSettings" style="stroke:#181818;stroke-width:1.0;"/><polygon fill="#181818" points="1652.23,1017.6299,1661.8665,1019.6639,1657.1199,1016.5866,1660.1973,1011.84,1652.23,1017.6299" style="stroke:#181818;stroke-width:1.0;"/></g><!--MD5=[31b5b6d6ad0127447ffdd052ba556a88]
link Player to RectangleBoard--><!--MD5=[1635cef91bb8c42586f83f200b7ccdb9]
@startuml
skinparam classAttributeIconSize 0
class GameMaster {
+run()
-openMenu()
-runBattle()
-initializePlayers()
}

class MenuDisplayer {
+startingMenu()
-settingsMenu()
-globalSettingsMenu()
-playerSpecificSettings()
-boardSettings()
-shipSettings()
-playerNumberSettings()
-alterPlayerSettings(playerSettings)
}

interface Player {
+fillBoard()
+getNewShipCells
+attack(Player enemy)
+getName()
+isAlive()
}
interface Board {
+addShip(ship)
+allshipCount()
+deadshipCount()
+attack(position)
+withinBorders(position)
+hasNoShipNeighbour(position)
}

interface GUI {
+placeShip(Ship::Type, int size)
+displayOptions(vector<srting> options)
+displayBoard(RectangleBoard, isMine)
+getAttack(player, attackedBoard)
+displayPlayer(player)
}
together {
class ConsoleGUI {}
class ExternalGUI {}
}
together {
class HumanPlayer {}
interface Bot {}
}
together {
class EasyBot{}
class MediumBot {}
class HardBot {}
}

class PlayerFactory{
+constructPlayer(type, GUI)
}


together {
class Cell{
+attack()
+getState()
+isFarFromShips()
+isOkToAttack()
}
interface Ship {
+getSize()
+getHP()
+updateState()
+isAlive()
+getCells()
}
}
class SimpleShip {}

class Position {
int x
int y
+// some usual methods
 for points on the plane
}
class GlobalSettings {
boardWidth
boardHeight
shipsNumber
vector<int> shipSize
playerNumber
}
class BoardBuilder{
+constructEmptyBoard()
+fillShips(RectangleBoard)
}
class ShipFactory {
+constructShip(Player, Ship::Type, int size)
}
class PlayerSettings {}
note top of ExternalGUI : Wait next patch!
GameMaster "1" o- - "1" GUI
GameMaster "1" *- - "2..*" Player
GUI <|.. ExternalGUI
GUI <|.. ConsoleGUI
Player <|.. HumanPlayer
Player <|.. Bot
Bot <|.. EasyBot
Bot <|.. MediumBot
Bot <|.. HardBot
Ship <|.. SimpleShip
Board <|.. RectangleBoard
Player "1" *- - "1" Board
Board "1" *- - "1..*" Cell
Board "1" *- - "0..*" Ship
GlobalSettings "1" *- - "2..*" PlayerSettings
Board <- - Position
Board <- - BoardBuilder
GUI <- - GlobalSettings

Player <- - PlayerFactory
Ship <- -> Cell
Ship <- - ShipFactory
HumanPlayer <- -> GUI
GameMaster - -> MenuDisplayer
MenuDisplayer - -> PlayerSettings

Player -[hidden]> RectangleBoard
@enduml

PlantUML version 1.2022.4beta2(Unknown compile time)
(GPL source distribution)
Java Runtime: Java(TM) SE Runtime Environment
JVM: Java HotSpot(TM) 64-Bit Server VM
Default Encoding: UTF-8
Language: en
Country: US
--></g></svg>