<?xml version="1.0" encoding="UTF-8" standalone="no"?><svg xmlns="http://www.w3.org/2000/svg" xmlns:xlink="http://www.w3.org/1999/xlink" contentStyleType="text/css" height="1036px" preserveAspectRatio="none" style="width:1325px;height:1036px;background:#FFFFFF;" version="1.1" viewBox="0 0 1325 1036" width="1325px" zoomAndPan="magnify"><defs/><g><!--MD5=[bb0098c3e34d5c26d7279c3951f45627]
class ConsoleGUI--><g id="elem_ConsoleGUI"><rect codeLine="25" fill="#F1F1F1" height="48" id="ConsoleGUI" rx="2.5" ry="2.5" style="stroke:#181818;stroke-width:0.5;" width="113" x="1034.5" y="404"/><ellipse cx="1049.5" cy="420" fill="#ADD1B2" rx="11" ry="11" style="stroke:#181818;stroke-width:1.0;"/><path d="M1051.8438,415.6719 C1050.9063,415.2344 1050.3125,415.0938 1049.4375,415.0938 C1046.8125,415.0938 1044.8125,417.1719 1044.8125,419.8906 L1044.8125,421.0156 C1044.8125,423.5938 1046.9219,425.4844 1049.8125,425.4844 C1051.0313,425.4844 1052.1875,425.1875 1052.9375,424.6406 C1053.5156,424.2344 1053.8438,423.7813 1053.8438,423.3906 C1053.8438,422.9375 1053.4531,422.5469 1052.9844,422.5469 C1052.7656,422.5469 1052.5625,422.625 1052.375,422.8125 C1051.9219,423.2969 1051.9219,423.2969 1051.7344,423.3906 C1051.3125,423.6563 1050.625,423.7813 1049.8594,423.7813 C1047.8125,423.7813 1046.5156,422.6875 1046.5156,420.9844 L1046.5156,419.8906 C1046.5156,418.1094 1047.7656,416.7969 1049.5,416.7969 C1050.0781,416.7969 1050.6875,416.9531 1051.1563,417.2031 C1051.6406,417.4844 1051.8125,417.7031 1051.9063,418.1094 C1051.9688,418.5156 1052,418.6406 1052.1406,418.7656 C1052.2813,418.9063 1052.5156,419.0156 1052.7344,419.0156 C1053,419.0156 1053.2656,418.875 1053.4375,418.6563 C1053.5469,418.5 1053.5781,418.3125 1053.5781,417.8906 L1053.5781,416.4688 C1053.5781,416.0313 1053.5625,415.9063 1053.4688,415.75 C1053.3125,415.4844 1053.0313,415.3438 1052.7344,415.3438 C1052.4375,415.3438 1052.2344,415.4375 1052.0156,415.75 L1051.8438,415.6719 Z " fill="#000000"/><text fill="#000000" font-family="sans-serif" font-size="14" lengthAdjust="spacing" textLength="81" x="1063.5" y="424.8467">ConsoleGUI</text><line style="stroke:#181818;stroke-width:0.5;" x1="1035.5" x2="1146.5" y1="436" y2="436"/><line style="stroke:#181818;stroke-width:0.5;" x1="1035.5" x2="1146.5" y1="444" y2="444"/></g><!--MD5=[ba3e1c2e0974ce3751c5a046599f5ee5]
class ExternalGUI--><g id="elem_ExternalGUI"><rect codeLine="26" fill="#F1F1F1" height="48" id="ExternalGUI" rx="2.5" ry="2.5" style="stroke:#181818;stroke-width:0.5;" width="116" x="1183" y="404"/><ellipse cx="1198" cy="420" fill="#ADD1B2" rx="11" ry="11" style="stroke:#181818;stroke-width:1.0;"/><path d="M1200.3438,415.6719 C1199.4063,415.2344 1198.8125,415.0938 1197.9375,415.0938 C1195.3125,415.0938 1193.3125,417.1719 1193.3125,419.8906 L1193.3125,421.0156 C1193.3125,423.5938 1195.4219,425.4844 1198.3125,425.4844 C1199.5313,425.4844 1200.6875,425.1875 1201.4375,424.6406 C1202.0156,424.2344 1202.3438,423.7813 1202.3438,423.3906 C1202.3438,422.9375 1201.9531,422.5469 1201.4844,422.5469 C1201.2656,422.5469 1201.0625,422.625 1200.875,422.8125 C1200.4219,423.2969 1200.4219,423.2969 1200.2344,423.3906 C1199.8125,423.6563 1199.125,423.7813 1198.3594,423.7813 C1196.3125,423.7813 1195.0156,422.6875 1195.0156,420.9844 L1195.0156,419.8906 C1195.0156,418.1094 1196.2656,416.7969 1198,416.7969 C1198.5781,416.7969 1199.1875,416.9531 1199.6563,417.2031 C1200.1406,417.4844 1200.3125,417.7031 1200.4063,418.1094 C1200.4688,418.5156 1200.5,418.6406 1200.6406,418.7656 C1200.7813,418.9063 1201.0156,419.0156 1201.2344,419.0156 C1201.5,419.0156 1201.7656,418.875 1201.9375,418.6563 C1202.0469,418.5 1202.0781,418.3125 1202.0781,417.8906 L1202.0781,416.4688 C1202.0781,416.0313 1202.0625,415.9063 1201.9688,415.75 C1201.8125,415.4844 1201.5313,415.3438 1201.2344,415.3438 C1200.9375,415.3438 1200.7344,415.4375 1200.5156,415.75 L1200.3438,415.6719 Z " fill="#000000"/><text fill="#000000" font-family="sans-serif" font-size="14" lengthAdjust="spacing" textLength="84" x="1212" y="424.8467">ExternalGUI</text><line style="stroke:#181818;stroke-width:0.5;" x1="1184" x2="1298" y1="436" y2="436"/><line style="stroke:#181818;stroke-width:0.5;" x1="1184" x2="1298" y1="444" y2="444"/></g><!--MD5=[5b82786680b87d20dfa905879bfe7a83]
class ConsolePlayer--><g id="elem_ConsolePlayer"><rect codeLine="30" fill="#F1F1F1" height="64.2969" id="ConsolePlayer" rx="2.5" ry="2.5" style="stroke:#181818;stroke-width:0.5;" width="224" x="156" y="396"/><ellipse cx="213.25" cy="412" fill="#ADD1B2" rx="11" ry="11" style="stroke:#181818;stroke-width:1.0;"/><path d="M215.5938,407.6719 C214.6563,407.2344 214.0625,407.0938 213.1875,407.0938 C210.5625,407.0938 208.5625,409.1719 208.5625,411.8906 L208.5625,413.0156 C208.5625,415.5938 210.6719,417.4844 213.5625,417.4844 C214.7813,417.4844 215.9375,417.1875 216.6875,416.6406 C217.2656,416.2344 217.5938,415.7813 217.5938,415.3906 C217.5938,414.9375 217.2031,414.5469 216.7344,414.5469 C216.5156,414.5469 216.3125,414.625 216.125,414.8125 C215.6719,415.2969 215.6719,415.2969 215.4844,415.3906 C215.0625,415.6563 214.375,415.7813 213.6094,415.7813 C211.5625,415.7813 210.2656,414.6875 210.2656,412.9844 L210.2656,411.8906 C210.2656,410.1094 211.5156,408.7969 213.25,408.7969 C213.8281,408.7969 214.4375,408.9531 214.9063,409.2031 C215.3906,409.4844 215.5625,409.7031 215.6563,410.1094 C215.7188,410.5156 215.75,410.6406 215.8906,410.7656 C216.0313,410.9063 216.2656,411.0156 216.4844,411.0156 C216.75,411.0156 217.0156,410.875 217.1875,410.6563 C217.2969,410.5 217.3281,410.3125 217.3281,409.8906 L217.3281,408.4688 C217.3281,408.0313 217.3125,407.9063 217.2188,407.75 C217.0625,407.4844 216.7813,407.3438 216.4844,407.3438 C216.1875,407.3438 215.9844,407.4375 215.7656,407.75 L215.5938,407.6719 Z " fill="#000000"/><text fill="#000000" font-family="sans-serif" font-size="14" lengthAdjust="spacing" textLength="101" x="233.75" y="416.8467">ConsolePlayer</text><line style="stroke:#181818;stroke-width:0.5;" x1="157" x2="379" y1="428" y2="428"/><line style="stroke:#181818;stroke-width:0.5;" x1="157" x2="379" y1="436" y2="436"/><text fill="#000000" font-family="sans-serif" font-size="14" lengthAdjust="spacing" textLength="212" x="162" y="452.9951">+ConsolePlayer(GUIInterface)</text></g><!--MD5=[174b845aece9e2b8fe56c79fce093b97]
class BotPlayer--><g id="elem_BotPlayer"><rect codeLine="33" fill="#F1F1F1" height="48" id="BotPlayer" rx="2.5" ry="2.5" style="stroke:#181818;stroke-width:0.5;" width="102" x="19" y="404"/><ellipse cx="34" cy="420" fill="#ADD1B2" rx="11" ry="11" style="stroke:#181818;stroke-width:1.0;"/><path d="M36.3438,415.6719 C35.4063,415.2344 34.8125,415.0938 33.9375,415.0938 C31.3125,415.0938 29.3125,417.1719 29.3125,419.8906 L29.3125,421.0156 C29.3125,423.5938 31.4219,425.4844 34.3125,425.4844 C35.5313,425.4844 36.6875,425.1875 37.4375,424.6406 C38.0156,424.2344 38.3438,423.7813 38.3438,423.3906 C38.3438,422.9375 37.9531,422.5469 37.4844,422.5469 C37.2656,422.5469 37.0625,422.625 36.875,422.8125 C36.4219,423.2969 36.4219,423.2969 36.2344,423.3906 C35.8125,423.6563 35.125,423.7813 34.3594,423.7813 C32.3125,423.7813 31.0156,422.6875 31.0156,420.9844 L31.0156,419.8906 C31.0156,418.1094 32.2656,416.7969 34,416.7969 C34.5781,416.7969 35.1875,416.9531 35.6563,417.2031 C36.1406,417.4844 36.3125,417.7031 36.4063,418.1094 C36.4688,418.5156 36.5,418.6406 36.6406,418.7656 C36.7813,418.9063 37.0156,419.0156 37.2344,419.0156 C37.5,419.0156 37.7656,418.875 37.9375,418.6563 C38.0469,418.5 38.0781,418.3125 38.0781,417.8906 L38.0781,416.4688 C38.0781,416.0313 38.0625,415.9063 37.9688,415.75 C37.8125,415.4844 37.5313,415.3438 37.2344,415.3438 C36.9375,415.3438 36.7344,415.4375 36.5156,415.75 L36.3438,415.6719 Z " fill="#000000"/><text fill="#000000" font-family="sans-serif" font-size="14" lengthAdjust="spacing" textLength="70" x="48" y="424.8467">BotPlayer</text><line style="stroke:#181818;stroke-width:0.5;" x1="20" x2="120" y1="436" y2="436"/><line style="stroke:#181818;stroke-width:0.5;" x1="20" x2="120" y1="444" y2="444"/></g><!--MD5=[fea3dc74c7473bae0133d22265a91e2f]
class Cell--><g id="elem_Cell"><rect codeLine="46" fill="#F1F1F1" height="194.6719" id="Cell" rx="2.5" ry="2.5" style="stroke:#181818;stroke-width:0.5;" width="184" x="323" y="835"/><ellipse cx="397.25" cy="851" fill="#ADD1B2" rx="11" ry="11" style="stroke:#181818;stroke-width:1.0;"/><path d="M399.5938,846.6719 C398.6563,846.2344 398.0625,846.0938 397.1875,846.0938 C394.5625,846.0938 392.5625,848.1719 392.5625,850.8906 L392.5625,852.0156 C392.5625,854.5938 394.6719,856.4844 397.5625,856.4844 C398.7813,856.4844 399.9375,856.1875 400.6875,855.6406 C401.2656,855.2344 401.5938,854.7813 401.5938,854.3906 C401.5938,853.9375 401.2031,853.5469 400.7344,853.5469 C400.5156,853.5469 400.3125,853.625 400.125,853.8125 C399.6719,854.2969 399.6719,854.2969 399.4844,854.3906 C399.0625,854.6563 398.375,854.7813 397.6094,854.7813 C395.5625,854.7813 394.2656,853.6875 394.2656,851.9844 L394.2656,850.8906 C394.2656,849.1094 395.5156,847.7969 397.25,847.7969 C397.8281,847.7969 398.4375,847.9531 398.9063,848.2031 C399.3906,848.4844 399.5625,848.7031 399.6563,849.1094 C399.7188,849.5156 399.75,849.6406 399.8906,849.7656 C400.0313,849.9063 400.2656,850.0156 400.4844,850.0156 C400.75,850.0156 401.0156,849.875 401.1875,849.6563 C401.2969,849.5 401.3281,849.3125 401.3281,848.8906 L401.3281,847.4688 C401.3281,847.0313 401.3125,846.9063 401.2188,846.75 C401.0625,846.4844 400.7813,846.3438 400.4844,846.3438 C400.1875,846.3438 399.9844,846.4375 399.7656,846.75 L399.5938,846.6719 Z " fill="#000000"/><text fill="#000000" font-family="sans-serif" font-size="14" lengthAdjust="spacing" textLength="27" x="417.75" y="855.8467">Cell</text><line style="stroke:#181818;stroke-width:0.5;" x1="324" x2="506" y1="867" y2="867"/><text fill="#000000" font-family="sans-serif" font-size="14" lengthAdjust="spacing" textLength="96" x="329" y="883.9951">enum States:</text><text fill="#000000" font-family="sans-serif" font-size="14" lengthAdjust="spacing" textLength="135" x="329" y="900.292">sea, deadSea, ship,</text><text fill="#000000" font-family="sans-serif" font-size="14" lengthAdjust="spacing" textLength="172" x="329" y="916.5889">attackedShip, deadShip</text><text fill="#000000" font-family="sans-serif" font-size="14" lengthAdjust="spacing" textLength="4" x="329" y="932.8857"> </text><text fill="#000000" font-family="sans-serif" font-size="14" lengthAdjust="spacing" textLength="89" x="329" y="949.1826">States state</text><text fill="#000000" font-family="sans-serif" font-size="14" lengthAdjust="spacing" textLength="89" x="329" y="965.4795">position pos</text><text fill="#000000" font-family="sans-serif" font-size="14" lengthAdjust="spacing" textLength="95" x="329" y="981.7764">Ship* shipPtr</text><text fill="#000000" font-family="sans-serif" font-size="14" lengthAdjust="spacing" textLength="117" x="329" y="998.0732">Board* boardPtr</text><line style="stroke:#181818;stroke-width:0.5;" x1="324" x2="506" y1="1005.375" y2="1005.375"/><text fill="#000000" font-family="sans-serif" font-size="14" lengthAdjust="spacing" textLength="68" x="329" y="1022.3701">+attack()</text></g><!--MD5=[0dc7f2ddb409b58bcf52b12238c25399]
class Ship--><g id="elem_Ship"><rect codeLine="59" fill="#F1F1F1" height="178.375" id="Ship" rx="2.5" ry="2.5" style="stroke:#181818;stroke-width:0.5;" width="204" x="308" y="580"/><ellipse cx="389.75" cy="596" fill="#ADD1B2" rx="11" ry="11" style="stroke:#181818;stroke-width:1.0;"/><path d="M392.0938,591.6719 C391.1563,591.2344 390.5625,591.0938 389.6875,591.0938 C387.0625,591.0938 385.0625,593.1719 385.0625,595.8906 L385.0625,597.0156 C385.0625,599.5938 387.1719,601.4844 390.0625,601.4844 C391.2813,601.4844 392.4375,601.1875 393.1875,600.6406 C393.7656,600.2344 394.0938,599.7813 394.0938,599.3906 C394.0938,598.9375 393.7031,598.5469 393.2344,598.5469 C393.0156,598.5469 392.8125,598.625 392.625,598.8125 C392.1719,599.2969 392.1719,599.2969 391.9844,599.3906 C391.5625,599.6563 390.875,599.7813 390.1094,599.7813 C388.0625,599.7813 386.7656,598.6875 386.7656,596.9844 L386.7656,595.8906 C386.7656,594.1094 388.0156,592.7969 389.75,592.7969 C390.3281,592.7969 390.9375,592.9531 391.4063,593.2031 C391.8906,593.4844 392.0625,593.7031 392.1563,594.1094 C392.2188,594.5156 392.25,594.6406 392.3906,594.7656 C392.5313,594.9063 392.7656,595.0156 392.9844,595.0156 C393.25,595.0156 393.5156,594.875 393.6875,594.6563 C393.7969,594.5 393.8281,594.3125 393.8281,593.8906 L393.8281,592.4688 C393.8281,592.0313 393.8125,591.9063 393.7188,591.75 C393.5625,591.4844 393.2813,591.3438 392.9844,591.3438 C392.6875,591.3438 392.4844,591.4375 392.2656,591.75 L392.0938,591.6719 Z " fill="#000000"/><text fill="#000000" font-family="sans-serif" font-size="14" lengthAdjust="spacing" textLength="32" x="410.25" y="600.8467">Ship</text><line style="stroke:#181818;stroke-width:0.5;" x1="309" x2="511" y1="612" y2="612"/><text fill="#000000" font-family="sans-serif" font-size="14" lengthAdjust="spacing" textLength="89" x="314" y="628.9951">enum State:</text><text fill="#000000" font-family="sans-serif" font-size="14" lengthAdjust="spacing" textLength="192" x="314" y="645.292">untouched, attacked, dead</text><text fill="#000000" font-family="sans-serif" font-size="14" lengthAdjust="spacing" textLength="4" x="314" y="661.5889"> </text><text fill="#000000" font-family="sans-serif" font-size="14" lengthAdjust="spacing" textLength="139" x="314" y="677.8857">vector&lt;Cell*&gt; cells</text><text fill="#000000" font-family="sans-serif" font-size="14" lengthAdjust="spacing" textLength="82" x="314" y="694.1826">State state</text><line style="stroke:#181818;stroke-width:0.5;" x1="309" x2="511" y1="701.4844" y2="701.4844"/><text fill="#000000" font-family="sans-serif" font-size="14" lengthAdjust="spacing" textLength="76" x="314" y="718.4795">+getSize()</text><text fill="#000000" font-family="sans-serif" font-size="14" lengthAdjust="spacing" textLength="65" x="314" y="734.7764">+getHP()</text><text fill="#000000" font-family="sans-serif" font-size="14" lengthAdjust="spacing" textLength="112" x="314" y="751.0732">+updateState()</text></g><!--MD5=[3fa19cc441731caa29084f54f1a58b3e]
class GameMaster--><g id="elem_GameMaster"><rect codeLine="5" fill="#F1F1F1" height="96.8906" id="GameMaster" rx="2.5" ry="2.5" style="stroke:#181818;stroke-width:0.5;" width="123" x="657.5" y="7"/><ellipse cx="672.5" cy="23" fill="#ADD1B2" rx="11" ry="11" style="stroke:#181818;stroke-width:1.0;"/><path d="M674.8438,18.6719 C673.9063,18.2344 673.3125,18.0938 672.4375,18.0938 C669.8125,18.0938 667.8125,20.1719 667.8125,22.8906 L667.8125,24.0156 C667.8125,26.5938 669.9219,28.4844 672.8125,28.4844 C674.0313,28.4844 675.1875,28.1875 675.9375,27.6406 C676.5156,27.2344 676.8438,26.7813 676.8438,26.3906 C676.8438,25.9375 676.4531,25.5469 675.9844,25.5469 C675.7656,25.5469 675.5625,25.625 675.375,25.8125 C674.9219,26.2969 674.9219,26.2969 674.7344,26.3906 C674.3125,26.6563 673.625,26.7813 672.8594,26.7813 C670.8125,26.7813 669.5156,25.6875 669.5156,23.9844 L669.5156,22.8906 C669.5156,21.1094 670.7656,19.7969 672.5,19.7969 C673.0781,19.7969 673.6875,19.9531 674.1563,20.2031 C674.6406,20.4844 674.8125,20.7031 674.9063,21.1094 C674.9688,21.5156 675,21.6406 675.1406,21.7656 C675.2813,21.9063 675.5156,22.0156 675.7344,22.0156 C676,22.0156 676.2656,21.875 676.4375,21.6563 C676.5469,21.5 676.5781,21.3125 676.5781,20.8906 L676.5781,19.4688 C676.5781,19.0313 676.5625,18.9063 676.4688,18.75 C676.3125,18.4844 676.0313,18.3438 675.7344,18.3438 C675.4375,18.3438 675.2344,18.4375 675.0156,18.75 L674.8438,18.6719 Z " fill="#000000"/><text fill="#000000" font-family="sans-serif" font-size="14" lengthAdjust="spacing" textLength="91" x="686.5" y="27.8467">GameMaster</text><line style="stroke:#181818;stroke-width:0.5;" x1="658.5" x2="779.5" y1="39" y2="39"/><line style="stroke:#181818;stroke-width:0.5;" x1="658.5" x2="779.5" y1="47" y2="47"/><text fill="#000000" font-family="sans-serif" font-size="14" lengthAdjust="spacing" textLength="44" x="663.5" y="63.9951">+run()</text><text fill="#000000" font-family="sans-serif" font-size="14" lengthAdjust="spacing" textLength="96" x="663.5" y="80.292">+openMenu()</text><text fill="#000000" font-family="sans-serif" font-size="14" lengthAdjust="spacing" textLength="89" x="663.5" y="96.5889">+runBattle()</text></g><!--MD5=[2cb47ba637a0d19583e6199456f6ad0b]
class Player--><g id="elem_Player"><rect codeLine="11" fill="#F1F1F1" height="80.5938" id="Player" rx="2.5" ry="2.5" style="stroke:#181818;stroke-width:0.5;" width="177" x="447.5" y="189"/><ellipse cx="509.75" cy="205" fill="#B4A7E5" rx="11" ry="11" style="stroke:#181818;stroke-width:1.0;"/><path d="M510.7031,201.7813 L512.4219,201.7813 C512.8125,201.7813 513,201.75 513.125,201.6719 C513.3906,201.5156 513.5313,201.2344 513.5313,200.9375 C513.5313,200.6719 513.4219,200.4063 513.1875,200.2344 C513.0156,200.125 512.875,200.0938 512.4219,200.0938 L507.2813,200.0938 C506.8438,200.0938 506.7188,200.1094 506.5625,200.2031 C506.3125,200.3594 506.1563,200.6563 506.1563,200.9375 C506.1563,201.2188 506.2969,201.4688 506.5156,201.6406 C506.6719,201.75 506.8594,201.7813 507.2813,201.7813 L509,201.7813 L509,208.2969 L507.2813,208.2969 C506.8438,208.2969 506.7188,208.3125 506.5625,208.4219 C506.3125,208.5781 506.1563,208.8594 506.1563,209.1563 C506.1563,209.4063 506.2969,209.6719 506.5156,209.8281 C506.6719,209.9531 506.875,210 507.2813,210 L512.4219,210 C513.1719,210 513.5313,209.7188 513.5313,209.1563 C513.5313,208.875 513.4219,208.625 513.1875,208.4531 C513.0156,208.3281 512.875,208.2969 512.4219,208.2969 L510.7031,208.2969 L510.7031,201.7813 Z " fill="#000000"/><text fill="#000000" font-family="sans-serif" font-size="14" font-style="italic" lengthAdjust="spacing" textLength="44" x="530.25" y="209.8467">Player</text><line style="stroke:#181818;stroke-width:0.5;" x1="448.5" x2="623.5" y1="221" y2="221"/><line style="stroke:#181818;stroke-width:0.5;" x1="448.5" x2="623.5" y1="229" y2="229"/><text fill="#000000" font-family="sans-serif" font-size="14" lengthAdjust="spacing" textLength="88" x="453.5" y="245.9951">+fill_board()</text><text fill="#000000" font-family="sans-serif" font-size="14" lengthAdjust="spacing" textLength="165" x="453.5" y="262.292">+attack(Player enemy)</text></g><!--MD5=[1f9aa183c03a5a4b2c7a355206fc0cf9]
class GUI--><g id="elem_GUI"><rect codeLine="16" fill="#F1F1F1" height="129.4844" id="GUI" rx="2.5" ry="2.5" style="stroke:#181818;stroke-width:0.5;" width="310" x="682" y="165"/><ellipse cx="820.25" cy="181" fill="#B4A7E5" rx="11" ry="11" style="stroke:#181818;stroke-width:1.0;"/><path d="M821.2031,177.7813 L822.9219,177.7813 C823.3125,177.7813 823.5,177.75 823.625,177.6719 C823.8906,177.5156 824.0313,177.2344 824.0313,176.9375 C824.0313,176.6719 823.9219,176.4063 823.6875,176.2344 C823.5156,176.125 823.375,176.0938 822.9219,176.0938 L817.7813,176.0938 C817.3438,176.0938 817.2188,176.1094 817.0625,176.2031 C816.8125,176.3594 816.6563,176.6563 816.6563,176.9375 C816.6563,177.2188 816.7969,177.4688 817.0156,177.6406 C817.1719,177.75 817.3594,177.7813 817.7813,177.7813 L819.5,177.7813 L819.5,184.2969 L817.7813,184.2969 C817.3438,184.2969 817.2188,184.3125 817.0625,184.4219 C816.8125,184.5781 816.6563,184.8594 816.6563,185.1563 C816.6563,185.4063 816.7969,185.6719 817.0156,185.8281 C817.1719,185.9531 817.375,186 817.7813,186 L822.9219,186 C823.6719,186 824.0313,185.7188 824.0313,185.1563 C824.0313,184.875 823.9219,184.625 823.6875,184.4531 C823.5156,184.3281 823.375,184.2969 822.9219,184.2969 L821.2031,184.2969 L821.2031,177.7813 Z " fill="#000000"/><text fill="#000000" font-family="sans-serif" font-size="14" font-style="italic" lengthAdjust="spacing" textLength="25" x="840.75" y="185.8467">GUI</text><line style="stroke:#181818;stroke-width:0.5;" x1="683" x2="991" y1="197" y2="197"/><line style="stroke:#181818;stroke-width:0.5;" x1="683" x2="991" y1="205" y2="205"/><text fill="#000000" font-family="sans-serif" font-size="14" lengthAdjust="spacing" textLength="230" x="688" y="221.9951">+placeShip(Ship::Type, int size)</text><text fill="#000000" font-family="sans-serif" font-size="14" lengthAdjust="spacing" textLength="298" x="688" y="238.292">+displayOptions(vector&lt;srting&gt; options)</text><text fill="#000000" font-family="sans-serif" font-size="14" lengthAdjust="spacing" textLength="208" x="688" y="254.5889">+displayBoard(Board, isMine)</text><text fill="#000000" font-family="sans-serif" font-size="14" lengthAdjust="spacing" textLength="255" x="688" y="270.8857">+getAttack(player, attackedBoard)</text><text fill="#000000" font-family="sans-serif" font-size="14" lengthAdjust="spacing" textLength="160" x="688" y="287.1826">+displayPlayer(player)</text></g><!--MD5=[9563755d011c5cec7ec66dc53565a59e]
class Board--><g id="elem_Board"><rect codeLine="36" fill="#F1F1F1" height="145.7813" id="Board" rx="2.5" ry="2.5" style="stroke:#181818;stroke-width:0.5;" width="241" x="415.5" y="355"/><ellipse cx="510.75" cy="371" fill="#ADD1B2" rx="11" ry="11" style="stroke:#181818;stroke-width:1.0;"/><path d="M513.0938,366.6719 C512.1563,366.2344 511.5625,366.0938 510.6875,366.0938 C508.0625,366.0938 506.0625,368.1719 506.0625,370.8906 L506.0625,372.0156 C506.0625,374.5938 508.1719,376.4844 511.0625,376.4844 C512.2813,376.4844 513.4375,376.1875 514.1875,375.6406 C514.7656,375.2344 515.0938,374.7813 515.0938,374.3906 C515.0938,373.9375 514.7031,373.5469 514.2344,373.5469 C514.0156,373.5469 513.8125,373.625 513.625,373.8125 C513.1719,374.2969 513.1719,374.2969 512.9844,374.3906 C512.5625,374.6563 511.875,374.7813 511.1094,374.7813 C509.0625,374.7813 507.7656,373.6875 507.7656,371.9844 L507.7656,370.8906 C507.7656,369.1094 509.0156,367.7969 510.75,367.7969 C511.3281,367.7969 511.9375,367.9531 512.4063,368.2031 C512.8906,368.4844 513.0625,368.7031 513.1563,369.1094 C513.2188,369.5156 513.25,369.6406 513.3906,369.7656 C513.5313,369.9063 513.7656,370.0156 513.9844,370.0156 C514.25,370.0156 514.5156,369.875 514.6875,369.6563 C514.7969,369.5 514.8281,369.3125 514.8281,368.8906 L514.8281,367.4688 C514.8281,367.0313 514.8125,366.9063 514.7188,366.75 C514.5625,366.4844 514.2813,366.3438 513.9844,366.3438 C513.6875,366.3438 513.4844,366.4375 513.2656,366.75 L513.0938,366.6719 Z " fill="#000000"/><text fill="#000000" font-family="sans-serif" font-size="14" lengthAdjust="spacing" textLength="42" x="531.25" y="375.8467">Board</text><line style="stroke:#181818;stroke-width:0.5;" x1="416.5" x2="655.5" y1="387" y2="387"/><line style="stroke:#181818;stroke-width:0.5;" x1="416.5" x2="655.5" y1="395" y2="395"/><text fill="#000000" font-family="sans-serif" font-size="14" lengthAdjust="spacing" textLength="109" x="421.5" y="411.9951">+addShip(ship)</text><text fill="#000000" font-family="sans-serif" font-size="14" lengthAdjust="spacing" textLength="110" x="421.5" y="428.292">+allshipCount()</text><text fill="#000000" font-family="sans-serif" font-size="14" lengthAdjust="spacing" textLength="129" x="421.5" y="444.5889">+deadshipCount()</text><text fill="#000000" font-family="sans-serif" font-size="14" lengthAdjust="spacing" textLength="127" x="421.5" y="460.8857">+attack(position)</text><text fill="#000000" font-family="sans-serif" font-size="14" lengthAdjust="spacing" textLength="180" x="421.5" y="477.1826">+withinBorders(position)</text><text fill="#000000" font-family="sans-serif" font-size="14" lengthAdjust="spacing" textLength="229" x="421.5" y="493.4795">+hasNoShipNeighbour(position)</text></g><!--MD5=[a64a835c3d62471a77f615251fdde58a]
class Position--><g id="elem_Position"><rect codeLine="73" fill="#F1F1F1" height="113.1875" id="Position" rx="2.5" ry="2.5" style="stroke:#181818;stroke-width:0.5;" width="183" x="618.5" y="612.5"/><ellipse cx="676.75" cy="628.5" fill="#ADD1B2" rx="11" ry="11" style="stroke:#181818;stroke-width:1.0;"/><path d="M679.0938,624.1719 C678.1563,623.7344 677.5625,623.5938 676.6875,623.5938 C674.0625,623.5938 672.0625,625.6719 672.0625,628.3906 L672.0625,629.5156 C672.0625,632.0938 674.1719,633.9844 677.0625,633.9844 C678.2813,633.9844 679.4375,633.6875 680.1875,633.1406 C680.7656,632.7344 681.0938,632.2813 681.0938,631.8906 C681.0938,631.4375 680.7031,631.0469 680.2344,631.0469 C680.0156,631.0469 679.8125,631.125 679.625,631.3125 C679.1719,631.7969 679.1719,631.7969 678.9844,631.8906 C678.5625,632.1563 677.875,632.2813 677.1094,632.2813 C675.0625,632.2813 673.7656,631.1875 673.7656,629.4844 L673.7656,628.3906 C673.7656,626.6094 675.0156,625.2969 676.75,625.2969 C677.3281,625.2969 677.9375,625.4531 678.4063,625.7031 C678.8906,625.9844 679.0625,626.2031 679.1563,626.6094 C679.2188,627.0156 679.25,627.1406 679.3906,627.2656 C679.5313,627.4063 679.7656,627.5156 679.9844,627.5156 C680.25,627.5156 680.5156,627.375 680.6875,627.1563 C680.7969,627 680.8281,626.8125 680.8281,626.3906 L680.8281,624.9688 C680.8281,624.5313 680.8125,624.4063 680.7188,624.25 C680.5625,623.9844 680.2813,623.8438 679.9844,623.8438 C679.6875,623.8438 679.4844,623.9375 679.2656,624.25 L679.0938,624.1719 Z " fill="#000000"/><text fill="#000000" font-family="sans-serif" font-size="14" lengthAdjust="spacing" textLength="58" x="697.25" y="633.3467">Position</text><line style="stroke:#181818;stroke-width:0.5;" x1="619.5" x2="800.5" y1="644.5" y2="644.5"/><text fill="#000000" font-family="sans-serif" font-size="14" lengthAdjust="spacing" textLength="32" x="624.5" y="661.4951">int x</text><text fill="#000000" font-family="sans-serif" font-size="14" lengthAdjust="spacing" textLength="32" x="624.5" y="677.792">int y</text><text fill="#000000" font-family="sans-serif" font-size="14" lengthAdjust="spacing" textLength="171" x="624.5" y="694.0889">+// some usual methods</text><text fill="#000000" font-family="sans-serif" font-size="14" lengthAdjust="spacing" textLength="166" x="624.5" y="710.3857">for points on the plane</text><line style="stroke:#181818;stroke-width:0.5;" x1="619.5" x2="800.5" y1="717.6875" y2="717.6875"/></g><!--MD5=[b91eb240017d254ef80a7cb85a26e06e]
class GlobalSettings--><g id="elem_GlobalSettings"><rect codeLine="80" fill="#F1F1F1" height="129.4844" id="GlobalSettings" rx="2.5" ry="2.5" style="stroke:#181818;stroke-width:0.5;" width="165" x="834.5" y="363.5"/><ellipse cx="861.2" cy="379.5" fill="#ADD1B2" rx="11" ry="11" style="stroke:#181818;stroke-width:1.0;"/><path d="M863.5438,375.1719 C862.6063,374.7344 862.0125,374.5938 861.1375,374.5938 C858.5125,374.5938 856.5125,376.6719 856.5125,379.3906 L856.5125,380.5156 C856.5125,383.0938 858.6219,384.9844 861.5125,384.9844 C862.7313,384.9844 863.8875,384.6875 864.6375,384.1406 C865.2156,383.7344 865.5438,383.2813 865.5438,382.8906 C865.5438,382.4375 865.1531,382.0469 864.6844,382.0469 C864.4656,382.0469 864.2625,382.125 864.075,382.3125 C863.6219,382.7969 863.6219,382.7969 863.4344,382.8906 C863.0125,383.1563 862.325,383.2813 861.5594,383.2813 C859.5125,383.2813 858.2156,382.1875 858.2156,380.4844 L858.2156,379.3906 C858.2156,377.6094 859.4656,376.2969 861.2,376.2969 C861.7781,376.2969 862.3875,376.4531 862.8563,376.7031 C863.3406,376.9844 863.5125,377.2031 863.6063,377.6094 C863.6688,378.0156 863.7,378.1406 863.8406,378.2656 C863.9813,378.4063 864.2156,378.5156 864.4344,378.5156 C864.7,378.5156 864.9656,378.375 865.1375,378.1563 C865.2469,378 865.2781,377.8125 865.2781,377.3906 L865.2781,375.9688 C865.2781,375.5313 865.2625,375.4063 865.1688,375.25 C865.0125,374.9844 864.7313,374.8438 864.4344,374.8438 C864.1375,374.8438 863.9344,374.9375 863.7156,375.25 L863.5438,375.1719 Z " fill="#000000"/><text fill="#000000" font-family="sans-serif" font-size="14" lengthAdjust="spacing" textLength="107" x="877.8" y="384.3467">GlobalSettings</text><line style="stroke:#181818;stroke-width:0.5;" x1="835.5" x2="998.5" y1="395.5" y2="395.5"/><text fill="#000000" font-family="sans-serif" font-size="14" lengthAdjust="spacing" textLength="85" x="840.5" y="412.4951">boardWidth</text><text fill="#000000" font-family="sans-serif" font-size="14" lengthAdjust="spacing" textLength="90" x="840.5" y="428.792">boardHeight</text><text fill="#000000" font-family="sans-serif" font-size="14" lengthAdjust="spacing" textLength="94" x="840.5" y="445.0889">shipsNumber</text><text fill="#000000" font-family="sans-serif" font-size="14" lengthAdjust="spacing" textLength="153" x="840.5" y="461.3857">vector&lt;int&gt; shipSize</text><text fill="#000000" font-family="sans-serif" font-size="14" lengthAdjust="spacing" textLength="102" x="840.5" y="477.6826">playerNumber</text><line style="stroke:#181818;stroke-width:0.5;" x1="835.5" x2="998.5" y1="484.9844" y2="484.9844"/></g><!--MD5=[b5e3703c1b7ac92ae87beff8caa0eb04]
class BoardBuilder--><g id="elem_BoardBuilder"><rect codeLine="88" fill="#F1F1F1" height="80.5938" id="BoardBuilder" rx="2.5" ry="2.5" style="stroke:#181818;stroke-width:0.5;" width="192" x="81" y="628.5"/><ellipse cx="126.75" cy="644.5" fill="#ADD1B2" rx="11" ry="11" style="stroke:#181818;stroke-width:1.0;"/><path d="M129.0938,640.1719 C128.1563,639.7344 127.5625,639.5938 126.6875,639.5938 C124.0625,639.5938 122.0625,641.6719 122.0625,644.3906 L122.0625,645.5156 C122.0625,648.0938 124.1719,649.9844 127.0625,649.9844 C128.2813,649.9844 129.4375,649.6875 130.1875,649.1406 C130.7656,648.7344 131.0938,648.2813 131.0938,647.8906 C131.0938,647.4375 130.7031,647.0469 130.2344,647.0469 C130.0156,647.0469 129.8125,647.125 129.625,647.3125 C129.1719,647.7969 129.1719,647.7969 128.9844,647.8906 C128.5625,648.1563 127.875,648.2813 127.1094,648.2813 C125.0625,648.2813 123.7656,647.1875 123.7656,645.4844 L123.7656,644.3906 C123.7656,642.6094 125.0156,641.2969 126.75,641.2969 C127.3281,641.2969 127.9375,641.4531 128.4063,641.7031 C128.8906,641.9844 129.0625,642.2031 129.1563,642.6094 C129.2188,643.0156 129.25,643.1406 129.3906,643.2656 C129.5313,643.4063 129.7656,643.5156 129.9844,643.5156 C130.25,643.5156 130.5156,643.375 130.6875,643.1563 C130.7969,643 130.8281,642.8125 130.8281,642.3906 L130.8281,640.9688 C130.8281,640.5313 130.8125,640.4063 130.7188,640.25 C130.5625,639.9844 130.2813,639.8438 129.9844,639.8438 C129.6875,639.8438 129.4844,639.9375 129.2656,640.25 L129.0938,640.1719 Z " fill="#000000"/><text fill="#000000" font-family="sans-serif" font-size="14" lengthAdjust="spacing" textLength="92" x="147.25" y="649.3467">BoardBuilder</text><line style="stroke:#181818;stroke-width:0.5;" x1="82" x2="272" y1="660.5" y2="660.5"/><line style="stroke:#181818;stroke-width:0.5;" x1="82" x2="272" y1="668.5" y2="668.5"/><text fill="#000000" font-family="sans-serif" font-size="14" lengthAdjust="spacing" textLength="180" x="87" y="685.4951">+constructEmptyBoard()</text><text fill="#000000" font-family="sans-serif" font-size="14" lengthAdjust="spacing" textLength="120" x="87" y="701.792">+fillShips(Board)</text></g><!--MD5=[fa40eb9cc7d547f8e0b28e98ae456c2b]
class ShipFactory--><g id="elem_ShipFactory"><rect codeLine="93" fill="#F1F1F1" height="64.2969" id="ShipFactory" rx="2.5" ry="2.5" style="stroke:#181818;stroke-width:0.5;" width="324" x="544" y="900.5"/><ellipse cx="658.75" cy="916.5" fill="#ADD1B2" rx="11" ry="11" style="stroke:#181818;stroke-width:1.0;"/><path d="M661.0938,912.1719 C660.1563,911.7344 659.5625,911.5938 658.6875,911.5938 C656.0625,911.5938 654.0625,913.6719 654.0625,916.3906 L654.0625,917.5156 C654.0625,920.0938 656.1719,921.9844 659.0625,921.9844 C660.2813,921.9844 661.4375,921.6875 662.1875,921.1406 C662.7656,920.7344 663.0938,920.2813 663.0938,919.8906 C663.0938,919.4375 662.7031,919.0469 662.2344,919.0469 C662.0156,919.0469 661.8125,919.125 661.625,919.3125 C661.1719,919.7969 661.1719,919.7969 660.9844,919.8906 C660.5625,920.1563 659.875,920.2813 659.1094,920.2813 C657.0625,920.2813 655.7656,919.1875 655.7656,917.4844 L655.7656,916.3906 C655.7656,914.6094 657.0156,913.2969 658.75,913.2969 C659.3281,913.2969 659.9375,913.4531 660.4063,913.7031 C660.8906,913.9844 661.0625,914.2031 661.1563,914.6094 C661.2188,915.0156 661.25,915.1406 661.3906,915.2656 C661.5313,915.4063 661.7656,915.5156 661.9844,915.5156 C662.25,915.5156 662.5156,915.375 662.6875,915.1563 C662.7969,915 662.8281,914.8125 662.8281,914.3906 L662.8281,912.9688 C662.8281,912.5313 662.8125,912.4063 662.7188,912.25 C662.5625,911.9844 662.2813,911.8438 661.9844,911.8438 C661.6875,911.8438 661.4844,911.9375 661.2656,912.25 L661.0938,912.1719 Z " fill="#000000"/><text fill="#000000" font-family="sans-serif" font-size="14" lengthAdjust="spacing" textLength="86" x="679.25" y="921.3467">ShipFactory</text><line style="stroke:#181818;stroke-width:0.5;" x1="545" x2="867" y1="932.5" y2="932.5"/><line style="stroke:#181818;stroke-width:0.5;" x1="545" x2="867" y1="940.5" y2="940.5"/><text fill="#000000" font-family="sans-serif" font-size="14" lengthAdjust="spacing" textLength="312" x="550" y="957.4951">+constructShip(Player, Ship::Type, int size)</text></g><!--MD5=[317012368e33d1c6a5d06ed6cafea940]
class PlayerSettings--><g id="elem_PlayerSettings"><rect codeLine="97" fill="#F1F1F1" height="48" id="PlayerSettings" rx="2.5" ry="2.5" style="stroke:#181818;stroke-width:0.5;" width="137" x="839.5" y="645"/><ellipse cx="854.5" cy="661" fill="#ADD1B2" rx="11" ry="11" style="stroke:#181818;stroke-width:1.0;"/><path d="M856.8438,656.6719 C855.9063,656.2344 855.3125,656.0938 854.4375,656.0938 C851.8125,656.0938 849.8125,658.1719 849.8125,660.8906 L849.8125,662.0156 C849.8125,664.5938 851.9219,666.4844 854.8125,666.4844 C856.0313,666.4844 857.1875,666.1875 857.9375,665.6406 C858.5156,665.2344 858.8438,664.7813 858.8438,664.3906 C858.8438,663.9375 858.4531,663.5469 857.9844,663.5469 C857.7656,663.5469 857.5625,663.625 857.375,663.8125 C856.9219,664.2969 856.9219,664.2969 856.7344,664.3906 C856.3125,664.6563 855.625,664.7813 854.8594,664.7813 C852.8125,664.7813 851.5156,663.6875 851.5156,661.9844 L851.5156,660.8906 C851.5156,659.1094 852.7656,657.7969 854.5,657.7969 C855.0781,657.7969 855.6875,657.9531 856.1563,658.2031 C856.6406,658.4844 856.8125,658.7031 856.9063,659.1094 C856.9688,659.5156 857,659.6406 857.1406,659.7656 C857.2813,659.9063 857.5156,660.0156 857.7344,660.0156 C858,660.0156 858.2656,659.875 858.4375,659.6563 C858.5469,659.5 858.5781,659.3125 858.5781,658.8906 L858.5781,657.4688 C858.5781,657.0313 858.5625,656.9063 858.4688,656.75 C858.3125,656.4844 858.0313,656.3438 857.7344,656.3438 C857.4375,656.3438 857.2344,656.4375 857.0156,656.75 L856.8438,656.6719 Z " fill="#000000"/><text fill="#000000" font-family="sans-serif" font-size="14" lengthAdjust="spacing" textLength="105" x="868.5" y="665.8467">PlayerSettings</text><line style="stroke:#181818;stroke-width:0.5;" x1="840.5" x2="975.5" y1="677" y2="677"/><line style="stroke:#181818;stroke-width:0.5;" x1="840.5" x2="975.5" y1="685" y2="685"/></g><g id="elem_GMN57941"><path d="M6,217 L6,242.1328 A0,0 0 0 0 6,242.1328 L66,242.1328 L70,403.745 L74,242.1328 L134,242.1328 A0,0 0 0 0 134,242.1328 L134,227 L124,217 L6,217 A0,0 0 0 0 6,217 " fill="#FEFFDD" style="stroke:#181818;stroke-width:0.5;"/><path d="M124,217 L124,227 L134,227 L124,217 " fill="#FEFFDD" style="stroke:#181818;stroke-width:0.5;"/><text fill="#000000" font-family="sans-serif" font-size="13" lengthAdjust="spacing" textLength="107" x="12" y="234.0669">Wait next patch!</text></g><g id="elem_GMN57944"><path d="M1027,217 L1027,242.1328 A0,0 0 0 0 1027,242.1328 L1087,242.1328 L1091,403.745 L1095,242.1328 L1155,242.1328 A0,0 0 0 0 1155,242.1328 L1155,227 L1145,217 L1027,217 A0,0 0 0 0 1027,217 " fill="#FEFFDD" style="stroke:#181818;stroke-width:0.5;"/><path d="M1145,217 L1145,227 L1155,227 L1145,217 " fill="#FEFFDD" style="stroke:#181818;stroke-width:0.5;"/><text fill="#000000" font-family="sans-serif" font-size="13" lengthAdjust="spacing" textLength="107" x="1033" y="234.0669">Wait next patch!</text></g><g id="elem_GMN57947"><path d="M1190,217 L1190,242.1328 A0,0 0 0 0 1190,242.1328 L1249.23,242.1328 L1242.54,403.745 L1257.23,242.1328 L1318,242.1328 A0,0 0 0 0 1318,242.1328 L1318,227 L1308,217 L1190,217 A0,0 0 0 0 1190,217 " fill="#FEFFDD" style="stroke:#181818;stroke-width:0.5;"/><path d="M1308,217 L1308,227 L1318,227 L1308,217 " fill="#FEFFDD" style="stroke:#181818;stroke-width:0.5;"/><text fill="#000000" font-family="sans-serif" font-size="13" lengthAdjust="spacing" textLength="107" x="1196" y="234.0669">Wait next patch!</text></g><!--MD5=[28d454eb6a802a996292f7513fb5940d]
reverse link GameMaster to GUI--><g id="link_GameMaster_GUI"><path codeLine="103" d="M759.277,115.209 C770.23,131.174 782.143,148.538 793.276,164.767 " fill="none" id="GameMaster-backto-GUI" style="stroke:#181818;stroke-width:1.0;"/><polygon fill="none" points="751.87,104.412,751.9658,111.6225,758.6585,114.3073,758.5627,107.0968,751.87,104.412" style="stroke:#181818;stroke-width:1.0;"/><text fill="#000000" font-family="sans-serif" font-size="13" lengthAdjust="spacing" textLength="8" x="747.7494" y="124.0755">1</text><text fill="#000000" font-family="sans-serif" font-size="13" lengthAdjust="spacing" textLength="8" x="780.0562" y="153.9142">1</text></g><!--MD5=[bb300298e8a61e0a01e869eec431cab4]
reverse link GameMaster to Player--><g id="link_GameMaster_Player"><path codeLine="104" d="M658.51,113.354 C632.155,138.124 601.908,166.553 578.063,188.966 " fill="none" id="GameMaster-backto-Player" style="stroke:#181818;stroke-width:1.0;"/><polygon fill="#181818" points="668.024,104.412,660.9126,105.6069,659.2804,112.6308,666.3918,111.436,668.024,104.412" style="stroke:#181818;stroke-width:1.0;"/><text fill="#000000" font-family="sans-serif" font-size="13" lengthAdjust="spacing" textLength="8" x="652.6366" y="124.0755">1</text><text fill="#000000" font-family="sans-serif" font-size="13" lengthAdjust="spacing" textLength="23" x="560.316" y="177.8234">2..*</text></g><!--MD5=[f2d4d79643b633444e425b34f363d4d9]
reverse link GUI to ExternalGUI--><g id="link_GUI_ExternalGUI"><path codeLine="106" d="M1010.96,294.898 C1085.45,322.767 1157.3,350.167 1165,355 C1186.24,368.335 1206.67,388.216 1220.98,403.71 " fill="none" id="GUI-backto-ExternalGUI" style="stroke:#181818;stroke-width:1.0;stroke-dasharray:7.0,7.0;"/><polygon fill="none" points="1008.29,301.372,992,287.816,1013.19,288.257,1008.29,301.372" style="stroke:#181818;stroke-width:1.0;"/></g><!--MD5=[ae32ba4e3fd3e91211cc38c3e013834a]
reverse link GUI to ConsoleGUI--><g id="link_GUI_ConsoleGUI"><path codeLine="107" d="M952.096,305.858 C974.131,321.463 996.66,338.264 1017,355 C1035.55,370.26 1054.95,389.271 1069.24,403.926 " fill="none" id="GUI-backto-ConsoleGUI" style="stroke:#181818;stroke-width:1.0;stroke-dasharray:7.0,7.0;"/><polygon fill="none" points="947.769,311.374,935.387,294.179,955.79,299.899,947.769,311.374" style="stroke:#181818;stroke-width:1.0;"/></g><!--MD5=[0549a1f24ae7e87ddb4d24fa4bf8fef1]
reverse link Player to ConsolePlayer--><g id="link_Player_ConsolePlayer"><path codeLine="109" d="M465.661,282.073 C416.341,318.235 352.031,365.388 310.38,395.926 " fill="none" id="Player-backto-ConsolePlayer" style="stroke:#181818;stroke-width:1.0;stroke-dasharray:7.0,7.0;"/><polygon fill="none" points="461.82,276.209,482.089,270.028,470.099,287.5,461.82,276.209" style="stroke:#181818;stroke-width:1.0;"/></g><!--MD5=[b416ad59bd543746be7c071034d95508]
reverse link Player to BotPlayer--><g id="link_Player_BotPlayer"><path codeLine="110" d="M427.358,248.886 C343.565,266.621 227.285,299.201 138,355 C117.587,367.757 99.164,388.094 86.6592,403.906 " fill="none" id="Player-backto-BotPlayer" style="stroke:#181818;stroke-width:1.0;stroke-dasharray:7.0,7.0;"/><polygon fill="none" points="426.125,241.994,447.121,244.85,428.926,255.711,426.125,241.994" style="stroke:#181818;stroke-width:1.0;"/></g><!--MD5=[4c47dfb9d4ba9e03169fd2fa2e83336c]
reverse link Player to Board--><g id="link_Player_Board"><path codeLine="111" d="M536,283.362 C536,305.285 536,331.073 536,354.703 " fill="none" id="Player-backto-Board" style="stroke:#181818;stroke-width:1.0;"/><polygon fill="#181818" points="536,270.265,532,276.265,536,282.265,540,276.265,536,270.265" style="stroke:#181818;stroke-width:1.0;"/><text fill="#000000" font-family="sans-serif" font-size="13" lengthAdjust="spacing" textLength="8" x="527.3875" y="289.7637">1</text><text fill="#000000" font-family="sans-serif" font-size="13" lengthAdjust="spacing" textLength="8" x="527.6063" y="343.8337">1</text></g><!--MD5=[5778a4432fb065f83ccf0aa932a03c78]
reverse link Board to Cell--><g id="link_Board_Cell"><path codeLine="113" d="M556.546,514.385 C571.172,593.07 582.07,711.458 543,805 C538.244,816.388 524.233,832.794 507.134,850.036 " fill="none" id="Board-backto-Cell" style="stroke:#181818;stroke-width:1.0;"/><polygon fill="#181818" points="553.979,501.14,551.194,507.7916,556.2629,512.9207,559.0478,506.269,553.979,501.14" style="stroke:#181818;stroke-width:1.0;"/><text fill="#000000" font-family="sans-serif" font-size="13" lengthAdjust="spacing" textLength="8" x="547.3114" y="520.9096">1</text><text fill="#000000" font-family="sans-serif" font-size="13" lengthAdjust="spacing" textLength="23" x="515.0685" y="840.2327">1..*</text></g><!--MD5=[a28d51ba30d9767a73544c25a0e18962]
reverse link Board to Ship--><g id="link_Board_Ship"><path codeLine="114" d="M491.955,512.546 C480.513,534.249 468.151,557.697 456.584,579.639 " fill="none" id="Board-backto-Ship" style="stroke:#181818;stroke-width:1.0;"/><polygon fill="#181818" points="498.025,501.032,491.6885,504.4741,492.4287,511.6471,498.7652,508.205,498.025,501.032" style="stroke:#181818;stroke-width:1.0;"/><text fill="#000000" font-family="sans-serif" font-size="13" lengthAdjust="spacing" textLength="8" x="486.0243" y="520.7914">1</text><text fill="#000000" font-family="sans-serif" font-size="13" lengthAdjust="spacing" textLength="23" x="436.3798" y="568.9776">0..*</text></g><!--MD5=[85cec48ed96ba00b0ecf8ae9eb6f40e3]
reverse link GlobalSettings to PlayerSettings--><g id="link_GlobalSettings_PlayerSettings"><path codeLine="116" d="M914.1,506.019 C912.284,554.227 910.07,613.04 908.871,644.863 " fill="none" id="GlobalSettings-backto-PlayerSettings" style="stroke:#181818;stroke-width:1.0;"/><polygon fill="#181818" points="914.6,492.734,910.3767,498.579,914.1477,504.7255,918.371,498.8805,914.6,492.734" style="stroke:#181818;stroke-width:1.0;"/><text fill="#000000" font-family="sans-serif" font-size="13" lengthAdjust="spacing" textLength="8" x="905.86" y="513.1326">1</text><text fill="#000000" font-family="sans-serif" font-size="13" lengthAdjust="spacing" textLength="23" x="883.1473" y="633.8399">2..*</text></g><!--MD5=[7542f6ca34826d95b4af8c5c5e105d58]
reverse link GUI to Position--><g id="link_GUI_Position"><path codeLine="118" d="M817.129,298.952 C792.043,385.371 749.369,532.379 726.174,612.284 " fill="none" id="GUI-backto-Position" style="stroke:#181818;stroke-width:1.0;"/><polygon fill="#181818" points="818.533,294.116,812.1819,301.6435,817.1387,298.9176,819.8645,303.8744,818.533,294.116" style="stroke:#181818;stroke-width:1.0;"/></g><!--MD5=[d87efe38288fbc3a4bdf6f747e15e403]
reverse link Board to Position--><g id="link_Board_Position"><path codeLine="119" d="M591.512,505.25 C616.865,540.074 646.342,580.562 669.553,612.443 " fill="none" id="Board-backto-Position" style="stroke:#181818;stroke-width:1.0;"/><polygon fill="#181818" points="588.442,501.032,590.5063,510.6621,591.3852,505.0739,596.9734,505.9529,588.442,501.032" style="stroke:#181818;stroke-width:1.0;"/></g><!--MD5=[1063f72232851200cace721b4cd19b4a]
reverse link Board to BoardBuilder--><g id="link_Board_BoardBuilder"><path codeLine="120" d="M410.702,493.732 C352.358,523.958 295,553.831 292,556 C262.754,577.147 233.669,605.559 212.066,628.475 " fill="none" id="Board-backto-BoardBuilder" style="stroke:#181818;stroke-width:1.0;"/><polygon fill="#181818" points="415.263,491.369,405.4316,491.9545,410.8227,493.6677,409.1095,499.0589,415.263,491.369" style="stroke:#181818;stroke-width:1.0;"/><text fill="#000000" font-family="sans-serif" font-size="13" lengthAdjust="spacing" textLength="113" x="337" y="544.0669">build and fill ships</text></g><!--MD5=[9c7697f8a36d1261383f2af2d21ad7fa]
reverse link GUI to GlobalSettings--><g id="link_GUI_GlobalSettings"><path codeLine="122" d="M864.785,298.748 C873.323,319.719 882.682,342.706 891.089,363.356 " fill="none" id="GUI-backto-GlobalSettings" style="stroke:#181818;stroke-width:1.0;"/><polygon fill="#181818" points="862.863,294.027,862.5506,303.8709,864.7478,298.6582,869.9605,300.8553,862.863,294.027" style="stroke:#181818;stroke-width:1.0;"/></g><!--MD5=[ba1ffcf84e86928af9cec264b1aa6de5]
reverse link Player to PlayerSettings--><g id="link_Player_PlayerSettings"><path codeLine="123" d="M588.359,273.486 C615.144,296.505 647.578,326.026 674,355 C765.892,455.765 857.739,591.253 892.963,644.819 " fill="none" id="Player-backto-PlayerSettings" style="stroke:#181818;stroke-width:1.0;"/><polygon fill="#181818" points="584.45,270.137,588.6826,279.03,588.2472,273.3899,593.8873,272.9545,584.45,270.137" style="stroke:#181818;stroke-width:1.0;"/></g><!--MD5=[9de54e7e2112e6b4699c648ffc44b347]
link Ship to Cell--><g id="link_Ship_Cell"><path codeLine="125" d="M411.786,763.391 C412.196,784.832 412.634,807.736 413.05,829.519 " fill="none" id="Ship-Cell" style="stroke:#181818;stroke-width:1.0;"/><polygon fill="#181818" points="413.15,834.735,416.977,825.6601,413.0543,829.7359,408.9785,825.8132,413.15,834.735" style="stroke:#181818;stroke-width:1.0;"/><polygon fill="#181818" points="411.686,758.167,407.859,767.2419,411.7817,763.1661,415.8576,767.0888,411.686,758.167" style="stroke:#181818;stroke-width:1.0;"/></g><!--MD5=[3d147b1398d871e10e7161957a094768]
reverse link Ship to ShipFactory--><g id="link_Ship_ShipFactory"><path codeLine="126" d="M513.722,761.633 C568.42,809.955 632.004,866.129 670.605,900.23 " fill="none" id="Ship-backto-ShipFactory" style="stroke:#181818;stroke-width:1.0;"/><polygon fill="#181818" points="509.799,758.167,513.8961,767.1232,513.5464,761.4772,519.1924,761.1275,509.799,758.167" style="stroke:#181818;stroke-width:1.0;"/><text fill="#000000" font-family="sans-serif" font-size="13" lengthAdjust="spacing" textLength="60" x="559" y="801.0669">construct</text></g><!--MD5=[fa7f7b385615a36c8f50a0320184991e]
@startuml
skinparam classAttributeIconSize 0



class GameMaster {
+run()
+openMenu()
+runBattle()
}

interface Player {
+fill_board()
+attack(Player enemy)
}

interface GUI {
+placeShip(Ship::Type, int size)
+displayOptions(vector<srting> options)
+displayBoard(Board, isMine)
+getAttack(player, attackedBoard)
+displayPlayer(player)
}

together {
class ConsoleGUI {}
class ExternalGUI {}
}

together {
class ConsolePlayer {
+ConsolePlayer(GUIInterface)
}
class BotPlayer {}
}

class Board {
+addShip(ship)
+allshipCount()
+deadshipCount()
+attack(position)
+withinBorders(position)
+hasNoShipNeighbour(position)
}

together {
class Cell {
enum States:
 sea, deadSea, ship,
 attackedShip, deadShip

States state
position pos
Ship* shipPtr
Board* boardPtr

+attack()
}

class Ship {
enum State:
untouched, attacked, dead

vector<Cell*> cells
State state
+getSize()
+getHP()
+updateState()
}
}



class Position {
int x
int y
+// some usual methods
 for points on the plane
}

class GlobalSettings {
boardWidth
boardHeight
shipsNumber
vector<int> shipSize
playerNumber
}

class BoardBuilder{
+constructEmptyBoard()
+fillShips(Board)
}

class ShipFactory {
+constructShip(Player, Ship::Type, int size)
}

class PlayerSettings {}

note top of BotPlayer : Wait next patch!
note top of ConsoleGUI : Wait next patch!
note top of ExternalGUI : Wait next patch!

GameMaster "1" o- - "1" GUI
GameMaster "1" *- - "2..*" Player

GUI <|.. ExternalGUI
GUI <|.. ConsoleGUI

Player <|.. ConsolePlayer
Player <|.. BotPlayer
Player "1" *- - "1" Board

Board "1" *- - "1..*" Cell
Board "1" *- - "0..*" Ship

GlobalSettings "1" *- - "2..*" PlayerSettings

GUI <- - Position
Board <- - Position
Board <- - BoardBuilder : build and fill ships

GUI <- - GlobalSettings
Player <- - PlayerSettings

Ship <- -> Cell
Ship <- - ShipFactory : construct
@enduml

PlantUML version 1.2022.3(Tue Mar 29 16:10:57 UTC 2022)
(GPL source distribution)
Java Runtime: Java(TM) SE Runtime Environment
JVM: Java HotSpot(TM) 64-Bit Server VM
Default Encoding: UTF-8
Language: en
Country: US
--></g></svg>