<?xml version="1.0" encoding="UTF-8" standalone="no"?><svg xmlns="http://www.w3.org/2000/svg" xmlns:xlink="http://www.w3.org/1999/xlink" contentStyleType="text/css" height="1165px" preserveAspectRatio="none" style="width:1829px;height:1165px;background:#FFFFFF;" version="1.1" viewBox="0 0 1829 1165" width="1829px" zoomAndPan="magnify"><defs/><g><!--MD5=[bb0098c3e34d5c26d7279c3951f45627]
class ConsoleGUI--><g id="elem_ConsoleGUI"><rect codeLine="44" fill="#F1F1F1" height="48" id="ConsoleGUI" rx="2.5" ry="2.5" style="stroke:#181818;stroke-width:0.5;" width="113" x="1509" y="829"/><ellipse cx="1524" cy="845" fill="#ADD1B2" rx="11" ry="11" style="stroke:#181818;stroke-width:1.0;"/><path d="M1526.3438,840.6719 C1525.4063,840.2344 1524.8125,840.0938 1523.9375,840.0938 C1521.3125,840.0938 1519.3125,842.1719 1519.3125,844.8906 L1519.3125,846.0156 C1519.3125,848.5938 1521.4219,850.4844 1524.3125,850.4844 C1525.5313,850.4844 1526.6875,850.1875 1527.4375,849.6406 C1528.0156,849.2344 1528.3438,848.7813 1528.3438,848.3906 C1528.3438,847.9375 1527.9531,847.5469 1527.4844,847.5469 C1527.2656,847.5469 1527.0625,847.625 1526.875,847.8125 C1526.4219,848.2969 1526.4219,848.2969 1526.2344,848.3906 C1525.8125,848.6563 1525.125,848.7813 1524.3594,848.7813 C1522.3125,848.7813 1521.0156,847.6875 1521.0156,845.9844 L1521.0156,844.8906 C1521.0156,843.1094 1522.2656,841.7969 1524,841.7969 C1524.5781,841.7969 1525.1875,841.9531 1525.6563,842.2031 C1526.1406,842.4844 1526.3125,842.7031 1526.4063,843.1094 C1526.4688,843.5156 1526.5,843.6406 1526.6406,843.7656 C1526.7813,843.9063 1527.0156,844.0156 1527.2344,844.0156 C1527.5,844.0156 1527.7656,843.875 1527.9375,843.6563 C1528.0469,843.5 1528.0781,843.3125 1528.0781,842.8906 L1528.0781,841.4688 C1528.0781,841.0313 1528.0625,840.9063 1527.9688,840.75 C1527.8125,840.4844 1527.5313,840.3438 1527.2344,840.3438 C1526.9375,840.3438 1526.7344,840.4375 1526.5156,840.75 L1526.3438,840.6719 Z " fill="#000000"/><text fill="#000000" font-family="sans-serif" font-size="14" lengthAdjust="spacing" textLength="81" x="1538" y="849.8467">ConsoleGUI</text><line style="stroke:#181818;stroke-width:0.5;" x1="1510" x2="1621" y1="861" y2="861"/><line style="stroke:#181818;stroke-width:0.5;" x1="1510" x2="1621" y1="869" y2="869"/></g><!--MD5=[ba3e1c2e0974ce3751c5a046599f5ee5]
class ExternalGUI--><g id="elem_ExternalGUI"><rect codeLine="45" fill="#F1F1F1" height="64.2969" id="ExternalGUI" rx="2.5" ry="2.5" style="stroke:#181818;stroke-width:0.5;" width="116" x="1357.5" y="821"/><ellipse cx="1372.5" cy="837" fill="#ADD1B2" rx="11" ry="11" style="stroke:#181818;stroke-width:1.0;"/><path d="M1374.8438,832.6719 C1373.9063,832.2344 1373.3125,832.0938 1372.4375,832.0938 C1369.8125,832.0938 1367.8125,834.1719 1367.8125,836.8906 L1367.8125,838.0156 C1367.8125,840.5938 1369.9219,842.4844 1372.8125,842.4844 C1374.0313,842.4844 1375.1875,842.1875 1375.9375,841.6406 C1376.5156,841.2344 1376.8438,840.7813 1376.8438,840.3906 C1376.8438,839.9375 1376.4531,839.5469 1375.9844,839.5469 C1375.7656,839.5469 1375.5625,839.625 1375.375,839.8125 C1374.9219,840.2969 1374.9219,840.2969 1374.7344,840.3906 C1374.3125,840.6563 1373.625,840.7813 1372.8594,840.7813 C1370.8125,840.7813 1369.5156,839.6875 1369.5156,837.9844 L1369.5156,836.8906 C1369.5156,835.1094 1370.7656,833.7969 1372.5,833.7969 C1373.0781,833.7969 1373.6875,833.9531 1374.1563,834.2031 C1374.6406,834.4844 1374.8125,834.7031 1374.9063,835.1094 C1374.9688,835.5156 1375,835.6406 1375.1406,835.7656 C1375.2813,835.9063 1375.5156,836.0156 1375.7344,836.0156 C1376,836.0156 1376.2656,835.875 1376.4375,835.6563 C1376.5469,835.5 1376.5781,835.3125 1376.5781,834.8906 L1376.5781,833.4688 C1376.5781,833.0313 1376.5625,832.9063 1376.4688,832.75 C1376.3125,832.4844 1376.0313,832.3438 1375.7344,832.3438 C1375.4375,832.3438 1375.2344,832.4375 1375.0156,832.75 L1374.8438,832.6719 Z " fill="#000000"/><text fill="#000000" font-family="sans-serif" font-size="14" lengthAdjust="spacing" textLength="84" x="1386.5" y="841.8467">ExternalGUI</text><line style="stroke:#181818;stroke-width:0.5;" x1="1358.5" x2="1472.5" y1="853" y2="853"/><text fill="#000000" font-family="sans-serif" font-size="14" lengthAdjust="spacing" textLength="85" x="1363.5" y="869.9951">//With SFML</text><line style="stroke:#181818;stroke-width:0.5;" x1="1358.5" x2="1472.5" y1="877.2969" y2="877.2969"/></g><!--MD5=[db453f91a253a2358c4d376fa3bf4942]
class InputField--><g id="elem_InputField"><rect codeLine="51" fill="#F1F1F1" height="48" id="InputField" rx="2.5" ry="2.5" style="stroke:#181818;stroke-width:0.5;" width="104" x="1491.5" y="1002"/><ellipse cx="1506.5" cy="1018" fill="#ADD1B2" rx="11" ry="11" style="stroke:#181818;stroke-width:1.0;"/><path d="M1508.8438,1013.6719 C1507.9063,1013.2344 1507.3125,1013.0938 1506.4375,1013.0938 C1503.8125,1013.0938 1501.8125,1015.1719 1501.8125,1017.8906 L1501.8125,1019.0156 C1501.8125,1021.5938 1503.9219,1023.4844 1506.8125,1023.4844 C1508.0313,1023.4844 1509.1875,1023.1875 1509.9375,1022.6406 C1510.5156,1022.2344 1510.8438,1021.7813 1510.8438,1021.3906 C1510.8438,1020.9375 1510.4531,1020.5469 1509.9844,1020.5469 C1509.7656,1020.5469 1509.5625,1020.625 1509.375,1020.8125 C1508.9219,1021.2969 1508.9219,1021.2969 1508.7344,1021.3906 C1508.3125,1021.6563 1507.625,1021.7813 1506.8594,1021.7813 C1504.8125,1021.7813 1503.5156,1020.6875 1503.5156,1018.9844 L1503.5156,1017.8906 C1503.5156,1016.1094 1504.7656,1014.7969 1506.5,1014.7969 C1507.0781,1014.7969 1507.6875,1014.9531 1508.1563,1015.2031 C1508.6406,1015.4844 1508.8125,1015.7031 1508.9063,1016.1094 C1508.9688,1016.5156 1509,1016.6406 1509.1406,1016.7656 C1509.2813,1016.9063 1509.5156,1017.0156 1509.7344,1017.0156 C1510,1017.0156 1510.2656,1016.875 1510.4375,1016.6563 C1510.5469,1016.5 1510.5781,1016.3125 1510.5781,1015.8906 L1510.5781,1014.4688 C1510.5781,1014.0313 1510.5625,1013.9063 1510.4688,1013.75 C1510.3125,1013.4844 1510.0313,1013.3438 1509.7344,1013.3438 C1509.4375,1013.3438 1509.2344,1013.4375 1509.0156,1013.75 L1508.8438,1013.6719 Z " fill="#000000"/><text fill="#000000" font-family="sans-serif" font-size="14" lengthAdjust="spacing" textLength="72" x="1520.5" y="1022.8467">InputField</text><line style="stroke:#181818;stroke-width:0.5;" x1="1492.5" x2="1594.5" y1="1034" y2="1034"/><line style="stroke:#181818;stroke-width:0.5;" x1="1492.5" x2="1594.5" y1="1042" y2="1042"/></g><!--MD5=[90ba54f54370e77ef24813dec6818fa3]
class Button--><g id="elem_Button"><rect codeLine="52" fill="#F1F1F1" height="48" id="Button" rx="2.5" ry="2.5" style="stroke:#181818;stroke-width:0.5;" width="82" x="1374.5" y="1002"/><ellipse cx="1389.5" cy="1018" fill="#ADD1B2" rx="11" ry="11" style="stroke:#181818;stroke-width:1.0;"/><path d="M1391.8438,1013.6719 C1390.9063,1013.2344 1390.3125,1013.0938 1389.4375,1013.0938 C1386.8125,1013.0938 1384.8125,1015.1719 1384.8125,1017.8906 L1384.8125,1019.0156 C1384.8125,1021.5938 1386.9219,1023.4844 1389.8125,1023.4844 C1391.0313,1023.4844 1392.1875,1023.1875 1392.9375,1022.6406 C1393.5156,1022.2344 1393.8438,1021.7813 1393.8438,1021.3906 C1393.8438,1020.9375 1393.4531,1020.5469 1392.9844,1020.5469 C1392.7656,1020.5469 1392.5625,1020.625 1392.375,1020.8125 C1391.9219,1021.2969 1391.9219,1021.2969 1391.7344,1021.3906 C1391.3125,1021.6563 1390.625,1021.7813 1389.8594,1021.7813 C1387.8125,1021.7813 1386.5156,1020.6875 1386.5156,1018.9844 L1386.5156,1017.8906 C1386.5156,1016.1094 1387.7656,1014.7969 1389.5,1014.7969 C1390.0781,1014.7969 1390.6875,1014.9531 1391.1563,1015.2031 C1391.6406,1015.4844 1391.8125,1015.7031 1391.9063,1016.1094 C1391.9688,1016.5156 1392,1016.6406 1392.1406,1016.7656 C1392.2813,1016.9063 1392.5156,1017.0156 1392.7344,1017.0156 C1393,1017.0156 1393.2656,1016.875 1393.4375,1016.6563 C1393.5469,1016.5 1393.5781,1016.3125 1393.5781,1015.8906 L1393.5781,1014.4688 C1393.5781,1014.0313 1393.5625,1013.9063 1393.4688,1013.75 C1393.3125,1013.4844 1393.0313,1013.3438 1392.7344,1013.3438 C1392.4375,1013.3438 1392.2344,1013.4375 1392.0156,1013.75 L1391.8438,1013.6719 Z " fill="#000000"/><text fill="#000000" font-family="sans-serif" font-size="14" lengthAdjust="spacing" textLength="50" x="1403.5" y="1022.8467">Button</text><line style="stroke:#181818;stroke-width:0.5;" x1="1375.5" x2="1455.5" y1="1034" y2="1034"/><line style="stroke:#181818;stroke-width:0.5;" x1="1375.5" x2="1455.5" y1="1042" y2="1042"/></g><!--MD5=[2a06a72615c211c02ec1f036c2e5d058]
class TextButton--><g id="elem_TextButton"><rect codeLine="53" fill="#F1F1F1" height="48" id="TextButton" rx="2.5" ry="2.5" style="stroke:#181818;stroke-width:0.5;" width="115" x="1358" y="1110"/><ellipse cx="1373" cy="1126" fill="#ADD1B2" rx="11" ry="11" style="stroke:#181818;stroke-width:1.0;"/><path d="M1375.3438,1121.6719 C1374.4063,1121.2344 1373.8125,1121.0938 1372.9375,1121.0938 C1370.3125,1121.0938 1368.3125,1123.1719 1368.3125,1125.8906 L1368.3125,1127.0156 C1368.3125,1129.5938 1370.4219,1131.4844 1373.3125,1131.4844 C1374.5313,1131.4844 1375.6875,1131.1875 1376.4375,1130.6406 C1377.0156,1130.2344 1377.3438,1129.7813 1377.3438,1129.3906 C1377.3438,1128.9375 1376.9531,1128.5469 1376.4844,1128.5469 C1376.2656,1128.5469 1376.0625,1128.625 1375.875,1128.8125 C1375.4219,1129.2969 1375.4219,1129.2969 1375.2344,1129.3906 C1374.8125,1129.6563 1374.125,1129.7813 1373.3594,1129.7813 C1371.3125,1129.7813 1370.0156,1128.6875 1370.0156,1126.9844 L1370.0156,1125.8906 C1370.0156,1124.1094 1371.2656,1122.7969 1373,1122.7969 C1373.5781,1122.7969 1374.1875,1122.9531 1374.6563,1123.2031 C1375.1406,1123.4844 1375.3125,1123.7031 1375.4063,1124.1094 C1375.4688,1124.5156 1375.5,1124.6406 1375.6406,1124.7656 C1375.7813,1124.9063 1376.0156,1125.0156 1376.2344,1125.0156 C1376.5,1125.0156 1376.7656,1124.875 1376.9375,1124.6563 C1377.0469,1124.5 1377.0781,1124.3125 1377.0781,1123.8906 L1377.0781,1122.4688 C1377.0781,1122.0313 1377.0625,1121.9063 1376.9688,1121.75 C1376.8125,1121.4844 1376.5313,1121.3438 1376.2344,1121.3438 C1375.9375,1121.3438 1375.7344,1121.4375 1375.5156,1121.75 L1375.3438,1121.6719 Z " fill="#000000"/><text fill="#000000" font-family="sans-serif" font-size="14" lengthAdjust="spacing" textLength="83" x="1387" y="1130.8467">TextButton</text><line style="stroke:#181818;stroke-width:0.5;" x1="1359" x2="1472" y1="1142" y2="1142"/><line style="stroke:#181818;stroke-width:0.5;" x1="1359" x2="1472" y1="1150" y2="1150"/></g><!--MD5=[e92671c2827f6233e981ec0dd2af174d]
class DisplayableBoard--><g id="elem_DisplayableBoard"><rect codeLine="54" fill="#F1F1F1" height="48" id="DisplayableBoard" rx="2.5" ry="2.5" style="stroke:#181818;stroke-width:0.5;" width="157" x="1182" y="1002"/><ellipse cx="1197" cy="1018" fill="#ADD1B2" rx="11" ry="11" style="stroke:#181818;stroke-width:1.0;"/><path d="M1199.3438,1013.6719 C1198.4063,1013.2344 1197.8125,1013.0938 1196.9375,1013.0938 C1194.3125,1013.0938 1192.3125,1015.1719 1192.3125,1017.8906 L1192.3125,1019.0156 C1192.3125,1021.5938 1194.4219,1023.4844 1197.3125,1023.4844 C1198.5313,1023.4844 1199.6875,1023.1875 1200.4375,1022.6406 C1201.0156,1022.2344 1201.3438,1021.7813 1201.3438,1021.3906 C1201.3438,1020.9375 1200.9531,1020.5469 1200.4844,1020.5469 C1200.2656,1020.5469 1200.0625,1020.625 1199.875,1020.8125 C1199.4219,1021.2969 1199.4219,1021.2969 1199.2344,1021.3906 C1198.8125,1021.6563 1198.125,1021.7813 1197.3594,1021.7813 C1195.3125,1021.7813 1194.0156,1020.6875 1194.0156,1018.9844 L1194.0156,1017.8906 C1194.0156,1016.1094 1195.2656,1014.7969 1197,1014.7969 C1197.5781,1014.7969 1198.1875,1014.9531 1198.6563,1015.2031 C1199.1406,1015.4844 1199.3125,1015.7031 1199.4063,1016.1094 C1199.4688,1016.5156 1199.5,1016.6406 1199.6406,1016.7656 C1199.7813,1016.9063 1200.0156,1017.0156 1200.2344,1017.0156 C1200.5,1017.0156 1200.7656,1016.875 1200.9375,1016.6563 C1201.0469,1016.5 1201.0781,1016.3125 1201.0781,1015.8906 L1201.0781,1014.4688 C1201.0781,1014.0313 1201.0625,1013.9063 1200.9688,1013.75 C1200.8125,1013.4844 1200.5313,1013.3438 1200.2344,1013.3438 C1199.9375,1013.3438 1199.7344,1013.4375 1199.5156,1013.75 L1199.3438,1013.6719 Z " fill="#000000"/><text fill="#000000" font-family="sans-serif" font-size="14" lengthAdjust="spacing" textLength="125" x="1211" y="1022.8467">DisplayableBoard</text><line style="stroke:#181818;stroke-width:0.5;" x1="1183" x2="1338" y1="1034" y2="1034"/><line style="stroke:#181818;stroke-width:0.5;" x1="1183" x2="1338" y1="1042" y2="1042"/></g><!--MD5=[c9258217e9bf77cef15858c9efd4d2a2]
class HumanPlayer--><g id="elem_HumanPlayer"><rect codeLine="58" fill="#F1F1F1" height="48" id="HumanPlayer" rx="2.5" ry="2.5" style="stroke:#181818;stroke-width:0.5;" width="125" x="1140" y="418"/><ellipse cx="1155" cy="434" fill="#ADD1B2" rx="11" ry="11" style="stroke:#181818;stroke-width:1.0;"/><path d="M1157.3438,429.6719 C1156.4063,429.2344 1155.8125,429.0938 1154.9375,429.0938 C1152.3125,429.0938 1150.3125,431.1719 1150.3125,433.8906 L1150.3125,435.0156 C1150.3125,437.5938 1152.4219,439.4844 1155.3125,439.4844 C1156.5313,439.4844 1157.6875,439.1875 1158.4375,438.6406 C1159.0156,438.2344 1159.3438,437.7813 1159.3438,437.3906 C1159.3438,436.9375 1158.9531,436.5469 1158.4844,436.5469 C1158.2656,436.5469 1158.0625,436.625 1157.875,436.8125 C1157.4219,437.2969 1157.4219,437.2969 1157.2344,437.3906 C1156.8125,437.6563 1156.125,437.7813 1155.3594,437.7813 C1153.3125,437.7813 1152.0156,436.6875 1152.0156,434.9844 L1152.0156,433.8906 C1152.0156,432.1094 1153.2656,430.7969 1155,430.7969 C1155.5781,430.7969 1156.1875,430.9531 1156.6563,431.2031 C1157.1406,431.4844 1157.3125,431.7031 1157.4063,432.1094 C1157.4688,432.5156 1157.5,432.6406 1157.6406,432.7656 C1157.7813,432.9063 1158.0156,433.0156 1158.2344,433.0156 C1158.5,433.0156 1158.7656,432.875 1158.9375,432.6563 C1159.0469,432.5 1159.0781,432.3125 1159.0781,431.8906 L1159.0781,430.4688 C1159.0781,430.0313 1159.0625,429.9063 1158.9688,429.75 C1158.8125,429.4844 1158.5313,429.3438 1158.2344,429.3438 C1157.9375,429.3438 1157.7344,429.4375 1157.5156,429.75 L1157.3438,429.6719 Z " fill="#000000"/><text fill="#000000" font-family="sans-serif" font-size="14" lengthAdjust="spacing" textLength="93" x="1169" y="438.8467">HumanPlayer</text><line style="stroke:#181818;stroke-width:0.5;" x1="1141" x2="1264" y1="450" y2="450"/><line style="stroke:#181818;stroke-width:0.5;" x1="1141" x2="1264" y1="458" y2="458"/></g><!--MD5=[5f7a1d5056c7d80958fde22b7188240f]
class Bot--><g id="elem_Bot"><rect codeLine="59" fill="#F1F1F1" height="48" id="Bot" rx="2.5" ry="2.5" style="stroke:#181818;stroke-width:0.5;" width="56" x="1048.5" y="418"/><ellipse cx="1063.5" cy="434" fill="#B4A7E5" rx="11" ry="11" style="stroke:#181818;stroke-width:1.0;"/><path d="M1064.4531,430.7813 L1066.1719,430.7813 C1066.5625,430.7813 1066.75,430.75 1066.875,430.6719 C1067.1406,430.5156 1067.2813,430.2344 1067.2813,429.9375 C1067.2813,429.6719 1067.1719,429.4063 1066.9375,429.2344 C1066.7656,429.125 1066.625,429.0938 1066.1719,429.0938 L1061.0313,429.0938 C1060.5938,429.0938 1060.4688,429.1094 1060.3125,429.2031 C1060.0625,429.3594 1059.9063,429.6563 1059.9063,429.9375 C1059.9063,430.2188 1060.0469,430.4688 1060.2656,430.6406 C1060.4219,430.75 1060.6094,430.7813 1061.0313,430.7813 L1062.75,430.7813 L1062.75,437.2969 L1061.0313,437.2969 C1060.5938,437.2969 1060.4688,437.3125 1060.3125,437.4219 C1060.0625,437.5781 1059.9063,437.8594 1059.9063,438.1563 C1059.9063,438.4063 1060.0469,438.6719 1060.2656,438.8281 C1060.4219,438.9531 1060.625,439 1061.0313,439 L1066.1719,439 C1066.9219,439 1067.2813,438.7188 1067.2813,438.1563 C1067.2813,437.875 1067.1719,437.625 1066.9375,437.4531 C1066.7656,437.3281 1066.625,437.2969 1066.1719,437.2969 L1064.4531,437.2969 L1064.4531,430.7813 Z " fill="#000000"/><text fill="#000000" font-family="sans-serif" font-size="14" font-style="italic" lengthAdjust="spacing" textLength="24" x="1077.5" y="438.8467">Bot</text><line style="stroke:#181818;stroke-width:0.5;" x1="1049.5" x2="1103.5" y1="450" y2="450"/><line style="stroke:#181818;stroke-width:0.5;" x1="1049.5" x2="1103.5" y1="458" y2="458"/></g><!--MD5=[bfd3941a319f7f13d0be9f9b5ee858c2]
class EasyBot--><g id="elem_EasyBot"><rect codeLine="62" fill="#F1F1F1" height="48" id="EasyBot" rx="2.5" ry="2.5" style="stroke:#181818;stroke-width:0.5;" width="90" x="1285.5" y="615.5"/><ellipse cx="1300.5" cy="631.5" fill="#ADD1B2" rx="11" ry="11" style="stroke:#181818;stroke-width:1.0;"/><path d="M1302.8438,627.1719 C1301.9063,626.7344 1301.3125,626.5938 1300.4375,626.5938 C1297.8125,626.5938 1295.8125,628.6719 1295.8125,631.3906 L1295.8125,632.5156 C1295.8125,635.0938 1297.9219,636.9844 1300.8125,636.9844 C1302.0313,636.9844 1303.1875,636.6875 1303.9375,636.1406 C1304.5156,635.7344 1304.8438,635.2813 1304.8438,634.8906 C1304.8438,634.4375 1304.4531,634.0469 1303.9844,634.0469 C1303.7656,634.0469 1303.5625,634.125 1303.375,634.3125 C1302.9219,634.7969 1302.9219,634.7969 1302.7344,634.8906 C1302.3125,635.1563 1301.625,635.2813 1300.8594,635.2813 C1298.8125,635.2813 1297.5156,634.1875 1297.5156,632.4844 L1297.5156,631.3906 C1297.5156,629.6094 1298.7656,628.2969 1300.5,628.2969 C1301.0781,628.2969 1301.6875,628.4531 1302.1563,628.7031 C1302.6406,628.9844 1302.8125,629.2031 1302.9063,629.6094 C1302.9688,630.0156 1303,630.1406 1303.1406,630.2656 C1303.2813,630.4063 1303.5156,630.5156 1303.7344,630.5156 C1304,630.5156 1304.2656,630.375 1304.4375,630.1563 C1304.5469,630 1304.5781,629.8125 1304.5781,629.3906 L1304.5781,627.9688 C1304.5781,627.5313 1304.5625,627.4063 1304.4688,627.25 C1304.3125,626.9844 1304.0313,626.8438 1303.7344,626.8438 C1303.4375,626.8438 1303.2344,626.9375 1303.0156,627.25 L1302.8438,627.1719 Z " fill="#000000"/><text fill="#000000" font-family="sans-serif" font-size="14" lengthAdjust="spacing" textLength="58" x="1314.5" y="636.3467">EasyBot</text><line style="stroke:#181818;stroke-width:0.5;" x1="1286.5" x2="1374.5" y1="647.5" y2="647.5"/><line style="stroke:#181818;stroke-width:0.5;" x1="1286.5" x2="1374.5" y1="655.5" y2="655.5"/></g><!--MD5=[58edd4ca3a0a74b14c34fdd7cc0af4ab]
class MediumBot--><g id="elem_MediumBot"><rect codeLine="63" fill="#F1F1F1" height="48" id="MediumBot" rx="2.5" ry="2.5" style="stroke:#181818;stroke-width:0.5;" width="114" x="1136.5" y="615.5"/><ellipse cx="1151.5" cy="631.5" fill="#ADD1B2" rx="11" ry="11" style="stroke:#181818;stroke-width:1.0;"/><path d="M1153.8438,627.1719 C1152.9063,626.7344 1152.3125,626.5938 1151.4375,626.5938 C1148.8125,626.5938 1146.8125,628.6719 1146.8125,631.3906 L1146.8125,632.5156 C1146.8125,635.0938 1148.9219,636.9844 1151.8125,636.9844 C1153.0313,636.9844 1154.1875,636.6875 1154.9375,636.1406 C1155.5156,635.7344 1155.8438,635.2813 1155.8438,634.8906 C1155.8438,634.4375 1155.4531,634.0469 1154.9844,634.0469 C1154.7656,634.0469 1154.5625,634.125 1154.375,634.3125 C1153.9219,634.7969 1153.9219,634.7969 1153.7344,634.8906 C1153.3125,635.1563 1152.625,635.2813 1151.8594,635.2813 C1149.8125,635.2813 1148.5156,634.1875 1148.5156,632.4844 L1148.5156,631.3906 C1148.5156,629.6094 1149.7656,628.2969 1151.5,628.2969 C1152.0781,628.2969 1152.6875,628.4531 1153.1563,628.7031 C1153.6406,628.9844 1153.8125,629.2031 1153.9063,629.6094 C1153.9688,630.0156 1154,630.1406 1154.1406,630.2656 C1154.2813,630.4063 1154.5156,630.5156 1154.7344,630.5156 C1155,630.5156 1155.2656,630.375 1155.4375,630.1563 C1155.5469,630 1155.5781,629.8125 1155.5781,629.3906 L1155.5781,627.9688 C1155.5781,627.5313 1155.5625,627.4063 1155.4688,627.25 C1155.3125,626.9844 1155.0313,626.8438 1154.7344,626.8438 C1154.4375,626.8438 1154.2344,626.9375 1154.0156,627.25 L1153.8438,627.1719 Z " fill="#000000"/><text fill="#000000" font-family="sans-serif" font-size="14" lengthAdjust="spacing" textLength="82" x="1165.5" y="636.3467">MediumBot</text><line style="stroke:#181818;stroke-width:0.5;" x1="1137.5" x2="1249.5" y1="647.5" y2="647.5"/><line style="stroke:#181818;stroke-width:0.5;" x1="1137.5" x2="1249.5" y1="655.5" y2="655.5"/></g><!--MD5=[687fce3ad2e7e169735e385ba4508823]
class HardBot--><g id="elem_HardBot"><rect codeLine="64" fill="#F1F1F1" height="48" id="HardBot" rx="2.5" ry="2.5" style="stroke:#181818;stroke-width:0.5;" width="91" x="1010" y="615.5"/><ellipse cx="1025" cy="631.5" fill="#ADD1B2" rx="11" ry="11" style="stroke:#181818;stroke-width:1.0;"/><path d="M1027.3438,627.1719 C1026.4063,626.7344 1025.8125,626.5938 1024.9375,626.5938 C1022.3125,626.5938 1020.3125,628.6719 1020.3125,631.3906 L1020.3125,632.5156 C1020.3125,635.0938 1022.4219,636.9844 1025.3125,636.9844 C1026.5313,636.9844 1027.6875,636.6875 1028.4375,636.1406 C1029.0156,635.7344 1029.3438,635.2813 1029.3438,634.8906 C1029.3438,634.4375 1028.9531,634.0469 1028.4844,634.0469 C1028.2656,634.0469 1028.0625,634.125 1027.875,634.3125 C1027.4219,634.7969 1027.4219,634.7969 1027.2344,634.8906 C1026.8125,635.1563 1026.125,635.2813 1025.3594,635.2813 C1023.3125,635.2813 1022.0156,634.1875 1022.0156,632.4844 L1022.0156,631.3906 C1022.0156,629.6094 1023.2656,628.2969 1025,628.2969 C1025.5781,628.2969 1026.1875,628.4531 1026.6563,628.7031 C1027.1406,628.9844 1027.3125,629.2031 1027.4063,629.6094 C1027.4688,630.0156 1027.5,630.1406 1027.6406,630.2656 C1027.7813,630.4063 1028.0156,630.5156 1028.2344,630.5156 C1028.5,630.5156 1028.7656,630.375 1028.9375,630.1563 C1029.0469,630 1029.0781,629.8125 1029.0781,629.3906 L1029.0781,627.9688 C1029.0781,627.5313 1029.0625,627.4063 1028.9688,627.25 C1028.8125,626.9844 1028.5313,626.8438 1028.2344,626.8438 C1027.9375,626.8438 1027.7344,626.9375 1027.5156,627.25 L1027.3438,627.1719 Z " fill="#000000"/><text fill="#000000" font-family="sans-serif" font-size="14" lengthAdjust="spacing" textLength="59" x="1039" y="636.3467">HardBot</text><line style="stroke:#181818;stroke-width:0.5;" x1="1011" x2="1100" y1="647.5" y2="647.5"/><line style="stroke:#181818;stroke-width:0.5;" x1="1011" x2="1100" y1="655.5" y2="655.5"/></g><!--MD5=[fea3dc74c7473bae0133d22265a91e2f]
class Cell--><g id="elem_Cell"><rect codeLine="72" fill="#F1F1F1" height="113.1875" id="Cell" rx="2.5" ry="2.5" style="stroke:#181818;stroke-width:0.5;" width="142" x="374.5" y="796.5"/><ellipse cx="427.75" cy="812.5" fill="#ADD1B2" rx="11" ry="11" style="stroke:#181818;stroke-width:1.0;"/><path d="M430.0938,808.1719 C429.1563,807.7344 428.5625,807.5938 427.6875,807.5938 C425.0625,807.5938 423.0625,809.6719 423.0625,812.3906 L423.0625,813.5156 C423.0625,816.0938 425.1719,817.9844 428.0625,817.9844 C429.2813,817.9844 430.4375,817.6875 431.1875,817.1406 C431.7656,816.7344 432.0938,816.2813 432.0938,815.8906 C432.0938,815.4375 431.7031,815.0469 431.2344,815.0469 C431.0156,815.0469 430.8125,815.125 430.625,815.3125 C430.1719,815.7969 430.1719,815.7969 429.9844,815.8906 C429.5625,816.1563 428.875,816.2813 428.1094,816.2813 C426.0625,816.2813 424.7656,815.1875 424.7656,813.4844 L424.7656,812.3906 C424.7656,810.6094 426.0156,809.2969 427.75,809.2969 C428.3281,809.2969 428.9375,809.4531 429.4063,809.7031 C429.8906,809.9844 430.0625,810.2031 430.1563,810.6094 C430.2188,811.0156 430.25,811.1406 430.3906,811.2656 C430.5313,811.4063 430.7656,811.5156 430.9844,811.5156 C431.25,811.5156 431.5156,811.375 431.6875,811.1563 C431.7969,811 431.8281,810.8125 431.8281,810.3906 L431.8281,808.9688 C431.8281,808.5313 431.8125,808.4063 431.7188,808.25 C431.5625,807.9844 431.2813,807.8438 430.9844,807.8438 C430.6875,807.8438 430.4844,807.9375 430.2656,808.25 L430.0938,808.1719 Z " fill="#000000"/><text fill="#000000" font-family="sans-serif" font-size="14" lengthAdjust="spacing" textLength="27" x="448.25" y="817.3467">Cell</text><line style="stroke:#181818;stroke-width:0.5;" x1="375.5" x2="515.5" y1="828.5" y2="828.5"/><line style="stroke:#181818;stroke-width:0.5;" x1="375.5" x2="515.5" y1="836.5" y2="836.5"/><text fill="#000000" font-family="sans-serif" font-size="14" lengthAdjust="spacing" textLength="68" x="380.5" y="853.4951">+attack()</text><text fill="#000000" font-family="sans-serif" font-size="14" lengthAdjust="spacing" textLength="86" x="380.5" y="869.792">+getState()</text><text fill="#000000" font-family="sans-serif" font-size="14" lengthAdjust="spacing" textLength="130" x="380.5" y="886.0889">+isFarFromShips()</text><text fill="#000000" font-family="sans-serif" font-size="14" lengthAdjust="spacing" textLength="119" x="380.5" y="902.3857">+isOkToAttack()</text></g><!--MD5=[0dc7f2ddb409b58bcf52b12238c25399]
class Ship--><g id="elem_Ship"><rect codeLine="78" fill="#F1F1F1" height="129.4844" id="Ship" rx="2.5" ry="2.5" style="stroke:#181818;stroke-width:0.5;" width="124" x="392.5" y="575"/><ellipse cx="434.95" cy="591" fill="#B4A7E5" rx="11" ry="11" style="stroke:#181818;stroke-width:1.0;"/><path d="M435.9031,587.7813 L437.6219,587.7813 C438.0125,587.7813 438.2,587.75 438.325,587.6719 C438.5906,587.5156 438.7313,587.2344 438.7313,586.9375 C438.7313,586.6719 438.6219,586.4063 438.3875,586.2344 C438.2156,586.125 438.075,586.0938 437.6219,586.0938 L432.4813,586.0938 C432.0438,586.0938 431.9188,586.1094 431.7625,586.2031 C431.5125,586.3594 431.3563,586.6563 431.3563,586.9375 C431.3563,587.2188 431.4969,587.4688 431.7156,587.6406 C431.8719,587.75 432.0594,587.7813 432.4813,587.7813 L434.2,587.7813 L434.2,594.2969 L432.4813,594.2969 C432.0438,594.2969 431.9188,594.3125 431.7625,594.4219 C431.5125,594.5781 431.3563,594.8594 431.3563,595.1563 C431.3563,595.4063 431.4969,595.6719 431.7156,595.8281 C431.8719,595.9531 432.075,596 432.4813,596 L437.6219,596 C438.3719,596 438.7313,595.7188 438.7313,595.1563 C438.7313,594.875 438.6219,594.625 438.3875,594.4531 C438.2156,594.3281 438.075,594.2969 437.6219,594.2969 L435.9031,594.2969 L435.9031,587.7813 Z " fill="#000000"/><text fill="#000000" font-family="sans-serif" font-size="14" font-style="italic" lengthAdjust="spacing" textLength="31" x="455.05" y="595.8467">Ship</text><line style="stroke:#181818;stroke-width:0.5;" x1="393.5" x2="515.5" y1="607" y2="607"/><line style="stroke:#181818;stroke-width:0.5;" x1="393.5" x2="515.5" y1="615" y2="615"/><text fill="#000000" font-family="sans-serif" font-size="14" lengthAdjust="spacing" textLength="76" x="398.5" y="631.9951">+getSize()</text><text fill="#000000" font-family="sans-serif" font-size="14" lengthAdjust="spacing" textLength="65" x="398.5" y="648.292">+getHP()</text><text fill="#000000" font-family="sans-serif" font-size="14" lengthAdjust="spacing" textLength="112" x="398.5" y="664.5889">+updateState()</text><text fill="#000000" font-family="sans-serif" font-size="14" lengthAdjust="spacing" textLength="67" x="398.5" y="680.8857">+isAlive()</text><text fill="#000000" font-family="sans-serif" font-size="14" lengthAdjust="spacing" textLength="80" x="398.5" y="697.1826">+getCells()</text></g><!--MD5=[fa40eb9cc7d547f8e0b28e98ae456c2b]
class ShipFactory--><g id="elem_ShipFactory"><rect codeLine="108" fill="#F1F1F1" height="64.2969" id="ShipFactory" rx="2.5" ry="2.5" style="stroke:#181818;stroke-width:0.5;" width="324" x="721.5" y="821"/><ellipse cx="836.25" cy="837" fill="#ADD1B2" rx="11" ry="11" style="stroke:#181818;stroke-width:1.0;"/><path d="M838.5938,832.6719 C837.6563,832.2344 837.0625,832.0938 836.1875,832.0938 C833.5625,832.0938 831.5625,834.1719 831.5625,836.8906 L831.5625,838.0156 C831.5625,840.5938 833.6719,842.4844 836.5625,842.4844 C837.7813,842.4844 838.9375,842.1875 839.6875,841.6406 C840.2656,841.2344 840.5938,840.7813 840.5938,840.3906 C840.5938,839.9375 840.2031,839.5469 839.7344,839.5469 C839.5156,839.5469 839.3125,839.625 839.125,839.8125 C838.6719,840.2969 838.6719,840.2969 838.4844,840.3906 C838.0625,840.6563 837.375,840.7813 836.6094,840.7813 C834.5625,840.7813 833.2656,839.6875 833.2656,837.9844 L833.2656,836.8906 C833.2656,835.1094 834.5156,833.7969 836.25,833.7969 C836.8281,833.7969 837.4375,833.9531 837.9063,834.2031 C838.3906,834.4844 838.5625,834.7031 838.6563,835.1094 C838.7188,835.5156 838.75,835.6406 838.8906,835.7656 C839.0313,835.9063 839.2656,836.0156 839.4844,836.0156 C839.75,836.0156 840.0156,835.875 840.1875,835.6563 C840.2969,835.5 840.3281,835.3125 840.3281,834.8906 L840.3281,833.4688 C840.3281,833.0313 840.3125,832.9063 840.2188,832.75 C840.0625,832.4844 839.7813,832.3438 839.4844,832.3438 C839.1875,832.3438 838.9844,832.4375 838.7656,832.75 L838.5938,832.6719 Z " fill="#000000"/><text fill="#000000" font-family="sans-serif" font-size="14" lengthAdjust="spacing" textLength="86" x="856.75" y="841.8467">ShipFactory</text><line style="stroke:#181818;stroke-width:0.5;" x1="722.5" x2="1044.5" y1="853" y2="853"/><line style="stroke:#181818;stroke-width:0.5;" x1="722.5" x2="1044.5" y1="861" y2="861"/><text fill="#000000" font-family="sans-serif" font-size="14" lengthAdjust="spacing" textLength="312" x="727.5" y="877.9951">+constructShip(Player, Ship::Type, int size)</text></g><!--MD5=[4169d93317949af6222a3b50cb167243]
class SimpleShip--><g id="elem_SimpleShip"><rect codeLine="111" fill="#F1F1F1" height="48" id="SimpleShip" rx="2.5" ry="2.5" style="stroke:#181818;stroke-width:0.5;" width="114" x="572.5" y="829"/><ellipse cx="587.5" cy="845" fill="#ADD1B2" rx="11" ry="11" style="stroke:#181818;stroke-width:1.0;"/><path d="M589.8438,840.6719 C588.9063,840.2344 588.3125,840.0938 587.4375,840.0938 C584.8125,840.0938 582.8125,842.1719 582.8125,844.8906 L582.8125,846.0156 C582.8125,848.5938 584.9219,850.4844 587.8125,850.4844 C589.0313,850.4844 590.1875,850.1875 590.9375,849.6406 C591.5156,849.2344 591.8438,848.7813 591.8438,848.3906 C591.8438,847.9375 591.4531,847.5469 590.9844,847.5469 C590.7656,847.5469 590.5625,847.625 590.375,847.8125 C589.9219,848.2969 589.9219,848.2969 589.7344,848.3906 C589.3125,848.6563 588.625,848.7813 587.8594,848.7813 C585.8125,848.7813 584.5156,847.6875 584.5156,845.9844 L584.5156,844.8906 C584.5156,843.1094 585.7656,841.7969 587.5,841.7969 C588.0781,841.7969 588.6875,841.9531 589.1563,842.2031 C589.6406,842.4844 589.8125,842.7031 589.9063,843.1094 C589.9688,843.5156 590,843.6406 590.1406,843.7656 C590.2813,843.9063 590.5156,844.0156 590.7344,844.0156 C591,844.0156 591.2656,843.875 591.4375,843.6563 C591.5469,843.5 591.5781,843.3125 591.5781,842.8906 L591.5781,841.4688 C591.5781,841.0313 591.5625,840.9063 591.4688,840.75 C591.3125,840.4844 591.0313,840.3438 590.7344,840.3438 C590.4375,840.3438 590.2344,840.4375 590.0156,840.75 L589.8438,840.6719 Z " fill="#000000"/><text fill="#000000" font-family="sans-serif" font-size="14" lengthAdjust="spacing" textLength="82" x="601.5" y="849.8467">SimpleShip</text><line style="stroke:#181818;stroke-width:0.5;" x1="573.5" x2="685.5" y1="861" y2="861"/><line style="stroke:#181818;stroke-width:0.5;" x1="573.5" x2="685.5" y1="869" y2="869"/></g><!--MD5=[3fa19cc441731caa29084f54f1a58b3e]
class GameMaster--><g id="elem_GameMaster"><rect codeLine="2" fill="#F1F1F1" height="113.1875" id="GameMaster" rx="2.5" ry="2.5" style="stroke:#181818;stroke-width:0.5;" width="140" x="1069.5" y="7"/><ellipse cx="1092.15" cy="23" fill="#ADD1B2" rx="11" ry="11" style="stroke:#181818;stroke-width:1.0;"/><path d="M1094.4938,18.6719 C1093.5563,18.2344 1092.9625,18.0938 1092.0875,18.0938 C1089.4625,18.0938 1087.4625,20.1719 1087.4625,22.8906 L1087.4625,24.0156 C1087.4625,26.5938 1089.5719,28.4844 1092.4625,28.4844 C1093.6813,28.4844 1094.8375,28.1875 1095.5875,27.6406 C1096.1656,27.2344 1096.4938,26.7813 1096.4938,26.3906 C1096.4938,25.9375 1096.1031,25.5469 1095.6344,25.5469 C1095.4156,25.5469 1095.2125,25.625 1095.025,25.8125 C1094.5719,26.2969 1094.5719,26.2969 1094.3844,26.3906 C1093.9625,26.6563 1093.275,26.7813 1092.5094,26.7813 C1090.4625,26.7813 1089.1656,25.6875 1089.1656,23.9844 L1089.1656,22.8906 C1089.1656,21.1094 1090.4156,19.7969 1092.15,19.7969 C1092.7281,19.7969 1093.3375,19.9531 1093.8063,20.2031 C1094.2906,20.4844 1094.4625,20.7031 1094.5563,21.1094 C1094.6188,21.5156 1094.65,21.6406 1094.7906,21.7656 C1094.9313,21.9063 1095.1656,22.0156 1095.3844,22.0156 C1095.65,22.0156 1095.9156,21.875 1096.0875,21.6563 C1096.1969,21.5 1096.2281,21.3125 1096.2281,20.8906 L1096.2281,19.4688 C1096.2281,19.0313 1096.2125,18.9063 1096.1188,18.75 C1095.9625,18.4844 1095.6813,18.3438 1095.3844,18.3438 C1095.0875,18.3438 1094.8844,18.4375 1094.6656,18.75 L1094.4938,18.6719 Z " fill="#000000"/><text fill="#000000" font-family="sans-serif" font-size="14" lengthAdjust="spacing" textLength="91" x="1107.85" y="27.8467">GameMaster</text><line style="stroke:#181818;stroke-width:0.5;" x1="1070.5" x2="1208.5" y1="39" y2="39"/><line style="stroke:#181818;stroke-width:0.5;" x1="1070.5" x2="1208.5" y1="47" y2="47"/><text fill="#000000" font-family="sans-serif" font-size="14" lengthAdjust="spacing" textLength="44" x="1075.5" y="63.9951">+run()</text><text fill="#000000" font-family="sans-serif" font-size="14" lengthAdjust="spacing" textLength="91" x="1075.5" y="80.292">-openMenu()</text><text fill="#000000" font-family="sans-serif" font-size="14" lengthAdjust="spacing" textLength="84" x="1075.5" y="96.5889">-runBattle()</text><text fill="#000000" font-family="sans-serif" font-size="14" lengthAdjust="spacing" textLength="128" x="1075.5" y="112.8857">-initializePlayers()</text></g><!--MD5=[71f0a97f8bc9ab5033cf4fb9c0757ffb]
class MenuDisplayer--><g id="elem_MenuDisplayer"><rect codeLine="9" fill="#F1F1F1" height="178.375" id="MenuDisplayer" rx="2.5" ry="2.5" style="stroke:#181818;stroke-width:0.5;" width="273" x="7" y="764"/><ellipse cx="86.75" cy="780" fill="#ADD1B2" rx="11" ry="11" style="stroke:#181818;stroke-width:1.0;"/><path d="M89.0938,775.6719 C88.1563,775.2344 87.5625,775.0938 86.6875,775.0938 C84.0625,775.0938 82.0625,777.1719 82.0625,779.8906 L82.0625,781.0156 C82.0625,783.5938 84.1719,785.4844 87.0625,785.4844 C88.2813,785.4844 89.4375,785.1875 90.1875,784.6406 C90.7656,784.2344 91.0938,783.7813 91.0938,783.3906 C91.0938,782.9375 90.7031,782.5469 90.2344,782.5469 C90.0156,782.5469 89.8125,782.625 89.625,782.8125 C89.1719,783.2969 89.1719,783.2969 88.9844,783.3906 C88.5625,783.6563 87.875,783.7813 87.1094,783.7813 C85.0625,783.7813 83.7656,782.6875 83.7656,780.9844 L83.7656,779.8906 C83.7656,778.1094 85.0156,776.7969 86.75,776.7969 C87.3281,776.7969 87.9375,776.9531 88.4063,777.2031 C88.8906,777.4844 89.0625,777.7031 89.1563,778.1094 C89.2188,778.5156 89.25,778.6406 89.3906,778.7656 C89.5313,778.9063 89.7656,779.0156 89.9844,779.0156 C90.25,779.0156 90.5156,778.875 90.6875,778.6563 C90.7969,778.5 90.8281,778.3125 90.8281,777.8906 L90.8281,776.4688 C90.8281,776.0313 90.8125,775.9063 90.7188,775.75 C90.5625,775.4844 90.2813,775.3438 89.9844,775.3438 C89.6875,775.3438 89.4844,775.4375 89.2656,775.75 L89.0938,775.6719 Z " fill="#000000"/><text fill="#000000" font-family="sans-serif" font-size="14" lengthAdjust="spacing" textLength="105" x="107.25" y="784.8467">MenuDisplayer</text><line style="stroke:#181818;stroke-width:0.5;" x1="8" x2="279" y1="796" y2="796"/><line style="stroke:#181818;stroke-width:0.5;" x1="8" x2="279" y1="804" y2="804"/><text fill="#000000" font-family="sans-serif" font-size="14" lengthAdjust="spacing" textLength="116" x="13" y="820.9951">+startingMenu()</text><text fill="#000000" font-family="sans-serif" font-size="14" lengthAdjust="spacing" textLength="113" x="13" y="837.292">-settingsMenu()</text><text fill="#000000" font-family="sans-serif" font-size="14" lengthAdjust="spacing" textLength="159" x="13" y="853.5889">-globalSettingsMenu()</text><text fill="#000000" font-family="sans-serif" font-size="14" lengthAdjust="spacing" textLength="180" x="13" y="869.8857">-playerSpecificSettings()</text><text fill="#000000" font-family="sans-serif" font-size="14" lengthAdjust="spacing" textLength="119" x="13" y="886.1826">-boardSettings()</text><text fill="#000000" font-family="sans-serif" font-size="14" lengthAdjust="spacing" textLength="107" x="13" y="902.4795">-shipSettings()</text><text fill="#000000" font-family="sans-serif" font-size="14" lengthAdjust="spacing" textLength="179" x="13" y="918.7764">-playerNumberSettings()</text><text fill="#000000" font-family="sans-serif" font-size="14" lengthAdjust="spacing" textLength="261" x="13" y="935.0732">-alterPlayerSettings(playerSettings)</text></g><!--MD5=[2cb47ba637a0d19583e6199456f6ad0b]
class Player--><g id="elem_Player"><rect codeLine="20" fill="#F1F1F1" height="129.4844" id="Player" rx="2.5" ry="2.5" style="stroke:#181818;stroke-width:0.5;" width="177" x="1051" y="180"/><ellipse cx="1113.25" cy="196" fill="#B4A7E5" rx="11" ry="11" style="stroke:#181818;stroke-width:1.0;"/><path d="M1114.2031,192.7813 L1115.9219,192.7813 C1116.3125,192.7813 1116.5,192.75 1116.625,192.6719 C1116.8906,192.5156 1117.0313,192.2344 1117.0313,191.9375 C1117.0313,191.6719 1116.9219,191.4063 1116.6875,191.2344 C1116.5156,191.125 1116.375,191.0938 1115.9219,191.0938 L1110.7813,191.0938 C1110.3438,191.0938 1110.2188,191.1094 1110.0625,191.2031 C1109.8125,191.3594 1109.6563,191.6563 1109.6563,191.9375 C1109.6563,192.2188 1109.7969,192.4688 1110.0156,192.6406 C1110.1719,192.75 1110.3594,192.7813 1110.7813,192.7813 L1112.5,192.7813 L1112.5,199.2969 L1110.7813,199.2969 C1110.3438,199.2969 1110.2188,199.3125 1110.0625,199.4219 C1109.8125,199.5781 1109.6563,199.8594 1109.6563,200.1563 C1109.6563,200.4063 1109.7969,200.6719 1110.0156,200.8281 C1110.1719,200.9531 1110.375,201 1110.7813,201 L1115.9219,201 C1116.6719,201 1117.0313,200.7188 1117.0313,200.1563 C1117.0313,199.875 1116.9219,199.625 1116.6875,199.4531 C1116.5156,199.3281 1116.375,199.2969 1115.9219,199.2969 L1114.2031,199.2969 L1114.2031,192.7813 Z " fill="#000000"/><text fill="#000000" font-family="sans-serif" font-size="14" font-style="italic" lengthAdjust="spacing" textLength="44" x="1133.75" y="200.8467">Player</text><line style="stroke:#181818;stroke-width:0.5;" x1="1052" x2="1227" y1="212" y2="212"/><text fill="#000000" font-family="sans-serif" font-size="14" lengthAdjust="spacing" textLength="132" x="1057" y="228.9951">+getNewShipCells</text><line style="stroke:#181818;stroke-width:0.5;" x1="1052" x2="1227" y1="236.2969" y2="236.2969"/><text fill="#000000" font-family="sans-serif" font-size="14" lengthAdjust="spacing" textLength="81" x="1057" y="253.292">+fillBoard()</text><text fill="#000000" font-family="sans-serif" font-size="14" lengthAdjust="spacing" textLength="165" x="1057" y="269.5889">+attack(Player enemy)</text><text fill="#000000" font-family="sans-serif" font-size="14" lengthAdjust="spacing" textLength="87" x="1057" y="285.8857">+getName()</text><text fill="#000000" font-family="sans-serif" font-size="14" lengthAdjust="spacing" textLength="67" x="1057" y="302.1826">+isAlive()</text></g><!--MD5=[9563755d011c5cec7ec66dc53565a59e]
class Board--><g id="elem_Board"><rect codeLine="27" fill="#F1F1F1" height="145.7813" id="Board" rx="2.5" ry="2.5" style="stroke:#181818;stroke-width:0.5;" width="241" x="428" y="369"/><ellipse cx="522.75" cy="385" fill="#B4A7E5" rx="11" ry="11" style="stroke:#181818;stroke-width:1.0;"/><path d="M523.7031,381.7813 L525.4219,381.7813 C525.8125,381.7813 526,381.75 526.125,381.6719 C526.3906,381.5156 526.5313,381.2344 526.5313,380.9375 C526.5313,380.6719 526.4219,380.4063 526.1875,380.2344 C526.0156,380.125 525.875,380.0938 525.4219,380.0938 L520.2813,380.0938 C519.8438,380.0938 519.7188,380.1094 519.5625,380.2031 C519.3125,380.3594 519.1563,380.6563 519.1563,380.9375 C519.1563,381.2188 519.2969,381.4688 519.5156,381.6406 C519.6719,381.75 519.8594,381.7813 520.2813,381.7813 L522,381.7813 L522,388.2969 L520.2813,388.2969 C519.8438,388.2969 519.7188,388.3125 519.5625,388.4219 C519.3125,388.5781 519.1563,388.8594 519.1563,389.1563 C519.1563,389.4063 519.2969,389.6719 519.5156,389.8281 C519.6719,389.9531 519.875,390 520.2813,390 L525.4219,390 C526.1719,390 526.5313,389.7188 526.5313,389.1563 C526.5313,388.875 526.4219,388.625 526.1875,388.4531 C526.0156,388.3281 525.875,388.2969 525.4219,388.2969 L523.7031,388.2969 L523.7031,381.7813 Z " fill="#000000"/><text fill="#000000" font-family="sans-serif" font-size="14" font-style="italic" lengthAdjust="spacing" textLength="43" x="543.25" y="389.8467">Board</text><line style="stroke:#181818;stroke-width:0.5;" x1="429" x2="668" y1="401" y2="401"/><line style="stroke:#181818;stroke-width:0.5;" x1="429" x2="668" y1="409" y2="409"/><text fill="#000000" font-family="sans-serif" font-size="14" lengthAdjust="spacing" textLength="109" x="434" y="425.9951">+addShip(ship)</text><text fill="#000000" font-family="sans-serif" font-size="14" lengthAdjust="spacing" textLength="110" x="434" y="442.292">+allshipCount()</text><text fill="#000000" font-family="sans-serif" font-size="14" lengthAdjust="spacing" textLength="129" x="434" y="458.5889">+deadshipCount()</text><text fill="#000000" font-family="sans-serif" font-size="14" lengthAdjust="spacing" textLength="127" x="434" y="474.8857">+attack(position)</text><text fill="#000000" font-family="sans-serif" font-size="14" lengthAdjust="spacing" textLength="180" x="434" y="491.1826">+withinBorders(position)</text><text fill="#000000" font-family="sans-serif" font-size="14" lengthAdjust="spacing" textLength="229" x="434" y="507.4795">+hasNoShipNeighbour(position)</text></g><!--MD5=[1f9aa183c03a5a4b2c7a355206fc0cf9]
class GUI--><g id="elem_GUI"><rect codeLine="36" fill="#F1F1F1" height="129.4844" id="GUI" rx="2.5" ry="2.5" style="stroke:#181818;stroke-width:0.5;" width="310" x="1410.5" y="575"/><ellipse cx="1548.75" cy="591" fill="#B4A7E5" rx="11" ry="11" style="stroke:#181818;stroke-width:1.0;"/><path d="M1549.7031,587.7813 L1551.4219,587.7813 C1551.8125,587.7813 1552,587.75 1552.125,587.6719 C1552.3906,587.5156 1552.5313,587.2344 1552.5313,586.9375 C1552.5313,586.6719 1552.4219,586.4063 1552.1875,586.2344 C1552.0156,586.125 1551.875,586.0938 1551.4219,586.0938 L1546.2813,586.0938 C1545.8438,586.0938 1545.7188,586.1094 1545.5625,586.2031 C1545.3125,586.3594 1545.1563,586.6563 1545.1563,586.9375 C1545.1563,587.2188 1545.2969,587.4688 1545.5156,587.6406 C1545.6719,587.75 1545.8594,587.7813 1546.2813,587.7813 L1548,587.7813 L1548,594.2969 L1546.2813,594.2969 C1545.8438,594.2969 1545.7188,594.3125 1545.5625,594.4219 C1545.3125,594.5781 1545.1563,594.8594 1545.1563,595.1563 C1545.1563,595.4063 1545.2969,595.6719 1545.5156,595.8281 C1545.6719,595.9531 1545.875,596 1546.2813,596 L1551.4219,596 C1552.1719,596 1552.5313,595.7188 1552.5313,595.1563 C1552.5313,594.875 1552.4219,594.625 1552.1875,594.4531 C1552.0156,594.3281 1551.875,594.2969 1551.4219,594.2969 L1549.7031,594.2969 L1549.7031,587.7813 Z " fill="#000000"/><text fill="#000000" font-family="sans-serif" font-size="14" font-style="italic" lengthAdjust="spacing" textLength="25" x="1569.25" y="595.8467">GUI</text><line style="stroke:#181818;stroke-width:0.5;" x1="1411.5" x2="1719.5" y1="607" y2="607"/><line style="stroke:#181818;stroke-width:0.5;" x1="1411.5" x2="1719.5" y1="615" y2="615"/><text fill="#000000" font-family="sans-serif" font-size="14" lengthAdjust="spacing" textLength="230" x="1416.5" y="631.9951">+placeShip(Ship::Type, int size)</text><text fill="#000000" font-family="sans-serif" font-size="14" lengthAdjust="spacing" textLength="298" x="1416.5" y="648.292">+displayOptions(vector&lt;srting&gt; options)</text><text fill="#000000" font-family="sans-serif" font-size="14" lengthAdjust="spacing" textLength="281" x="1416.5" y="664.5889">+displayBoard(RectangleBoard, isMine)</text><text fill="#000000" font-family="sans-serif" font-size="14" lengthAdjust="spacing" textLength="255" x="1416.5" y="680.8857">+getAttack(player, attackedBoard)</text><text fill="#000000" font-family="sans-serif" font-size="14" lengthAdjust="spacing" textLength="160" x="1416.5" y="697.1826">+displayPlayer(player)</text></g><!--MD5=[99b3cce71a8301bb50cf9d5850455732]
class PlayerFactory--><g id="elem_PlayerFactory"><rect codeLine="67" fill="#F1F1F1" height="64.2969" id="PlayerFactory" rx="2.5" ry="2.5" style="stroke:#181818;stroke-width:0.5;" width="212" x="1300.5" y="410"/><ellipse cx="1353.25" cy="426" fill="#ADD1B2" rx="11" ry="11" style="stroke:#181818;stroke-width:1.0;"/><path d="M1355.5938,421.6719 C1354.6563,421.2344 1354.0625,421.0938 1353.1875,421.0938 C1350.5625,421.0938 1348.5625,423.1719 1348.5625,425.8906 L1348.5625,427.0156 C1348.5625,429.5938 1350.6719,431.4844 1353.5625,431.4844 C1354.7813,431.4844 1355.9375,431.1875 1356.6875,430.6406 C1357.2656,430.2344 1357.5938,429.7813 1357.5938,429.3906 C1357.5938,428.9375 1357.2031,428.5469 1356.7344,428.5469 C1356.5156,428.5469 1356.3125,428.625 1356.125,428.8125 C1355.6719,429.2969 1355.6719,429.2969 1355.4844,429.3906 C1355.0625,429.6563 1354.375,429.7813 1353.6094,429.7813 C1351.5625,429.7813 1350.2656,428.6875 1350.2656,426.9844 L1350.2656,425.8906 C1350.2656,424.1094 1351.5156,422.7969 1353.25,422.7969 C1353.8281,422.7969 1354.4375,422.9531 1354.9063,423.2031 C1355.3906,423.4844 1355.5625,423.7031 1355.6563,424.1094 C1355.7188,424.5156 1355.75,424.6406 1355.8906,424.7656 C1356.0313,424.9063 1356.2656,425.0156 1356.4844,425.0156 C1356.75,425.0156 1357.0156,424.875 1357.1875,424.6563 C1357.2969,424.5 1357.3281,424.3125 1357.3281,423.8906 L1357.3281,422.4688 C1357.3281,422.0313 1357.3125,421.9063 1357.2188,421.75 C1357.0625,421.4844 1356.7813,421.3438 1356.4844,421.3438 C1356.1875,421.3438 1355.9844,421.4375 1355.7656,421.75 L1355.5938,421.6719 Z " fill="#000000"/><text fill="#000000" font-family="sans-serif" font-size="14" lengthAdjust="spacing" textLength="98" x="1373.75" y="430.8467">PlayerFactory</text><line style="stroke:#181818;stroke-width:0.5;" x1="1301.5" x2="1511.5" y1="442" y2="442"/><line style="stroke:#181818;stroke-width:0.5;" x1="1301.5" x2="1511.5" y1="450" y2="450"/><text fill="#000000" font-family="sans-serif" font-size="14" lengthAdjust="spacing" textLength="200" x="1306.5" y="466.9951">+constructPlayer(type, GUI)</text></g><!--MD5=[a64a835c3d62471a77f615251fdde58a]
class Position--><g id="elem_Position"><rect codeLine="88" fill="#F1F1F1" height="113.1875" id="Position" rx="2.5" ry="2.5" style="stroke:#181818;stroke-width:0.5;" width="183" x="552" y="583"/><ellipse cx="610.25" cy="599" fill="#ADD1B2" rx="11" ry="11" style="stroke:#181818;stroke-width:1.0;"/><path d="M612.5938,594.6719 C611.6563,594.2344 611.0625,594.0938 610.1875,594.0938 C607.5625,594.0938 605.5625,596.1719 605.5625,598.8906 L605.5625,600.0156 C605.5625,602.5938 607.6719,604.4844 610.5625,604.4844 C611.7813,604.4844 612.9375,604.1875 613.6875,603.6406 C614.2656,603.2344 614.5938,602.7813 614.5938,602.3906 C614.5938,601.9375 614.2031,601.5469 613.7344,601.5469 C613.5156,601.5469 613.3125,601.625 613.125,601.8125 C612.6719,602.2969 612.6719,602.2969 612.4844,602.3906 C612.0625,602.6563 611.375,602.7813 610.6094,602.7813 C608.5625,602.7813 607.2656,601.6875 607.2656,599.9844 L607.2656,598.8906 C607.2656,597.1094 608.5156,595.7969 610.25,595.7969 C610.8281,595.7969 611.4375,595.9531 611.9063,596.2031 C612.3906,596.4844 612.5625,596.7031 612.6563,597.1094 C612.7188,597.5156 612.75,597.6406 612.8906,597.7656 C613.0313,597.9063 613.2656,598.0156 613.4844,598.0156 C613.75,598.0156 614.0156,597.875 614.1875,597.6563 C614.2969,597.5 614.3281,597.3125 614.3281,596.8906 L614.3281,595.4688 C614.3281,595.0313 614.3125,594.9063 614.2188,594.75 C614.0625,594.4844 613.7813,594.3438 613.4844,594.3438 C613.1875,594.3438 612.9844,594.4375 612.7656,594.75 L612.5938,594.6719 Z " fill="#000000"/><text fill="#000000" font-family="sans-serif" font-size="14" lengthAdjust="spacing" textLength="58" x="630.75" y="603.8467">Position</text><line style="stroke:#181818;stroke-width:0.5;" x1="553" x2="734" y1="615" y2="615"/><text fill="#000000" font-family="sans-serif" font-size="14" lengthAdjust="spacing" textLength="32" x="558" y="631.9951">int x</text><text fill="#000000" font-family="sans-serif" font-size="14" lengthAdjust="spacing" textLength="32" x="558" y="648.292">int y</text><text fill="#000000" font-family="sans-serif" font-size="14" lengthAdjust="spacing" textLength="171" x="558" y="664.5889">+// some usual methods</text><text fill="#000000" font-family="sans-serif" font-size="14" lengthAdjust="spacing" textLength="166" x="558" y="680.8857">for points on the plane</text><line style="stroke:#181818;stroke-width:0.5;" x1="553" x2="734" y1="688.1875" y2="688.1875"/></g><!--MD5=[b91eb240017d254ef80a7cb85a26e06e]
class GlobalSettings--><g id="elem_GlobalSettings"><rect codeLine="94" fill="#F1F1F1" height="129.4844" id="GlobalSettings" rx="2.5" ry="2.5" style="stroke:#181818;stroke-width:0.5;" width="165" x="1657" y="788.5"/><ellipse cx="1683.7" cy="804.5" fill="#ADD1B2" rx="11" ry="11" style="stroke:#181818;stroke-width:1.0;"/><path d="M1686.0438,800.1719 C1685.1063,799.7344 1684.5125,799.5938 1683.6375,799.5938 C1681.0125,799.5938 1679.0125,801.6719 1679.0125,804.3906 L1679.0125,805.5156 C1679.0125,808.0938 1681.1219,809.9844 1684.0125,809.9844 C1685.2313,809.9844 1686.3875,809.6875 1687.1375,809.1406 C1687.7156,808.7344 1688.0438,808.2813 1688.0438,807.8906 C1688.0438,807.4375 1687.6531,807.0469 1687.1844,807.0469 C1686.9656,807.0469 1686.7625,807.125 1686.575,807.3125 C1686.1219,807.7969 1686.1219,807.7969 1685.9344,807.8906 C1685.5125,808.1563 1684.825,808.2813 1684.0594,808.2813 C1682.0125,808.2813 1680.7156,807.1875 1680.7156,805.4844 L1680.7156,804.3906 C1680.7156,802.6094 1681.9656,801.2969 1683.7,801.2969 C1684.2781,801.2969 1684.8875,801.4531 1685.3563,801.7031 C1685.8406,801.9844 1686.0125,802.2031 1686.1063,802.6094 C1686.1688,803.0156 1686.2,803.1406 1686.3406,803.2656 C1686.4813,803.4063 1686.7156,803.5156 1686.9344,803.5156 C1687.2,803.5156 1687.4656,803.375 1687.6375,803.1563 C1687.7469,803 1687.7781,802.8125 1687.7781,802.3906 L1687.7781,800.9688 C1687.7781,800.5313 1687.7625,800.4063 1687.6688,800.25 C1687.5125,799.9844 1687.2313,799.8438 1686.9344,799.8438 C1686.6375,799.8438 1686.4344,799.9375 1686.2156,800.25 L1686.0438,800.1719 Z " fill="#000000"/><text fill="#000000" font-family="sans-serif" font-size="14" lengthAdjust="spacing" textLength="107" x="1700.3" y="809.3467">GlobalSettings</text><line style="stroke:#181818;stroke-width:0.5;" x1="1658" x2="1821" y1="820.5" y2="820.5"/><text fill="#000000" font-family="sans-serif" font-size="14" lengthAdjust="spacing" textLength="85" x="1663" y="837.4951">boardWidth</text><text fill="#000000" font-family="sans-serif" font-size="14" lengthAdjust="spacing" textLength="90" x="1663" y="853.792">boardHeight</text><text fill="#000000" font-family="sans-serif" font-size="14" lengthAdjust="spacing" textLength="94" x="1663" y="870.0889">shipsNumber</text><text fill="#000000" font-family="sans-serif" font-size="14" lengthAdjust="spacing" textLength="153" x="1663" y="886.3857">vector&lt;int&gt; shipSize</text><text fill="#000000" font-family="sans-serif" font-size="14" lengthAdjust="spacing" textLength="102" x="1663" y="902.6826">playerNumber</text><line style="stroke:#181818;stroke-width:0.5;" x1="1658" x2="1821" y1="909.9844" y2="909.9844"/></g><!--MD5=[b5e3703c1b7ac92ae87beff8caa0eb04]
class BoardBuilder--><g id="elem_BoardBuilder"><rect codeLine="101" fill="#F1F1F1" height="96.8906" id="BoardBuilder" rx="2.5" ry="2.5" style="stroke:#181818;stroke-width:0.5;" width="205" x="770" y="591"/><ellipse cx="822.25" cy="607" fill="#ADD1B2" rx="11" ry="11" style="stroke:#181818;stroke-width:1.0;"/><path d="M824.5938,602.6719 C823.6563,602.2344 823.0625,602.0938 822.1875,602.0938 C819.5625,602.0938 817.5625,604.1719 817.5625,606.8906 L817.5625,608.0156 C817.5625,610.5938 819.6719,612.4844 822.5625,612.4844 C823.7813,612.4844 824.9375,612.1875 825.6875,611.6406 C826.2656,611.2344 826.5938,610.7813 826.5938,610.3906 C826.5938,609.9375 826.2031,609.5469 825.7344,609.5469 C825.5156,609.5469 825.3125,609.625 825.125,609.8125 C824.6719,610.2969 824.6719,610.2969 824.4844,610.3906 C824.0625,610.6563 823.375,610.7813 822.6094,610.7813 C820.5625,610.7813 819.2656,609.6875 819.2656,607.9844 L819.2656,606.8906 C819.2656,605.1094 820.5156,603.7969 822.25,603.7969 C822.8281,603.7969 823.4375,603.9531 823.9063,604.2031 C824.3906,604.4844 824.5625,604.7031 824.6563,605.1094 C824.7188,605.5156 824.75,605.6406 824.8906,605.7656 C825.0313,605.9063 825.2656,606.0156 825.4844,606.0156 C825.75,606.0156 826.0156,605.875 826.1875,605.6563 C826.2969,605.5 826.3281,605.3125 826.3281,604.8906 L826.3281,603.4688 C826.3281,603.0313 826.3125,602.9063 826.2188,602.75 C826.0625,602.4844 825.7813,602.3438 825.4844,602.3438 C825.1875,602.3438 824.9844,602.4375 824.7656,602.75 L824.5938,602.6719 Z " fill="#000000"/><text fill="#000000" font-family="sans-serif" font-size="14" lengthAdjust="spacing" textLength="92" x="842.75" y="611.8467">BoardBuilder</text><line style="stroke:#181818;stroke-width:0.5;" x1="771" x2="974" y1="623" y2="623"/><line style="stroke:#181818;stroke-width:0.5;" x1="771" x2="974" y1="631" y2="631"/><text fill="#000000" font-family="sans-serif" font-size="14" lengthAdjust="spacing" textLength="180" x="776" y="647.9951">+constructEmptyBoard()</text><text fill="#000000" font-family="sans-serif" font-size="14" lengthAdjust="spacing" textLength="88" x="776" y="664.292">+addIsland()</text><text fill="#000000" font-family="sans-serif" font-size="14" lengthAdjust="spacing" textLength="193" x="776" y="680.5889">+fillShips(RectangleBoard)</text></g><!--MD5=[317012368e33d1c6a5d06ed6cafea940]
class PlayerSettings--><g id="elem_PlayerSettings"><rect codeLine="114" fill="#F1F1F1" height="48" id="PlayerSettings" rx="2.5" ry="2.5" style="stroke:#181818;stroke-width:0.5;" width="137" x="1671" y="1002"/><ellipse cx="1686" cy="1018" fill="#ADD1B2" rx="11" ry="11" style="stroke:#181818;stroke-width:1.0;"/><path d="M1688.3438,1013.6719 C1687.4063,1013.2344 1686.8125,1013.0938 1685.9375,1013.0938 C1683.3125,1013.0938 1681.3125,1015.1719 1681.3125,1017.8906 L1681.3125,1019.0156 C1681.3125,1021.5938 1683.4219,1023.4844 1686.3125,1023.4844 C1687.5313,1023.4844 1688.6875,1023.1875 1689.4375,1022.6406 C1690.0156,1022.2344 1690.3438,1021.7813 1690.3438,1021.3906 C1690.3438,1020.9375 1689.9531,1020.5469 1689.4844,1020.5469 C1689.2656,1020.5469 1689.0625,1020.625 1688.875,1020.8125 C1688.4219,1021.2969 1688.4219,1021.2969 1688.2344,1021.3906 C1687.8125,1021.6563 1687.125,1021.7813 1686.3594,1021.7813 C1684.3125,1021.7813 1683.0156,1020.6875 1683.0156,1018.9844 L1683.0156,1017.8906 C1683.0156,1016.1094 1684.2656,1014.7969 1686,1014.7969 C1686.5781,1014.7969 1687.1875,1014.9531 1687.6563,1015.2031 C1688.1406,1015.4844 1688.3125,1015.7031 1688.4063,1016.1094 C1688.4688,1016.5156 1688.5,1016.6406 1688.6406,1016.7656 C1688.7813,1016.9063 1689.0156,1017.0156 1689.2344,1017.0156 C1689.5,1017.0156 1689.7656,1016.875 1689.9375,1016.6563 C1690.0469,1016.5 1690.0781,1016.3125 1690.0781,1015.8906 L1690.0781,1014.4688 C1690.0781,1014.0313 1690.0625,1013.9063 1689.9688,1013.75 C1689.8125,1013.4844 1689.5313,1013.3438 1689.2344,1013.3438 C1688.9375,1013.3438 1688.7344,1013.4375 1688.5156,1013.75 L1688.3438,1013.6719 Z " fill="#000000"/><text fill="#000000" font-family="sans-serif" font-size="14" lengthAdjust="spacing" textLength="105" x="1700" y="1022.8467">PlayerSettings</text><line style="stroke:#181818;stroke-width:0.5;" x1="1672" x2="1807" y1="1034" y2="1034"/><line style="stroke:#181818;stroke-width:0.5;" x1="1672" x2="1807" y1="1042" y2="1042"/></g><!--MD5=[0953eb2a1cdc223e84d1af9b6eb884fe]
class RectangleBoard--><g id="elem_RectangleBoard"><rect fill="#F1F1F1" height="48" id="RectangleBoard" rx="2.5" ry="2.5" style="stroke:#181818;stroke-width:0.5;" width="147" x="139" y="615.5"/><ellipse cx="154" cy="631.5" fill="#ADD1B2" rx="11" ry="11" style="stroke:#181818;stroke-width:1.0;"/><path d="M156.3438,627.1719 C155.4063,626.7344 154.8125,626.5938 153.9375,626.5938 C151.3125,626.5938 149.3125,628.6719 149.3125,631.3906 L149.3125,632.5156 C149.3125,635.0938 151.4219,636.9844 154.3125,636.9844 C155.5313,636.9844 156.6875,636.6875 157.4375,636.1406 C158.0156,635.7344 158.3438,635.2813 158.3438,634.8906 C158.3438,634.4375 157.9531,634.0469 157.4844,634.0469 C157.2656,634.0469 157.0625,634.125 156.875,634.3125 C156.4219,634.7969 156.4219,634.7969 156.2344,634.8906 C155.8125,635.1563 155.125,635.2813 154.3594,635.2813 C152.3125,635.2813 151.0156,634.1875 151.0156,632.4844 L151.0156,631.3906 C151.0156,629.6094 152.2656,628.2969 154,628.2969 C154.5781,628.2969 155.1875,628.4531 155.6563,628.7031 C156.1406,628.9844 156.3125,629.2031 156.4063,629.6094 C156.4688,630.0156 156.5,630.1406 156.6406,630.2656 C156.7813,630.4063 157.0156,630.5156 157.2344,630.5156 C157.5,630.5156 157.7656,630.375 157.9375,630.1563 C158.0469,630 158.0781,629.8125 158.0781,629.3906 L158.0781,627.9688 C158.0781,627.5313 158.0625,627.4063 157.9688,627.25 C157.8125,626.9844 157.5313,626.8438 157.2344,626.8438 C156.9375,626.8438 156.7344,626.9375 156.5156,627.25 L156.3438,627.1719 Z " fill="#000000"/><text fill="#000000" font-family="sans-serif" font-size="14" lengthAdjust="spacing" textLength="115" x="168" y="636.3467">RectangleBoard</text><line style="stroke:#181818;stroke-width:0.5;" x1="140" x2="285" y1="647.5" y2="647.5"/><line style="stroke:#181818;stroke-width:0.5;" x1="140" x2="285" y1="655.5" y2="655.5"/></g><!--MD5=[28d454eb6a802a996292f7513fb5940d]
reverse link GameMaster to GUI--><g id="link_GameMaster_GUI"><path codeLine="116" d="M1221.6,103.83 C1313.23,152.42 1458,244.224 1529.5,369 C1565.76,432.277 1571.36,517.337 1570.11,574.84 " fill="none" id="GameMaster-backto-GUI" style="stroke:#181818;stroke-width:1.0;"/><polygon fill="none" points="1209.87,97.69,1213.3301,104.0167,1220.501,103.2561,1217.0409,96.9294,1209.87,97.69" style="stroke:#181818;stroke-width:1.0;"/><text fill="#000000" font-family="sans-serif" font-size="13" lengthAdjust="spacing" textLength="8" x="1217.5394" y="97.5065">1</text><text fill="#000000" font-family="sans-serif" font-size="13" lengthAdjust="spacing" textLength="8" x="1562.1767" y="563.9952">1</text></g><!--MD5=[bb300298e8a61e0a01e869eec431cab4]
reverse link GameMaster to Player--><g id="link_GameMaster_Player"><path codeLine="117" d="M1139.5,133.31 C1139.5,148.57 1139.5,164.69 1139.5,179.75 " fill="none" id="GameMaster-backto-Player" style="stroke:#181818;stroke-width:1.0;"/><polygon fill="#181818" points="1139.5,120.16,1135.5,126.16,1139.5,132.16,1143.5,126.16,1139.5,120.16" style="stroke:#181818;stroke-width:1.0;"/><text fill="#000000" font-family="sans-serif" font-size="13" lengthAdjust="spacing" textLength="8" x="1130.9875" y="140.4439">1</text><text fill="#000000" font-family="sans-serif" font-size="13" lengthAdjust="spacing" textLength="23" x="1115.2422" y="168.8953">2..*</text></g><!--MD5=[f2d4d79643b633444e425b34f363d4d9]
reverse link GUI to ExternalGUI--><g id="link_GUI_ExternalGUI"><path codeLine="118" d="M1508.43,720.966 C1483.72,755.812 1456.24,794.55 1437.62,820.806 " fill="none" id="GUI-backto-ExternalGUI" style="stroke:#181818;stroke-width:1.0;stroke-dasharray:7.0,7.0;"/><polygon fill="none" points="1503.01,716.508,1520.29,704.244,1514.43,724.607,1503.01,716.508" style="stroke:#181818;stroke-width:1.0;"/></g><!--MD5=[ae32ba4e3fd3e91211cc38c3e013834a]
reverse link GUI to ConsoleGUI--><g id="link_GUI_ConsoleGUI"><path codeLine="119" d="M1565.5,724.358 C1565.5,762.039 1565.5,803.598 1565.5,828.747 " fill="none" id="GUI-backto-ConsoleGUI" style="stroke:#181818;stroke-width:1.0;stroke-dasharray:7.0,7.0;"/><polygon fill="none" points="1558.5,724.244,1565.5,704.244,1572.5,724.244,1558.5,724.244" style="stroke:#181818;stroke-width:1.0;"/></g><!--MD5=[480206b57360204782f62575e8914631]
reverse link Player to HumanPlayer--><g id="link_Player_HumanPlayer"><path codeLine="120" d="M1166.25,328.512 C1176.71,360.975 1187.89,395.658 1195.02,417.793 " fill="none" id="Player-backto-HumanPlayer" style="stroke:#181818;stroke-width:1.0;stroke-dasharray:7.0,7.0;"/><polygon fill="none" points="1159.51,330.427,1160.04,309.243,1172.84,326.132,1159.51,330.427" style="stroke:#181818;stroke-width:1.0;"/></g><!--MD5=[de54c74c5a0f03a0d64afa4047f4dca6]
reverse link Player to Bot--><g id="link_Player_Bot"><path codeLine="121" d="M1112.75,328.512 C1102.29,360.975 1091.11,395.658 1083.98,417.793 " fill="none" id="Player-backto-Bot" style="stroke:#181818;stroke-width:1.0;stroke-dasharray:7.0,7.0;"/><polygon fill="none" points="1106.16,326.132,1118.96,309.243,1119.49,330.427,1106.16,326.132" style="stroke:#181818;stroke-width:1.0;"/></g><!--MD5=[3e865060eddfa552f670815102faedfc]
reverse link Bot to EasyBot--><g id="link_Bot_EasyBot"><path codeLine="122" d="M1095.18,483.787 C1102.25,495.369 1111.35,506.994 1122.5,515 C1176.43,553.733 1212.51,513.778 1267.5,551 C1291.22,567.054 1309.09,595.173 1319.63,615.201 " fill="none" id="Bot-backto-EasyBot" style="stroke:#181818;stroke-width:1.0;stroke-dasharray:7.0,7.0;"/><polygon fill="none" points="1089,487.083,1085.72,466.149,1101.34,480.469,1089,487.083" style="stroke:#181818;stroke-width:1.0;"/></g><!--MD5=[527a55b87bef3e205bba2537cc1820bb]
reverse link Bot to MediumBot--><g id="link_Bot_MediumBot"><path codeLine="123" d="M1100.72,483.476 C1124.59,523.351 1160.21,582.871 1179.64,615.336 " fill="none" id="Bot-backto-MediumBot" style="stroke:#181818;stroke-width:1.0;stroke-dasharray:7.0,7.0;"/><polygon fill="none" points="1094.64,486.95,1090.38,466.194,1106.66,479.761,1094.64,486.95" style="stroke:#181818;stroke-width:1.0;"/></g><!--MD5=[b9b867cf9a8f5717546379e67ea690f4]
reverse link Bot to HardBot--><g id="link_Bot_HardBot"><path codeLine="124" d="M1071.86,486.212 C1067.58,526.03 1061.4,583.606 1057.99,615.336 " fill="none" id="Bot-backto-HardBot" style="stroke:#181818;stroke-width:1.0;stroke-dasharray:7.0,7.0;"/><polygon fill="none" points="1064.91,485.332,1074.01,466.194,1078.83,486.827,1064.91,485.332" style="stroke:#181818;stroke-width:1.0;"/></g><!--MD5=[29a0f2eda7f0a7f4679317b1c5543e55]
reverse link Ship to SimpleShip--><g id="link_Ship_SimpleShip"><path codeLine="125" d="M520.015,719.68 C552.182,758.555 588.586,802.553 610.26,828.747 " fill="none" id="Ship-backto-SimpleShip" style="stroke:#181818;stroke-width:1.0;stroke-dasharray:7.0,7.0;"/><polygon fill="none" points="514.6,724.115,507.243,704.244,525.386,715.19,514.6,724.115" style="stroke:#181818;stroke-width:1.0;"/></g><!--MD5=[8a58ab544c87696e00365668bdce8965]
reverse link Board to RectangleBoard--><g id="link_Board_RectangleBoard"><path codeLine="126" d="M409.522,498.973 C377.066,514.173 343.298,531.802 313.5,551 C284.441,569.722 254.994,596.292 235.454,615.232 " fill="none" id="Board-backto-RectangleBoard" style="stroke:#181818;stroke-width:1.0;stroke-dasharray:7.0,7.0;"/><polygon fill="none" points="406.811,492.515,427.909,490.547,412.643,505.242,406.811,492.515" style="stroke:#181818;stroke-width:1.0;"/></g><!--MD5=[4c47dfb9d4ba9e03169fd2fa2e83336c]
reverse link Player to Board--><g id="link_Player_Board"><path codeLine="127" d="M1038.2,279.008 C935.934,312.839 777.966,365.094 669.25,401.057 " fill="none" id="Player-backto-Board" style="stroke:#181818;stroke-width:1.0;"/><polygon fill="#181818" points="1050.7,274.874,1043.747,272.9621,1039.3079,278.645,1046.261,280.5569,1050.7,274.874" style="stroke:#181818;stroke-width:1.0;"/><text fill="#000000" font-family="sans-serif" font-size="13" lengthAdjust="spacing" textLength="8" x="1035.015" y="273.8206">1</text><text fill="#000000" font-family="sans-serif" font-size="13" lengthAdjust="spacing" textLength="8" x="676.852" y="395.1826">1</text></g><!--MD5=[5778a4432fb065f83ccf0aa932a03c78]
reverse link Board to Cell--><g id="link_Board_Cell"><path codeLine="128" d="M416.964,503.174 C399.957,516.501 384.877,532.346 374.5,551 C330.977,629.239 374.277,733.261 409.758,796.283 " fill="none" id="Board-backto-Cell" style="stroke:#181818;stroke-width:1.0;"/><polygon fill="#181818" points="427.777,495.199,420.574,495.5408,418.1191,502.3211,425.3221,501.9794,427.777,495.199" style="stroke:#181818;stroke-width:1.0;"/><text fill="#000000" font-family="sans-serif" font-size="13" lengthAdjust="spacing" textLength="8" x="412.1767" y="495.0614">1</text><text fill="#000000" font-family="sans-serif" font-size="13" lengthAdjust="spacing" textLength="23" x="381.0004" y="785.5201">1..*</text></g><!--MD5=[a28d51ba30d9767a73544c25a0e18962]
reverse link Board to Ship--><g id="link_Board_Ship"><path codeLine="129" d="M507.955,527.325 C500.279,543.289 492.37,559.739 485.066,574.93 " fill="none" id="Board-backto-Ship" style="stroke:#181818;stroke-width:1.0;"/><polygon fill="#181818" points="513.765,515.242,507.5601,518.9162,508.5652,526.0569,514.7701,522.3827,513.765,515.242" style="stroke:#181818;stroke-width:1.0;"/><text fill="#000000" font-family="sans-serif" font-size="13" lengthAdjust="spacing" textLength="8" x="502.1941" y="534.7685">1</text><text fill="#000000" font-family="sans-serif" font-size="13" lengthAdjust="spacing" textLength="23" x="464.1513" y="564.095">0..*</text></g><!--MD5=[85cec48ed96ba00b0ecf8ae9eb6f40e3]
reverse link GlobalSettings to PlayerSettings--><g id="link_GlobalSettings_PlayerSettings"><path codeLine="130" d="M1739.5,930.977 C1739.5,956.693 1739.5,983.447 1739.5,1001.81 " fill="none" id="GlobalSettings-backto-PlayerSettings" style="stroke:#181818;stroke-width:1.0;"/><polygon fill="#181818" points="1739.5,917.674,1735.5,923.674,1739.5,929.674,1743.5,923.674,1739.5,917.674" style="stroke:#181818;stroke-width:1.0;"/><text fill="#000000" font-family="sans-serif" font-size="13" lengthAdjust="spacing" textLength="8" x="1731.0375" y="938.0657">1</text><text fill="#000000" font-family="sans-serif" font-size="13" lengthAdjust="spacing" textLength="23" x="1713.5531" y="990.7733">2..*</text></g><!--MD5=[d87efe38288fbc3a4bdf6f747e15e403]
reverse link Board to Position--><g id="link_Board_Position"><path codeLine="131" d="M585.903,519.971 C596.086,540.927 606.918,563.219 616.408,582.748 " fill="none" id="Board-backto-Position" style="stroke:#181818;stroke-width:1.0;"/><polygon fill="#181818" points="583.605,515.242,583.9416,525.0851,585.7906,519.739,591.1368,521.5881,583.605,515.242" style="stroke:#181818;stroke-width:1.0;"/></g><!--MD5=[1063f72232851200cace721b4cd19b4a]
reverse link Board to BoardBuilder--><g id="link_Board_BoardBuilder"><path codeLine="132" d="M673.626,505.61 C700.071,519.845 727.521,535.393 752.5,551 C771.961,563.16 792.394,577.44 810.772,590.897 " fill="none" id="Board-backto-BoardBuilder" style="stroke:#181818;stroke-width:1.0;"/><polygon fill="#181818" points="669.047,503.152,675.0858,510.9323,673.4527,505.5163,678.8687,503.8831,669.047,503.152" style="stroke:#181818;stroke-width:1.0;"/></g><!--MD5=[9c7697f8a36d1261383f2af2d21ad7fa]
reverse link GUI to GlobalSettings--><g id="link_GUI_GlobalSettings"><path codeLine="133" d="M1621.31,708.334 C1642.43,734.006 1666.38,763.116 1687.17,788.387 " fill="none" id="GUI-backto-GlobalSettings" style="stroke:#181818;stroke-width:1.0;"/><polygon fill="#181818" points="1617.94,704.244,1620.5746,713.7339,1621.1189,708.1033,1626.7495,708.6476,1617.94,704.244" style="stroke:#181818;stroke-width:1.0;"/></g><!--MD5=[2cee1565d83da703529921af57a69551]
reverse link Player to PlayerFactory--><g id="link_Player_PlayerFactory"><path codeLine="135" d="M1230.63,312.226 C1275.85,345.335 1328.3,383.742 1364.08,409.938 " fill="none" id="Player-backto-PlayerFactory" style="stroke:#181818;stroke-width:1.0;"/><polygon fill="#181818" points="1226.56,309.243,1231.4737,317.7785,1230.5995,312.1896,1236.1884,311.3154,1226.56,309.243" style="stroke:#181818;stroke-width:1.0;"/></g><!--MD5=[9de54e7e2112e6b4699c648ffc44b347]
link Ship to Cell--><g id="link_Ship_Cell"><path codeLine="136" d="M451.566,709.447 C450.444,735.815 449.174,765.671 448.086,791.222 " fill="none" id="Ship-Cell" style="stroke:#181818;stroke-width:1.0;"/><polygon fill="#181818" points="447.871,796.273,452.2506,787.4515,448.0839,791.2775,444.2579,787.1108,447.871,796.273" style="stroke:#181818;stroke-width:1.0;"/><polygon fill="#181818" points="451.787,704.244,447.4075,713.0656,451.5742,709.2395,455.4003,713.4061,451.787,704.244" style="stroke:#181818;stroke-width:1.0;"/></g><!--MD5=[1190149e702f88079225d397b0eebfb7]
link Ship to ShipFactory--><g id="link_Ship_ShipFactory"><path codeLine="137" d="M516.913,693.113 C522.699,697.038 528.606,700.734 534.5,704 C604.215,742.634 630.023,733.113 703.5,764 C744.545,781.254 789.545,803.254 824.284,820.94 " fill="none" id="Ship-ShipFactory" style="stroke:#181818;stroke-width:1.0;"/></g><!--MD5=[eca4a39b84e95c8217c6758f3273e56a]
link HumanPlayer to GUI--><g id="link_HumanPlayer_GUI"><path codeLine="138" d="M1226.94,469.946 C1241.77,484.954 1261.79,502.98 1282.5,515 C1326.62,540.611 1344.36,531.487 1391.5,551 C1407.49,557.62 1424.05,565.091 1440.3,572.807 " fill="none" id="HumanPlayer-GUI" style="stroke:#181818;stroke-width:1.0;"/><polygon fill="#181818" points="1444.87,574.99,1438.4759,567.4989,1440.3591,572.8331,1435.0249,574.7163,1444.87,574.99" style="stroke:#181818;stroke-width:1.0;"/><polygon fill="#181818" points="1223.28,466.201,1226.6947,475.439,1226.7689,469.7826,1232.4252,469.8568,1223.28,466.201" style="stroke:#181818;stroke-width:1.0;"/></g><!--MD5=[75334ec5b54e77a6d93fd5b0beba107b]
link GameMaster to MenuDisplayer--><g id="link_GameMaster_MenuDisplayer"><path codeLine="139" d="M1069.17,71.43 C872.664,95.13 319.349,192.59 121.5,551 C86.6411,614.148 95.6346,696.422 111.398,758.991 " fill="none" id="GameMaster-to-MenuDisplayer" style="stroke:#181818;stroke-width:1.0;"/><polygon fill="#181818" points="112.643,763.84,114.2775,754.1277,111.3988,758.9973,106.5292,756.1185,112.643,763.84" style="stroke:#181818;stroke-width:1.0;"/></g><!--MD5=[59a4826f53d1ceab6dcb230cf6f4150d]
reverse link Button to TextButton--><g id="link_Button_TextButton"><path codeLine="141" d="M1415.5,1070.024 C1415.5,1083.579 1415.5,1098.0381 1415.5,1109.6784 " fill="none" id="Button-backto-TextButton" style="stroke:#181818;stroke-width:1.0;"/><polygon fill="none" points="1408.5,1070,1415.5,1050,1422.5,1070,1408.5,1070" style="stroke:#181818;stroke-width:1.0;"/></g><!--MD5=[70d05ae73cffc9c791a9f0c4fe58fe9a]
reverse link ExternalGUI to Button--><g id="link_ExternalGUI_Button"><path codeLine="143" d="M1415.5,890.632 C1415.5,924.304 1415.5,973.199 1415.5,1001.785 " fill="none" id="ExternalGUI-backto-Button" style="stroke:#181818;stroke-width:1.0;"/><polygon fill="#181818" points="1415.5,885.364,1411.5,894.364,1415.5,890.364,1419.5,894.364,1415.5,885.364" style="stroke:#181818;stroke-width:1.0;"/></g><!--MD5=[14c93b06bea4e5cbbbaf6b6cfee91355]
reverse link ExternalGUI to InputField--><g id="link_ExternalGUI_InputField"><path codeLine="144" d="M1441.99,889.392 C1467.22,923.093 1504.46,972.846 1526.12,1001.785 " fill="none" id="ExternalGUI-backto-InputField" style="stroke:#181818;stroke-width:1.0;"/><polygon fill="#181818" points="1438.98,885.364,1441.1756,894.965,1441.9782,889.3654,1447.5778,890.1679,1438.98,885.364" style="stroke:#181818;stroke-width:1.0;"/></g><!--MD5=[ad0e828f23774125369e42d031572676]
reverse link ExternalGUI to DisplayableBoard--><g id="link_ExternalGUI_DisplayableBoard"><path codeLine="145" d="M1383.42,889.392 C1352.87,923.093 1307.77,972.846 1281.54,1001.785 " fill="none" id="ExternalGUI-backto-DisplayableBoard" style="stroke:#181818;stroke-width:1.0;"/><polygon fill="#181818" points="1387.07,885.364,1378.0592,889.3395,1383.7094,889.0662,1383.9827,894.7165,1387.07,885.364" style="stroke:#181818;stroke-width:1.0;"/></g><!--MD5=[3a6502d0b429208d7fe4fb6b470c5904]
link ShipFactory to MenuDisplayer--><!--MD5=[98d721367e8aa4e1feda42472ec01521]
@startuml
skinparam classAttributeIconSize 0
class GameMaster {
+run()
-openMenu()
-runBattle()
-initializePlayers()
}

class MenuDisplayer {
+startingMenu()
-settingsMenu()
-globalSettingsMenu()
-playerSpecificSettings()
-boardSettings()
-shipSettings()
-playerNumberSettings()
-alterPlayerSettings(playerSettings)
}

interface Player {
+fillBoard()
+getNewShipCells
+attack(Player enemy)
+getName()
+isAlive()
}
interface Board {
+addShip(ship)
+allshipCount()
+deadshipCount()
+attack(position)
+withinBorders(position)
+hasNoShipNeighbour(position)
}

interface GUI {
+placeShip(Ship::Type, int size)
+displayOptions(vector<srting> options)
+displayBoard(RectangleBoard, isMine)
+getAttack(player, attackedBoard)
+displayPlayer(player)
}
together {
class ConsoleGUI {}
class ExternalGUI {
//With SFML
}
}

together {
class InputField{}
class Button{}
class TextButton{}
class DisplayableBoard{}
}

together {
class HumanPlayer {}
interface Bot {}
}
together {
class EasyBot{}
class MediumBot {}
class HardBot {}
}

class PlayerFactory{
+constructPlayer(type, GUI)
}

together {
class Cell{
+attack()
+getState()
+isFarFromShips()
+isOkToAttack()
}
interface Ship {
+getSize()
+getHP()
+updateState()
+isAlive()
+getCells()
}
}


class Position {
int x
int y
+// some usual methods
 for points on the plane
}
class GlobalSettings {
boardWidth
boardHeight
shipsNumber
vector<int> shipSize
playerNumber
}
class BoardBuilder{
+constructEmptyBoard()
+addIsland()
+fillShips(RectangleBoard)
}

together {
class ShipFactory {
+constructShip(Player, Ship::Type, int size)
}
class SimpleShip {}
}

class PlayerSettings {}

GameMaster "1" o- - "1" GUI
GameMaster "1" *- - "2..*" Player
GUI <|.. ExternalGUI
GUI <|.. ConsoleGUI
Player <|.. HumanPlayer
Player <|.. Bot
Bot <|.. EasyBot
Bot <|.. MediumBot
Bot <|.. HardBot
Ship <|.. SimpleShip
Board <|.. RectangleBoard
Player "1" *- - "1" Board
Board "1" *- - "1..*" Cell
Board "1" *- - "0..*" Ship
GlobalSettings "1" *- - "2..*" PlayerSettings
Board <- - Position
Board <- - BoardBuilder
GUI <- - GlobalSettings

Player <- - PlayerFactory
Ship <- -> Cell
Ship <_- ShipFactory
HumanPlayer <- -> GUI
GameMaster - -> MenuDisplayer

Button <|- - TextButton

ExternalGUI <- - Button
ExternalGUI <- - InputField
ExternalGUI <- - DisplayableBoard

ShipFactory -[hidden]> MenuDisplayer
@enduml

PlantUML version 1.2022.5(Sat Apr 30 10:55:52 UTC 2022)
(GPL source distribution)
Java Runtime: Java(TM) SE Runtime Environment
JVM: Java HotSpot(TM) 64-Bit Server VM
Default Encoding: UTF-8
Language: en
Country: US
--></g></svg>