<?xml version="1.0" encoding="UTF-8" standalone="no"?><svg xmlns="http://www.w3.org/2000/svg" xmlns:xlink="http://www.w3.org/1999/xlink" contentStyleType="text/css" height="1079px" preserveAspectRatio="none" style="width:1725px;height:1079px;background:#FFFFFF;" version="1.1" viewBox="0 0 1725 1079" width="1725px" zoomAndPan="magnify"><defs/><g><!--MD5=[bb0098c3e34d5c26d7279c3951f45627]
class ConsoleGUI--><g id="elem_ConsoleGUI"><rect codeLine="44" fill="#F1F1F1" height="48" id="ConsoleGUI" rx="2.5" ry="2.5" style="stroke:#181818;stroke-width:0.5;" width="113" x="710" y="874.5"/><ellipse cx="725" cy="890.5" fill="#ADD1B2" rx="11" ry="11" style="stroke:#181818;stroke-width:1.0;"/><path d="M727.3438,886.1719 C726.4063,885.7344 725.8125,885.5938 724.9375,885.5938 C722.3125,885.5938 720.3125,887.6719 720.3125,890.3906 L720.3125,891.5156 C720.3125,894.0938 722.4219,895.9844 725.3125,895.9844 C726.5313,895.9844 727.6875,895.6875 728.4375,895.1406 C729.0156,894.7344 729.3438,894.2813 729.3438,893.8906 C729.3438,893.4375 728.9531,893.0469 728.4844,893.0469 C728.2656,893.0469 728.0625,893.125 727.875,893.3125 C727.4219,893.7969 727.4219,893.7969 727.2344,893.8906 C726.8125,894.1563 726.125,894.2813 725.3594,894.2813 C723.3125,894.2813 722.0156,893.1875 722.0156,891.4844 L722.0156,890.3906 C722.0156,888.6094 723.2656,887.2969 725,887.2969 C725.5781,887.2969 726.1875,887.4531 726.6563,887.7031 C727.1406,887.9844 727.3125,888.2031 727.4063,888.6094 C727.4688,889.0156 727.5,889.1406 727.6406,889.2656 C727.7813,889.4063 728.0156,889.5156 728.2344,889.5156 C728.5,889.5156 728.7656,889.375 728.9375,889.1563 C729.0469,889 729.0781,888.8125 729.0781,888.3906 L729.0781,886.9688 C729.0781,886.5313 729.0625,886.4063 728.9688,886.25 C728.8125,885.9844 728.5313,885.8438 728.2344,885.8438 C727.9375,885.8438 727.7344,885.9375 727.5156,886.25 L727.3438,886.1719 Z " fill="#000000"/><text fill="#000000" font-family="sans-serif" font-size="14" lengthAdjust="spacing" textLength="81" x="739" y="895.3467">ConsoleGUI</text><line style="stroke:#181818;stroke-width:0.5;" x1="711" x2="822" y1="906.5" y2="906.5"/><line style="stroke:#181818;stroke-width:0.5;" x1="711" x2="822" y1="914.5" y2="914.5"/></g><!--MD5=[ba3e1c2e0974ce3751c5a046599f5ee5]
class ExternalGUI--><g id="elem_ExternalGUI"><rect codeLine="45" fill="#F1F1F1" height="48" id="ExternalGUI" rx="2.5" ry="2.5" style="stroke:#181818;stroke-width:0.5;" width="116" x="858.5" y="874.5"/><ellipse cx="873.5" cy="890.5" fill="#ADD1B2" rx="11" ry="11" style="stroke:#181818;stroke-width:1.0;"/><path d="M875.8438,886.1719 C874.9063,885.7344 874.3125,885.5938 873.4375,885.5938 C870.8125,885.5938 868.8125,887.6719 868.8125,890.3906 L868.8125,891.5156 C868.8125,894.0938 870.9219,895.9844 873.8125,895.9844 C875.0313,895.9844 876.1875,895.6875 876.9375,895.1406 C877.5156,894.7344 877.8438,894.2813 877.8438,893.8906 C877.8438,893.4375 877.4531,893.0469 876.9844,893.0469 C876.7656,893.0469 876.5625,893.125 876.375,893.3125 C875.9219,893.7969 875.9219,893.7969 875.7344,893.8906 C875.3125,894.1563 874.625,894.2813 873.8594,894.2813 C871.8125,894.2813 870.5156,893.1875 870.5156,891.4844 L870.5156,890.3906 C870.5156,888.6094 871.7656,887.2969 873.5,887.2969 C874.0781,887.2969 874.6875,887.4531 875.1563,887.7031 C875.6406,887.9844 875.8125,888.2031 875.9063,888.6094 C875.9688,889.0156 876,889.1406 876.1406,889.2656 C876.2813,889.4063 876.5156,889.5156 876.7344,889.5156 C877,889.5156 877.2656,889.375 877.4375,889.1563 C877.5469,889 877.5781,888.8125 877.5781,888.3906 L877.5781,886.9688 C877.5781,886.5313 877.5625,886.4063 877.4688,886.25 C877.3125,885.9844 877.0313,885.8438 876.7344,885.8438 C876.4375,885.8438 876.2344,885.9375 876.0156,886.25 L875.8438,886.1719 Z " fill="#000000"/><text fill="#000000" font-family="sans-serif" font-size="14" lengthAdjust="spacing" textLength="84" x="887.5" y="895.3467">ExternalGUI</text><line style="stroke:#181818;stroke-width:0.5;" x1="859.5" x2="973.5" y1="906.5" y2="906.5"/><line style="stroke:#181818;stroke-width:0.5;" x1="859.5" x2="973.5" y1="914.5" y2="914.5"/></g><!--MD5=[c9258217e9bf77cef15858c9efd4d2a2]
class HumanPlayer--><g id="elem_HumanPlayer"><rect codeLine="48" fill="#F1F1F1" height="48" id="HumanPlayer" rx="2.5" ry="2.5" style="stroke:#181818;stroke-width:0.5;" width="125" x="242" y="478.5"/><ellipse cx="257" cy="494.5" fill="#ADD1B2" rx="11" ry="11" style="stroke:#181818;stroke-width:1.0;"/><path d="M259.3438,490.1719 C258.4063,489.7344 257.8125,489.5938 256.9375,489.5938 C254.3125,489.5938 252.3125,491.6719 252.3125,494.3906 L252.3125,495.5156 C252.3125,498.0938 254.4219,499.9844 257.3125,499.9844 C258.5313,499.9844 259.6875,499.6875 260.4375,499.1406 C261.0156,498.7344 261.3438,498.2813 261.3438,497.8906 C261.3438,497.4375 260.9531,497.0469 260.4844,497.0469 C260.2656,497.0469 260.0625,497.125 259.875,497.3125 C259.4219,497.7969 259.4219,497.7969 259.2344,497.8906 C258.8125,498.1563 258.125,498.2813 257.3594,498.2813 C255.3125,498.2813 254.0156,497.1875 254.0156,495.4844 L254.0156,494.3906 C254.0156,492.6094 255.2656,491.2969 257,491.2969 C257.5781,491.2969 258.1875,491.4531 258.6563,491.7031 C259.1406,491.9844 259.3125,492.2031 259.4063,492.6094 C259.4688,493.0156 259.5,493.1406 259.6406,493.2656 C259.7813,493.4063 260.0156,493.5156 260.2344,493.5156 C260.5,493.5156 260.7656,493.375 260.9375,493.1563 C261.0469,493 261.0781,492.8125 261.0781,492.3906 L261.0781,490.9688 C261.0781,490.5313 261.0625,490.4063 260.9688,490.25 C260.8125,489.9844 260.5313,489.8438 260.2344,489.8438 C259.9375,489.8438 259.7344,489.9375 259.5156,490.25 L259.3438,490.1719 Z " fill="#000000"/><text fill="#000000" font-family="sans-serif" font-size="14" lengthAdjust="spacing" textLength="93" x="271" y="499.3467">HumanPlayer</text><line style="stroke:#181818;stroke-width:0.5;" x1="243" x2="366" y1="510.5" y2="510.5"/><line style="stroke:#181818;stroke-width:0.5;" x1="243" x2="366" y1="518.5" y2="518.5"/></g><!--MD5=[5f7a1d5056c7d80958fde22b7188240f]
class Bot--><g id="elem_Bot"><rect codeLine="49" fill="#F1F1F1" height="48" id="Bot" rx="2.5" ry="2.5" style="stroke:#181818;stroke-width:0.5;" width="56" x="150.5" y="478.5"/><ellipse cx="165.5" cy="494.5" fill="#B4A7E5" rx="11" ry="11" style="stroke:#181818;stroke-width:1.0;"/><path d="M166.4531,491.2813 L168.1719,491.2813 C168.5625,491.2813 168.75,491.25 168.875,491.1719 C169.1406,491.0156 169.2813,490.7344 169.2813,490.4375 C169.2813,490.1719 169.1719,489.9063 168.9375,489.7344 C168.7656,489.625 168.625,489.5938 168.1719,489.5938 L163.0313,489.5938 C162.5938,489.5938 162.4688,489.6094 162.3125,489.7031 C162.0625,489.8594 161.9063,490.1563 161.9063,490.4375 C161.9063,490.7188 162.0469,490.9688 162.2656,491.1406 C162.4219,491.25 162.6094,491.2813 163.0313,491.2813 L164.75,491.2813 L164.75,497.7969 L163.0313,497.7969 C162.5938,497.7969 162.4688,497.8125 162.3125,497.9219 C162.0625,498.0781 161.9063,498.3594 161.9063,498.6563 C161.9063,498.9063 162.0469,499.1719 162.2656,499.3281 C162.4219,499.4531 162.625,499.5 163.0313,499.5 L168.1719,499.5 C168.9219,499.5 169.2813,499.2188 169.2813,498.6563 C169.2813,498.375 169.1719,498.125 168.9375,497.9531 C168.7656,497.8281 168.625,497.7969 168.1719,497.7969 L166.4531,497.7969 L166.4531,491.2813 Z " fill="#000000"/><text fill="#000000" font-family="sans-serif" font-size="14" font-style="italic" lengthAdjust="spacing" textLength="24" x="179.5" y="499.3467">Bot</text><line style="stroke:#181818;stroke-width:0.5;" x1="151.5" x2="205.5" y1="510.5" y2="510.5"/><line style="stroke:#181818;stroke-width:0.5;" x1="151.5" x2="205.5" y1="518.5" y2="518.5"/></g><!--MD5=[bfd3941a319f7f13d0be9f9b5ee858c2]
class EasyBot--><g id="elem_EasyBot"><rect codeLine="52" fill="#F1F1F1" height="48" id="EasyBot" rx="2.5" ry="2.5" style="stroke:#181818;stroke-width:0.5;" width="90" x="133.5" y="684.5"/><ellipse cx="148.5" cy="700.5" fill="#ADD1B2" rx="11" ry="11" style="stroke:#181818;stroke-width:1.0;"/><path d="M150.8438,696.1719 C149.9063,695.7344 149.3125,695.5938 148.4375,695.5938 C145.8125,695.5938 143.8125,697.6719 143.8125,700.3906 L143.8125,701.5156 C143.8125,704.0938 145.9219,705.9844 148.8125,705.9844 C150.0313,705.9844 151.1875,705.6875 151.9375,705.1406 C152.5156,704.7344 152.8438,704.2813 152.8438,703.8906 C152.8438,703.4375 152.4531,703.0469 151.9844,703.0469 C151.7656,703.0469 151.5625,703.125 151.375,703.3125 C150.9219,703.7969 150.9219,703.7969 150.7344,703.8906 C150.3125,704.1563 149.625,704.2813 148.8594,704.2813 C146.8125,704.2813 145.5156,703.1875 145.5156,701.4844 L145.5156,700.3906 C145.5156,698.6094 146.7656,697.2969 148.5,697.2969 C149.0781,697.2969 149.6875,697.4531 150.1563,697.7031 C150.6406,697.9844 150.8125,698.2031 150.9063,698.6094 C150.9688,699.0156 151,699.1406 151.1406,699.2656 C151.2813,699.4063 151.5156,699.5156 151.7344,699.5156 C152,699.5156 152.2656,699.375 152.4375,699.1563 C152.5469,699 152.5781,698.8125 152.5781,698.3906 L152.5781,696.9688 C152.5781,696.5313 152.5625,696.4063 152.4688,696.25 C152.3125,695.9844 152.0313,695.8438 151.7344,695.8438 C151.4375,695.8438 151.2344,695.9375 151.0156,696.25 L150.8438,696.1719 Z " fill="#000000"/><text fill="#000000" font-family="sans-serif" font-size="14" lengthAdjust="spacing" textLength="58" x="162.5" y="705.3467">EasyBot</text><line style="stroke:#181818;stroke-width:0.5;" x1="134.5" x2="222.5" y1="716.5" y2="716.5"/><line style="stroke:#181818;stroke-width:0.5;" x1="134.5" x2="222.5" y1="724.5" y2="724.5"/></g><!--MD5=[58edd4ca3a0a74b14c34fdd7cc0af4ab]
class MediumBot--><g id="elem_MediumBot"><rect codeLine="53" fill="#F1F1F1" height="48" id="MediumBot" rx="2.5" ry="2.5" style="stroke:#181818;stroke-width:0.5;" width="114" x="258.5" y="684.5"/><ellipse cx="273.5" cy="700.5" fill="#ADD1B2" rx="11" ry="11" style="stroke:#181818;stroke-width:1.0;"/><path d="M275.8438,696.1719 C274.9063,695.7344 274.3125,695.5938 273.4375,695.5938 C270.8125,695.5938 268.8125,697.6719 268.8125,700.3906 L268.8125,701.5156 C268.8125,704.0938 270.9219,705.9844 273.8125,705.9844 C275.0313,705.9844 276.1875,705.6875 276.9375,705.1406 C277.5156,704.7344 277.8438,704.2813 277.8438,703.8906 C277.8438,703.4375 277.4531,703.0469 276.9844,703.0469 C276.7656,703.0469 276.5625,703.125 276.375,703.3125 C275.9219,703.7969 275.9219,703.7969 275.7344,703.8906 C275.3125,704.1563 274.625,704.2813 273.8594,704.2813 C271.8125,704.2813 270.5156,703.1875 270.5156,701.4844 L270.5156,700.3906 C270.5156,698.6094 271.7656,697.2969 273.5,697.2969 C274.0781,697.2969 274.6875,697.4531 275.1563,697.7031 C275.6406,697.9844 275.8125,698.2031 275.9063,698.6094 C275.9688,699.0156 276,699.1406 276.1406,699.2656 C276.2813,699.4063 276.5156,699.5156 276.7344,699.5156 C277,699.5156 277.2656,699.375 277.4375,699.1563 C277.5469,699 277.5781,698.8125 277.5781,698.3906 L277.5781,696.9688 C277.5781,696.5313 277.5625,696.4063 277.4688,696.25 C277.3125,695.9844 277.0313,695.8438 276.7344,695.8438 C276.4375,695.8438 276.2344,695.9375 276.0156,696.25 L275.8438,696.1719 Z " fill="#000000"/><text fill="#000000" font-family="sans-serif" font-size="14" lengthAdjust="spacing" textLength="82" x="287.5" y="705.3467">MediumBot</text><line style="stroke:#181818;stroke-width:0.5;" x1="259.5" x2="371.5" y1="716.5" y2="716.5"/><line style="stroke:#181818;stroke-width:0.5;" x1="259.5" x2="371.5" y1="724.5" y2="724.5"/></g><!--MD5=[687fce3ad2e7e169735e385ba4508823]
class HardBot--><g id="elem_HardBot"><rect codeLine="54" fill="#F1F1F1" height="48" id="HardBot" rx="2.5" ry="2.5" style="stroke:#181818;stroke-width:0.5;" width="91" x="7" y="684.5"/><ellipse cx="22" cy="700.5" fill="#ADD1B2" rx="11" ry="11" style="stroke:#181818;stroke-width:1.0;"/><path d="M24.3438,696.1719 C23.4063,695.7344 22.8125,695.5938 21.9375,695.5938 C19.3125,695.5938 17.3125,697.6719 17.3125,700.3906 L17.3125,701.5156 C17.3125,704.0938 19.4219,705.9844 22.3125,705.9844 C23.5313,705.9844 24.6875,705.6875 25.4375,705.1406 C26.0156,704.7344 26.3438,704.2813 26.3438,703.8906 C26.3438,703.4375 25.9531,703.0469 25.4844,703.0469 C25.2656,703.0469 25.0625,703.125 24.875,703.3125 C24.4219,703.7969 24.4219,703.7969 24.2344,703.8906 C23.8125,704.1563 23.125,704.2813 22.3594,704.2813 C20.3125,704.2813 19.0156,703.1875 19.0156,701.4844 L19.0156,700.3906 C19.0156,698.6094 20.2656,697.2969 22,697.2969 C22.5781,697.2969 23.1875,697.4531 23.6563,697.7031 C24.1406,697.9844 24.3125,698.2031 24.4063,698.6094 C24.4688,699.0156 24.5,699.1406 24.6406,699.2656 C24.7813,699.4063 25.0156,699.5156 25.2344,699.5156 C25.5,699.5156 25.7656,699.375 25.9375,699.1563 C26.0469,699 26.0781,698.8125 26.0781,698.3906 L26.0781,696.9688 C26.0781,696.5313 26.0625,696.4063 25.9688,696.25 C25.8125,695.9844 25.5313,695.8438 25.2344,695.8438 C24.9375,695.8438 24.7344,695.9375 24.5156,696.25 L24.3438,696.1719 Z " fill="#000000"/><text fill="#000000" font-family="sans-serif" font-size="14" lengthAdjust="spacing" textLength="59" x="36" y="705.3467">HardBot</text><line style="stroke:#181818;stroke-width:0.5;" x1="8" x2="97" y1="716.5" y2="716.5"/><line style="stroke:#181818;stroke-width:0.5;" x1="8" x2="97" y1="724.5" y2="724.5"/></g><!--MD5=[fea3dc74c7473bae0133d22265a91e2f]
class Cell--><g id="elem_Cell"><rect codeLine="63" fill="#F1F1F1" height="113.1875" id="Cell" rx="2.5" ry="2.5" style="stroke:#181818;stroke-width:0.5;" width="142" x="1015.5" y="652"/><ellipse cx="1068.75" cy="668" fill="#ADD1B2" rx="11" ry="11" style="stroke:#181818;stroke-width:1.0;"/><path d="M1071.0938,663.6719 C1070.1563,663.2344 1069.5625,663.0938 1068.6875,663.0938 C1066.0625,663.0938 1064.0625,665.1719 1064.0625,667.8906 L1064.0625,669.0156 C1064.0625,671.5938 1066.1719,673.4844 1069.0625,673.4844 C1070.2813,673.4844 1071.4375,673.1875 1072.1875,672.6406 C1072.7656,672.2344 1073.0938,671.7813 1073.0938,671.3906 C1073.0938,670.9375 1072.7031,670.5469 1072.2344,670.5469 C1072.0156,670.5469 1071.8125,670.625 1071.625,670.8125 C1071.1719,671.2969 1071.1719,671.2969 1070.9844,671.3906 C1070.5625,671.6563 1069.875,671.7813 1069.1094,671.7813 C1067.0625,671.7813 1065.7656,670.6875 1065.7656,668.9844 L1065.7656,667.8906 C1065.7656,666.1094 1067.0156,664.7969 1068.75,664.7969 C1069.3281,664.7969 1069.9375,664.9531 1070.4063,665.2031 C1070.8906,665.4844 1071.0625,665.7031 1071.1563,666.1094 C1071.2188,666.5156 1071.25,666.6406 1071.3906,666.7656 C1071.5313,666.9063 1071.7656,667.0156 1071.9844,667.0156 C1072.25,667.0156 1072.5156,666.875 1072.6875,666.6563 C1072.7969,666.5 1072.8281,666.3125 1072.8281,665.8906 L1072.8281,664.4688 C1072.8281,664.0313 1072.8125,663.9063 1072.7188,663.75 C1072.5625,663.4844 1072.2813,663.3438 1071.9844,663.3438 C1071.6875,663.3438 1071.4844,663.4375 1071.2656,663.75 L1071.0938,663.6719 Z " fill="#000000"/><text fill="#000000" font-family="sans-serif" font-size="14" lengthAdjust="spacing" textLength="27" x="1089.25" y="672.8467">Cell</text><line style="stroke:#181818;stroke-width:0.5;" x1="1016.5" x2="1156.5" y1="684" y2="684"/><line style="stroke:#181818;stroke-width:0.5;" x1="1016.5" x2="1156.5" y1="692" y2="692"/><text fill="#000000" font-family="sans-serif" font-size="14" lengthAdjust="spacing" textLength="68" x="1021.5" y="708.9951">+attack()</text><text fill="#000000" font-family="sans-serif" font-size="14" lengthAdjust="spacing" textLength="86" x="1021.5" y="725.292">+getState()</text><text fill="#000000" font-family="sans-serif" font-size="14" lengthAdjust="spacing" textLength="130" x="1021.5" y="741.5889">+isFarFromShips()</text><text fill="#000000" font-family="sans-serif" font-size="14" lengthAdjust="spacing" textLength="119" x="1021.5" y="757.8857">+isOkToAttack()</text></g><!--MD5=[0dc7f2ddb409b58bcf52b12238c25399]
class Ship--><g id="elem_Ship"><rect codeLine="69" fill="#F1F1F1" height="129.4844" id="Ship" rx="2.5" ry="2.5" style="stroke:#181818;stroke-width:0.5;" width="124" x="1029.5" y="438"/><ellipse cx="1071.95" cy="454" fill="#B4A7E5" rx="11" ry="11" style="stroke:#181818;stroke-width:1.0;"/><path d="M1072.9031,450.7813 L1074.6219,450.7813 C1075.0125,450.7813 1075.2,450.75 1075.325,450.6719 C1075.5906,450.5156 1075.7313,450.2344 1075.7313,449.9375 C1075.7313,449.6719 1075.6219,449.4063 1075.3875,449.2344 C1075.2156,449.125 1075.075,449.0938 1074.6219,449.0938 L1069.4813,449.0938 C1069.0438,449.0938 1068.9188,449.1094 1068.7625,449.2031 C1068.5125,449.3594 1068.3563,449.6563 1068.3563,449.9375 C1068.3563,450.2188 1068.4969,450.4688 1068.7156,450.6406 C1068.8719,450.75 1069.0594,450.7813 1069.4813,450.7813 L1071.2,450.7813 L1071.2,457.2969 L1069.4813,457.2969 C1069.0438,457.2969 1068.9188,457.3125 1068.7625,457.4219 C1068.5125,457.5781 1068.3563,457.8594 1068.3563,458.1563 C1068.3563,458.4063 1068.4969,458.6719 1068.7156,458.8281 C1068.8719,458.9531 1069.075,459 1069.4813,459 L1074.6219,459 C1075.3719,459 1075.7313,458.7188 1075.7313,458.1563 C1075.7313,457.875 1075.6219,457.625 1075.3875,457.4531 C1075.2156,457.3281 1075.075,457.2969 1074.6219,457.2969 L1072.9031,457.2969 L1072.9031,450.7813 Z " fill="#000000"/><text fill="#000000" font-family="sans-serif" font-size="14" font-style="italic" lengthAdjust="spacing" textLength="31" x="1092.05" y="458.8467">Ship</text><line style="stroke:#181818;stroke-width:0.5;" x1="1030.5" x2="1152.5" y1="470" y2="470"/><line style="stroke:#181818;stroke-width:0.5;" x1="1030.5" x2="1152.5" y1="478" y2="478"/><text fill="#000000" font-family="sans-serif" font-size="14" lengthAdjust="spacing" textLength="76" x="1035.5" y="494.9951">+getSize()</text><text fill="#000000" font-family="sans-serif" font-size="14" lengthAdjust="spacing" textLength="65" x="1035.5" y="511.292">+getHP()</text><text fill="#000000" font-family="sans-serif" font-size="14" lengthAdjust="spacing" textLength="112" x="1035.5" y="527.5889">+updateState()</text><text fill="#000000" font-family="sans-serif" font-size="14" lengthAdjust="spacing" textLength="67" x="1035.5" y="543.8857">+isAlive()</text><text fill="#000000" font-family="sans-serif" font-size="14" lengthAdjust="spacing" textLength="80" x="1035.5" y="560.1826">+getCells()</text></g><!--MD5=[3fa19cc441731caa29084f54f1a58b3e]
class GameMaster--><g id="elem_GameMaster"><rect codeLine="2" fill="#F1F1F1" height="113.1875" id="GameMaster" rx="2.5" ry="2.5" style="stroke:#181818;stroke-width:0.5;" width="140" x="597.5" y="7"/><ellipse cx="620.15" cy="23" fill="#ADD1B2" rx="11" ry="11" style="stroke:#181818;stroke-width:1.0;"/><path d="M622.4938,18.6719 C621.5563,18.2344 620.9625,18.0938 620.0875,18.0938 C617.4625,18.0938 615.4625,20.1719 615.4625,22.8906 L615.4625,24.0156 C615.4625,26.5938 617.5719,28.4844 620.4625,28.4844 C621.6813,28.4844 622.8375,28.1875 623.5875,27.6406 C624.1656,27.2344 624.4938,26.7813 624.4938,26.3906 C624.4938,25.9375 624.1031,25.5469 623.6344,25.5469 C623.4156,25.5469 623.2125,25.625 623.025,25.8125 C622.5719,26.2969 622.5719,26.2969 622.3844,26.3906 C621.9625,26.6563 621.275,26.7813 620.5094,26.7813 C618.4625,26.7813 617.1656,25.6875 617.1656,23.9844 L617.1656,22.8906 C617.1656,21.1094 618.4156,19.7969 620.15,19.7969 C620.7281,19.7969 621.3375,19.9531 621.8063,20.2031 C622.2906,20.4844 622.4625,20.7031 622.5563,21.1094 C622.6188,21.5156 622.65,21.6406 622.7906,21.7656 C622.9313,21.9063 623.1656,22.0156 623.3844,22.0156 C623.65,22.0156 623.9156,21.875 624.0875,21.6563 C624.1969,21.5 624.2281,21.3125 624.2281,20.8906 L624.2281,19.4688 C624.2281,19.0313 624.2125,18.9063 624.1188,18.75 C623.9625,18.4844 623.6813,18.3438 623.3844,18.3438 C623.0875,18.3438 622.8844,18.4375 622.6656,18.75 L622.4938,18.6719 Z " fill="#000000"/><text fill="#000000" font-family="sans-serif" font-size="14" lengthAdjust="spacing" textLength="91" x="635.85" y="27.8467">GameMaster</text><line style="stroke:#181818;stroke-width:0.5;" x1="598.5" x2="736.5" y1="39" y2="39"/><line style="stroke:#181818;stroke-width:0.5;" x1="598.5" x2="736.5" y1="47" y2="47"/><text fill="#000000" font-family="sans-serif" font-size="14" lengthAdjust="spacing" textLength="44" x="603.5" y="63.9951">+run()</text><text fill="#000000" font-family="sans-serif" font-size="14" lengthAdjust="spacing" textLength="91" x="603.5" y="80.292">-openMenu()</text><text fill="#000000" font-family="sans-serif" font-size="14" lengthAdjust="spacing" textLength="84" x="603.5" y="96.5889">-runBattle()</text><text fill="#000000" font-family="sans-serif" font-size="14" lengthAdjust="spacing" textLength="128" x="603.5" y="112.8857">-initializePlayers()</text></g><!--MD5=[71f0a97f8bc9ab5033cf4fb9c0757ffb]
class MenuDisplayer--><g id="elem_MenuDisplayer"><rect codeLine="9" fill="#F1F1F1" height="178.375" id="MenuDisplayer" rx="2.5" ry="2.5" style="stroke:#181818;stroke-width:0.5;" width="273" x="1301" y="181"/><ellipse cx="1380.75" cy="197" fill="#ADD1B2" rx="11" ry="11" style="stroke:#181818;stroke-width:1.0;"/><path d="M1383.0938,192.6719 C1382.1563,192.2344 1381.5625,192.0938 1380.6875,192.0938 C1378.0625,192.0938 1376.0625,194.1719 1376.0625,196.8906 L1376.0625,198.0156 C1376.0625,200.5938 1378.1719,202.4844 1381.0625,202.4844 C1382.2813,202.4844 1383.4375,202.1875 1384.1875,201.6406 C1384.7656,201.2344 1385.0938,200.7813 1385.0938,200.3906 C1385.0938,199.9375 1384.7031,199.5469 1384.2344,199.5469 C1384.0156,199.5469 1383.8125,199.625 1383.625,199.8125 C1383.1719,200.2969 1383.1719,200.2969 1382.9844,200.3906 C1382.5625,200.6563 1381.875,200.7813 1381.1094,200.7813 C1379.0625,200.7813 1377.7656,199.6875 1377.7656,197.9844 L1377.7656,196.8906 C1377.7656,195.1094 1379.0156,193.7969 1380.75,193.7969 C1381.3281,193.7969 1381.9375,193.9531 1382.4063,194.2031 C1382.8906,194.4844 1383.0625,194.7031 1383.1563,195.1094 C1383.2188,195.5156 1383.25,195.6406 1383.3906,195.7656 C1383.5313,195.9063 1383.7656,196.0156 1383.9844,196.0156 C1384.25,196.0156 1384.5156,195.875 1384.6875,195.6563 C1384.7969,195.5 1384.8281,195.3125 1384.8281,194.8906 L1384.8281,193.4688 C1384.8281,193.0313 1384.8125,192.9063 1384.7188,192.75 C1384.5625,192.4844 1384.2813,192.3438 1383.9844,192.3438 C1383.6875,192.3438 1383.4844,192.4375 1383.2656,192.75 L1383.0938,192.6719 Z " fill="#000000"/><text fill="#000000" font-family="sans-serif" font-size="14" lengthAdjust="spacing" textLength="105" x="1401.25" y="201.8467">MenuDisplayer</text><line style="stroke:#181818;stroke-width:0.5;" x1="1302" x2="1573" y1="213" y2="213"/><line style="stroke:#181818;stroke-width:0.5;" x1="1302" x2="1573" y1="221" y2="221"/><text fill="#000000" font-family="sans-serif" font-size="14" lengthAdjust="spacing" textLength="116" x="1307" y="237.9951">+startingMenu()</text><text fill="#000000" font-family="sans-serif" font-size="14" lengthAdjust="spacing" textLength="113" x="1307" y="254.292">-settingsMenu()</text><text fill="#000000" font-family="sans-serif" font-size="14" lengthAdjust="spacing" textLength="159" x="1307" y="270.5889">-globalSettingsMenu()</text><text fill="#000000" font-family="sans-serif" font-size="14" lengthAdjust="spacing" textLength="180" x="1307" y="286.8857">-playerSpecificSettings()</text><text fill="#000000" font-family="sans-serif" font-size="14" lengthAdjust="spacing" textLength="119" x="1307" y="303.1826">-boardSettings()</text><text fill="#000000" font-family="sans-serif" font-size="14" lengthAdjust="spacing" textLength="107" x="1307" y="319.4795">-shipSettings()</text><text fill="#000000" font-family="sans-serif" font-size="14" lengthAdjust="spacing" textLength="179" x="1307" y="335.7764">-playerNumberSettings()</text><text fill="#000000" font-family="sans-serif" font-size="14" lengthAdjust="spacing" textLength="261" x="1307" y="352.0732">-alterPlayerSettings(playerSettings)</text></g><!--MD5=[2cb47ba637a0d19583e6199456f6ad0b]
class Player--><g id="elem_Player"><rect codeLine="20" fill="#F1F1F1" height="129.4844" id="Player" rx="2.5" ry="2.5" style="stroke:#181818;stroke-width:0.5;" width="177" x="429" y="205.5"/><ellipse cx="491.25" cy="221.5" fill="#B4A7E5" rx="11" ry="11" style="stroke:#181818;stroke-width:1.0;"/><path d="M492.2031,218.2813 L493.9219,218.2813 C494.3125,218.2813 494.5,218.25 494.625,218.1719 C494.8906,218.0156 495.0313,217.7344 495.0313,217.4375 C495.0313,217.1719 494.9219,216.9063 494.6875,216.7344 C494.5156,216.625 494.375,216.5938 493.9219,216.5938 L488.7813,216.5938 C488.3438,216.5938 488.2188,216.6094 488.0625,216.7031 C487.8125,216.8594 487.6563,217.1563 487.6563,217.4375 C487.6563,217.7188 487.7969,217.9688 488.0156,218.1406 C488.1719,218.25 488.3594,218.2813 488.7813,218.2813 L490.5,218.2813 L490.5,224.7969 L488.7813,224.7969 C488.3438,224.7969 488.2188,224.8125 488.0625,224.9219 C487.8125,225.0781 487.6563,225.3594 487.6563,225.6563 C487.6563,225.9063 487.7969,226.1719 488.0156,226.3281 C488.1719,226.4531 488.375,226.5 488.7813,226.5 L493.9219,226.5 C494.6719,226.5 495.0313,226.2188 495.0313,225.6563 C495.0313,225.375 494.9219,225.125 494.6875,224.9531 C494.5156,224.8281 494.375,224.7969 493.9219,224.7969 L492.2031,224.7969 L492.2031,218.2813 Z " fill="#000000"/><text fill="#000000" font-family="sans-serif" font-size="14" font-style="italic" lengthAdjust="spacing" textLength="44" x="511.75" y="226.3467">Player</text><line style="stroke:#181818;stroke-width:0.5;" x1="430" x2="605" y1="237.5" y2="237.5"/><text fill="#000000" font-family="sans-serif" font-size="14" lengthAdjust="spacing" textLength="132" x="435" y="254.4951">+getNewShipCells</text><line style="stroke:#181818;stroke-width:0.5;" x1="430" x2="605" y1="261.7969" y2="261.7969"/><text fill="#000000" font-family="sans-serif" font-size="14" lengthAdjust="spacing" textLength="81" x="435" y="278.792">+fillBoard()</text><text fill="#000000" font-family="sans-serif" font-size="14" lengthAdjust="spacing" textLength="165" x="435" y="295.0889">+attack(Player enemy)</text><text fill="#000000" font-family="sans-serif" font-size="14" lengthAdjust="spacing" textLength="87" x="435" y="311.3857">+getName()</text><text fill="#000000" font-family="sans-serif" font-size="14" lengthAdjust="spacing" textLength="67" x="435" y="327.6826">+isAlive()</text></g><!--MD5=[9563755d011c5cec7ec66dc53565a59e]
class RectangleBoard--><g id="elem_Board"><rect codeLine="27" fill="#F1F1F1" height="145.7813" id="RectangleBoard" rx="2.5" ry="2.5" style="stroke:#181818;stroke-width:0.5;" width="241" x="744" y="197"/><ellipse cx="839.25" cy="213" fill="#ADD1B2" rx="11" ry="11" style="stroke:#181818;stroke-width:1.0;"/><path d="M841.5938,208.6719 C840.6563,208.2344 840.0625,208.0938 839.1875,208.0938 C836.5625,208.0938 834.5625,210.1719 834.5625,212.8906 L834.5625,214.0156 C834.5625,216.5938 836.6719,218.4844 839.5625,218.4844 C840.7813,218.4844 841.9375,218.1875 842.6875,217.6406 C843.2656,217.2344 843.5938,216.7813 843.5938,216.3906 C843.5938,215.9375 843.2031,215.5469 842.7344,215.5469 C842.5156,215.5469 842.3125,215.625 842.125,215.8125 C841.6719,216.2969 841.6719,216.2969 841.4844,216.3906 C841.0625,216.6563 840.375,216.7813 839.6094,216.7813 C837.5625,216.7813 836.2656,215.6875 836.2656,213.9844 L836.2656,212.8906 C836.2656,211.1094 837.5156,209.7969 839.25,209.7969 C839.8281,209.7969 840.4375,209.9531 840.9063,210.2031 C841.3906,210.4844 841.5625,210.7031 841.6563,211.1094 C841.7188,211.5156 841.75,211.6406 841.8906,211.7656 C842.0313,211.9063 842.2656,212.0156 842.4844,212.0156 C842.75,212.0156 843.0156,211.875 843.1875,211.6563 C843.2969,211.5 843.3281,211.3125 843.3281,210.8906 L843.3281,209.4688 C843.3281,209.0313 843.3125,208.9063 843.2188,208.75 C843.0625,208.4844 842.7813,208.3438 842.4844,208.3438 C842.1875,208.3438 841.9844,208.4375 841.7656,208.75 L841.5938,208.6719 Z " fill="#000000"/><text fill="#000000" font-family="sans-serif" font-size="14" lengthAdjust="spacing" textLength="42" x="859.75" y="217.8467">RectangleBoard</text><line style="stroke:#181818;stroke-width:0.5;" x1="745" x2="984" y1="229" y2="229"/><line style="stroke:#181818;stroke-width:0.5;" x1="745" x2="984" y1="237" y2="237"/><text fill="#000000" font-family="sans-serif" font-size="14" lengthAdjust="spacing" textLength="109" x="750" y="253.9951">+addShip(ship)</text><text fill="#000000" font-family="sans-serif" font-size="14" lengthAdjust="spacing" textLength="110" x="750" y="270.292">+allshipCount()</text><text fill="#000000" font-family="sans-serif" font-size="14" lengthAdjust="spacing" textLength="129" x="750" y="286.5889">+deadshipCount()</text><text fill="#000000" font-family="sans-serif" font-size="14" lengthAdjust="spacing" textLength="127" x="750" y="302.8857">+attack(position)</text><text fill="#000000" font-family="sans-serif" font-size="14" lengthAdjust="spacing" textLength="180" x="750" y="319.1826">+withinBorders(position)</text><text fill="#000000" font-family="sans-serif" font-size="14" lengthAdjust="spacing" textLength="229" x="750" y="335.4795">+hasNoShipNeighbour(position)</text></g><!--MD5=[1f9aa183c03a5a4b2c7a355206fc0cf9]
class GUI--><g id="elem_GUI"><rect codeLine="36" fill="#F1F1F1" height="129.4844" id="GUI" rx="2.5" ry="2.5" style="stroke:#181818;stroke-width:0.5;" width="310" x="507.5" y="644"/><ellipse cx="645.75" cy="660" fill="#B4A7E5" rx="11" ry="11" style="stroke:#181818;stroke-width:1.0;"/><path d="M646.7031,656.7813 L648.4219,656.7813 C648.8125,656.7813 649,656.75 649.125,656.6719 C649.3906,656.5156 649.5313,656.2344 649.5313,655.9375 C649.5313,655.6719 649.4219,655.4063 649.1875,655.2344 C649.0156,655.125 648.875,655.0938 648.4219,655.0938 L643.2813,655.0938 C642.8438,655.0938 642.7188,655.1094 642.5625,655.2031 C642.3125,655.3594 642.1563,655.6563 642.1563,655.9375 C642.1563,656.2188 642.2969,656.4688 642.5156,656.6406 C642.6719,656.75 642.8594,656.7813 643.2813,656.7813 L645,656.7813 L645,663.2969 L643.2813,663.2969 C642.8438,663.2969 642.7188,663.3125 642.5625,663.4219 C642.3125,663.5781 642.1563,663.8594 642.1563,664.1563 C642.1563,664.4063 642.2969,664.6719 642.5156,664.8281 C642.6719,664.9531 642.875,665 643.2813,665 L648.4219,665 C649.1719,665 649.5313,664.7188 649.5313,664.1563 C649.5313,663.875 649.4219,663.625 649.1875,663.4531 C649.0156,663.3281 648.875,663.2969 648.4219,663.2969 L646.7031,663.2969 L646.7031,656.7813 Z " fill="#000000"/><text fill="#000000" font-family="sans-serif" font-size="14" font-style="italic" lengthAdjust="spacing" textLength="25" x="666.25" y="664.8467">GUI</text><line style="stroke:#181818;stroke-width:0.5;" x1="508.5" x2="816.5" y1="676" y2="676"/><line style="stroke:#181818;stroke-width:0.5;" x1="508.5" x2="816.5" y1="684" y2="684"/><text fill="#000000" font-family="sans-serif" font-size="14" lengthAdjust="spacing" textLength="230" x="513.5" y="700.9951">+placeShip(Ship::Type, int size)</text><text fill="#000000" font-family="sans-serif" font-size="14" lengthAdjust="spacing" textLength="298" x="513.5" y="717.292">+displayOptions(vector&lt;srting&gt; options)</text><text fill="#000000" font-family="sans-serif" font-size="14" lengthAdjust="spacing" textLength="208" x="513.5" y="733.5889">+displayBoard(RectangleBoard, isMine)</text><text fill="#000000" font-family="sans-serif" font-size="14" lengthAdjust="spacing" textLength="255" x="513.5" y="749.8857">+getAttack(player, attackedBoard)</text><text fill="#000000" font-family="sans-serif" font-size="14" lengthAdjust="spacing" textLength="160" x="513.5" y="766.1826">+displayPlayer(player)</text></g><!--MD5=[99b3cce71a8301bb50cf9d5850455732]
class PlayerFactory--><g id="elem_PlayerFactory"><rect codeLine="57" fill="#F1F1F1" height="64.2969" id="PlayerFactory" rx="2.5" ry="2.5" style="stroke:#181818;stroke-width:0.5;" width="212" x="402.5" y="470.5"/><ellipse cx="455.25" cy="486.5" fill="#ADD1B2" rx="11" ry="11" style="stroke:#181818;stroke-width:1.0;"/><path d="M457.5938,482.1719 C456.6563,481.7344 456.0625,481.5938 455.1875,481.5938 C452.5625,481.5938 450.5625,483.6719 450.5625,486.3906 L450.5625,487.5156 C450.5625,490.0938 452.6719,491.9844 455.5625,491.9844 C456.7813,491.9844 457.9375,491.6875 458.6875,491.1406 C459.2656,490.7344 459.5938,490.2813 459.5938,489.8906 C459.5938,489.4375 459.2031,489.0469 458.7344,489.0469 C458.5156,489.0469 458.3125,489.125 458.125,489.3125 C457.6719,489.7969 457.6719,489.7969 457.4844,489.8906 C457.0625,490.1563 456.375,490.2813 455.6094,490.2813 C453.5625,490.2813 452.2656,489.1875 452.2656,487.4844 L452.2656,486.3906 C452.2656,484.6094 453.5156,483.2969 455.25,483.2969 C455.8281,483.2969 456.4375,483.4531 456.9063,483.7031 C457.3906,483.9844 457.5625,484.2031 457.6563,484.6094 C457.7188,485.0156 457.75,485.1406 457.8906,485.2656 C458.0313,485.4063 458.2656,485.5156 458.4844,485.5156 C458.75,485.5156 459.0156,485.375 459.1875,485.1563 C459.2969,485 459.3281,484.8125 459.3281,484.3906 L459.3281,482.9688 C459.3281,482.5313 459.3125,482.4063 459.2188,482.25 C459.0625,481.9844 458.7813,481.8438 458.4844,481.8438 C458.1875,481.8438 457.9844,481.9375 457.7656,482.25 L457.5938,482.1719 Z " fill="#000000"/><text fill="#000000" font-family="sans-serif" font-size="14" lengthAdjust="spacing" textLength="98" x="475.75" y="491.3467">PlayerFactory</text><line style="stroke:#181818;stroke-width:0.5;" x1="403.5" x2="613.5" y1="502.5" y2="502.5"/><line style="stroke:#181818;stroke-width:0.5;" x1="403.5" x2="613.5" y1="510.5" y2="510.5"/><text fill="#000000" font-family="sans-serif" font-size="14" lengthAdjust="spacing" textLength="200" x="408.5" y="527.4951">+constructPlayer(type, GUI)</text></g><!--MD5=[4169d93317949af6222a3b50cb167243]
class SimpleShip--><g id="elem_SimpleShip"><rect codeLine="77" fill="#F1F1F1" height="48" id="SimpleShip" rx="2.5" ry="2.5" style="stroke:#181818;stroke-width:0.5;" width="114" x="1192.5" y="684.5"/><ellipse cx="1207.5" cy="700.5" fill="#ADD1B2" rx="11" ry="11" style="stroke:#181818;stroke-width:1.0;"/><path d="M1209.8438,696.1719 C1208.9063,695.7344 1208.3125,695.5938 1207.4375,695.5938 C1204.8125,695.5938 1202.8125,697.6719 1202.8125,700.3906 L1202.8125,701.5156 C1202.8125,704.0938 1204.9219,705.9844 1207.8125,705.9844 C1209.0313,705.9844 1210.1875,705.6875 1210.9375,705.1406 C1211.5156,704.7344 1211.8438,704.2813 1211.8438,703.8906 C1211.8438,703.4375 1211.4531,703.0469 1210.9844,703.0469 C1210.7656,703.0469 1210.5625,703.125 1210.375,703.3125 C1209.9219,703.7969 1209.9219,703.7969 1209.7344,703.8906 C1209.3125,704.1563 1208.625,704.2813 1207.8594,704.2813 C1205.8125,704.2813 1204.5156,703.1875 1204.5156,701.4844 L1204.5156,700.3906 C1204.5156,698.6094 1205.7656,697.2969 1207.5,697.2969 C1208.0781,697.2969 1208.6875,697.4531 1209.1563,697.7031 C1209.6406,697.9844 1209.8125,698.2031 1209.9063,698.6094 C1209.9688,699.0156 1210,699.1406 1210.1406,699.2656 C1210.2813,699.4063 1210.5156,699.5156 1210.7344,699.5156 C1211,699.5156 1211.2656,699.375 1211.4375,699.1563 C1211.5469,699 1211.5781,698.8125 1211.5781,698.3906 L1211.5781,696.9688 C1211.5781,696.5313 1211.5625,696.4063 1211.4688,696.25 C1211.3125,695.9844 1211.0313,695.8438 1210.7344,695.8438 C1210.4375,695.8438 1210.2344,695.9375 1210.0156,696.25 L1209.8438,696.1719 Z " fill="#000000"/><text fill="#000000" font-family="sans-serif" font-size="14" lengthAdjust="spacing" textLength="82" x="1221.5" y="705.3467">SimpleShip</text><line style="stroke:#181818;stroke-width:0.5;" x1="1193.5" x2="1305.5" y1="716.5" y2="716.5"/><line style="stroke:#181818;stroke-width:0.5;" x1="1193.5" x2="1305.5" y1="724.5" y2="724.5"/></g><!--MD5=[a64a835c3d62471a77f615251fdde58a]
class Position--><g id="elem_Position"><rect codeLine="79" fill="#F1F1F1" height="113.1875" id="Position" rx="2.5" ry="2.5" style="stroke:#181818;stroke-width:0.5;" width="183" x="1190" y="446"/><ellipse cx="1248.25" cy="462" fill="#ADD1B2" rx="11" ry="11" style="stroke:#181818;stroke-width:1.0;"/><path d="M1250.5938,457.6719 C1249.6563,457.2344 1249.0625,457.0938 1248.1875,457.0938 C1245.5625,457.0938 1243.5625,459.1719 1243.5625,461.8906 L1243.5625,463.0156 C1243.5625,465.5938 1245.6719,467.4844 1248.5625,467.4844 C1249.7813,467.4844 1250.9375,467.1875 1251.6875,466.6406 C1252.2656,466.2344 1252.5938,465.7813 1252.5938,465.3906 C1252.5938,464.9375 1252.2031,464.5469 1251.7344,464.5469 C1251.5156,464.5469 1251.3125,464.625 1251.125,464.8125 C1250.6719,465.2969 1250.6719,465.2969 1250.4844,465.3906 C1250.0625,465.6563 1249.375,465.7813 1248.6094,465.7813 C1246.5625,465.7813 1245.2656,464.6875 1245.2656,462.9844 L1245.2656,461.8906 C1245.2656,460.1094 1246.5156,458.7969 1248.25,458.7969 C1248.8281,458.7969 1249.4375,458.9531 1249.9063,459.2031 C1250.3906,459.4844 1250.5625,459.7031 1250.6563,460.1094 C1250.7188,460.5156 1250.75,460.6406 1250.8906,460.7656 C1251.0313,460.9063 1251.2656,461.0156 1251.4844,461.0156 C1251.75,461.0156 1252.0156,460.875 1252.1875,460.6563 C1252.2969,460.5 1252.3281,460.3125 1252.3281,459.8906 L1252.3281,458.4688 C1252.3281,458.0313 1252.3125,457.9063 1252.2188,457.75 C1252.0625,457.4844 1251.7813,457.3438 1251.4844,457.3438 C1251.1875,457.3438 1250.9844,457.4375 1250.7656,457.75 L1250.5938,457.6719 Z " fill="#000000"/><text fill="#000000" font-family="sans-serif" font-size="14" lengthAdjust="spacing" textLength="58" x="1268.75" y="466.8467">Position</text><line style="stroke:#181818;stroke-width:0.5;" x1="1191" x2="1372" y1="478" y2="478"/><text fill="#000000" font-family="sans-serif" font-size="14" lengthAdjust="spacing" textLength="32" x="1196" y="494.9951">int x</text><text fill="#000000" font-family="sans-serif" font-size="14" lengthAdjust="spacing" textLength="32" x="1196" y="511.292">int y</text><text fill="#000000" font-family="sans-serif" font-size="14" lengthAdjust="spacing" textLength="171" x="1196" y="527.5889">+// some usual methods</text><text fill="#000000" font-family="sans-serif" font-size="14" lengthAdjust="spacing" textLength="166" x="1196" y="543.8857">for points on the plane</text><line style="stroke:#181818;stroke-width:0.5;" x1="1191" x2="1372" y1="551.1875" y2="551.1875"/></g><!--MD5=[b91eb240017d254ef80a7cb85a26e06e]
class GlobalSettings--><g id="elem_GlobalSettings"><rect codeLine="85" fill="#F1F1F1" height="129.4844" id="GlobalSettings" rx="2.5" ry="2.5" style="stroke:#181818;stroke-width:0.5;" width="165" x="510" y="834"/><ellipse cx="536.7" cy="850" fill="#ADD1B2" rx="11" ry="11" style="stroke:#181818;stroke-width:1.0;"/><path d="M539.0438,845.6719 C538.1063,845.2344 537.5125,845.0938 536.6375,845.0938 C534.0125,845.0938 532.0125,847.1719 532.0125,849.8906 L532.0125,851.0156 C532.0125,853.5938 534.1219,855.4844 537.0125,855.4844 C538.2313,855.4844 539.3875,855.1875 540.1375,854.6406 C540.7156,854.2344 541.0438,853.7813 541.0438,853.3906 C541.0438,852.9375 540.6531,852.5469 540.1844,852.5469 C539.9656,852.5469 539.7625,852.625 539.575,852.8125 C539.1219,853.2969 539.1219,853.2969 538.9344,853.3906 C538.5125,853.6563 537.825,853.7813 537.0594,853.7813 C535.0125,853.7813 533.7156,852.6875 533.7156,850.9844 L533.7156,849.8906 C533.7156,848.1094 534.9656,846.7969 536.7,846.7969 C537.2781,846.7969 537.8875,846.9531 538.3563,847.2031 C538.8406,847.4844 539.0125,847.7031 539.1063,848.1094 C539.1688,848.5156 539.2,848.6406 539.3406,848.7656 C539.4813,848.9063 539.7156,849.0156 539.9344,849.0156 C540.2,849.0156 540.4656,848.875 540.6375,848.6563 C540.7469,848.5 540.7781,848.3125 540.7781,847.8906 L540.7781,846.4688 C540.7781,846.0313 540.7625,845.9063 540.6688,845.75 C540.5125,845.4844 540.2313,845.3438 539.9344,845.3438 C539.6375,845.3438 539.4344,845.4375 539.2156,845.75 L539.0438,845.6719 Z " fill="#000000"/><text fill="#000000" font-family="sans-serif" font-size="14" lengthAdjust="spacing" textLength="107" x="553.3" y="854.8467">GlobalSettings</text><line style="stroke:#181818;stroke-width:0.5;" x1="511" x2="674" y1="866" y2="866"/><text fill="#000000" font-family="sans-serif" font-size="14" lengthAdjust="spacing" textLength="85" x="516" y="882.9951">boardWidth</text><text fill="#000000" font-family="sans-serif" font-size="14" lengthAdjust="spacing" textLength="90" x="516" y="899.292">boardHeight</text><text fill="#000000" font-family="sans-serif" font-size="14" lengthAdjust="spacing" textLength="94" x="516" y="915.5889">shipsNumber</text><text fill="#000000" font-family="sans-serif" font-size="14" lengthAdjust="spacing" textLength="153" x="516" y="931.8857">vector&lt;int&gt; shipSize</text><text fill="#000000" font-family="sans-serif" font-size="14" lengthAdjust="spacing" textLength="102" x="516" y="948.1826">playerNumber</text><line style="stroke:#181818;stroke-width:0.5;" x1="511" x2="674" y1="955.4844" y2="955.4844"/></g><!--MD5=[b5e3703c1b7ac92ae87beff8caa0eb04]
class BoardBuilder--><g id="elem_BoardBuilder"><rect codeLine="92" fill="#F1F1F1" height="80.5938" id="BoardBuilder" rx="2.5" ry="2.5" style="stroke:#181818;stroke-width:0.5;" width="192" x="791.5" y="462"/><ellipse cx="837.25" cy="478" fill="#ADD1B2" rx="11" ry="11" style="stroke:#181818;stroke-width:1.0;"/><path d="M839.5938,473.6719 C838.6563,473.2344 838.0625,473.0938 837.1875,473.0938 C834.5625,473.0938 832.5625,475.1719 832.5625,477.8906 L832.5625,479.0156 C832.5625,481.5938 834.6719,483.4844 837.5625,483.4844 C838.7813,483.4844 839.9375,483.1875 840.6875,482.6406 C841.2656,482.2344 841.5938,481.7813 841.5938,481.3906 C841.5938,480.9375 841.2031,480.5469 840.7344,480.5469 C840.5156,480.5469 840.3125,480.625 840.125,480.8125 C839.6719,481.2969 839.6719,481.2969 839.4844,481.3906 C839.0625,481.6563 838.375,481.7813 837.6094,481.7813 C835.5625,481.7813 834.2656,480.6875 834.2656,478.9844 L834.2656,477.8906 C834.2656,476.1094 835.5156,474.7969 837.25,474.7969 C837.8281,474.7969 838.4375,474.9531 838.9063,475.2031 C839.3906,475.4844 839.5625,475.7031 839.6563,476.1094 C839.7188,476.5156 839.75,476.6406 839.8906,476.7656 C840.0313,476.9063 840.2656,477.0156 840.4844,477.0156 C840.75,477.0156 841.0156,476.875 841.1875,476.6563 C841.2969,476.5 841.3281,476.3125 841.3281,475.8906 L841.3281,474.4688 C841.3281,474.0313 841.3125,473.9063 841.2188,473.75 C841.0625,473.4844 840.7813,473.3438 840.4844,473.3438 C840.1875,473.3438 839.9844,473.4375 839.7656,473.75 L839.5938,473.6719 Z " fill="#000000"/><text fill="#000000" font-family="sans-serif" font-size="14" lengthAdjust="spacing" textLength="92" x="857.75" y="482.8467">BoardBuilder</text><line style="stroke:#181818;stroke-width:0.5;" x1="792.5" x2="982.5" y1="494" y2="494"/><line style="stroke:#181818;stroke-width:0.5;" x1="792.5" x2="982.5" y1="502" y2="502"/><text fill="#000000" font-family="sans-serif" font-size="14" lengthAdjust="spacing" textLength="180" x="797.5" y="518.9951">+constructEmptyBoard()</text><text fill="#000000" font-family="sans-serif" font-size="14" lengthAdjust="spacing" textLength="120" x="797.5" y="535.292">+fillShips(RectangleBoard)</text></g><!--MD5=[fa40eb9cc7d547f8e0b28e98ae456c2b]
class ShipFactory--><g id="elem_ShipFactory"><rect codeLine="96" fill="#F1F1F1" height="64.2969" id="ShipFactory" rx="2.5" ry="2.5" style="stroke:#181818;stroke-width:0.5;" width="324" x="1341.5" y="676.5"/><ellipse cx="1456.25" cy="692.5" fill="#ADD1B2" rx="11" ry="11" style="stroke:#181818;stroke-width:1.0;"/><path d="M1458.5938,688.1719 C1457.6563,687.7344 1457.0625,687.5938 1456.1875,687.5938 C1453.5625,687.5938 1451.5625,689.6719 1451.5625,692.3906 L1451.5625,693.5156 C1451.5625,696.0938 1453.6719,697.9844 1456.5625,697.9844 C1457.7813,697.9844 1458.9375,697.6875 1459.6875,697.1406 C1460.2656,696.7344 1460.5938,696.2813 1460.5938,695.8906 C1460.5938,695.4375 1460.2031,695.0469 1459.7344,695.0469 C1459.5156,695.0469 1459.3125,695.125 1459.125,695.3125 C1458.6719,695.7969 1458.6719,695.7969 1458.4844,695.8906 C1458.0625,696.1563 1457.375,696.2813 1456.6094,696.2813 C1454.5625,696.2813 1453.2656,695.1875 1453.2656,693.4844 L1453.2656,692.3906 C1453.2656,690.6094 1454.5156,689.2969 1456.25,689.2969 C1456.8281,689.2969 1457.4375,689.4531 1457.9063,689.7031 C1458.3906,689.9844 1458.5625,690.2031 1458.6563,690.6094 C1458.7188,691.0156 1458.75,691.1406 1458.8906,691.2656 C1459.0313,691.4063 1459.2656,691.5156 1459.4844,691.5156 C1459.75,691.5156 1460.0156,691.375 1460.1875,691.1563 C1460.2969,691 1460.3281,690.8125 1460.3281,690.3906 L1460.3281,688.9688 C1460.3281,688.5313 1460.3125,688.4063 1460.2188,688.25 C1460.0625,687.9844 1459.7813,687.8438 1459.4844,687.8438 C1459.1875,687.8438 1458.9844,687.9375 1458.7656,688.25 L1458.5938,688.1719 Z " fill="#000000"/><text fill="#000000" font-family="sans-serif" font-size="14" lengthAdjust="spacing" textLength="86" x="1476.75" y="697.3467">ShipFactory</text><line style="stroke:#181818;stroke-width:0.5;" x1="1342.5" x2="1664.5" y1="708.5" y2="708.5"/><line style="stroke:#181818;stroke-width:0.5;" x1="1342.5" x2="1664.5" y1="716.5" y2="716.5"/><text fill="#000000" font-family="sans-serif" font-size="14" lengthAdjust="spacing" textLength="312" x="1347.5" y="733.4951">+constructShip(Player, Ship::Type, int size)</text></g><!--MD5=[317012368e33d1c6a5d06ed6cafea940]
class PlayerSettings--><g id="elem_PlayerSettings"><rect codeLine="99" fill="#F1F1F1" height="48" id="PlayerSettings" rx="2.5" ry="2.5" style="stroke:#181818;stroke-width:0.5;" width="137" x="1358" y="1024"/><ellipse cx="1373" cy="1040" fill="#ADD1B2" rx="11" ry="11" style="stroke:#181818;stroke-width:1.0;"/><path d="M1375.3438,1035.6719 C1374.4063,1035.2344 1373.8125,1035.0938 1372.9375,1035.0938 C1370.3125,1035.0938 1368.3125,1037.1719 1368.3125,1039.8906 L1368.3125,1041.0156 C1368.3125,1043.5938 1370.4219,1045.4844 1373.3125,1045.4844 C1374.5313,1045.4844 1375.6875,1045.1875 1376.4375,1044.6406 C1377.0156,1044.2344 1377.3438,1043.7813 1377.3438,1043.3906 C1377.3438,1042.9375 1376.9531,1042.5469 1376.4844,1042.5469 C1376.2656,1042.5469 1376.0625,1042.625 1375.875,1042.8125 C1375.4219,1043.2969 1375.4219,1043.2969 1375.2344,1043.3906 C1374.8125,1043.6563 1374.125,1043.7813 1373.3594,1043.7813 C1371.3125,1043.7813 1370.0156,1042.6875 1370.0156,1040.9844 L1370.0156,1039.8906 C1370.0156,1038.1094 1371.2656,1036.7969 1373,1036.7969 C1373.5781,1036.7969 1374.1875,1036.9531 1374.6563,1037.2031 C1375.1406,1037.4844 1375.3125,1037.7031 1375.4063,1038.1094 C1375.4688,1038.5156 1375.5,1038.6406 1375.6406,1038.7656 C1375.7813,1038.9063 1376.0156,1039.0156 1376.2344,1039.0156 C1376.5,1039.0156 1376.7656,1038.875 1376.9375,1038.6563 C1377.0469,1038.5 1377.0781,1038.3125 1377.0781,1037.8906 L1377.0781,1036.4688 C1377.0781,1036.0313 1377.0625,1035.9063 1376.9688,1035.75 C1376.8125,1035.4844 1376.5313,1035.3438 1376.2344,1035.3438 C1375.9375,1035.3438 1375.7344,1035.4375 1375.5156,1035.75 L1375.3438,1035.6719 Z " fill="#000000"/><text fill="#000000" font-family="sans-serif" font-size="14" lengthAdjust="spacing" textLength="105" x="1387" y="1044.8467">PlayerSettings</text><line style="stroke:#181818;stroke-width:0.5;" x1="1359" x2="1494" y1="1056" y2="1056"/><line style="stroke:#181818;stroke-width:0.5;" x1="1359" x2="1494" y1="1064" y2="1064"/></g><g id="elem_GMN1338309"><path d="M852.5,696 L852.5,721.1328 A0,0 0 0 0 852.5,721.1328 L912.5,721.1328 L916.5,874.489 L920.5,721.1328 L980.5,721.1328 A0,0 0 0 0 980.5,721.1328 L980.5,706 L970.5,696 L852.5,696 A0,0 0 0 0 852.5,696 " fill="#FEFFDD" style="stroke:#181818;stroke-width:0.5;"/><path d="M970.5,696 L970.5,706 L980.5,706 L970.5,696 " fill="#FEFFDD" style="stroke:#181818;stroke-width:0.5;"/><text fill="#000000" font-family="sans-serif" font-size="13" lengthAdjust="spacing" textLength="107" x="858.5" y="713.0669">Wait next patch!</text></g><!--MD5=[28d454eb6a802a996292f7513fb5940d]
reverse link GameMaster to GUI--><g id="link_GameMaster_GUI"><path codeLine="101" d="M666.965,133.284 C665.991,258.535 663.942,522.074 662.997,643.615 " fill="none" id="GameMaster-backto-GUI" style="stroke:#181818;stroke-width:1.0;"/><polygon fill="none" points="667.067,120.157,663.021,126.1261,666.9747,132.1566,671.0207,126.1876,667.067,120.157" style="stroke:#181818;stroke-width:1.0;"/><text fill="#000000" font-family="sans-serif" font-size="13" lengthAdjust="spacing" textLength="8" x="658.499" y="140.4405">1</text><text fill="#000000" font-family="sans-serif" font-size="13" lengthAdjust="spacing" textLength="8" x="654.6139" y="632.7456">1</text></g><!--MD5=[bb300298e8a61e0a01e869eec431cab4]
reverse link GameMaster to Player--><g id="link_GameMaster_Player"><path codeLine="102" d="M618.814,130.876 C601.254,154.815 581.491,181.759 564.113,205.45 " fill="none" id="GameMaster-backto-Player" style="stroke:#181818;stroke-width:1.0;"/><polygon fill="#181818" points="626.71,120.11,619.936,122.5825,619.613,129.7864,626.3869,127.3139,626.71,120.11" style="stroke:#181818;stroke-width:1.0;"/><text fill="#000000" font-family="sans-serif" font-size="13" lengthAdjust="spacing" textLength="8" x="612.9713" y="140.3875">1</text><text fill="#000000" font-family="sans-serif" font-size="13" lengthAdjust="spacing" textLength="23" x="544.9535" y="194.6172">2..*</text></g><!--MD5=[f2d4d79643b633444e425b34f363d4d9]
reverse link GUI to ExternalGUI--><g id="link_GUI_ExternalGUI"><path codeLine="103" d="M773.451,784.909 C795.9,800.778 819.156,817.666 840.5,834 C857.295,846.852 875.496,862.013 889.874,874.298 " fill="none" id="GUI-backto-ExternalGUI" style="stroke:#181818;stroke-width:1.0;stroke-dasharray:7.0,7.0;"/><polygon fill="none" points="769.234,790.501,756.889,773.28,777.279,779.044,769.234,790.501" style="stroke:#181818;stroke-width:1.0;"/></g><!--MD5=[ae32ba4e3fd3e91211cc38c3e013834a]
reverse link GUI to ConsoleGUI--><g id="link_GUI_ConsoleGUI"><path codeLine="104" d="M707.448,790.752 C724.278,821.176 742.112,853.414 753.722,874.4 " fill="none" id="GUI-backto-ConsoleGUI" style="stroke:#181818;stroke-width:1.0;stroke-dasharray:7.0,7.0;"/><polygon fill="none" points="701.266,794.037,697.71,773.148,713.516,787.26,701.266,794.037" style="stroke:#181818;stroke-width:1.0;"/></g><!--MD5=[480206b57360204782f62575e8914631]
reverse link Player to HumanPlayer--><g id="link_Player_HumanPlayer"><path codeLine="105" d="M444.27,349.494 C424.808,370.422 403.827,393.041 384.5,414 C364.407,435.789 341.606,460.751 325.501,478.422 " fill="none" id="Player-backto-HumanPlayer" style="stroke:#181818;stroke-width:1.0;stroke-dasharray:7.0,7.0;"/><polygon fill="none" points="439.378,344.476,458.128,334.603,449.627,354.013,439.378,344.476" style="stroke:#181818;stroke-width:1.0;"/></g><!--MD5=[de54c74c5a0f03a0d64afa4047f4dca6]
reverse link Player to Bot--><g id="link_Player_Bot"><path codeLine="106" d="M409.864,304.707 C349.637,327.844 276.455,363.579 224.5,414 C206.026,431.929 193.408,458.888 186.127,478.14 " fill="none" id="Player-backto-Bot" style="stroke:#181818;stroke-width:1.0;stroke-dasharray:7.0,7.0;"/><polygon fill="none" points="407.733,298.031,428.919,297.635,412.605,311.156,407.733,298.031" style="stroke:#181818;stroke-width:1.0;"/></g><!--MD5=[3e865060eddfa552f670815102faedfc]
reverse link Bot to EasyBot--><g id="link_Bot_EasyBot"><path codeLine="107" d="M178.5,546.628 C178.5,588.618 178.5,650.847 178.5,684.266 " fill="none" id="Bot-backto-EasyBot" style="stroke:#181818;stroke-width:1.0;stroke-dasharray:7.0,7.0;"/><polygon fill="none" points="171.5,546.505,178.5,526.505,185.5,546.505,171.5,546.505" style="stroke:#181818;stroke-width:1.0;"/></g><!--MD5=[527a55b87bef3e205bba2537cc1820bb]
reverse link Bot to MediumBot--><g id="link_Bot_MediumBot"><path codeLine="108" d="M205.162,543.2 C233.342,585.163 276.834,649.925 299.897,684.266 " fill="none" id="Bot-backto-MediumBot" style="stroke:#181818;stroke-width:1.0;stroke-dasharray:7.0,7.0;"/><polygon fill="none" points="199.288,547.011,193.949,526.505,210.911,539.206,199.288,547.011" style="stroke:#181818;stroke-width:1.0;"/></g><!--MD5=[b9b867cf9a8f5717546379e67ea690f4]
reverse link Bot to HardBot--><g id="link_Bot_HardBot"><path codeLine="109" d="M153.63,543.765 C127.704,585.741 87.966,650.078 66.8503,684.266 " fill="none" id="Bot-backto-HardBot" style="stroke:#181818;stroke-width:1.0;stroke-dasharray:7.0,7.0;"/><polygon fill="none" points="147.826,539.842,164.291,526.505,159.737,547.199,147.826,539.842" style="stroke:#181818;stroke-width:1.0;"/></g><!--MD5=[29a0f2eda7f0a7f4679317b1c5543e55]
reverse link Ship to SimpleShip--><g id="link_Ship_SimpleShip"><path codeLine="110" d="M1153.43,583.456 C1181.39,619.563 1212.35,659.54 1231.37,684.097 " fill="none" id="Ship-backto-SimpleShip" style="stroke:#181818;stroke-width:1.0;stroke-dasharray:7.0,7.0;"/><polygon fill="none" points="1147.55,587.306,1140.84,567.208,1158.62,578.733,1147.55,587.306" style="stroke:#181818;stroke-width:1.0;"/></g><!--MD5=[4c47dfb9d4ba9e03169fd2fa2e83336c]
reverse link Player to RectangleBoard--><g id="link_Player_Board"><path codeLine="111" d="M618.922,310.026 C660.603,319.682 702.284,320.962 743.965,313.867 " fill="none" id="Player-backto-RectangleBoard" style="stroke:#181818;stroke-width:1.0;"/><polygon fill="#181818" points="606.283,306.842,611.1235,312.1871,617.9191,309.7748,613.0786,304.4297,606.283,306.842" style="stroke:#181818;stroke-width:1.0;"/><text fill="#000000" font-family="sans-serif" font-size="13" lengthAdjust="spacing" textLength="8" x="613.9666" y="306.3242">1</text><text fill="#000000" font-family="sans-serif" font-size="13" lengthAdjust="spacing" textLength="8" x="727.987" y="313.2749">1</text></g><!--MD5=[c1f7e88598f78d9459764ed93737eb14]
link Player to RectangleBoard--><!--MD5=[5778a4432fb065f83ccf0aa932a03c78]
reverse link RectangleBoard to Cell--><g id="link_Board_Cell"><path codeLine="112" d="M802.313,354.155 C763.329,417.244 728.275,503.632 773.5,567 C834.655,652.689 903.901,595.816 997.5,644 C1003.49,647.084 1009.53,650.534 1015.49,654.189 " fill="none" id="RectangleBoard-backto-Cell" style="stroke:#181818;stroke-width:1.0;"/><polygon fill="#181818" points="809.361,343.053,802.7682,345.9745,802.9293,353.1838,809.5221,350.2623,809.361,343.053" style="stroke:#181818;stroke-width:1.0;"/><text fill="#000000" font-family="sans-serif" font-size="13" lengthAdjust="spacing" textLength="8" x="795.7243" y="362.8144">1</text><text fill="#000000" font-family="sans-serif" font-size="13" lengthAdjust="spacing" textLength="23" x="984.6258" y="645.3619">1..*</text></g><!--MD5=[a28d51ba30d9767a73544c25a0e18962]
reverse link RectangleBoard to Ship--><g id="link_Board_Ship"><path codeLine="113" d="M961.896,351.79 C975.22,363.898 988.44,376.517 1000.5,389 C1015.16,404.176 1030,421.506 1043.32,437.941 " fill="none" id="RectangleBoard-backto-Ship" style="stroke:#181818;stroke-width:1.0;"/><polygon fill="#181818" points="952.197,343.072,953.9856,350.0578,961.1219,351.0936,959.3333,344.1078,952.197,343.072" style="stroke:#181818;stroke-width:1.0;"/><text fill="#000000" font-family="sans-serif" font-size="13" lengthAdjust="spacing" textLength="8" x="952.1744" y="362.8352">1</text><text fill="#000000" font-family="sans-serif" font-size="13" lengthAdjust="spacing" textLength="23" x="1013.7925" y="427.1072">0..*</text></g><!--MD5=[85cec48ed96ba00b0ecf8ae9eb6f40e3]
reverse link GlobalSettings to PlayerSettings--><g id="link_GlobalSettings_PlayerSettings"><path codeLine="114" d="M687.151,960.624 C689.266,961.463 691.384,962.257 693.5,963 C815.338,1005.7811 1199.94,1033.2797 1357.83,1043.0311 " fill="none" id="GlobalSettings-backto-PlayerSettings" style="stroke:#181818;stroke-width:1.0;"/><polygon fill="#181818" points="675.086,955.365,678.988,961.4292,686.0865,960.1597,682.1845,954.0955,675.086,955.365" style="stroke:#181818;stroke-width:1.0;"/><text fill="#000000" font-family="sans-serif" font-size="13" lengthAdjust="spacing" textLength="8" x="683.0681" y="956.9665">1</text><text fill="#000000" font-family="sans-serif" font-size="13" lengthAdjust="spacing" textLength="23" x="1326.9383" y="1038.8771">2..*</text></g><!--MD5=[d87efe38288fbc3a4bdf6f747e15e403]
reverse link RectangleBoard to Position--><g id="link_Board_Position"><path codeLine="115" d="M989.92,320.63 C1047.57,345.536 1115.79,378.048 1173.5,414 C1188.55,423.379 1203.87,434.585 1218.05,445.796 " fill="none" id="RectangleBoard-backto-Position" style="stroke:#181818;stroke-width:1.0;"/><polygon fill="#181818" points="985.09,318.548,991.7817,325.7744,989.6844,320.5207,994.9381,318.4233,985.09,318.548" style="stroke:#181818;stroke-width:1.0;"/></g><!--MD5=[1063f72232851200cace721b4cd19b4a]
reverse link RectangleBoard to BoardBuilder--><g id="link_Board_BoardBuilder"><path codeLine="116" d="M872.223,348.395 C876.027,386.52 880.451,430.862 883.557,461.983 " fill="none" id="RectangleBoard-backto-BoardBuilder" style="stroke:#181818;stroke-width:1.0;"/><polygon fill="#181818" points="871.714,343.299,868.6259,352.6512,872.2097,348.2744,876.5865,351.8581,871.714,343.299" style="stroke:#181818;stroke-width:1.0;"/><text fill="#000000" font-family="sans-serif" font-size="13" lengthAdjust="spacing" textLength="113" x="878.5" y="402.0669">build and fill ships</text></g><!--MD5=[9c7697f8a36d1261383f2af2d21ad7fa]
reverse link GUI to GlobalSettings--><g id="link_GUI_GlobalSettings"><path codeLine="117" d="M636.904,778.243 C630.128,796.442 622.844,816.005 616.174,833.917 " fill="none" id="GUI-backto-GlobalSettings" style="stroke:#181818;stroke-width:1.0;"/><polygon fill="#181818" points="638.801,773.148,631.9106,780.1852,637.0554,777.8334,639.4072,782.9782,638.801,773.148" style="stroke:#181818;stroke-width:1.0;"/></g><!--MD5=[2cee1565d83da703529921af57a69551]
reverse link Player to PlayerFactory--><g id="link_Player_PlayerFactory"><path codeLine="119" d="M514.813,339.82 C513.123,383.109 511.023,436.891 509.722,470.209 " fill="none" id="Player-backto-PlayerFactory" style="stroke:#181818;stroke-width:1.0;"/><polygon fill="#181818" points="515.017,334.595,510.6677,343.4315,514.8213,339.5912,518.6616,343.7447,515.017,334.595" style="stroke:#181818;stroke-width:1.0;"/></g><!--MD5=[9de54e7e2112e6b4699c648ffc44b347]
link Ship to Cell--><g id="link_Ship_Cell"><path codeLine="120" d="M1089.81,572.34 C1089.22,596.408 1088.57,623.239 1087.99,646.612 " fill="none" id="Ship-Cell" style="stroke:#181818;stroke-width:1.0;"/><polygon fill="#181818" points="1087.86,651.853,1092.0773,642.9528,1087.9814,646.8545,1084.0797,642.7585,1087.86,651.853" style="stroke:#181818;stroke-width:1.0;"/><polygon fill="#181818" points="1089.94,567.208,1085.7201,576.107,1089.8172,572.2065,1093.7177,576.3035,1089.94,567.208" style="stroke:#181818;stroke-width:1.0;"/></g><!--MD5=[3d147b1398d871e10e7161957a094768]
reverse link Ship to ShipFactory--><g id="link_Ship_ShipFactory"><path codeLine="121" d="M1157.99,557.786 C1162.81,561.043 1167.67,564.149 1172.5,567 C1249.79,612.61 1344.64,651.299 1412.97,676.458 " fill="none" id="Ship-backto-ShipFactory" style="stroke:#181818;stroke-width:1.0;"/><polygon fill="#181818" points="1153.58,554.756,1158.7357,563.1476,1157.702,557.586,1163.2637,556.5523,1153.58,554.756" style="stroke:#181818;stroke-width:1.0;"/><text fill="#000000" font-family="sans-serif" font-size="13" lengthAdjust="spacing" textLength="60" x="1260.5" y="610.0669">construct</text></g><!--MD5=[eca4a39b84e95c8217c6758f3273e56a]
link HumanPlayer to GUI--><g id="link_HumanPlayer_GUI"><path codeLine="122" d="M334.878,530.01 C349.384,542.033 367.3,555.989 384.5,567 C426.551,593.92 474.431,619.697 518.465,641.655 " fill="none" id="HumanPlayer-GUI" style="stroke:#181818;stroke-width:1.0;"/><polygon fill="#181818" points="522.988,643.904,516.7095,636.3158,518.5107,641.6782,513.1483,643.4794,522.988,643.904" style="stroke:#181818;stroke-width:1.0;"/><polygon fill="#181818" points="330.88,526.675,335.2294,535.5115,334.7197,529.8776,340.3535,529.3679,330.88,526.675" style="stroke:#181818;stroke-width:1.0;"/></g><!--MD5=[75334ec5b54e77a6d93fd5b0beba107b]
link GameMaster to MenuDisplayer--><g id="link_GameMaster_MenuDisplayer"><path codeLine="123" d="M737.532,83.099 C863.542,116.566 1130.73,187.527 1296.12,231.451 " fill="none" id="GameMaster-to-MenuDisplayer" style="stroke:#181818;stroke-width:1.0;"/><polygon fill="#181818" points="1300.98,232.743,1293.3109,226.5636,1296.1481,231.4575,1291.2541,234.2947,1300.98,232.743" style="stroke:#181818;stroke-width:1.0;"/></g><!--MD5=[fa0cd5d078b138e640a6a76673b7b7ac]
link MenuDisplayer to PlayerSettings--><g id="link_MenuDisplayer_PlayerSettings"><path codeLine="124" d="M1574.3,323.721 C1645.76,361.091 1718.5,419.315 1718.5,501.5 C1718.5,501.5 1718.5,501.5 1718.5,899.5 C1718.5,997.0893 1586.95,1030.1249 1500.44,1041.2987 " fill="none" id="MenuDisplayer-to-PlayerSettings" style="stroke:#181818;stroke-width:1.0;"/><polygon fill="#181818" points="1495.33,1041.9408,1504.7614,1044.7778,1500.2903,1041.3123,1503.7558,1036.8412,1495.33,1041.9408" style="stroke:#181818;stroke-width:1.0;"/></g><!--MD5=[f43d370e5d506144d97daf73ae899174]
@startuml
skinparam classAttributeIconSize 0
class GameMaster {
+run()
-openMenu()
-runBattle()
-initializePlayers()
}

class MenuDisplayer {
+startingMenu()
-settingsMenu()
-globalSettingsMenu()
-playerSpecificSettings()
-boardSettings()
-shipSettings()
-playerNumberSettings()
-alterPlayerSettings(playerSettings)
}

interface Player {
+fillBoard()
+getNewShipCells
+attack(Player enemy)
+getName()
+isAlive()
}
class RectangleBoard {
+addShip(ship)
+allshipCount()
+deadshipCount()
+attack(position)
+withinBorders(position)
+hasNoShipNeighbour(position)
}

interface GUI {
+placeShip(Ship::Type, int size)
+displayOptions(vector<srting> options)
+displayBoard(RectangleBoard, isMine)
+getAttack(player, attackedBoard)
+displayPlayer(player)
}
together {
class ConsoleGUI {}
class ExternalGUI {}
}
together {
class HumanPlayer {}
interface Bot {}
}
together {
class EasyBot{}
class MediumBot {}
class HardBot {}
}

class PlayerFactory{
+constructPlayer(type, GUI)
}


together {
class Cell{
+attack()
+getState()
+isFarFromShips()
+isOkToAttack()
}
interface Ship {
+getSize()
+getHP()
+updateState()
+isAlive()
+getCells()
}
}
class SimpleShip {}

class Position {
int x
int y
+// some usual methods
 for points on the plane
}
class GlobalSettings {
boardWidth
boardHeight
shipsNumber
vector<int> shipSize
playerNumber
}
class BoardBuilder{
+constructEmptyBoard()
+fillShips(RectangleBoard)
}
class ShipFactory {
+constructShip(Player, Ship::Type, int size)
}
class PlayerSettings {}
note top of ExternalGUI : Wait next patch!
GameMaster "1" o- - "1" GUI
GameMaster "1" *- - "2..*" Player
GUI <|.. ExternalGUI
GUI <|.. ConsoleGUI
Player <|.. HumanPlayer
Player <|.. Bot
Bot <|.. EasyBot
Bot <|.. MediumBot
Bot <|.. HardBot
Ship <|.. SimpleShip
Player "1" *- - "1" RectangleBoard
RectangleBoard "1" *- - "1..*" Cell
RectangleBoard "1" *- - "0..*" Ship
GlobalSettings "1" *- - "2..*" PlayerSettings
RectangleBoard <- - Position
RectangleBoard <- - BoardBuilder : build and fill ships
GUI <- - GlobalSettings

Player <- - PlayerFactory
Ship <- -> Cell
Ship <- - ShipFactory : construct
HumanPlayer <- -> GUI
GameMaster - -> MenuDisplayer
MenuDisplayer - -> PlayerSettings

Player -[hidden]> RectangleBoard
@enduml

PlantUML version 1.2022.4beta2(Unknown compile time)
(GPL source distribution)
Java Runtime: Java(TM) SE Runtime Environment
JVM: Java HotSpot(TM) 64-Bit Server VM
Default Encoding: UTF-8
Language: en
Country: US
--></g></svg>